<svg width="296" height="281" viewBox="0 0 296 281" fill="none" xmlns="http://www.w3.org/2000/svg">
<path d="M178.398 107.005C178.398 107.005 217.176 47.7892 233.78 55.5404C250.382 63.2916 178.398 107.005 178.398 107.005Z" fill="url(#paint0_linear_236_7062)"/>
<path d="M176.938 116.985C176.938 116.985 260.067 53.5817 287.21 70.4076C314.354 87.2335 266.246 95.6692 248.086 97.3402C229.929 99.0077 176.935 116.985 176.935 116.985H176.938Z" fill="url(#paint1_linear_236_7062)"/>
<path d="M170.644 107.724C170.644 107.724 170.531 105.284 170.324 101.721C169.917 94.7702 169.148 83.5506 168.134 77.8496C166.603 69.2277 172.03 61.5748 181.579 68.4765C191.131 75.3782 172.982 104.709 172.982 104.709L170.64 107.724H170.644Z" fill="url(#paint2_linear_236_7062)"/>
<path d="M-71.0131 105.969C-59.969 90.7514 -33.3523 106.938 -33.3523 106.938C-33.3523 106.938 -25.2008 144.02 -19.8122 146.878C-14.4271 149.735 -20.5915 113.812 -20.5915 113.812C-9.23151 116.919 13.5868 140.966 13.5868 140.966C13.5868 140.966 -1.35042 174.934 4.57533 176.376C10.5011 177.819 16.2654 145.624 16.2654 145.624C25.6595 152.835 30.8516 168.969 30.8516 168.969C35.5627 193.82 3.40981 198.587 3.40981 198.587C3.40981 198.587 -1.51195 210.47 0.668083 227.079C0.668083 227.079 1.37727 230.263 1.43343 235.234L-1.45923 234.135C-1.39955 233.271 -1.37499 232.422 -1.38903 231.593C-1.38903 231.586 -1.38903 231.583 -1.38903 231.579C-1.38903 231.569 -1.38903 231.555 -1.38903 231.544C-1.41712 231.021 -1.45929 230.277 -1.52248 229.368C-1.52248 229.368 -1.52248 229.368 -1.52248 229.364C-1.74715 227.3 -1.85941 225.794 -1.8875 224.73C-1.8875 224.73 -1.8875 224.723 -1.8875 224.72C-2.47025 218.285 -3.59361 209.765 -5.57354 207.315C-5.57354 207.315 -5.08208 206.985 -4.4502 206.223C-4.80827 206.57 -5.18036 206.932 -5.57354 207.315C-14.5534 216.038 -39.9661 208.399 -52.6777 200.329C-65.3893 192.261 -57.9013 190.657 -48.0789 187.168C-38.2565 183.678 -23.3368 191.254 -17.8007 190.527C-12.2646 189.801 -18.0394 184.774 -27.5003 181.986C-36.9576 179.199 -45.0493 186.641 -60.4288 182.411C-75.8119 178.181 -76.507 145.958 -76.507 145.958C-67.4674 153.035 -46.9345 154.369 -44.8844 151.101C-42.8342 147.836 -70.1846 137.841 -74.0216 135.17C-77.8586 132.498 -82.0572 121.191 -71.0131 105.973V105.969Z" fill="url(#paint3_linear_236_7062)"/>
<path d="M2.61278 264.919C2.61278 264.919 -1.39271 278.965 -0.620394 284.423L-15.7893 284.385C-16.1053 281.303 -15.361 277.957 -12.7983 274.527C-12.7983 274.527 -5.04366 266.467 2.61278 264.919Z" fill="url(#paint4_linear_236_7062)"/>
<path d="M60.1502 284.585L2.63739 284.434C4.91571 278.639 5.55113 262.933 5.55113 262.933C5.55113 262.933 26.042 255.294 33.6703 256.747C33.6703 256.747 19.6072 276.248 23.6268 276.115C27.6463 275.985 43.226 256.371 43.226 256.371C43.226 256.371 63.6888 254.493 65.8231 266.713C67.7399 277.684 63.2886 283.223 60.1502 284.582V284.585Z" fill="url(#paint5_linear_236_7062)"/>
<path d="M208.596 285.132L159.319 284.998C160.347 282.818 154.06 278.35 144.957 275.548C133.373 271.982 123.315 281.011 104.467 275.583C85.6227 270.156 85.247 230.533 85.247 230.533C96.256 239.369 121.472 241.314 124.042 237.326C126.611 233.341 93.1351 220.651 88.4591 217.309C83.7831 213.967 78.7877 200.005 92.591 181.463C106.394 162.917 138.874 183.208 138.874 183.208C138.874 183.208 148.345 228.915 154.924 232.506C161.502 236.097 154.457 191.847 154.457 191.847C168.376 195.831 196.067 225.734 196.067 225.734C196.067 225.734 177.201 267.267 184.465 269.127C191.728 270.988 199.293 231.498 199.293 231.498C210.734 240.503 216.881 260.414 216.881 260.414C218.899 271.806 214.687 279.701 208.599 285.128L208.596 285.132Z" fill="url(#paint6_linear_236_7062)"/>
<path d="M118.864 61.4658L95 64.871L110.836 54.0762L111.64 57.5375L117.443 58.5872L118.864 61.4658Z" fill="#E65924"/>
<path d="M95 64.871L114.859 54.6308L134.321 53.6514L95 64.871Z" fill="#FD9C28"/>
<path d="M110.836 54.0767L95 64.8715L107.259 48L110.836 54.0767Z" fill="#FD9C28"/>
<path d="M-22.1959 96.7959H15.4122L94.8692 283.517H52.227L35.2747 241.935H-43.1221L-60.0743 283.517H-101.656L-22.1994 96.7959H-22.1959ZM20.7096 205.917L-3.92364 145.796L-28.5535 205.917H20.7096Z" fill="url(#paint7_linear_236_7062)"/>
<path d="M246.193 267.264C230.568 277.328 211.762 283.156 191.103 283.156C133.896 283.156 92.8436 240.513 92.8436 187.28C92.8436 134.047 134.426 91.4043 191.633 91.4043C248.84 91.4043 289.892 134.047 289.892 187.28C289.892 206.612 284.065 225.155 273.47 240.517L292.539 256.672L266.583 285.543L246.19 267.267L246.193 267.264ZM216 240.513C216 240.513 234.503 230.993 242.22 213.233C245.576 205.514 247.25 197.078 247.25 187.276C247.25 155.492 223.944 129.009 191.099 129.009C158.255 129.009 135.479 154.966 135.479 187.276C135.479 219.587 158.785 245.544 191.63 245.544C200.634 245.544 208.845 243.69 215.996 240.513H216Z" fill="url(#paint8_linear_236_7062)"/>
<path d="M91.1312 261.47C92.4115 265.244 92.4874 269.418 92.4874 269.418C91.6528 272.766 88.5704 275.459 86.4175 276.995C85.0233 277.991 83.4299 278.655 81.7512 278.978C75.9942 280.068 71.5461 278.883 69.8105 278.285C68.8526 277.953 68.2645 276.92 68.5301 275.943C68.6913 275.317 69.0328 274.871 69.0328 274.871C69.9338 276.113 72.1057 277.005 76.9806 276.199C76.9806 276.199 86.4175 276.284 89.4809 268.754C89.4809 268.754 91.0837 266.136 91.1312 261.479V261.47Z" fill="#161616"/>
<path d="M91.1312 261.469C91.0743 266.126 89.4809 268.753 89.4809 268.753C86.4174 276.274 76.9806 276.189 76.9806 276.189C72.0962 276.995 69.9243 276.113 69.0233 274.861C67.8852 273.287 68.8052 271.115 68.8052 271.115C69.7156 268.697 71.4418 267.454 73.3102 266.857L73.2817 266.582C74.0405 262.617 70.9391 246.636 70.9391 246.636L75.207 242.51L86.6546 231.471L88.6652 244.227L91.0363 259.307C91.1122 260.075 91.1312 260.796 91.1312 261.469Z" fill="#303030"/>
<path d="M81.0588 267.492C81.0114 267.492 80.964 267.492 80.9071 267.473C80.8691 267.463 76.8573 266.259 73.4619 267.35C73.1869 267.435 72.9023 267.283 72.817 267.018C72.7316 266.752 72.8834 266.467 73.1489 266.373C76.8573 265.187 81.0304 266.439 81.2011 266.496C81.4667 266.581 81.6184 266.866 81.5425 267.131C81.4761 267.349 81.2769 267.492 81.0588 267.492Z" fill="black"/>
<path d="M88.6652 244.227C87.8496 243.971 87.0055 243.762 86.1804 243.563C82.8514 242.776 78.9249 242.34 75.207 242.51L86.6546 231.471L88.6652 244.227Z" fill="#1E1E1E"/>
<path d="M92.146 226.162L86.6546 231.473L70.9391 246.639L68.1982 249.285C63.9397 253.41 61.5212 259.092 61.5212 265.01V265.816C61.5212 266.859 61.6635 267.883 61.9385 268.898C62.4507 270.738 62.7542 274.314 58.5242 276.192C58.5242 276.192 48.8882 273.062 50.5859 252.481C50.5859 252.481 51.3636 238.283 50.3772 232.536C50.3772 232.536 51.2403 229.804 56.1816 230.582C56.1816 230.582 56.2195 230.582 56.2954 230.544C56.9214 230.354 59.9089 229.387 63.6457 227.101C64.4234 226.617 65.2391 226.086 66.0737 225.489C70.3226 222.425 75.0458 217.74 78.223 210.788L80.7364 213.567L90.8656 224.739L92.146 226.162Z" fill="#303030"/>
<path d="M58.5337 276.201C56.5704 278.165 54.4459 276.505 54.4459 276.505C45.1514 267.22 48.101 253.989 48.101 253.989C49.0589 246.677 48.101 234.281 48.101 234.281C48.101 231.768 50.3867 232.545 50.3867 232.545C51.3635 238.283 50.5858 252.491 50.5858 252.491C48.8976 273.072 58.5242 276.201 58.5242 276.201H58.5337Z" fill="#161616"/>
<path d="M70.9486 247.151C70.8158 247.151 70.6831 247.104 70.5787 246.999C70.3796 246.8 70.3891 246.478 70.5882 246.279L91.7951 225.802C91.9942 225.603 92.3167 225.612 92.5159 225.811C92.7151 226.011 92.7056 226.333 92.5064 226.532L71.2995 247.009C71.2047 247.104 71.0719 247.151 70.9486 247.151Z" fill="black"/>
<path d="M60.5254 234.661C59.0648 237.089 59.6244 239.944 59.3114 242.732C59.2735 243.055 58.8087 243.055 58.7708 242.732C58.4673 240.418 57.8982 238.066 57.5758 235.771C57.3387 234.083 57.2154 232.053 56.2954 230.536C56.9214 230.346 59.9089 229.378 63.6457 227.093C63.788 229.644 61.7014 232.707 60.5254 234.652V234.661Z" fill="#1E1E1E"/>
<path d="M83.7713 17.8968C83.6386 18.5417 83.041 20.9697 82.1875 22.601C81.6753 23.5494 81.0683 24.2323 80.4044 24.0995C79.8638 22.1457 80.044 20.0402 79.7879 18.0106C79.4939 15.6111 79.0292 13.2021 78.2705 10.9163C76.9901 12.2347 76.4779 13.9608 74.9699 15.1938C73.6895 16.2465 72.1436 17.0147 70.5502 17.432C67.7714 18.1623 63.9682 18.2098 61.3695 16.9009C61.0565 19.0444 61.8721 21.8612 60.6297 23.8339C60.1744 24.5358 59.6907 24.697 59.1976 24.5547C58.4768 24.3366 57.7939 23.4546 57.3386 22.7148C56.229 20.8274 55.0814 17.7166 55.7453 15.5257C56.1341 14.2264 57.443 12.6615 58.932 13.0313C58.9984 12.7089 59.0743 12.3959 59.1596 12.0829C59.1881 11.9786 59.2165 11.8743 59.2545 11.7699C59.5011 10.9638 59.833 10.205 60.2219 9.47474L60.3452 9.2566C62.7257 5.03609 67.3825 2.12442 71.9634 0.749198C73.0636 0.417248 74.2017 0.151688 75.3493 0.047361C75.4441 0.0378767 75.5485 0.028392 75.6528 0.028392C76.2977 -0.0190294 76.9332 -0.00954496 77.5781 0.0758136C78.8395 0.246531 80.0251 0.720745 80.9925 1.50794L81.3149 1.78298C81.7038 2.12442 82.0547 2.54173 82.3582 2.99697C83.6955 5.02661 83.3635 6.80965 82.8324 9.02897C82.491 10.4516 83.2307 10.8405 83.648 12.2157C84.2076 14.0462 84.1887 16.0473 83.7808 17.8968H83.7713Z" fill="black"/>
<path d="M81.3054 1.78303C79.9018 1.54592 78.7731 1.8589 77.7962 3.29103C77.2936 4.0308 77.0565 4.83696 76.8099 5.69055C76.715 6.0225 76.6107 6.36393 76.4969 6.69588C76.0037 8.11853 75.3208 9.40839 74.4009 10.6603C72.8644 12.7469 70.408 14.1505 67.667 14.5014C67.1928 14.5678 66.3867 14.6532 65.4667 14.6532C64.3001 14.6532 62.9344 14.5204 61.7773 14.0557C60.9522 13.7332 59.7951 13.0029 59.1501 12.083C59.1786 11.9786 59.2071 11.8743 59.245 11.77C59.8046 12.6994 60.9711 13.4866 61.8627 13.8375C63.8923 14.6437 66.5763 14.4066 67.6386 14.2738C70.3131 13.9229 72.7127 12.5572 74.2112 10.518C75.1122 9.29458 75.7856 8.0142 76.2693 6.62001C76.3831 6.28806 76.4874 5.94663 76.5823 5.62416C76.8289 4.78954 77.0849 3.92647 77.5971 3.15825C78.555 1.75457 79.6741 1.36572 80.983 1.50798L81.3054 1.78303Z" fill="#444444"/>
<path d="M60.2124 9.47466C60.6013 9.95836 61.1419 10.3662 61.8722 10.6223C62.593 10.8689 63.3991 10.9921 64.2622 10.9921C65.5236 10.9921 66.8988 10.7266 68.2646 10.205C71.0624 9.12374 72.9308 5.74734 74.3819 2.57959C74.4862 2.34249 74.5906 2.11486 74.6854 1.90621C74.9984 1.20437 75.264 0.597377 75.6433 0.0283203C75.539 0.0283203 75.4347 0.037805 75.3398 0.0472893C75.0079 0.597378 74.7518 1.16643 74.4673 1.80188C74.3724 2.02002 74.2776 2.24764 74.1638 2.47526C72.7317 5.60508 70.9012 8.93406 68.1792 9.97733C65.9409 10.8404 63.6742 10.9921 61.9575 10.3946C61.2841 10.167 60.753 9.79713 60.3357 9.25652L60.2124 9.47466Z" fill="#444444"/>
<path d="M84.5965 25.6167C84.6723 24.1276 83.6291 22.8472 82.1874 22.6007C81.6753 23.5491 81.0683 24.2319 80.4044 24.0992C79.8638 22.1549 80.044 20.0399 79.7974 18.0103C79.5034 15.6107 79.0292 13.2017 78.2799 10.916C76.9995 12.2343 76.4874 13.9605 74.9794 15.1934C73.699 16.2462 72.1531 17.0049 70.5502 17.4222C67.7808 18.1525 63.9776 18.2094 61.3789 16.8911C61.066 19.0346 61.8816 21.8514 60.6392 23.8241C60.1934 24.526 59.7002 24.6872 59.2165 24.5449H59.207C59.1027 24.5449 59.0079 24.5544 58.9035 24.5734C57.3102 24.8484 56.2574 26.3564 56.5325 27.9498C56.8075 29.5337 58.3155 30.5959 59.9089 30.3209C60.3072 30.245 60.6676 30.1027 60.9806 29.8941H61.0375L62.28 46.6528C62.28 46.6528 62.536 53.6996 73.7654 53.2918C73.7654 53.2918 82.8798 52.3623 81.7607 44.2628C81.7512 44.111 81.7227 43.9498 81.6848 43.779L81.5615 43.798C70.2467 47.9426 66.2633 39.9 66.0073 39.3404C66.3202 39.8241 69.8958 44.7464 77.3979 41.1614C77.3979 41.1614 79.437 40.4975 80.6036 37.2254C81.2959 35.3001 81.6848 32.4548 81.1726 28.3007C81.2959 28.3292 81.4287 28.3386 81.5615 28.3481C83.1738 28.4335 84.5395 27.2005 84.6154 25.5882L84.5965 25.6167ZM66.0262 25.3606C65.3244 25.3795 64.7459 24.8389 64.7079 24.1466C64.689 23.4448 65.2296 22.8662 65.9219 22.8283C66.6237 22.8093 67.2023 23.3499 67.2402 24.0517C67.2592 24.7441 66.7186 25.3226 66.0262 25.3606ZM75.8045 24.8105C75.1122 24.8389 74.5242 24.2889 74.4957 23.5965C74.4673 22.9041 75.0173 22.3161 75.7097 22.2877C76.402 22.2592 76.9901 22.8093 77.0185 23.5017C77.047 24.194 76.5064 24.782 75.8045 24.8105Z" fill="#FCBE95"/>
<path d="M81.6753 43.7978L81.552 43.8167C70.2372 47.9614 66.2538 39.9187 65.9977 39.3591C66.3107 39.8428 69.8863 44.7652 77.3884 41.1801C77.3884 41.1801 79.4275 40.5162 80.594 37.2441L81.533 43.039C81.5899 43.2951 81.6468 43.5512 81.6847 43.7978H81.6753Z" fill="#D69270"/>
<path d="M77.009 23.51C77.0375 24.2023 76.4969 24.7903 75.7951 24.8188C75.1027 24.8472 74.5147 24.2972 74.4862 23.6048C74.4578 22.9125 75.0079 22.3244 75.7002 22.296C76.3926 22.2675 76.9806 22.8176 77.009 23.51Z" fill="black"/>
<path d="M67.2402 24.0609C67.2592 24.7532 66.7185 25.3318 66.0262 25.3697C65.3244 25.3887 64.7458 24.8481 64.7079 24.1557C64.6889 23.4539 65.2295 22.8753 65.9219 22.8374C66.6237 22.8184 67.2022 23.359 67.2402 24.0609Z" fill="black"/>
<path d="M75.4915 33.6008C75.188 34.3501 74.6 34.995 73.8602 35.4123C73.1204 35.8486 72.2194 36.0098 71.3659 35.9245C70.4933 35.8391 69.7156 35.4692 69.0232 35.0424C68.6913 34.8053 68.3783 34.5397 68.0748 34.2742C67.7998 33.9707 67.5342 33.6767 67.3066 33.3447C67.686 33.4965 68.0274 33.6862 68.3688 33.8664L69.4026 34.3406C70.1044 34.5872 70.7778 34.8622 71.4797 34.9096C72.8644 35.0709 74.2491 34.5967 75.5105 33.6008H75.4915Z" fill="#B26B4D"/>
<path d="M72.6557 23.2354C73.1299 24.5632 73.4239 25.9099 73.6705 27.2567C73.8981 28.6129 74.0689 29.9787 74.1542 31.3539V31.4108C74.1732 31.6289 74.012 31.8091 73.7938 31.8281H73.7559C72.7126 31.7902 71.6693 31.7238 70.6166 31.5341C71.6504 31.2591 72.6842 31.1073 73.7179 30.9935L73.3196 31.4677C73.0446 30.1209 72.8549 28.7552 72.7221 27.3895C72.5988 26.0142 72.5419 24.639 72.6557 23.2354Z" fill="#D69270"/>
<path d="M67.5626 21.3381C66.766 21.6226 66.0926 21.708 65.4382 21.8503C64.7648 21.9736 64.1768 22.1158 63.3516 22.296C63.6456 21.4899 64.4518 21.0062 65.2485 20.8449C66.0546 20.7121 66.8892 20.826 67.5626 21.3381Z" fill="black"/>
<path d="M78.0902 20.532C77.3125 20.7596 76.6581 20.807 75.9942 20.8544C75.6623 20.8544 75.3398 20.8924 74.9984 20.8829C74.6569 20.8829 74.3155 20.8924 73.8982 20.8544C74.3629 20.1716 75.1786 19.8776 75.9373 19.8301C76.6961 19.8017 77.4832 19.9724 78.0902 20.5225V20.532Z" fill="black"/>
<path d="M58.0974 25.9668C58.7328 25.9668 59.3398 26.3177 59.7571 26.8109C60.1649 27.3136 60.3736 27.968 60.2977 28.5939C60.0132 28.0344 59.7571 27.5412 59.3967 27.1144C59.0458 26.6781 58.619 26.3177 58.1068 25.9668H58.0974Z" fill="#B26B4D"/>
<path d="M83.0315 23.8047C82.6332 24.2789 82.3202 24.7436 82.0926 25.2558C81.8649 25.7679 81.7511 26.3085 81.6183 26.925C81.3718 26.3465 81.4002 25.6541 81.6563 25.0661C81.9219 24.4781 82.4056 23.9754 83.022 23.8047H83.0315Z" fill="#B26B4D"/>
<path d="M96.1008 127.591C95.2662 128.075 94.204 127.696 93.872 126.804C93.7961 126.624 93.7677 126.434 93.7677 126.245C93.7677 125.704 94.0522 125.192 94.5454 124.898L102.702 120.241L97.1441 122.432C96.4043 122.736 95.5507 122.394 95.2093 121.683C95.105 121.465 95.0576 121.246 95.0576 121.019C95.0576 120.431 95.399 119.862 95.9775 119.625L100.245 117.813C100.976 117.5 101.763 117.329 102.56 117.31C102.626 117.31 102.702 117.31 102.768 117.31H103.954C103.015 110.984 102.398 105.484 102.01 100.704V100.685C99.2401 93.6662 96.8501 76.6609 96.8501 76.6609L94.0048 77.2299C93.8436 76.3953 93.6349 75.4659 93.3788 74.4795L64.8501 76.0823C65.8744 79.6579 66.6616 81.9436 66.6616 81.9436L63.6646 82.3135C63.2188 80.834 62.8015 79.3734 62.4221 77.9318C62.2609 78.3586 58.3439 88.6111 57.1963 95.7053C59.4346 98.4937 62.2514 102.695 63.5318 107.475C63.5318 107.475 66.4909 118.003 61.322 119.729L61.1323 119.663C60.8193 120.488 60.4399 121.209 59.9752 121.759C59.8709 121.891 59.7286 121.986 59.5674 122.043C59.3303 122.138 59.0647 122.138 58.8181 122.043C58.4008 121.882 58.1447 121.484 58.1447 121.066C58.1447 120.924 58.1732 120.791 58.2301 120.658L58.6284 119.729C58.4008 120.099 58.1827 120.402 57.9835 120.639C57.7843 120.896 57.4903 121.019 57.1868 121.019C56.9497 121.019 56.7031 120.924 56.4945 120.753C56.172 120.459 56.0772 119.976 56.2574 119.568C57.4524 116.779 57.9835 113.716 58.2111 111.411C58.4293 109.258 58.3913 107.76 58.3913 107.76L57.993 110.804L57.9171 111.421C57.7274 112.824 57.2248 114.143 56.4281 115.3L55.1192 117.197C54.939 117.424 54.664 117.548 54.389 117.548C54.1613 117.548 53.9432 117.481 53.763 117.32C53.45 117.035 53.3647 116.571 53.5638 116.191L54.0665 115.214C54.1424 115.091 54.1898 114.958 54.2277 114.816C55.1667 111.326 54.5976 108.348 53.8199 106.252L53.6207 106.337C53.6207 106.337 51.9515 115.85 52.0369 131.091C52.0369 131.091 52.549 131.233 53.4785 131.452C53.8389 131.546 54.2657 131.641 54.7588 131.746C56.1815 132.059 58.1163 132.428 60.421 132.77C69.5543 134.107 84.549 134.904 97.3243 128.91C97.1536 128.644 97.0588 128.341 97.0588 128.037C97.0588 127.497 97.3433 126.975 97.8459 126.662L105.566 122.119L96.0913 127.601L96.1008 127.591ZM82.5667 99.1671C82.5667 99.1671 70.0096 101.007 71.4038 85.965C71.4038 85.965 81.846 87.454 90.1163 84.6751C90.1163 84.6751 94.9248 98.029 82.5667 99.1671Z" fill="#96A19B"/>
<path d="M61.3884 132.504C61.1987 132.665 60.8668 132.741 60.4305 132.76C58.8087 132.846 55.878 132.077 54.7684 131.736C54.721 131.717 54.6735 131.698 54.6261 131.689C54.2562 131.565 53.8768 131.499 53.488 131.442C52.5585 131.224 52.0464 131.082 52.0464 131.082C51.961 115.84 53.6303 106.328 53.6303 106.328L53.8294 106.242C54.6071 108.338 55.1762 111.316 54.2373 114.806C54.1993 114.949 54.1519 115.082 54.076 115.205L53.5733 116.182C53.3742 116.561 53.4595 117.026 53.7725 117.31C53.9527 117.472 54.1709 117.538 54.3985 117.538C54.6735 117.538 54.9486 117.415 55.1288 117.187L56.4376 115.29C57.2343 114.133 57.737 112.815 57.9266 111.411L58.0025 110.795C58.0879 110.994 58.1543 111.193 58.2207 111.402C59.2924 114.569 59.4252 118.448 59.5769 122.034C59.6907 124.49 59.8045 126.814 60.2313 128.691C60.5348 130 61.0564 131.29 61.3979 132.504H61.3884Z" fill="#79827D"/>
<path d="M93.3883 74.4701C90.6853 63.5442 83.4109 44.2627 83.4109 44.2627C84.2171 44.2627 85.2888 44.3101 86.5691 44.4524C91.1975 54.0884 96.8596 76.6515 96.8596 76.6515L94.0143 77.2206C93.8531 76.386 93.6444 75.4565 93.3883 74.4701Z" fill="#79827D"/>
<path d="M114.462 186.063L112.053 169.74C111.399 162.931 110.508 156.709 109.588 151.35C96.964 149.662 96.8502 133.956 96.8502 133.956C93.654 135.123 90.5811 136.033 87.6504 136.716C87.2047 136.83 86.7589 136.934 86.3226 137.029C85.2604 137.257 84.2266 137.456 83.2023 137.626C81.0873 137.987 79.0671 138.233 77.1229 138.395C77.1039 138.404 77.0849 138.404 77.066 138.404C74.0594 138.641 71.2805 138.67 68.7482 138.556C66.6522 138.461 64.7269 138.262 62.9818 138.015C62.9818 138.015 62.9818 138.082 63.0197 138.186C63.1051 138.565 63.3137 139.609 63.4939 141.031C64.1958 146.703 64.4044 158.539 54.1709 159.782C55.5366 169.294 57.699 179.623 60.9996 190.378C61.6066 192.341 62.0618 194.342 62.3179 196.382L64.651 214.658L66.0262 225.432L66.0737 225.489C70.3226 222.425 75.0458 217.74 78.223 210.788L80.7364 213.567L86.9011 220.367L90.8656 224.74L91.0363 224.588L110.612 200.251C113.827 196.268 115.221 191.118 114.462 186.063ZM94.1566 192.313C93.7583 194.551 92.8573 196.714 91.4915 198.61L88.7032 202.489L82.8988 210.561L82.9557 199.028L83.1833 156.32V155.941L83.2212 156.054L93.4832 184.27C94.4317 186.878 94.6403 189.657 94.1566 192.313Z" fill="#96A19B"/>
<path d="M66.6616 81.9342L63.6646 82.3136C63.2188 80.8246 62.8015 79.364 62.4222 77.9319C57.7559 60.642 57.2058 47.7149 57.2058 47.7149C58.4862 47.3261 59.5484 47.0795 60.3641 46.9277C59.7855 56.4405 62.792 68.8744 64.8501 76.0729C65.8839 79.6485 66.6616 81.9342 66.6616 81.9342Z" fill="#79827D"/>
<path d="M105.083 130.759C105.083 130.759 107.435 138.697 109.597 151.349C96.9639 149.671 96.8502 133.955 96.8502 133.955C98.3676 133.396 99.9041 132.77 101.478 132.087C102.142 132.741 103.224 132.694 103.831 131.992L104.978 130.664L105.073 130.749L105.083 130.759Z" fill="#B3BCB7"/>
<path d="M106.979 124.49L101.497 129.782C101.175 130.095 101.004 130.513 101.004 130.949C101.004 131.385 101.165 131.784 101.488 132.097C99.9136 132.779 98.3771 133.405 96.8596 133.965C92.0131 135.739 87.4512 136.915 83.2117 137.635C81.0778 137.996 79.0387 138.242 77.0849 138.413C71.603 138.849 66.8514 138.574 62.9913 138.024C56.0867 137.066 52.1033 135.264 52.1033 135.264C52.0654 133.823 52.0464 132.438 52.0464 131.091C52.0464 131.091 77.3979 138.261 97.3528 128.91C97.8365 129.631 98.8134 129.839 99.5342 129.356L106.989 124.49H106.979Z" fill="#B3BCB7"/>
<path d="M54.1709 159.781C53.175 152.848 52.587 146.361 52.293 140.452C52.2076 138.735 52.1412 137.076 52.1033 135.463C52.0938 135.387 52.0938 135.321 52.0938 135.245C52.0938 135.245 56.0772 137.057 62.9818 138.015C62.9818 138.015 62.9818 138.081 63.0197 138.185C63.1051 138.565 63.3137 139.608 63.4939 141.031C64.1958 146.702 64.4044 158.539 54.1709 159.781Z" fill="#B3BCB7"/>
<path d="M52.0369 131.082C53.9243 131.461 55.8116 131.812 57.718 132.059C59.6148 132.353 61.5212 132.571 63.4275 132.751C67.2402 133.093 71.0718 133.282 74.894 133.169C78.7257 133.15 82.5289 132.685 86.2941 132.049L89.1015 131.48C90.0404 131.291 90.9414 130.978 91.8709 130.731C93.7488 130.314 95.4939 129.498 97.3338 128.91C93.891 130.646 90.2396 132.002 86.4459 132.827C82.6616 133.633 78.792 134.098 74.913 134.193C71.0434 134.231 67.1643 134.051 63.3327 133.538C59.501 133.017 55.6978 132.268 52.0274 131.092L52.0369 131.082Z" fill="#404441"/>
<path d="M77.0754 138.403C77.8531 140.746 78.3273 143.145 78.7351 145.545C79.105 147.954 79.399 150.372 79.3801 152.848C78.5929 150.505 78.1281 148.106 77.7298 145.706C77.3599 143.297 77.0659 140.879 77.0849 138.403H77.0754Z" fill="#404441"/>
<path d="M90.8655 224.749L80.7363 213.577L78.223 210.798C75.0458 217.75 70.3226 222.435 66.0736 225.498L66.0262 225.441L64.651 214.667C65.5994 214.25 66.6522 213.918 67.2307 213.605C71.2236 211.433 73.4145 208.683 76.2313 205.287C77.2271 204.083 80.5846 200.147 82.9557 199.037L82.8987 210.57L83.7239 209.432C84.4352 210.921 88.9497 219.485 90.8655 224.749Z" fill="#79827D"/>
<path d="M80.6415 214.221C80.5372 214.221 80.4328 214.192 80.3475 214.126C80.1198 213.964 80.0629 213.642 80.2337 213.414L83.6291 208.71C83.7903 208.483 84.1128 208.426 84.3404 208.596C84.568 208.758 84.6154 209.08 84.4542 209.308L81.0683 214.012C80.9734 214.154 80.8122 214.221 80.651 214.221H80.6415Z" fill="#404441"/>
<path d="M64.9829 119.758C70.2182 115.983 75.8993 112.787 80.8785 108.51C83.0979 106.603 85.5733 105.304 87.5175 103.085C88.3711 102.108 89.0635 100.809 90.0688 100.05C87.859 105.352 83.7333 109.174 80.8501 113.973C85.4689 111.421 89.642 107.334 93.9574 103.91C90.4008 109.743 85.9621 114.627 80.5371 118.857C78.3368 120.574 76.402 122.831 74.0499 124.405C72.5893 125.382 70.6735 125.743 69.4026 126.995C72.6367 123.116 77.6824 118.487 78.83 113.413C74.7707 116.221 70.0285 120.109 64.9924 119.768L64.9829 119.758Z" fill="#79827D"/>
<path d="M83.041 155.959C83.0884 155.978 83.1359 156.006 83.1833 156.035V156.319C83.1454 156.196 83.0979 156.073 83.041 155.959Z" fill="#555956"/>
<path d="M95.6646 190.377C95.418 191.202 95.0007 192.454 94.1566 192.312C94.6403 189.656 94.4316 186.877 93.4832 184.269L83.2212 156.054C87.1192 155.494 87.6314 152.307 88.6557 156.139C89.4144 158.994 99.0125 179.1 95.6646 190.377Z" fill="#79827D"/>
<path d="M83.2022 137.626C83.9894 140.5 84.6059 143.402 85.137 146.323C85.6682 149.244 86.1234 152.165 86.4838 155.115V155.143C86.5122 155.324 86.389 155.494 86.2088 155.532C84.53 155.893 82.8513 156.206 81.1536 156.481C82.7565 155.864 84.3878 155.324 86.0286 154.812L85.7535 155.229C85.137 152.327 84.6249 149.405 84.1791 146.475C83.7428 143.544 83.3919 140.595 83.2022 137.626Z" fill="#404441"/>
<path d="M87.9634 136.754C86.0665 138.073 83.1169 138.898 80.8596 139.391C75.9183 140.463 70.683 140.738 65.6563 140.984C64.9355 141.022 64.2147 141.032 63.4939 141.032C61.2367 141.022 58.9699 140.89 56.7221 140.871C55.1572 140.871 53.7915 140.852 52.293 140.453C52.2076 138.737 52.1317 136.868 52.0938 135.256C53.1655 135.597 54.2657 136.214 55.328 136.441C56.21 136.631 57.0825 136.878 57.9456 137.134C59.5864 137.627 61.2936 137.968 63.0197 138.187C64.9071 138.443 66.8324 138.547 68.7482 138.556C70.2278 138.556 71.6978 138.509 73.1489 138.433C74.4672 138.357 75.795 138.386 77.1228 138.395C78.5834 138.414 80.0345 138.405 81.4761 138.224C82.9367 138.035 84.3688 137.722 85.7725 137.238C85.9622 137.172 86.1424 137.096 86.3226 137.029C86.7589 136.859 87.1857 136.697 87.6504 136.716C87.7547 136.716 87.8495 136.735 87.9634 136.754Z" fill="#79827D"/>
<path d="M52.0938 135.255C54.0855 135.966 56.1341 136.488 58.2017 136.886C60.2598 137.313 62.3463 137.607 64.4329 137.815C68.606 138.223 72.8265 138.271 76.9995 137.901L83.2497 137.152C85.3267 136.82 87.3753 136.355 89.4239 135.881C91.4725 135.397 93.4927 134.818 95.5034 134.173C97.5235 133.566 99.4678 132.751 101.488 132.087C100.53 132.533 99.5626 132.969 98.5952 133.396C97.6279 133.832 96.6605 134.268 95.6646 134.638C93.6824 135.387 91.6622 136.042 89.6231 136.63C87.584 137.227 85.5069 137.673 83.4109 138.053L77.0849 138.906C72.8359 139.2 68.5585 139.162 64.3475 138.574C60.146 137.977 55.9539 137.028 52.1033 135.245L52.0938 135.255Z" fill="#404441"/>
<path d="M65.8271 142.388C66.3487 144.285 66.5194 146.286 66.4056 148.277C66.2918 150.269 65.846 152.261 65.0114 154.101C64.1958 155.96 62.83 157.572 61.2177 158.767C59.6338 160.047 57.6516 160.626 55.7548 161.062C57.5568 160.275 59.3493 159.488 60.753 158.189C62.1756 156.946 63.3991 155.457 64.1484 153.702C64.945 151.986 65.4192 150.117 65.6753 148.211C65.9029 146.305 65.9883 144.351 65.8366 142.388H65.8271Z" fill="#404441"/>
<path d="M95.1429 136.611C95.6646 138.499 96.3095 140.339 97.0398 142.131C97.789 143.914 98.6521 145.64 99.7333 147.205C100.796 148.78 102.123 150.174 103.707 151.198C104.504 151.691 105.367 152.099 106.287 152.374C107.207 152.668 108.165 152.773 109.151 152.848C108.174 152.981 107.178 152.972 106.183 152.829C105.196 152.649 104.229 152.317 103.337 151.834C101.545 150.866 100.084 149.387 98.9556 147.736C97.827 146.077 96.9734 144.265 96.3474 142.387C95.712 140.509 95.2947 138.575 95.1334 136.611H95.1429Z" fill="#404441"/>
<path d="M90.1257 84.6748C90.1257 84.6748 94.9248 98.0287 82.5668 99.1763C82.5668 99.1763 70.0096 101.007 71.4038 85.9741C71.4038 85.9741 81.846 87.4632 90.1257 84.6748Z" fill="#B3BCB7"/>
<path d="M71.916 87.1502C73.4145 87.4063 74.913 87.577 76.421 87.6719C77.9195 87.7572 79.4275 87.7762 80.9165 87.6813C82.415 87.6244 83.9041 87.4158 85.3742 87.1313L86.4743 86.9036L87.565 86.6001C88.3048 86.4484 88.9972 86.1259 89.7369 85.9268C88.4091 86.657 86.9865 87.2925 85.4975 87.6624C84.0179 88.0797 82.4909 88.3073 80.9545 88.3927C79.418 88.4685 77.8816 88.4306 76.3641 88.2125C74.8466 88.0038 73.3386 87.6813 71.916 87.1407V87.1502Z" fill="#404441"/>
<path d="M57.1963 47.7053C50.9272 49.6212 39.4607 55.0651 26.5052 70.4866L27.226 71.2263L38.0855 82.4937L38.6166 83.0438C38.6166 83.0438 41.5757 82.3419 44.3831 79.4397C44.3831 79.4397 44.421 79.5346 44.4779 79.7148C44.9331 81.0236 46.849 86.6762 47.0956 90.1001C48.7838 90.5648 50.2538 91.0011 51.4109 91.352C53.2319 91.9021 54.8537 92.9643 56.1246 94.3964C56.3522 94.662 56.5893 94.9465 56.8359 95.25C56.9592 95.3923 57.073 95.544 57.1963 95.6958C58.3439 88.6015 62.2609 78.349 62.4222 77.9222C57.7559 60.6324 57.1963 47.7053 57.1963 47.7053ZM83.4014 44.2625C82.3391 44.2341 81.7511 44.272 81.7511 44.272H81.7416C82.8608 52.3811 73.7464 53.3011 73.7464 53.3011C62.517 53.7089 62.2609 46.6715 62.2609 46.6715C62.2609 46.6715 61.5875 46.6905 60.3641 46.9181C59.776 56.4309 62.792 68.8742 64.8501 76.0728L93.3789 74.47C90.6853 63.5441 83.4014 44.2625 83.4014 44.2625ZM86.5597 44.4522C91.188 54.0883 96.8501 76.6514 96.8501 76.6514C96.8501 76.6514 96.9355 77.2868 97.1062 78.368C97.789 82.8636 99.7807 95.0129 102.01 100.675C100.454 81.6306 102.626 74.138 103.318 72.2981C103.451 71.9661 103.527 71.8144 103.527 71.8144C105.557 76.5755 108.611 77.9128 108.611 77.9128L110.024 76.6514L119.413 68.2198L120.257 67.4516C110.432 49.3177 94.5075 45.3058 86.5597 44.4522Z" fill="#CEC7C0"/>
<path d="M56.8359 95.2498C56.5893 94.9463 56.3522 94.6618 56.1246 94.3962C54.8537 92.9641 53.2319 91.9019 51.4109 91.3518C50.2538 91.0008 48.7838 90.5646 47.0956 90.0998C46.849 86.676 44.9332 81.0234 44.4779 79.7145C45.0659 78.6239 45.8342 77.6565 46.4412 76.5089C47.3422 74.8301 47.8638 72.829 48.357 71.1123C49.9029 74.8776 50.1495 79.4964 51.7144 83.4514C52.843 86.3061 54.4459 88.8005 55.5461 91.6363C55.9729 92.7365 56.466 93.9884 56.8359 95.2498Z" fill="#B7AEA7"/>
<path d="M102.009 100.675C99.7807 95.0133 97.789 82.864 97.1061 78.3684C97.5519 76.3483 98.102 74.3566 98.6331 72.3649C99.1737 70.3163 99.629 68.353 100.464 66.4182C100.843 65.5457 101.535 64.4929 101.649 63.5635C101.222 66.3234 102.645 68.7419 103.11 71.0181C103.195 71.4449 103.261 71.8717 103.318 72.2985C102.626 74.1384 100.454 81.631 102.009 100.675Z" fill="#B7AEA7"/>
<path d="M65.827 69.7375C67.2402 69.7375 68.6059 68.7322 69.725 67.9545C72.3427 66.1524 74.9224 64.6444 77.1038 62.3018C79.1809 60.073 81.5804 58.1193 82.9271 55.3309C83.4014 54.354 83.7997 53.3392 84.2739 52.3623C83.6764 58.878 79.3705 65.0238 73.9455 68.4192C71.9254 69.6806 67.4773 72.156 65.8175 69.7375H65.827Z" fill="#B7AEA7"/>
<path d="M103.527 72.3363C103.328 72.3363 103.138 72.2225 103.062 72.0234C101.45 68.2202 100.909 63.4211 101.478 57.7495C101.507 57.465 101.763 57.2753 102.038 57.2943C102.323 57.3227 102.522 57.5693 102.493 57.8538C101.943 63.3547 102.455 67.9925 104.001 71.6345C104.115 71.8906 103.992 72.1941 103.736 72.2984C103.669 72.3269 103.603 72.3363 103.537 72.3363H103.527Z" fill="#9B948F"/>
<path d="M44.3926 79.9613C44.2598 79.9613 44.1365 79.9139 44.0322 79.8191C43.833 79.6199 43.8235 79.2974 44.0322 79.0983C47.0007 76.0538 48.6131 71.7859 48.8312 66.3988C48.8407 66.1143 49.0683 65.8772 49.3623 65.9056C49.6469 65.9151 49.865 66.1522 49.8555 66.4368C49.6279 72.0799 47.9112 76.5849 44.7625 79.8096C44.6676 79.9139 44.5253 79.9613 44.4021 79.9613H44.3926Z" fill="#9B948F"/>
<path d="M120.608 115.84C120.381 116.172 120.172 116.551 120.02 116.94L118.351 121.16C117.706 122.811 116.445 124.138 114.832 124.878L108.136 127.979C107.235 128.397 106.439 128.994 105.803 129.734L104.988 130.673L103.831 132.001C103.224 132.703 102.142 132.741 101.478 132.086C101.165 131.773 100.995 131.356 100.995 130.939C100.995 130.521 101.165 130.094 101.488 129.772L106.97 124.48L99.5152 129.345C98.7944 129.829 97.8175 129.62 97.3338 128.899C97.1631 128.634 97.0682 128.33 97.0682 128.027C97.0682 127.486 97.3528 126.965 97.8554 126.652L105.576 122.109L96.1008 127.591C95.2662 128.074 94.204 127.695 93.872 126.803C93.7961 126.623 93.7677 126.434 93.7677 126.244C93.7677 125.703 94.0522 125.191 94.5454 124.897L102.702 120.24L97.1441 122.431C96.4043 122.735 95.5507 122.393 95.2093 121.682C95.105 121.464 95.0575 121.246 95.0575 121.018C95.0575 120.43 95.399 119.861 95.9775 119.624L100.245 117.812C100.976 117.499 101.763 117.329 102.56 117.31C102.626 117.31 102.702 117.31 102.768 117.31H107.861C108.317 117.31 108.753 117.215 109.151 117.035C109.91 116.722 110.536 116.105 110.868 115.299C110.991 114.986 111.133 114.645 111.285 114.275C113.77 108.081 119.053 93.9973 118.806 86.7323C118.806 86.5427 118.806 86.3625 118.778 86.1823C117.298 85.6132 115.951 84.5794 114.775 83.4034C111.854 80.4917 110.024 76.66 110.024 76.66L114.737 72.4206L116.369 70.96L119.413 68.2285C119.413 68.2285 143.152 83.1188 120.608 115.849V115.84Z" fill="#FCBE95"/>
<path d="M97.3433 123.816C97.1631 123.816 96.9924 123.721 96.8975 123.56C96.7553 123.313 96.8406 123 97.0872 122.868L102.446 119.804C102.692 119.662 103.005 119.747 103.138 119.994C103.28 120.24 103.195 120.553 102.949 120.686L97.5899 123.75C97.514 123.797 97.4192 123.816 97.3338 123.816H97.3433Z" fill="#B26B4D"/>
<path d="M97.865 127.174C97.6942 127.174 97.5235 127.089 97.4287 126.927C97.2864 126.681 97.3623 126.368 97.6089 126.226L105.329 121.683C105.576 121.54 105.879 121.616 106.031 121.863C106.173 122.109 106.097 122.422 105.851 122.565L98.1305 127.108C98.0452 127.155 97.9598 127.174 97.8744 127.174H97.865Z" fill="#B26B4D"/>
<path d="M99.5247 129.858C99.3539 129.858 99.1927 129.772 99.0979 129.63C98.9461 129.393 99.0125 129.08 99.2496 128.928L106.704 124.063C106.941 123.911 107.254 123.977 107.406 124.214C107.558 124.452 107.491 124.765 107.254 124.916L99.7997 129.782C99.7144 129.839 99.6195 129.867 99.5247 129.867V129.858Z" fill="#B26B4D"/>
<path d="M115.572 119.748C114.633 118.847 113.248 118.287 112.053 117.794C111.342 117.5 110.043 117.405 109.151 117.026C109.91 116.713 110.536 116.096 110.868 115.29C110.991 114.977 111.133 114.636 111.285 114.266C113.03 115.375 114.975 118.211 115.572 119.748Z" fill="#D69270"/>
<path d="M121.196 87.1508C120.343 87.1508 119.47 86.9801 118.598 86.6481C118.332 86.5438 118.199 86.2498 118.304 85.9937C118.398 85.7281 118.702 85.5954 118.958 85.6997C120.162 86.1644 121.357 86.2498 122.496 85.9747C122.78 85.9083 123.046 86.0791 123.112 86.3541C123.178 86.6291 123.008 86.9042 122.733 86.9706C122.221 87.0939 121.708 87.1603 121.187 87.1603L121.196 87.1508Z" fill="#B26B4D"/>
<path d="M114.775 83.3946C111.854 80.4829 110.024 76.6513 110.024 76.6513L119.413 68.2197C118.569 71.8522 116.492 78.5766 114.775 83.3946Z" fill="#D69270"/>
<path d="M63.5318 107.465C62.2515 102.685 59.4346 98.4834 57.1963 95.695C56.8265 95.2208 56.4566 94.7845 56.1246 94.3957C54.8537 92.9636 53.2319 91.9013 51.4109 91.3512C50.2538 91.0003 48.7838 90.564 47.0956 90.0993C43.2355 89.0371 38.2942 87.8041 33.7227 87.0454C33.7227 87.0454 33.8176 86.9695 33.9883 86.8272C34.8609 86.1254 37.6587 83.7828 38.0855 82.4929L27.226 71.2256C27.226 71.2256 25.9362 72.6103 24.1057 74.7537C20.0938 79.4959 13.4738 87.9464 12.459 93.4093C12.2124 94.7561 12.9522 96.0934 14.2136 96.634C16.7743 97.7436 22.2563 99.4698 31.6362 99.5646H33.7227C38.1614 99.5077 43.3872 99.0904 49.4951 98.123H49.8081C49.7796 99.4413 50.2444 101.177 52.0938 103.026C52.0938 103.026 53.0612 104.212 53.8199 106.242C54.5976 108.338 55.1667 111.316 54.2278 114.806C54.1898 114.948 54.1424 115.081 54.0665 115.204L53.5639 116.181C53.3647 116.56 53.4501 117.025 53.763 117.31C53.9432 117.471 54.1614 117.537 54.389 117.537C54.664 117.537 54.9391 117.414 55.1193 117.186L56.4281 115.29C57.2248 114.132 57.7275 112.814 57.9171 111.41L58.3914 107.75C58.3914 107.75 58.5716 114.18 56.2574 119.557C56.0772 119.965 56.172 120.449 56.4945 120.743C56.7032 120.914 56.9498 121.009 57.1869 121.009C57.4904 121.009 57.7844 120.885 57.9835 120.629C58.1827 120.392 58.4008 120.089 58.6285 119.719C59.1216 118.903 59.6528 117.708 60.0227 116.067C59.6528 117.718 59.1311 118.913 58.6285 119.728L58.2301 120.658C58.1732 120.79 58.1448 120.923 58.1448 121.065C58.1448 121.483 58.4009 121.881 58.8182 122.042C59.226 122.194 59.6907 122.08 59.9657 121.758C60.4305 121.208 60.8099 120.487 61.1228 119.662L61.3125 119.728C66.4814 118.002 63.5224 107.475 63.5224 107.475L63.5318 107.465Z" fill="#FCBE95"/>
<path d="M58.6285 120.24C58.5431 120.24 58.4483 120.211 58.3629 120.164C58.1258 120.022 58.0499 119.709 58.1922 119.462C58.6948 118.628 59.3682 117.167 59.7286 114.9C59.8899 113.781 59.9752 112.596 59.9752 111.391C59.9752 111.107 60.2028 110.879 60.4874 110.879C60.7719 110.879 60.9995 111.107 60.9995 111.391C60.9995 112.652 60.9142 113.885 60.7435 115.052C60.44 117.006 59.8804 118.675 59.0742 119.993C58.9794 120.155 58.8087 120.24 58.6379 120.24H58.6285Z" fill="#B26B4D"/>
<path d="M56.2574 120.071C56.191 120.071 56.1246 120.061 56.0582 120.033C55.8021 119.919 55.6789 119.625 55.7927 119.359C58.031 114.143 57.8982 107.836 57.8887 107.77C57.8887 107.485 58.1068 107.258 58.3819 107.248C58.6285 107.248 58.894 107.466 58.9035 107.741C58.9035 108.007 59.0553 114.342 56.7221 119.758C56.6368 119.948 56.4471 120.071 56.2574 120.071Z" fill="#B26B4D"/>
<path d="M49.8176 98.6445H49.8081C49.5236 98.6445 49.3054 98.4074 49.3054 98.1229C49.3434 96.5106 50.0452 95.4578 50.0737 95.4199C50.2349 95.1923 50.5479 95.1259 50.785 95.2871C51.0126 95.4483 51.079 95.7613 50.9178 95.9984C50.8988 96.0269 50.3487 96.871 50.3202 98.1514C50.3202 98.4264 50.0831 98.654 49.8081 98.654L49.8176 98.6445Z" fill="#B26B4D"/>
<path d="M61.1418 120.164C61.0754 120.164 61.0185 120.154 60.9521 120.126C60.6865 120.021 60.5633 119.727 60.6676 119.462C61.1039 118.352 61.4548 116.93 61.7203 115.251C62.0143 113.316 62.0807 111.732 62.0807 111.723C62.0902 111.438 62.3558 111.229 62.6119 111.229C62.8964 111.239 63.1145 111.476 63.105 111.761C63.105 111.827 63.0386 113.411 62.7351 115.412C62.4601 117.176 62.0902 118.665 61.6255 119.841C61.5496 120.04 61.3504 120.164 61.1513 120.164H61.1418Z" fill="#B26B4D"/>
<path d="M38.0855 82.4929C37.6588 83.7828 34.8609 86.1254 33.9883 86.8272C33.2391 86.5996 33.0115 85.9547 32.376 84.7597C31.3612 82.8628 30.1377 81.1746 28.6582 79.6097C27.2355 78.0922 25.7655 76.091 24.1057 74.7537C25.9362 72.6103 27.226 71.2256 27.226 71.2256L38.0855 82.4929Z" fill="#D69270"/>
<path d="M33.7227 87.5663C33.7227 87.5663 33.6658 87.5663 33.6374 87.5663C29.2936 86.8455 25.993 86.6938 23.8401 87.1016C23.5651 87.149 23.2995 86.9688 23.2426 86.6938C23.1857 86.4187 23.3754 86.1532 23.6504 86.0963C25.9267 85.66 29.341 85.8118 33.8081 86.5515C34.0831 86.5989 34.2728 86.855 34.2254 87.1396C34.1875 87.3861 33.9693 87.5663 33.7227 87.5663Z" fill="#B26B4D"/>
<defs>
<linearGradient id="paint0_linear_236_7062" x1="178.398" y1="80.9215" x2="236.266" y2="80.9215" gradientUnits="userSpaceOnUse">
<stop stop-color="#CBCE55"/>
<stop offset="1" stop-color="#217B4F"/>
</linearGradient>
<linearGradient id="paint1_linear_236_7062" x1="176.938" y1="92.2781" x2="295.33" y2="92.2781" gradientUnits="userSpaceOnUse">
<stop stop-color="#CBCE55"/>
<stop offset="1" stop-color="#217B4F"/>
</linearGradient>
<linearGradient id="paint2_linear_236_7062" x1="167.877" y1="86.7628" x2="184.359" y2="86.7628" gradientUnits="userSpaceOnUse">
<stop stop-color="#CBCE55"/>
<stop offset="1" stop-color="#217B4F"/>
</linearGradient>
<linearGradient id="paint3_linear_236_7062" x1="-78.1079" y1="167.337" x2="31.3185" y2="167.337" gradientUnits="userSpaceOnUse">
<stop stop-color="#CBCE55"/>
<stop offset="1" stop-color="#217B4F"/>
</linearGradient>
<linearGradient id="paint4_linear_236_7062" x1="-15.8595" y1="274.671" x2="2.61278" y2="274.671" gradientUnits="userSpaceOnUse">
<stop stop-color="#CBCE55"/>
<stop offset="1" stop-color="#217B4F"/>
</linearGradient>
<linearGradient id="paint5_linear_236_7062" x1="2.63739" y1="270.427" x2="66.2865" y2="270.427" gradientUnits="userSpaceOnUse">
<stop stop-color="#CBCE55"/>
<stop offset="1" stop-color="#217B4F"/>
</linearGradient>
<linearGradient id="paint6_linear_236_7062" x1="83.5936" y1="229.388" x2="217.386" y2="229.388" gradientUnits="userSpaceOnUse">
<stop stop-color="#CBCE55"/>
<stop offset="1" stop-color="#217B4F"/>
</linearGradient>
<linearGradient id="paint7_linear_236_7062" x1="-101.653" y1="190.158" x2="94.8692" y2="190.158" gradientUnits="userSpaceOnUse">
<stop stop-color="#214A35"/>
<stop offset="1" stop-color="#022B1D"/>
</linearGradient>
<linearGradient id="paint8_linear_236_7062" x1="92.8436" y1="188.47" x2="292.543" y2="188.47" gradientUnits="userSpaceOnUse">
<stop stop-color="#214A35"/>
<stop offset="1" stop-color="#022B1D"/>
</linearGradient>
</defs>
</svg>
