<svg width="286" height="325" viewBox="0 0 286 325" fill="none" xmlns="http://www.w3.org/2000/svg">
<path d="M185.35 329.029L147.465 328.927C146.254 328.727 145.078 328.759 143.891 328.917L123.133 328.861C115.733 323.37 114.592 306.688 114.592 306.688C120.813 311.108 134.483 311.354 135.743 309.121C137.003 306.888 118.538 301.106 115.909 299.449C113.276 297.796 110.141 290.42 117 279.977C123.86 269.533 142.027 279.45 142.027 279.45C142.027 279.45 148.588 303.813 152.253 305.544C155.918 307.271 150.712 283.62 150.712 283.62C158.351 285.33 174.239 300.583 174.239 300.583C174.239 300.583 165.379 323.595 169.356 324.367C173.334 325.143 176.16 303.592 176.16 303.592C182.619 308.089 186.568 318.638 186.568 318.638C187.579 322.875 186.905 326.291 185.35 329.029Z" fill="url(#paint0_linear_236_7059)"/>
<path d="M5.30991 68.0789C14.8234 51.7375 43.083 65.2425 43.083 65.2425C43.083 65.2425 54.9837 101.517 60.6637 103.83C66.3402 106.143 56.5423 70.8277 56.5423 70.8277C68.2218 72.7866 93.4765 94.5412 93.4765 94.5412C93.4765 94.5412 81.9655 130.033 88.0387 130.879C94.1119 131.725 96.6289 98.9328 96.6289 98.9328C106.757 105.199 113.581 120.814 113.581 120.814C120.806 145.201 89.1199 153.216 89.1199 153.216C89.1199 153.216 85.3953 165.601 89.2568 181.995C89.2568 181.995 90.2854 185.109 90.8471 190.076L87.8456 189.269C87.8175 188.398 87.7543 187.545 87.656 186.72C87.656 186.713 87.656 186.71 87.656 186.706C87.656 186.696 87.656 186.682 87.6525 186.671C87.5718 186.152 87.4524 185.411 87.3015 184.509C87.3015 184.509 87.3015 184.509 87.3015 184.505C86.8662 182.462 86.6029 180.97 86.4695 179.906C86.4695 179.906 86.4695 179.899 86.4695 179.896C85.2373 173.517 83.2503 165.106 81.0247 162.856C81.0247 162.856 81.481 162.477 82.0392 161.652C81.7162 162.034 81.3792 162.438 81.0247 162.856C72.9224 172.489 46.7234 167.412 33.1939 160.627C19.6644 153.837 26.9908 151.478 36.4657 146.995C45.9406 142.512 61.6326 148.586 67.095 147.301C72.5608 146.012 66.2735 141.568 56.5283 139.736C46.7831 137.903 39.4426 146.167 23.6277 143.488C7.80937 140.81 3.86006 108.643 3.86006 108.643C13.6193 114.811 34.2927 114.07 36.0164 110.595C37.7365 107.119 9.36454 99.8842 5.25724 97.5989C1.14643 95.3135 -4.19305 84.4274 5.31694 68.086L5.30991 68.0789Z" fill="url(#paint1_linear_236_7059)"/>
<path d="M223.987 150.969C235.031 135.751 261.648 151.938 261.648 151.938C261.648 151.938 269.799 189.02 275.188 191.878C280.573 194.735 274.408 158.812 274.408 158.812C285.768 161.919 308.587 185.966 308.587 185.966C308.587 185.966 293.65 219.934 299.575 221.376C305.501 222.819 311.265 190.624 311.265 190.624C320.659 197.835 325.852 213.969 325.852 213.969C330.563 238.82 298.41 243.587 298.41 243.587C298.41 243.587 293.488 255.47 295.668 272.079C295.668 272.079 296.377 275.263 296.433 280.234L293.541 279.135C293.6 278.271 293.625 277.422 293.611 276.593C293.611 276.586 293.611 276.583 293.611 276.579C293.611 276.569 293.611 276.555 293.611 276.544C293.583 276.021 293.541 275.277 293.478 274.368C293.478 274.368 293.478 274.368 293.478 274.364C293.253 272.3 293.141 270.794 293.113 269.73C293.113 269.73 293.113 269.723 293.113 269.72C292.53 263.285 291.406 254.765 289.426 252.315C289.426 252.315 289.918 251.985 290.55 251.223C290.192 251.57 289.82 251.932 289.426 252.315C280.447 261.038 255.034 253.399 242.322 245.329C229.611 237.261 237.099 235.657 246.921 232.168C256.744 228.678 271.663 236.254 277.199 235.527C282.735 234.801 276.961 229.774 267.5 226.986C258.042 224.199 249.951 231.641 234.571 227.411C219.188 223.181 218.493 190.958 218.493 190.958C227.533 198.035 248.065 199.369 250.116 196.101C252.166 192.836 224.815 182.841 220.978 180.17C217.141 177.498 212.943 166.191 223.987 150.973V150.969Z" fill="url(#paint2_linear_236_7059)"/>
<path d="M297.613 309.919C297.613 309.919 293.607 323.965 294.38 329.423L279.211 329.385C278.895 326.303 279.639 322.957 282.202 319.527C282.202 319.527 289.956 311.467 297.613 309.919Z" fill="url(#paint3_linear_236_7059)"/>
<path d="M235.684 80.805L264.828 85.3265L245.615 71.8848L244.58 76.1044L237.464 77.305L235.684 80.805Z" fill="#E65924"/>
<path d="M264.828 85.3266L240.686 72.5027L216.892 71.0107L264.828 85.3266Z" fill="#FD9C28"/>
<path d="M245.615 71.885L264.828 85.3267L250.084 64.5059L245.615 71.885Z" fill="#FD9C28"/>
<path d="M64.6797 138.025H209.699V176.118H106.581V216.657H197.458V254.75H106.581V328.485H64.6797V138.025Z" fill="url(#paint4_linear_236_7059)"/>
<path d="M272.804 141.796H310.412L389.869 328.517H347.227L330.275 286.935H251.878L234.926 328.517H193.344L272.801 141.796H272.804ZM315.71 250.917L291.076 190.796L266.447 250.917H315.71Z" fill="url(#paint5_linear_236_7059)"/>
<defs>
<linearGradient id="paint0_linear_236_7059" x1="112.855" y1="302.11" x2="187.046" y2="302.11" gradientUnits="userSpaceOnUse">
<stop stop-color="#CBCE55"/>
<stop offset="1" stop-color="#217B4F"/>
</linearGradient>
<linearGradient id="paint1_linear_236_7059" x1="-0.00851987" y1="125.041" x2="114.655" y2="125.041" gradientUnits="userSpaceOnUse">
<stop stop-color="#CBCE55"/>
<stop offset="1" stop-color="#217B4F"/>
</linearGradient>
<linearGradient id="paint2_linear_236_7059" x1="216.892" y1="212.337" x2="326.318" y2="212.337" gradientUnits="userSpaceOnUse">
<stop stop-color="#CBCE55"/>
<stop offset="1" stop-color="#217B4F"/>
</linearGradient>
<linearGradient id="paint3_linear_236_7059" x1="279.14" y1="319.671" x2="297.613" y2="319.671" gradientUnits="userSpaceOnUse">
<stop stop-color="#CBCE55"/>
<stop offset="1" stop-color="#217B4F"/>
</linearGradient>
<linearGradient id="paint4_linear_236_7059" x1="64.6797" y1="233.252" x2="209.699" y2="233.252" gradientUnits="userSpaceOnUse">
<stop stop-color="#214A35"/>
<stop offset="1" stop-color="#022B1D"/>
</linearGradient>
<linearGradient id="paint5_linear_236_7059" x1="193.347" y1="235.158" x2="389.869" y2="235.158" gradientUnits="userSpaceOnUse">
<stop stop-color="#214A35"/>
<stop offset="1" stop-color="#022B1D"/>
</linearGradient>
</defs>
</svg>
