<svg width="758" height="202" viewBox="0 0 758 202" fill="none" xmlns="http://www.w3.org/2000/svg">
<path d="M2 81.3304L3.88972 78.2923L5.77945 75.2765L7.66917 72.2861L9.5589 69.3241L11.4486 66.3933L13.3383 63.4967L15.2281 60.637L17.1178 57.8173L19.0075 55.0401L20.8972 52.3083L22.787 49.6245L24.6767 46.9915L26.5664 44.4117L28.4561 41.8878L30.3459 39.4222L32.2356 37.0174L34.1253 34.6758L36.015 32.3996L37.9048 30.191L39.7945 28.0524L41.6842 25.9858L43.5739 23.9932L45.4637 22.0766L47.3534 20.2378L49.2431 18.4788L51.1328 16.8012L53.0226 15.2067L54.9123 13.6969L56.802 12.2733L58.6917 10.9372L60.5815 9.68994L62.4712 8.53284L64.3609 7.46698L66.2506 6.49344L68.1403 5.61316L70.0301 4.82702L71.9198 4.13578L73.8095 3.54014L75.6992 3.04068L77.589 2.63789L79.4787 2.33218L81.3684 2.12384L83.2581 2.01307L85.1479 2L87.0376 2.08463L88.9273 2.26687L90.817 2.54655L92.7068 2.9234L94.5965 3.39703L96.4862 3.96699L98.3759 4.63271L100.266 5.39352L102.155 6.2487L104.045 7.19737L105.935 8.23862L107.825 9.37142L109.714 10.5946L111.604 11.9071L113.494 13.3074L115.383 14.7944L117.273 16.3663L119.163 18.0218L121.053 19.7592L122.942 21.5768L124.832 23.4728L126.722 25.4452L128.612 27.4922L130.501 29.6118L132.391 31.8018L134.281 34.0601L136.17 36.3845L138.06 38.7726L139.95 41.2222L141.84 43.7307L143.729 46.2958L145.619 48.9148L147.509 51.5853L149.398 54.3045L151.288 57.0698L153.178 59.8785L155.068 62.7277L156.957 65.6147L158.847 68.5366L160.737 71.4906L162.627 74.4736L164.516 77.4829L166.406 80.5154L168.296 83.5681L170.185 86.638L172.075 89.722L173.965 92.8172L175.855 95.9205L177.744 99.0288L179.634 102.139L181.524 105.248L183.414 108.353L185.303 111.451L187.193 114.538L189.083 117.612L190.972 120.67L192.862 123.708L194.752 126.724L196.642 129.714L198.531 132.676L200.421 135.607L202.311 138.503L204.2 141.363L206.09 144.183L207.98 146.96L209.87 149.692L211.759 152.375L213.649 155.009L215.539 157.588L217.429 160.112L219.318 162.578L221.208 164.983L223.098 167.324L224.987 169.6L226.877 171.809L228.767 173.948L230.657 176.014L232.546 178.007L234.436 179.923L236.326 181.762L238.216 183.521L240.105 185.199L241.995 186.793L243.885 188.303L245.774 189.727L247.664 191.063L249.554 192.31L251.444 193.467L253.333 194.533L255.223 195.507L257.113 196.387L259.002 197.173L260.892 197.864L262.782 198.46L264.672 198.959L266.561 199.362L268.451 199.668L270.341 199.876L272.231 199.987L274.12 200L276.01 199.915L277.9 199.733L279.789 199.453L281.679 199.077L283.569 198.603L285.459 198.033L287.348 197.367L289.238 196.606L291.128 195.751L293.018 194.803L294.907 193.761L296.797 192.629L298.687 191.405L300.576 190.093L302.466 188.693L304.356 187.206L306.246 185.634L308.135 183.978L310.025 182.241L311.915 180.423L313.805 178.527L315.694 176.555L317.584 174.508L319.474 172.388L321.363 170.198L323.253 167.94L325.143 165.616L327.033 163.227L328.922 160.778L330.812 158.269L332.702 155.704L334.591 153.085L336.481 150.415L338.371 147.696L340.261 144.93L342.15 142.122L344.04 139.272L345.93 136.385L347.82 133.463L349.709 130.509L351.599 127.526L353.489 124.517L355.378 121.485L357.268 118.432L359.158 115.362L361.048 112.278L362.937 109.183L364.827 106.08L366.717 102.971L368.607 99.861L370.496 96.7519L372.386 93.647L374.276 90.5494L376.165 87.462L378.055 84.388L379.945 81.3304L381.835 78.2923L383.724 75.2765L385.614 72.2861L387.504 69.3241L389.393 66.3933L391.283 63.4967L393.173 60.637L395.063 57.8173L396.952 55.0401L398.842 52.3083L400.732 49.6245L402.622 46.9915L404.511 44.4117L406.401 41.8878L408.291 39.4222L410.18 37.0174L412.07 34.6758L413.96 32.3996L415.85 30.191L417.739 28.0524L419.629 25.9858L421.519 23.9932L423.409 22.0766L425.298 20.2378L427.188 18.4788L429.078 16.8012L430.967 15.2067L432.857 13.6969L434.747 12.2733L436.637 10.9372L438.526 9.68994L440.416 8.53284L442.306 7.46698L444.195 6.49344L446.085 5.61316L447.975 4.82702L449.865 4.13578L451.754 3.54014L453.644 3.04068L455.534 2.63789L457.424 2.33218L459.313 2.12384L461.203 2.01307L463.093 2L464.982 2.08463L466.872 2.26687L468.762 2.54655L470.652 2.9234L472.541 3.39703L474.431 3.96699L476.321 4.63271L478.211 5.39352L480.1 6.2487L481.99 7.19737L483.88 8.23862L485.769 9.37142L487.659 10.5946L489.549 11.9071L491.439 13.3074L493.328 14.7944L495.218 16.3663L497.108 18.0218L498.997 19.7592L500.887 21.5768L502.777 23.4728L504.667 25.4452L506.556 27.4922L508.446 29.6118L510.336 31.8018L512.226 34.0601L514.115 36.3845L516.005 38.7726L517.895 41.2222L519.784 43.7307L521.674 46.2958L523.564 48.9148L525.454 51.5853L527.343 54.3045L529.233 57.0698L531.123 59.8785L533.013 62.7277L534.902 65.6147L536.792 68.5366L538.682 71.4906L540.571 74.4736L542.461 77.4829L544.351 80.5154L546.241 83.5681L548.13 86.638L550.02 89.722L551.91 92.8172L553.799 95.9205L555.689 99.0288L557.579 102.139L559.469 105.248L561.358 108.353L563.248 111.451L565.138 114.538L567.028 117.612L568.917 120.67L570.807 123.708L572.697 126.724L574.586 129.714L576.476 132.676L578.366 135.607L580.256 138.503L582.145 141.363L584.035 144.183L585.925 146.96L587.815 149.692L589.704 152.375L591.594 155.009L593.484 157.588L595.373 160.112L597.263 162.578L599.153 164.983L601.043 167.324L602.932 169.6L604.822 171.809L606.712 173.948L608.601 176.014L610.491 178.007L612.381 179.923L614.271 181.762L616.16 183.521L618.05 185.199L619.94 186.793L621.83 188.303L623.719 189.727L625.609 191.063L627.499 192.31L629.388 193.467L631.278 194.533L633.168 195.507L635.058 196.387L636.947 197.173L638.837 197.864L640.727 198.46L642.617 198.959L644.506 199.362L646.396 199.668L648.286 199.876L650.175 199.987L652.065 200L653.955 199.915L655.845 199.733L657.734 199.453L659.624 199.077L661.514 198.603L663.403 198.033L665.293 197.367L667.183 196.606L669.073 195.751L670.962 194.803L672.852 193.761L674.742 192.629L676.632 191.405L678.521 190.093L680.411 188.693L682.301 187.206L684.19 185.634L686.08 183.978L687.97 182.241L689.86 180.423L691.749 178.527L693.639 176.555L695.529 174.508L697.419 172.388L699.308 170.198L701.198 167.94L703.088 165.616L704.977 163.227L706.867 160.778L708.757 158.269L710.647 155.704L712.536 153.085L714.426 150.415L716.316 147.696L718.205 144.93L720.095 142.122L721.985 139.272L723.875 136.385L725.764 133.463L727.654 130.509L729.544 127.526L731.434 124.517L733.323 121.485L735.213 118.432L737.103 115.362L738.992 112.278L740.882 109.183L742.772 106.08L744.662 102.971L746.551 99.861L748.441 96.7519L750.331 93.647L752.221 90.5494L754.11 87.462L756 84.388" stroke="url(#paint0_linear_892_2292)" stroke-opacity="0.8" stroke-width="3" stroke-miterlimit="10" stroke-linecap="round" stroke-linejoin="round"/>
<defs>
<linearGradient id="paint0_linear_892_2292" x1="805.5" y1="200" x2="714.989" y2="-171.453" gradientUnits="userSpaceOnUse">
<stop stop-color="#2D7E33"/>
<stop offset="1" stop-color="#F7941D"/>
</linearGradient>
</defs>
</svg>
