<svg width="707" height="38" viewBox="0 0 707 38" fill="none" xmlns="http://www.w3.org/2000/svg">
<path d="M16.0075 0.599998C18.5035 0.599998 20.8608 1.08533 23.0795 2.056C25.2982 2.992 27.2222 4.292 28.8515 5.956C30.5155 7.58533 31.8155 9.50933 32.7515 11.728C33.7222 13.9467 34.2075 16.304 34.2075 18.8C34.2075 21.296 33.7222 23.6533 32.7515 25.872C31.8155 28.0907 30.5155 30.032 28.8515 31.696C27.2222 33.3253 25.2982 34.6253 23.0795 35.596C20.8608 36.532 18.5035 37 16.0075 37H12.9915L9.55949 30.656H16.0075C17.4982 30.656 18.9022 30.3613 20.2195 29.772C21.5715 29.1827 22.7328 28.368 23.7035 27.328C24.7088 26.2533 25.4888 24.988 26.0435 23.532C26.6328 22.076 26.9275 20.4987 26.9275 18.8C26.9275 17.136 26.6328 15.576 26.0435 14.12C25.4888 12.664 24.7088 11.416 23.7035 10.376C22.7328 9.30133 21.5715 8.46933 20.2195 7.88C18.9022 7.256 17.4982 6.944 16.0075 6.944H7.68749V37H0.407494V0.599998H16.0075ZM39.9255 0.599998H47.5175V37H39.9255V0.599998ZM70.2321 15.732C71.8961 16.1827 73.4215 16.6853 74.8081 17.24C76.2295 17.7947 77.4428 18.4707 78.4481 19.268C79.4881 20.0653 80.2855 21.0187 80.8401 22.128C81.4295 23.2373 81.7241 24.5547 81.7241 26.08V26.236C81.7241 27.9 81.3775 29.4253 80.6841 30.812C80.0255 32.1987 79.0895 33.3947 77.8761 34.4C76.6975 35.3707 75.2935 36.1333 73.6641 36.688C72.0695 37.208 70.3188 37.468 68.4121 37.468C66.6441 37.468 64.9455 37.26 63.3161 36.844C61.7215 36.3933 60.2655 35.8213 58.9481 35.128C57.6308 34.4 56.4695 33.5853 55.4641 32.684C54.4935 31.7827 53.7481 30.8467 53.2281 29.876L59.3121 26.028C59.9708 26.756 60.6295 27.4147 61.2881 28.004C61.9468 28.5587 62.6401 29.044 63.3681 29.46C64.0961 29.8413 64.8935 30.136 65.7601 30.344C66.6268 30.552 67.5801 30.656 68.6201 30.656C69.2788 30.656 69.9375 30.5867 70.5961 30.448C71.2895 30.3093 71.9135 30.084 72.4681 29.772C73.0228 29.46 73.4735 29.0787 73.8201 28.628C74.1668 28.1427 74.3401 27.5533 74.3401 26.86C74.3401 26.3747 74.2188 25.9067 73.9761 25.456C73.7335 25.0053 73.3175 24.572 72.7281 24.156C72.1388 23.7053 71.3415 23.2893 70.3361 22.908C69.3308 22.492 68.0655 22.0933 66.5401 21.712C64.6681 21.2613 62.9868 20.7587 61.4961 20.204C60.0055 19.6147 58.7401 18.9213 57.7001 18.124C56.6601 17.292 55.8628 16.304 55.3081 15.16C54.7535 14.016 54.4761 12.664 54.4761 11.104C54.4761 9.40533 54.7881 7.88 55.4121 6.528C56.0708 5.14133 56.9721 3.98 58.1161 3.044C59.2601 2.108 60.5948 1.39733 62.1201 0.912C63.6801 0.391998 65.3441 0.131997 67.1121 0.131997C68.9495 0.131997 70.6135 0.339998 72.1041 0.755999C73.5948 1.172 74.9295 1.70933 76.1081 2.368C77.2868 2.992 78.3095 3.72 79.1761 4.552C80.0775 5.34933 80.8228 6.12933 81.4121 6.892L75.4321 10.74C73.9415 9.31867 72.5201 8.33067 71.1681 7.776C69.8508 7.18666 68.4641 6.892 67.0081 6.892C66.1068 6.892 65.3268 7.01333 64.6681 7.256C64.0441 7.464 63.5241 7.74133 63.1081 8.088C62.6921 8.4 62.3628 8.764 62.1201 9.18C61.9121 9.596 61.8081 9.99467 61.8081 10.376C61.8081 11.0693 61.9815 11.676 62.3281 12.196C62.7095 12.6813 63.2468 13.132 63.9401 13.548C64.6681 13.964 65.5521 14.3453 66.5921 14.692C67.6668 15.0387 68.8801 15.3853 70.2321 15.732ZM120.163 28.628C119.331 29.9453 118.343 31.1413 117.199 32.216C116.09 33.2907 114.859 34.2267 113.507 35.024C112.155 35.7867 110.699 36.376 109.139 36.792C107.579 37.208 105.967 37.416 104.303 37.416C101.738 37.416 99.3115 36.9307 97.0235 35.96C94.7702 34.9893 92.7942 33.672 91.0955 32.008C89.4315 30.3093 88.1142 28.3333 87.1435 26.08C86.1728 23.792 85.6875 21.3653 85.6875 18.8C85.6875 16.2347 86.1728 13.8253 87.1435 11.572C88.1142 9.284 89.4315 7.308 91.0955 5.644C92.7942 3.94533 94.7702 2.61067 97.0235 1.64C99.3115 0.669333 101.738 0.184 104.303 0.184C105.967 0.184 107.579 0.391999 109.139 0.807998C110.699 1.224 112.155 1.83067 113.507 2.628C114.859 3.39066 116.09 4.30933 117.199 5.384C118.343 6.45867 119.331 7.65467 120.163 8.972L114.079 12.872C113.109 11 111.774 9.50933 110.075 8.4C108.377 7.256 106.453 6.684 104.303 6.684C102.778 6.684 101.339 7.01333 99.9875 7.672C98.6355 8.296 97.4568 9.16267 96.4515 10.272C95.4462 11.3467 94.6488 12.6293 94.0595 14.12C93.4702 15.576 93.1755 17.136 93.1755 18.8C93.1755 20.464 93.4702 22.0413 94.0595 23.532C94.6488 24.988 95.4462 26.2707 96.4515 27.38C97.4568 28.4547 98.6355 29.3213 99.9875 29.98C101.339 30.604 102.778 30.916 104.303 30.916C106.453 30.916 108.377 30.3613 110.075 29.252C111.774 28.108 113.109 26.6 114.079 24.728L120.163 28.628ZM141.068 0.131997C143.634 0.131997 146.026 0.634665 148.244 1.64C150.463 2.61067 152.387 3.94533 154.016 5.644C155.646 7.308 156.911 9.284 157.812 11.572C158.748 13.8253 159.216 16.2347 159.216 18.8C159.216 20.984 158.887 23.064 158.228 25.04C157.57 27.016 156.634 28.8013 155.42 30.396C154.207 31.9907 152.751 33.36 151.052 34.504C149.388 35.6133 147.551 36.4107 145.54 36.896L141.9 30.708C143.356 30.604 144.674 30.2227 145.852 29.564C147.066 28.8707 148.106 28.004 148.972 26.964C149.839 25.8893 150.515 24.6587 151 23.272C151.486 21.8507 151.728 20.36 151.728 18.8C151.728 17.1707 151.451 15.628 150.896 14.172C150.376 12.716 149.648 11.4507 148.712 10.376C147.776 9.30133 146.65 8.452 145.332 7.828C144.05 7.204 142.628 6.892 141.068 6.892C139.508 6.892 138.07 7.204 136.752 7.828C135.47 8.452 134.343 9.30133 133.372 10.376C132.436 11.4507 131.691 12.716 131.136 14.172C130.616 15.628 130.356 17.1707 130.356 18.8C130.356 20.4293 130.616 21.972 131.136 23.428C131.691 24.884 132.436 26.1493 133.372 27.224C134.343 28.2987 135.47 29.148 136.752 29.772C138.07 30.396 139.508 30.708 141.068 30.708V37.468C138.503 37.468 136.111 36.9827 133.892 36.012C131.674 35.0413 129.75 33.7067 128.12 32.008C126.491 30.3093 125.208 28.3333 124.272 26.08C123.371 23.792 122.92 21.3653 122.92 18.8C122.92 16.2347 123.371 13.8253 124.272 11.572C125.208 9.284 126.491 7.308 128.12 5.644C129.75 3.94533 131.674 2.61067 133.892 1.64C136.111 0.634665 138.503 0.131997 141.068 0.131997ZM167.53 0.599998L178.034 26.08L172.262 31.124L159.678 0.599998H167.53ZM189.578 0.599998H197.43L182.506 37H174.706L189.578 0.599998ZM221.177 22.492H213.065L209.685 15.68H221.177V22.492ZM225.493 0.599998L225.545 6.684H208.437L208.385 30.968H225.493V37H201.105V0.599998H225.493ZM261.896 37H252.64L247.076 30.136L253.16 26.184L261.896 37ZM253.628 25.04C252.796 25.4213 252.016 25.6987 251.288 25.872C250.595 26.0453 249.728 26.1667 248.688 26.236C247.683 26.2707 246.418 26.288 244.892 26.288C243.402 26.2533 241.46 26.236 239.068 26.236V37H231.736V0.599998H248.22C249.988 0.599998 251.635 0.946665 253.16 1.64C254.72 2.29867 256.072 3.21733 257.216 4.396C258.395 5.54 259.314 6.90933 259.972 8.504C260.666 10.064 261.012 11.728 261.012 13.496C261.012 16.096 260.319 18.4187 258.932 20.464C257.58 22.5093 255.812 24.0347 253.628 25.04ZM239.068 18.956H248.22C249.78 18.956 251.098 18.4187 252.172 17.344C253.247 16.2347 253.784 14.7613 253.784 12.924C253.784 12.1613 253.628 11.4333 253.316 10.74C253.039 10.012 252.64 9.37066 252.12 8.816C251.635 8.26133 251.046 7.828 250.352 7.516C249.694 7.16933 248.983 6.996 248.22 6.996H239.068V18.8V18.852V18.956ZM309.019 32.268L303.819 37.468L300.959 34.556L295.655 29.304L288.687 22.284L288.271 22.648C287.335 23.48 286.867 24.4853 286.867 25.664C286.867 26.3227 287.023 26.9467 287.335 27.536C287.647 28.1253 288.045 28.6453 288.531 29.096C289.051 29.5467 289.64 29.9107 290.299 30.188C290.992 30.4307 291.703 30.552 292.431 30.552C292.847 30.552 293.297 30.5347 293.783 30.5C294.268 30.4653 294.736 30.3787 295.187 30.24L297.111 36.532C296.348 36.7747 295.568 36.9653 294.771 37.104C294.008 37.2427 293.228 37.312 292.431 37.312C290.697 37.312 289.051 37 287.491 36.376C285.931 35.752 284.561 34.92 283.383 33.88C282.239 32.8053 281.32 31.5573 280.627 30.136C279.933 28.7147 279.587 27.224 279.587 25.664C279.587 24.0693 279.899 22.5613 280.523 21.14C281.181 19.684 282.117 18.4013 283.331 17.292L283.591 17.084C282.863 16.148 282.291 15.1427 281.875 14.068C281.459 12.9933 281.251 11.8667 281.251 10.688C281.251 9.232 281.545 7.86266 282.135 6.58C282.724 5.29733 283.556 4.15333 284.631 3.148C285.705 2.14267 286.901 1.39733 288.219 0.912C289.571 0.391998 290.975 0.131997 292.431 0.131997C293.713 0.131997 294.875 0.305331 295.915 0.651997C296.955 0.963997 297.891 1.38 298.723 1.9C299.589 2.42 300.352 3.00933 301.011 3.668C301.704 4.32666 302.328 4.98533 302.883 5.644L297.007 10.116C296.417 9.284 295.759 8.52133 295.031 7.828C294.303 7.13466 293.436 6.788 292.431 6.788C291.321 6.788 290.403 7.18667 289.675 7.984C288.947 8.74667 288.583 9.648 288.583 10.688C288.583 11.5893 288.929 12.3347 289.623 12.924L289.675 13.028L299.087 22.388V17.136C299.468 17.032 299.953 16.9107 300.543 16.772C301.132 16.5987 301.756 16.4253 302.415 16.252C303.073 16.044 303.749 15.8533 304.443 15.68C305.136 15.472 305.777 15.2813 306.367 15.108V25.664C306.367 26.2533 306.297 26.8253 306.159 27.38C306.055 27.9 305.899 28.4547 305.691 29.044L309.019 32.268ZM361.964 28.628C361.132 29.9453 360.144 31.1413 359 32.216C357.89 33.2907 356.66 34.2267 355.308 35.024C353.956 35.7867 352.5 36.376 350.94 36.792C349.38 37.208 347.768 37.416 346.104 37.416C343.538 37.416 341.112 36.9307 338.824 35.96C336.57 34.9893 334.594 33.672 332.896 32.008C331.232 30.3093 329.914 28.3333 328.944 26.08C327.973 23.792 327.488 21.3653 327.488 18.8C327.488 16.2347 327.973 13.8253 328.944 11.572C329.914 9.284 331.232 7.308 332.896 5.644C334.594 3.94533 336.57 2.61067 338.824 1.64C341.112 0.669333 343.538 0.184 346.104 0.184C347.768 0.184 349.38 0.391999 350.94 0.807998C352.5 1.224 353.956 1.83067 355.308 2.628C356.66 3.39066 357.89 4.30933 359 5.384C360.144 6.45867 361.132 7.65467 361.964 8.972L355.88 12.872C354.909 11 353.574 9.50933 351.876 8.4C350.177 7.256 348.253 6.684 346.104 6.684C344.578 6.684 343.14 7.01333 341.788 7.672C340.436 8.296 339.257 9.16267 338.252 10.272C337.246 11.3467 336.449 12.6293 335.86 14.12C335.27 15.576 334.976 17.136 334.976 18.8C334.976 20.464 335.27 22.0413 335.86 23.532C336.449 24.988 337.246 26.2707 338.252 27.38C339.257 28.4547 340.436 29.3213 341.788 29.98C343.14 30.604 344.578 30.916 346.104 30.916C348.253 30.916 350.177 30.3613 351.876 29.252C353.574 28.108 354.909 26.6 355.88 24.728L361.964 28.628ZM382.868 0.131997C385.434 0.131997 387.826 0.634665 390.044 1.64C392.263 2.61067 394.187 3.94533 395.816 5.644C397.446 7.308 398.711 9.284 399.612 11.572C400.548 13.8253 401.016 16.2347 401.016 18.8C401.016 20.984 400.687 23.064 400.028 25.04C399.37 27.016 398.434 28.8013 397.22 30.396C396.007 31.9907 394.551 33.36 392.852 34.504C391.188 35.6133 389.351 36.4107 387.34 36.896L383.7 30.708C385.156 30.604 386.474 30.2227 387.652 29.564C388.866 28.8707 389.906 28.004 390.772 26.964C391.639 25.8893 392.315 24.6587 392.8 23.272C393.286 21.8507 393.528 20.36 393.528 18.8C393.528 17.1707 393.251 15.628 392.696 14.172C392.176 12.716 391.448 11.4507 390.512 10.376C389.576 9.30133 388.45 8.452 387.132 7.828C385.85 7.204 384.428 6.892 382.868 6.892C381.308 6.892 379.87 7.204 378.552 7.828C377.27 8.452 376.143 9.30133 375.172 10.376C374.236 11.4507 373.491 12.716 372.936 14.172C372.416 15.628 372.156 17.1707 372.156 18.8C372.156 20.4293 372.416 21.972 372.936 23.428C373.491 24.884 374.236 26.1493 375.172 27.224C376.143 28.2987 377.27 29.148 378.552 29.772C379.87 30.396 381.308 30.708 382.868 30.708V37.468C380.303 37.468 377.911 36.9827 375.692 36.012C373.474 35.0413 371.55 33.7067 369.92 32.008C368.291 30.3093 367.008 28.3333 366.072 26.08C365.171 23.792 364.72 21.3653 364.72 18.8C364.72 16.2347 365.171 13.8253 366.072 11.572C367.008 9.284 368.291 7.308 369.92 5.644C371.55 3.94533 373.474 2.61067 375.692 1.64C377.911 0.634665 380.303 0.131997 382.868 0.131997ZM406.739 37V0.599998H414.019V37H406.739ZM415.111 29.72H431.127V37H419.167L415.111 29.72ZM436.304 37V0.599998H443.584V37H436.304ZM444.676 29.72H460.692V37H448.732L444.676 29.72ZM485.94 22.492H477.828L474.448 15.68H485.94V22.492ZM490.256 0.599998L490.308 6.684H473.2L473.148 30.968H490.256V37H465.868V0.599998H490.256ZM527.104 28.628C526.272 29.9453 525.284 31.1413 524.14 32.216C523.031 33.2907 521.8 34.2267 520.448 35.024C519.096 35.7867 517.64 36.376 516.08 36.792C514.52 37.208 512.908 37.416 511.244 37.416C508.679 37.416 506.252 36.9307 503.964 35.96C501.711 34.9893 499.735 33.672 498.036 32.008C496.372 30.3093 495.055 28.3333 494.084 26.08C493.113 23.792 492.628 21.3653 492.628 18.8C492.628 16.2347 493.113 13.8253 494.084 11.572C495.055 9.284 496.372 7.308 498.036 5.644C499.735 3.94533 501.711 2.61067 503.964 1.64C506.252 0.669333 508.679 0.184 511.244 0.184C512.908 0.184 514.52 0.391999 516.08 0.807998C517.64 1.224 519.096 1.83067 520.448 2.628C521.8 3.39066 523.031 4.30933 524.14 5.384C525.284 6.45867 526.272 7.65467 527.104 8.972L521.02 12.872C520.049 11 518.715 9.50933 517.016 8.4C515.317 7.256 513.393 6.684 511.244 6.684C509.719 6.684 508.28 7.01333 506.928 7.672C505.576 8.296 504.397 9.16267 503.392 10.272C502.387 11.3467 501.589 12.6293 501 14.12C500.411 15.576 500.116 17.136 500.116 18.8C500.116 20.464 500.411 22.0413 501 23.532C501.589 24.988 502.387 26.2707 503.392 27.38C504.397 28.4547 505.576 29.3213 506.928 29.98C508.28 30.604 509.719 30.916 511.244 30.916C513.393 30.916 515.317 30.3613 517.016 29.252C518.715 28.108 520.049 26.6 521.02 24.728L527.104 28.628ZM549.28 0.599998V37H541.792V6.944H531.08V0.599998H549.28ZM550.372 0.599998H559.992V6.944H553.544L550.372 0.599998ZM586.337 0.599998L609.789 34.4V37H602.197L586.337 14.12V37H578.745V0.599998H586.337ZM602.197 0.599998H609.789V27.848L602.197 22.388V0.599998ZM628.041 22.388L624.661 15.628H636.205V22.388H628.041ZM616.029 0.547998H640.625V6.684H623.361V37H616.029V0.547998ZM663.223 0.599998V37H655.735V6.944H645.023V0.599998H663.223ZM664.315 0.599998H673.935V6.944H667.487L664.315 0.599998ZM694.638 15.732C696.302 16.1827 697.828 16.6853 699.214 17.24C700.636 17.7947 701.849 18.4707 702.854 19.268C703.894 20.0653 704.692 21.0187 705.246 22.128C705.836 23.2373 706.13 24.5547 706.13 26.08V26.236C706.13 27.9 705.784 29.4253 705.09 30.812C704.432 32.1987 703.496 33.3947 702.282 34.4C701.104 35.3707 699.7 36.1333 698.07 36.688C696.476 37.208 694.725 37.468 692.818 37.468C691.05 37.468 689.352 37.26 687.722 36.844C686.128 36.3933 684.672 35.8213 683.354 35.128C682.037 34.4 680.876 33.5853 679.87 32.684C678.9 31.7827 678.154 30.8467 677.634 29.876L683.718 26.028C684.377 26.756 685.036 27.4147 685.694 28.004C686.353 28.5587 687.046 29.044 687.774 29.46C688.502 29.8413 689.3 30.136 690.166 30.344C691.033 30.552 691.986 30.656 693.026 30.656C693.685 30.656 694.344 30.5867 695.002 30.448C695.696 30.3093 696.32 30.084 696.874 29.772C697.429 29.46 697.88 29.0787 698.226 28.628C698.573 28.1427 698.746 27.5533 698.746 26.86C698.746 26.3747 698.625 25.9067 698.382 25.456C698.14 25.0053 697.724 24.572 697.134 24.156C696.545 23.7053 695.748 23.2893 694.742 22.908C693.737 22.492 692.472 22.0933 690.946 21.712C689.074 21.2613 687.393 20.7587 685.902 20.204C684.412 19.6147 683.146 18.9213 682.106 18.124C681.066 17.292 680.269 16.304 679.714 15.16C679.16 14.016 678.882 12.664 678.882 11.104C678.882 9.40533 679.194 7.88 679.818 6.528C680.477 5.14133 681.378 3.98 682.522 3.044C683.666 2.108 685.001 1.39733 686.526 0.912C688.086 0.391998 689.75 0.131997 691.518 0.131997C693.356 0.131997 695.02 0.339998 696.51 0.755999C698.001 1.172 699.336 1.70933 700.514 2.368C701.693 2.992 702.716 3.72 703.582 4.552C704.484 5.34933 705.229 6.12933 705.818 6.892L699.838 10.74C698.348 9.31867 696.926 8.33067 695.574 7.776C694.257 7.18666 692.87 6.892 691.414 6.892C690.513 6.892 689.733 7.01333 689.074 7.256C688.45 7.464 687.93 7.74133 687.514 8.088C687.098 8.4 686.769 8.764 686.526 9.18C686.318 9.596 686.214 9.99467 686.214 10.376C686.214 11.0693 686.388 11.676 686.734 12.196C687.116 12.6813 687.653 13.132 688.346 13.548C689.074 13.964 689.958 14.3453 690.998 14.692C692.073 15.0387 693.286 15.3853 694.638 15.732Z" fill="white"/>
<path d="M23.0795 2.056L22.6786 2.97223L22.6908 2.97736L23.0795 2.056ZM28.8515 5.956L28.137 6.65562L28.1443 6.66315L28.1519 6.67051L28.8515 5.956ZM32.7515 11.728L31.8301 12.1167L31.8353 12.1288L32.7515 11.728ZM32.7515 25.872L31.8353 25.4711L31.8301 25.4833L32.7515 25.872ZM28.8515 31.696L28.1444 30.9889L28.8515 31.696ZM23.0795 35.596L23.4682 36.5174L23.4803 36.5122L23.0795 35.596ZM12.9915 37L12.112 37.4758L12.3955 38H12.9915V37ZM9.55949 30.656V29.656H7.88156L8.67995 31.1318L9.55949 30.656ZM20.2195 29.772L19.8199 28.8553L19.8111 28.8592L20.2195 29.772ZM23.7035 27.328L22.9732 26.6448L22.9724 26.6457L23.7035 27.328ZM26.0435 23.532L25.1165 23.1568L25.1127 23.1664L25.109 23.176L26.0435 23.532ZM26.0435 14.12L25.109 14.476L25.1127 14.4856L25.1165 14.4952L26.0435 14.12ZM23.7035 10.376L22.9614 11.0463L22.9727 11.0588L22.9845 11.071L23.7035 10.376ZM20.2195 7.88L19.7914 8.78374L19.8056 8.79044L19.8199 8.7967L20.2195 7.88ZM7.68749 6.944V5.944H6.68749V6.944H7.68749ZM7.68749 37V38H8.68749V37H7.68749ZM0.407494 37H-0.592506V38H0.407494V37ZM0.407494 0.599998V-0.400002H-0.592506V0.599998H0.407494ZM16.0075 1.6C18.3699 1.6 20.5903 2.0585 22.6787 2.97215L23.4803 1.13984C21.1313 0.112164 18.6371 -0.400002 16.0075 -0.400002V1.6ZM22.6908 2.97736C24.7915 3.86358 26.6036 5.08965 28.137 6.65562L29.566 5.25638C27.8407 3.49434 25.8049 2.12041 23.4682 1.13463L22.6908 2.97736ZM28.1519 6.67051C29.7178 8.20386 30.9439 10.016 31.8301 12.1167L33.6729 11.3393C32.6871 9.00264 31.3132 6.96681 29.5511 5.24149L28.1519 6.67051ZM31.8353 12.1288C32.749 14.2172 33.2075 16.4376 33.2075 18.8H35.2075C35.2075 16.1704 34.6953 13.6762 33.6677 11.3272L31.8353 12.1288ZM33.2075 18.8C33.2075 21.1624 32.749 23.3828 31.8353 25.4712L33.6677 26.2728C34.6953 23.9238 35.2075 21.4296 35.2075 18.8H33.2075ZM31.8301 25.4833C30.9431 27.5858 29.7149 29.4183 28.1444 30.9889L29.5586 32.4031C31.3161 30.6457 32.6879 28.5955 33.6729 26.2607L31.8301 25.4833ZM28.1444 30.9889C26.6077 32.5256 24.789 33.7566 22.6787 34.6798L23.4803 36.5122C25.8073 35.4941 27.8367 34.1251 29.5586 32.4031L28.1444 30.9889ZM22.6908 34.6746C20.5997 35.5568 18.375 36 16.0075 36V38C18.632 38 21.122 37.5072 23.4682 36.5174L22.6908 34.6746ZM16.0075 36H12.9915V38H16.0075V36ZM13.871 36.5242L10.439 30.1802L8.67995 31.1318L12.112 37.4758L13.871 36.5242ZM9.55949 31.656H16.0075V29.656H9.55949V31.656ZM16.0075 31.656C17.6341 31.656 19.1778 31.3335 20.6279 30.6848L19.8111 28.8592C18.6265 29.3891 17.3622 29.656 16.0075 29.656V31.656ZM20.6191 30.6887C22.0917 30.0468 23.3671 29.154 24.4345 28.0103L22.9724 26.6457C22.0985 27.582 21.0513 28.3186 19.8199 28.8553L20.6191 30.6887ZM24.4338 28.0112C25.5329 26.8362 26.3799 25.458 26.978 23.888L25.109 23.176C24.5978 24.518 23.8848 25.6704 22.9732 26.6448L24.4338 28.0112ZM26.9704 23.9072C27.6118 22.3226 27.9275 20.6167 27.9275 18.8H25.9275C25.9275 20.3806 25.6538 21.8294 25.1165 23.1568L26.9704 23.9072ZM27.9275 18.8C27.9275 17.0151 27.6108 15.327 26.9704 13.7448L25.1165 14.4952C25.6548 15.825 25.9275 17.2569 25.9275 18.8H27.9275ZM26.978 13.764C26.3789 12.1914 25.5289 10.8256 24.4225 9.68098L22.9845 11.071C23.8887 12.0064 24.5987 13.1366 25.109 14.476L26.978 13.764ZM24.4456 9.70571C23.3778 8.52349 22.099 7.60839 20.6191 6.9633L19.8199 8.7967C21.044 9.33027 22.0879 10.0792 22.9614 11.0463L24.4456 9.70571ZM20.6476 6.97626C19.1933 6.28741 17.6428 5.944 16.0075 5.944V7.944C17.3536 7.944 18.611 8.22459 19.7914 8.78374L20.6476 6.97626ZM16.0075 5.944H7.68749V7.944H16.0075V5.944ZM6.68749 6.944V37H8.68749V6.944H6.68749ZM7.68749 36H0.407494V38H7.68749V36ZM1.40749 37V0.599998H-0.592506V37H1.40749ZM0.407494 1.6H16.0075V-0.400002H0.407494V1.6ZM39.9255 0.599998V-0.400002H38.9255V0.599998H39.9255ZM47.5175 0.599998H48.5175V-0.400002H47.5175V0.599998ZM47.5175 37V38H48.5175V37H47.5175ZM39.9255 37H38.9255V38H39.9255V37ZM39.9255 1.6H47.5175V-0.400002H39.9255V1.6ZM46.5175 0.599998V37H48.5175V0.599998H46.5175ZM47.5175 36H39.9255V38H47.5175V36ZM40.9255 37V0.599998H38.9255V37H40.9255ZM70.2321 15.732L70.4936 14.7667L70.4805 14.7633L70.2321 15.732ZM74.8081 17.24L74.4367 18.1685L74.4446 18.1716L74.8081 17.24ZM78.4481 19.268L77.8267 20.0515L77.8332 20.0566L77.8397 20.0616L78.4481 19.268ZM80.8401 22.128L79.9457 22.5752L79.9512 22.5863L79.957 22.5972L80.8401 22.128ZM80.6841 30.812L79.7897 30.3648L79.7852 30.3738L79.7808 30.3829L80.6841 30.812ZM77.8761 34.4L78.5118 35.1719L78.5141 35.17L77.8761 34.4ZM73.6641 36.688L73.9742 37.6388L73.9864 37.6347L73.6641 36.688ZM63.3161 36.844L63.0442 37.8063L63.0564 37.8098L63.0687 37.8129L63.3161 36.844ZM58.9481 35.128L58.4644 36.0032L58.4734 36.0082L58.4824 36.0129L58.9481 35.128ZM55.4641 32.684L54.7837 33.4168L54.7901 33.4227L54.7966 33.4286L55.4641 32.684ZM53.2281 29.876L52.6936 29.0309L51.9073 29.5282L52.3466 30.3482L53.2281 29.876ZM59.3121 26.028L60.0537 25.3571L59.4889 24.7329L58.7776 25.1829L59.3121 26.028ZM61.2881 28.004L60.6213 28.7492L60.6325 28.7592L60.644 28.7689L61.2881 28.004ZM63.3681 29.46L62.872 30.3282L62.8879 30.3373L62.9041 30.3458L63.3681 29.46ZM65.7601 30.344L65.5267 31.3164L65.7601 30.344ZM70.5961 30.448L70.4 29.4674L70.3901 29.4694L70.5961 30.448ZM72.4681 29.772L71.9779 28.9004L72.4681 29.772ZM73.8201 28.628L74.6127 29.2377L74.6236 29.2237L74.6339 29.2092L73.8201 28.628ZM73.9761 25.456L74.8566 24.9819L73.9761 25.456ZM72.7281 24.156L72.1207 24.9504L72.1358 24.962L72.1514 24.973L72.7281 24.156ZM70.3361 22.908L69.9538 23.832L69.9675 23.8377L69.9815 23.843L70.3361 22.908ZM66.5401 21.712L66.7827 20.7418L66.7742 20.7398L66.5401 21.712ZM61.4961 20.204L61.1285 21.134L61.1379 21.1377L61.1474 21.1412L61.4961 20.204ZM57.7001 18.124L57.0754 18.9049L57.0835 18.9113L57.0917 18.9176L57.7001 18.124ZM55.3081 15.16L56.2079 14.7237L55.3081 15.16ZM55.4121 6.528L54.5088 6.09892L54.5042 6.10894L55.4121 6.528ZM58.1161 3.044L57.4829 2.27004L58.1161 3.044ZM62.1201 0.912L62.4234 1.86502L62.4363 1.86068L62.1201 0.912ZM72.1041 0.755999L71.8353 1.71919V1.7192L72.1041 0.755999ZM76.1081 2.368L75.6203 3.24094L75.6302 3.24648L75.6402 3.25179L76.1081 2.368ZM79.1761 4.552L78.4836 5.27339L78.4983 5.2875L78.5135 5.30099L79.1761 4.552ZM81.4121 6.892L81.9532 7.73294L82.8699 7.14308L82.2034 6.28055L81.4121 6.892ZM75.4321 10.74L74.742 11.4637L75.3115 12.0067L75.9733 11.5809L75.4321 10.74ZM71.1681 7.776L70.7598 8.68882L70.7741 8.69522L70.7886 8.70117L71.1681 7.776ZM64.6681 7.256L64.9843 8.20468L64.9992 8.19974L65.0138 8.19434L64.6681 7.256ZM63.1081 8.088L63.7081 8.888L63.7286 8.87262L63.7483 8.85622L63.1081 8.088ZM62.1201 9.18L61.2563 8.67613L61.2401 8.70396L61.2257 8.73279L62.1201 9.18ZM62.3281 12.196L61.4961 12.7507L61.5177 12.7832L61.5418 12.8138L62.3281 12.196ZM63.9401 13.548L63.4256 14.4055L63.4347 14.411L63.444 14.4162L63.9401 13.548ZM66.5921 14.692L66.2759 15.6407L66.2851 15.6437L66.5921 14.692ZM69.9707 16.6972C71.6029 17.1393 73.091 17.6302 74.4367 18.1685L75.1795 16.3115C73.752 15.7405 72.1893 15.226 70.4935 14.7668L69.9707 16.6972ZM74.4446 18.1716C75.7901 18.6966 76.9126 19.3265 77.8267 20.0515L79.0695 18.4845C77.973 17.6148 76.6688 16.8927 75.1717 16.3084L74.4446 18.1716ZM77.8397 20.0616C78.7663 20.772 79.4627 21.6092 79.9457 22.5752L81.7346 21.6808C81.1082 20.4281 80.2099 19.3587 79.0566 18.4744L77.8397 20.0616ZM79.957 22.5972C80.4548 23.5342 80.7241 24.6835 80.7241 26.08H82.7241C82.7241 24.4258 82.4041 22.9405 81.7232 21.6588L79.957 22.5972ZM80.7241 26.08V26.236H82.7241V26.08H80.7241ZM80.7241 26.236C80.7241 27.7564 80.4086 29.127 79.7897 30.3648L81.5786 31.2592C82.3463 29.7236 82.7241 28.0436 82.7241 26.236H80.7241ZM79.7808 30.3829C79.1864 31.6344 78.3423 32.7151 77.2381 33.63L78.5141 35.17C79.8366 34.0742 80.8645 32.7629 81.5874 31.2411L79.7808 30.3829ZM77.2404 33.6281C76.1659 34.513 74.8714 35.2206 73.3419 35.7413L73.9864 37.6347C75.7155 37.046 77.229 36.2284 78.5118 35.1719L77.2404 33.6281ZM73.3541 35.7373C71.8722 36.2205 70.2277 36.468 68.4121 36.468V38.468C70.4099 38.468 72.2667 38.1955 73.9741 37.6387L73.3541 35.7373ZM68.4121 36.468C66.7233 36.468 65.1079 36.2694 63.5635 35.8751L63.0687 37.8129C64.783 38.2506 66.565 38.468 68.4121 38.468V36.468ZM63.5881 35.8817C62.0531 35.4479 60.663 34.9005 59.4139 34.2431L58.4824 36.0129C59.8679 36.7421 61.3898 37.3388 63.0442 37.8063L63.5881 35.8817ZM59.4318 34.2528C58.1731 33.5571 57.0749 32.785 56.1317 31.9394L54.7966 33.4286C55.8641 34.3856 57.0885 35.2429 58.4644 36.0032L59.4318 34.2528ZM56.1446 31.9512C55.2389 31.1102 54.5681 30.2596 54.1096 29.4038L52.3466 30.3482C52.9282 31.4337 53.748 32.4551 54.7837 33.4168L56.1446 31.9512ZM53.7627 30.7211L59.8467 26.8731L58.7776 25.1829L52.6936 29.0309L53.7627 30.7211ZM58.5706 26.6989C59.2503 27.4502 59.9338 28.1341 60.6213 28.7492L61.9549 27.2588C61.3251 26.6953 60.6913 26.0618 60.0537 25.3571L58.5706 26.6989ZM60.644 28.7689C61.3475 29.3614 62.0902 29.8815 62.872 30.3282L63.8643 28.5918C63.19 28.2065 62.5461 27.756 61.9323 27.2391L60.644 28.7689ZM62.9041 30.3458C63.711 30.7685 64.5866 31.0908 65.5267 31.3164L65.9935 29.3716C65.2003 29.1812 64.4812 28.9142 63.8321 28.5742L62.9041 30.3458ZM65.5267 31.3164C66.4813 31.5455 67.5142 31.656 68.6201 31.656V29.656C67.646 29.656 66.7723 29.5585 65.9935 29.3716L65.5267 31.3164ZM68.6201 31.656C69.3495 31.656 70.0772 31.5792 70.8021 31.4265L70.3901 29.4694C69.7977 29.5942 69.2081 29.656 68.6201 29.656V31.656ZM70.7922 31.4286C71.5774 31.2715 72.3024 31.0125 72.9584 30.6436L71.9779 28.9004C71.5245 29.1555 71.0015 29.3471 70.4 29.4674L70.7922 31.4286ZM72.9584 30.6436C73.6164 30.2734 74.1747 29.8072 74.6127 29.2377L73.0275 28.0183C72.7722 28.3502 72.4291 28.6466 71.9779 28.9004L72.9584 30.6436ZM74.6339 29.2092C75.1205 28.5279 75.3401 27.7268 75.3401 26.86H73.3401C73.3401 27.3799 73.2131 27.7574 73.0064 28.0468L74.6339 29.2092ZM75.3401 26.86C75.3401 26.2001 75.1733 25.5701 74.8566 24.9819L73.0956 25.9301C73.2643 26.2433 73.3401 26.5493 73.3401 26.86H75.3401ZM74.8566 24.9819C74.5168 24.3509 73.9721 23.81 73.3048 23.339L72.1514 24.973C72.6628 25.334 72.9501 25.6598 73.0956 25.9301L74.8566 24.9819ZM73.3356 23.3616C72.6432 22.8322 71.7499 22.3747 70.6908 21.973L69.9815 23.843C70.933 24.2039 71.6344 24.5785 72.1207 24.9504L73.3356 23.3616ZM70.7185 21.984C69.6526 21.5429 68.3367 21.1304 66.7827 20.7419L66.2976 22.6821C67.7943 23.0563 69.0089 23.441 69.9538 23.832L70.7185 21.984ZM66.7742 20.7398C64.9333 20.2966 63.2912 19.805 61.8449 19.2668L61.1474 21.1412C62.6824 21.7124 64.403 22.2261 66.3061 22.6842L66.7742 20.7398ZM61.8638 19.274C60.4409 18.7115 59.2608 18.0604 58.3086 17.3304L57.0917 18.9176C58.2195 19.7822 59.57 20.5178 61.1285 21.134L61.8638 19.274ZM58.3248 17.3431C57.3953 16.5996 56.6946 15.7274 56.2079 14.7237L54.4083 15.5963C55.031 16.8806 55.9249 17.9844 57.0754 18.9049L58.3248 17.3431ZM56.2079 14.7237C55.7325 13.7431 55.4761 12.5465 55.4761 11.104H53.4761C53.4761 12.7815 53.7745 14.2889 54.4083 15.5963L56.2079 14.7237ZM55.4761 11.104C55.4761 9.52967 55.7647 8.15036 56.3201 6.94706L54.5042 6.10894C53.8115 7.60963 53.4761 9.28099 53.4761 11.104H55.4761ZM56.3154 6.95706C56.9132 5.6986 57.7242 4.65672 58.7494 3.81795L57.4829 2.27004C56.22 3.30328 55.2284 4.58406 54.5088 6.09894L56.3154 6.95706ZM58.7494 3.81796C59.7878 2.96832 61.0083 2.31517 62.4233 1.86493L61.8169 -0.040926C60.1813 0.479498 58.7324 1.24767 57.4829 2.27004L58.7494 3.81796ZM62.4363 1.86068C63.887 1.37714 65.4435 1.132 67.1121 1.132V-0.868003C65.2447 -0.868003 63.4733 -0.59314 61.8039 -0.0366831L62.4363 1.86068ZM67.1121 1.132C68.875 1.132 70.4467 1.33167 71.8353 1.71919L72.3729 -0.207197C70.7802 -0.651678 69.0239 -0.868003 67.1121 -0.868003V1.132ZM71.8353 1.7192C73.2605 2.11693 74.52 2.62607 75.6203 3.24094L76.5959 1.49506C75.3389 0.79259 73.929 0.227068 72.3729 -0.207198L71.8353 1.7192ZM75.6402 3.25179C76.7458 3.83706 77.6908 4.51232 78.4836 5.27339L79.8687 3.83061C78.9281 2.92768 77.8278 2.14693 76.576 1.48421L75.6402 3.25179ZM78.5135 5.30099C79.3788 6.06642 80.0781 6.80105 80.6208 7.50345L82.2034 6.28055C81.5675 5.45762 80.7761 4.63224 79.8387 3.803L78.5135 5.30099ZM80.871 6.05106L74.891 9.89906L75.9733 11.5809L81.9532 7.73294L80.871 6.05106ZM76.1222 10.0163C74.5755 8.54154 73.0516 7.46781 71.5477 6.85083L70.7886 8.70117C71.9887 9.19353 73.3074 10.0958 74.742 11.4637L76.1222 10.0163ZM71.5765 6.86318C70.1295 6.21585 68.6036 5.892 67.0081 5.892V7.892C68.3247 7.892 69.5721 8.15748 70.7598 8.68882L71.5765 6.86318ZM67.0081 5.892C66.0207 5.892 65.1182 6.02447 64.3224 6.31766L65.0138 8.19434C65.5354 8.00219 66.1929 7.892 67.0081 7.892V5.892ZM64.3519 6.30732C63.6343 6.54652 62.9979 6.87817 62.4679 7.31977L63.7483 8.85622C64.0504 8.60449 64.454 8.38148 64.9843 8.20468L64.3519 6.30732ZM62.5081 7.288C61.9939 7.67366 61.5715 8.13586 61.2563 8.67613L62.9839 9.68387C63.1541 9.39214 63.3903 9.12634 63.7081 8.888L62.5081 7.288ZM61.2257 8.73279C60.9633 9.25761 60.8081 9.80901 60.8081 10.376H62.8081C62.8081 10.1803 62.861 9.93439 63.0145 9.62721L61.2257 8.73279ZM60.8081 10.376C60.8081 11.2443 61.0281 12.0487 61.4961 12.7507L63.1602 11.6413C62.9348 11.3033 62.8081 10.8943 62.8081 10.376H60.8081ZM61.5418 12.8138C62.0177 13.4195 62.6585 13.9452 63.4256 14.4055L64.4546 12.6905C63.8351 12.3188 63.4012 11.9431 63.1144 11.5782L61.5418 12.8138ZM63.444 14.4162C64.2435 14.8731 65.1913 15.2792 66.2759 15.6407L66.9083 13.7433C65.9129 13.4115 65.0928 13.0549 64.4363 12.6798L63.444 14.4162ZM66.2851 15.6437C67.383 15.9979 68.6164 16.3501 69.9837 16.7007L70.4805 14.7633C69.1438 14.4206 67.9505 14.0795 66.8991 13.7403L66.2851 15.6437ZM120.163 28.628L121.009 29.162L121.539 28.3222L120.703 27.7861L120.163 28.628ZM117.2 32.216L116.515 31.4872L116.509 31.4924L116.504 31.4978L117.2 32.216ZM113.507 35.024L113.999 35.895L114.007 35.8903L114.015 35.8854L113.507 35.024ZM109.139 36.792L108.882 35.8258L109.139 36.792ZM97.0235 35.96L96.6279 36.8784L96.6329 36.8806L97.0235 35.96ZM91.0955 32.008L90.3811 32.7078L90.3884 32.7151L90.3957 32.7224L91.0955 32.008ZM87.1435 26.08L86.2229 26.4706L86.2251 26.4756L87.1435 26.08ZM87.1435 11.572L88.0619 11.9676L88.0641 11.9625L87.1435 11.572ZM91.0955 5.644L90.3884 4.93689L91.0955 5.644ZM97.0235 1.64L96.6329 0.719404L96.6279 0.721587L97.0235 1.64ZM109.139 0.807998L109.397 -0.158237L109.397 -0.158237L109.139 0.807998ZM113.507 2.628L113 3.48936L113.008 3.49425L113.016 3.49898L113.507 2.628ZM117.2 5.384L116.504 6.10224L116.509 6.10758L116.515 6.11285L117.2 5.384ZM120.163 8.972L120.703 9.81388L121.539 9.27783L121.009 8.43801L120.163 8.972ZM114.079 12.872L113.192 13.3323L113.696 14.3054L114.619 13.7139L114.079 12.872ZM110.076 8.4L109.517 9.22944L109.523 9.23339L109.529 9.23727L110.076 8.4ZM99.9875 7.672L100.407 8.57996L100.416 8.57557L100.425 8.57099L99.9875 7.672ZM96.4515 10.272L97.1818 10.9552L97.1872 10.9494L97.1925 10.9435L96.4515 10.272ZM94.0595 14.12L94.9865 14.4952L94.9895 14.4877L94.0595 14.12ZM94.0595 23.532L93.1295 23.8997L93.1326 23.9072L94.0595 23.532ZM96.4515 27.38L95.7105 28.0515L95.7158 28.0574L95.7212 28.0632L96.4515 27.38ZM99.9875 29.98L99.5495 30.879L99.5589 30.8836L99.5684 30.888L99.9875 29.98ZM110.076 29.252L110.622 30.0893L110.628 30.0854L110.634 30.0814L110.076 29.252ZM114.079 24.728L114.619 23.8861L113.696 23.2946L113.192 24.2677L114.079 24.728ZM119.318 28.094C118.531 29.3393 117.598 30.4699 116.515 31.4872L117.884 32.9448C119.089 31.8127 120.132 30.5513 121.009 29.162L119.318 28.094ZM116.504 31.4978C115.452 32.5166 114.285 33.4048 113 34.1626L114.015 35.8854C115.434 35.0486 116.728 34.0648 117.895 32.9342L116.504 31.4978ZM113.016 34.153C111.741 34.8726 110.364 35.4306 108.882 35.8258L109.397 37.7582C111.035 37.3214 112.57 36.7008 113.999 35.895L113.016 34.153ZM108.882 35.8258C107.408 36.2187 105.883 36.416 104.303 36.416V38.416C106.052 38.416 107.751 38.1973 109.397 37.7582L108.882 35.8258ZM104.303 36.416C101.868 36.416 99.5745 35.956 97.414 35.0394L96.6329 36.8806C99.0485 37.9054 101.608 38.416 104.303 38.416V36.416ZM97.4191 35.0416C95.2752 34.1181 93.4032 32.8687 91.7953 31.2936L90.3957 32.7224C92.1851 34.4753 94.2651 35.8606 96.6279 36.8784L97.4191 35.0416ZM91.8099 31.3082C90.2348 29.7003 88.9854 27.8283 88.0619 25.6844L86.2251 26.4756C87.2429 28.8384 88.6282 30.9184 90.3811 32.7078L91.8099 31.3082ZM88.0641 25.6894C87.1475 23.529 86.6875 21.2356 86.6875 18.8H84.6875C84.6875 21.4951 85.1981 24.055 86.2229 26.4706L88.0641 25.6894ZM86.6875 18.8C86.6875 16.3644 87.1475 14.0903 88.0619 11.9676L86.2251 11.1764C85.1981 13.5603 84.6875 16.1049 84.6875 18.8H86.6875ZM88.0641 11.9625C88.9874 9.78607 90.2345 7.91924 91.8026 6.3511L90.3884 4.93689C88.6285 6.69675 87.2409 8.78193 86.2229 11.1814L88.0641 11.9625ZM91.8026 6.3511C93.4098 4.74389 95.2795 3.48009 97.4191 2.55841L96.6279 0.721587C94.2608 1.74125 92.1785 3.14678 90.3884 4.93689L91.8026 6.3511ZM97.414 2.56058C99.5745 1.64402 101.868 1.184 104.303 1.184V-0.816C101.608 -0.816 99.0485 -0.305355 96.6329 0.719418L97.414 2.56058ZM104.303 1.184C105.883 1.184 107.408 1.38133 108.882 1.77423L109.397 -0.158237C107.751 -0.59733 106.052 -0.816 104.303 -0.816V1.184ZM108.882 1.77423C110.357 2.16749 111.728 2.73951 113 3.48936L114.015 1.76663C112.583 0.921819 111.042 0.280508 109.397 -0.158237L108.882 1.77423ZM113.016 3.49898C114.294 4.21989 115.456 5.08731 116.504 6.10224L117.895 4.66576C116.724 3.53135 115.425 2.56144 113.999 1.75702L113.016 3.49898ZM116.515 6.11285C117.598 7.13005 118.531 8.26068 119.318 9.50599L121.009 8.43801C120.132 7.04865 119.089 5.78728 117.884 4.65515L116.515 6.11285ZM119.624 8.13012L113.54 12.0301L114.619 13.7139L120.703 9.81388L119.624 8.13012ZM114.967 12.4117C113.921 10.393 112.471 8.77004 110.622 7.56273L109.529 9.23727C111.077 10.2486 112.297 11.607 113.192 13.3323L114.967 12.4117ZM110.634 7.57056C108.762 6.30972 106.641 5.684 104.303 5.684V7.684C106.264 7.684 107.992 8.20228 109.517 9.22944L110.634 7.57056ZM104.303 5.684C102.629 5.684 101.04 6.0469 99.5495 6.77301L100.425 8.57099C101.639 7.97976 102.928 7.684 104.303 7.684V5.684ZM99.5684 6.76404C98.0936 7.44472 96.8057 8.39204 95.7105 9.60048L97.1925 10.9435C98.108 9.93329 99.1774 9.14728 100.407 8.57996L99.5684 6.76404ZM95.7212 9.58884C94.6227 10.7631 93.7609 12.1554 93.1295 13.7523L94.9895 14.4877C95.5368 13.1033 96.2696 11.9303 97.1818 10.9552L95.7212 9.58884ZM93.1326 13.7448C92.4921 15.327 92.1755 17.0151 92.1755 18.8H94.1755C94.1755 17.2569 94.4482 15.825 94.9864 14.4952L93.1326 13.7448ZM92.1755 18.8C92.1755 20.585 92.4922 22.2875 93.1295 23.8997L94.9895 23.1643C94.4482 21.7952 94.1755 20.343 94.1755 18.8H92.1755ZM93.1326 23.9072C93.7638 25.4667 94.6224 26.8509 95.7105 28.0515L97.1925 26.7085C96.2699 25.6905 95.5339 24.5093 94.9864 23.1568L93.1326 23.9072ZM95.7212 28.0632C96.8118 29.229 98.0902 30.168 99.5495 30.879L100.425 29.081C99.1808 28.4746 98.1018 27.6803 97.1818 26.6968L95.7212 28.0632ZM99.5684 30.888C101.055 31.5741 102.637 31.916 104.303 31.916V29.916C102.919 29.916 101.624 29.6339 100.407 29.072L99.5684 30.888ZM104.303 31.916C106.635 31.916 108.751 31.3112 110.622 30.0893L109.529 28.4147C108.002 29.4114 106.271 29.916 104.303 29.916V31.916ZM110.634 30.0814C112.476 28.8411 113.922 27.2044 114.967 25.1883L113.192 24.2677C112.296 25.9956 111.072 27.3749 109.517 28.4226L110.634 30.0814ZM113.54 25.5699L119.624 29.4699L120.703 27.7861L114.619 23.8861L113.54 25.5699ZM148.244 1.64L147.832 2.55093L147.843 2.55616L148.244 1.64ZM154.016 5.644L153.295 6.33626L153.302 6.34362L154.016 5.644ZM157.812 11.572L156.882 11.9385L156.885 11.9471L156.889 11.9556L157.812 11.572ZM151.052 34.504L151.607 35.3361L151.611 35.3334L151.052 34.504ZM145.54 36.896L144.678 37.403L145.054 38.042L145.775 37.8681L145.54 36.896ZM141.9 30.708L141.829 29.7105L140.221 29.8254L141.038 31.215L141.9 30.708ZM145.852 29.564L146.34 30.437L146.348 30.4322L145.852 29.564ZM148.972 26.964L149.741 27.6042L149.746 27.598L149.751 27.5918L148.972 26.964ZM151 23.272L151.944 23.6024L151.947 23.5951L151 23.272ZM150.896 14.172L149.955 14.5083L149.958 14.5182L149.962 14.528L150.896 14.172ZM148.712 10.376L147.958 11.0328L148.712 10.376ZM145.332 7.828L144.895 8.72728L144.904 8.73174L145.332 7.828ZM136.752 7.828L136.324 6.92421L136.315 6.92876L136.752 7.828ZM133.372 10.376L132.63 9.70571L132.624 9.71241L132.618 9.71922L133.372 10.376ZM131.136 14.172L130.202 13.816L130.198 13.8258L130.195 13.8357L131.136 14.172ZM131.136 23.428L130.195 23.7643L130.198 23.7742L130.202 23.784L131.136 23.428ZM133.372 27.224L132.618 27.8808L132.624 27.8876L132.63 27.8943L133.372 27.224ZM136.752 29.772L136.315 30.6713L136.324 30.6757L136.752 29.772ZM141.068 30.708H142.068V29.708H141.068V30.708ZM141.068 37.468V38.468H142.068V37.468H141.068ZM133.892 36.012L134.293 35.0958L133.892 36.012ZM128.12 32.008L127.399 32.7002L128.12 32.008ZM124.272 26.08L123.342 26.4465L123.345 26.4551L123.349 26.4636L124.272 26.08ZM124.272 11.572L123.347 11.1934L123.344 11.2006L124.272 11.572ZM128.12 5.644L128.835 6.34366L128.842 6.33622L128.12 5.644ZM133.892 1.64L134.293 2.55624L134.305 2.55085L133.892 1.64ZM141.068 1.132C143.499 1.132 145.749 1.60738 147.832 2.55085L148.657 0.729147C146.302 -0.338051 143.768 -0.868003 141.068 -0.868003V1.132ZM147.843 2.55616C149.945 3.47559 151.759 4.73537 153.295 6.33622L154.738 4.95177C153.015 3.1553 150.981 1.74574 148.645 0.723843L147.843 2.55616ZM153.302 6.34362C154.832 7.90685 156.027 9.7678 156.882 11.9385L158.743 11.2055C157.795 8.8002 156.459 6.70915 154.731 4.94437L153.302 6.34362ZM156.889 11.9556C157.772 14.0812 158.216 16.3594 158.216 18.8H160.216C160.216 16.1099 159.725 13.5695 158.736 11.1884L156.889 11.9556ZM158.216 18.8C158.216 20.8818 157.903 22.8546 157.28 24.7238L159.177 25.3562C159.871 23.2734 160.216 21.0862 160.216 18.8H158.216ZM157.28 24.7238C156.654 26.5998 155.769 28.2866 154.624 29.7905L156.216 31.0015C157.499 29.3161 158.485 27.4322 159.177 25.3562L157.28 24.7238ZM154.624 29.7905C153.479 31.2961 152.104 32.5903 150.494 33.6746L151.611 35.3334C153.398 34.1297 154.935 32.6852 156.216 31.0015L154.624 29.7905ZM150.498 33.672C148.935 34.714 147.206 35.4652 145.306 35.9239L145.775 37.8681C147.896 37.3562 149.842 36.5127 151.607 35.3361L150.498 33.672ZM146.402 36.389L142.762 30.201L141.038 31.215L144.678 37.403L146.402 36.389ZM141.972 31.7055C143.562 31.5919 145.023 31.1728 146.34 30.4369L145.364 28.6911C144.324 29.2725 143.151 29.6161 141.829 29.7105L141.972 31.7055ZM146.348 30.4322C147.662 29.6817 148.795 28.7388 149.741 27.6042L148.204 26.3238C147.416 27.2692 146.469 28.0597 145.356 28.6958L146.348 30.4322ZM149.751 27.5918C150.694 26.4226 151.424 25.0899 151.944 23.6024L150.056 22.9417C149.606 24.2274 148.984 25.3561 148.194 26.3362L149.751 27.5918ZM151.947 23.5951C152.469 22.0658 152.728 20.4656 152.728 18.8H150.728C150.728 20.2544 150.502 21.6355 150.054 22.9489L151.947 23.5951ZM152.728 18.8C152.728 17.0546 152.431 15.3909 151.831 13.816L149.962 14.528C150.471 15.8651 150.728 17.2867 150.728 18.8H152.728ZM151.838 13.8357C151.28 12.2721 150.491 10.8958 149.466 9.71922L147.958 11.0328C148.805 12.0056 149.473 13.1599 149.955 14.5083L151.838 13.8357ZM149.466 9.71922C148.438 8.53825 147.199 7.60586 145.76 6.92426L144.904 8.73174C146.1 9.29814 147.115 10.0644 147.958 11.0328L149.466 9.71922ZM145.77 6.92876C144.338 6.23242 142.765 5.892 141.068 5.892V7.892C142.491 7.892 143.761 8.17557 144.895 8.72723L145.77 6.92876ZM141.068 5.892C139.371 5.892 137.785 6.23249 136.324 6.92426L137.18 8.73174C138.355 8.1755 139.646 7.892 141.068 7.892V5.892ZM136.315 6.92876C134.915 7.60971 133.685 8.53739 132.63 9.70571L134.114 11.0463C135 10.0653 136.024 9.29428 137.19 8.72723L136.315 6.92876ZM132.618 9.71922C131.598 10.8907 130.795 12.2602 130.202 13.816L132.071 14.528C132.587 13.1718 133.275 12.0107 134.126 11.0328L132.618 9.71922ZM130.195 13.8357C129.634 15.4053 129.356 17.0623 129.356 18.8H131.356C131.356 17.2791 131.599 15.8507 132.078 14.5083L130.195 13.8357ZM129.356 18.8C129.356 20.5377 129.634 22.1947 130.195 23.7643L132.078 23.0917C131.599 21.7493 131.356 20.3209 131.356 18.8H129.356ZM130.202 23.784C130.795 25.3398 131.598 26.7093 132.618 27.8808L134.126 26.5672C133.275 25.5893 132.587 24.4282 132.071 23.072L130.202 23.784ZM132.63 27.8943C133.685 29.0626 134.915 29.9903 136.315 30.6712L137.19 28.8728C136.024 28.3057 135 27.5347 134.114 26.5537L132.63 27.8943ZM136.324 30.6757C137.785 31.3675 139.371 31.708 141.068 31.708V29.708C139.646 29.708 138.355 29.4245 137.18 28.8683L136.324 30.6757ZM140.068 30.708V37.468H142.068V30.708H140.068ZM141.068 36.468C138.633 36.468 136.378 36.008 134.293 35.0958L133.491 36.9282C135.844 37.9574 138.373 38.468 141.068 38.468V36.468ZM134.293 35.0958C132.192 34.1764 130.378 32.9166 128.842 31.3158L127.399 32.7002C129.122 34.4967 131.156 35.9063 133.491 36.9282L134.293 35.0958ZM128.842 31.3158C127.302 29.7099 126.086 27.8395 125.196 25.6964L123.349 26.4636C124.331 28.8272 125.68 30.9088 127.399 32.7002L128.842 31.3158ZM125.203 25.7135C124.349 23.5472 123.92 21.2454 123.92 18.8H121.92C121.92 21.4853 122.393 24.0368 123.342 26.4465L125.203 25.7135ZM123.92 18.8C123.92 16.3545 124.349 14.072 125.201 11.9434L123.344 11.2006C122.393 13.5787 121.92 16.1148 121.92 18.8H123.92ZM125.198 11.9506C126.088 9.77481 127.301 7.90969 128.835 6.34362L127.406 4.94437C125.681 6.70631 124.329 8.79319 123.347 11.1934L125.198 11.9506ZM128.842 6.33622C130.378 4.73537 132.192 3.47559 134.293 2.55616L133.491 0.723843C131.156 1.74574 129.122 3.1553 127.399 4.95177L128.842 6.33622ZM134.305 2.55085C136.387 1.60738 138.638 1.132 141.068 1.132V-0.868003C138.368 -0.868003 135.835 -0.338051 133.48 0.729147L134.305 2.55085ZM167.53 0.599998L168.454 0.218868L168.199 -0.400002H167.53V0.599998ZM178.034 26.08L178.692 26.833L179.231 26.3614L178.958 25.6989L178.034 26.08ZM172.262 31.124L171.337 31.5051L171.869 32.7952L172.92 31.877L172.262 31.124ZM159.678 0.599998V-0.400002H158.184L158.753 0.981143L159.678 0.599998ZM189.578 0.599998V-0.400002H188.906L188.652 0.221777L189.578 0.599998ZM197.43 0.599998L198.355 0.979351L198.921 -0.400002H197.43V0.599998ZM182.506 37V38H183.177L183.431 37.3794L182.506 37ZM174.706 37L173.78 36.6218L173.217 38H174.706V37ZM166.605 0.981127L177.109 26.4611L178.958 25.6989L168.454 0.218868L166.605 0.981127ZM177.376 25.327L171.604 30.371L172.92 31.877L178.692 26.833L177.376 25.327ZM173.186 30.7429L160.602 0.218852L158.753 0.981143L171.337 31.5051L173.186 30.7429ZM159.678 1.6H167.53V-0.400002H159.678V1.6ZM189.578 1.6H197.43V-0.400002H189.578V1.6ZM196.505 0.220644L181.581 36.6206L183.431 37.3794L198.355 0.979351L196.505 0.220644ZM182.506 36H174.706V38H182.506V36ZM175.632 37.3782L190.504 0.978218L188.652 0.221777L173.78 36.6218L175.632 37.3782ZM221.177 22.492V23.492H222.177V22.492H221.177ZM213.065 22.492L212.169 22.9365L212.445 23.492H213.065V22.492ZM209.685 15.68V14.68H208.073L208.789 16.1245L209.685 15.68ZM221.177 15.68H222.177V14.68H221.177V15.68ZM225.493 0.599998L226.493 0.591451L226.485 -0.400002H225.493V0.599998ZM225.545 6.684V7.684H226.554L226.545 6.67545L225.545 6.684ZM208.437 6.684V5.684H207.439L207.437 6.68186L208.437 6.684ZM208.385 30.968L207.385 30.9659L207.383 31.968H208.385V30.968ZM225.493 30.968H226.493V29.968H225.493V30.968ZM225.493 37V38H226.493V37H225.493ZM201.105 37H200.105V38H201.105V37ZM201.105 0.599998V-0.400002H200.105V0.599998H201.105ZM221.177 21.492H213.065V23.492H221.177V21.492ZM213.961 22.0475L210.581 15.2355L208.789 16.1245L212.169 22.9365L213.961 22.0475ZM209.685 16.68H221.177V14.68H209.685V16.68ZM220.177 15.68V22.492H222.177V15.68H220.177ZM224.493 0.608544L224.545 6.69255L226.545 6.67545L226.493 0.591451L224.493 0.608544ZM225.545 5.684H208.437V7.684H225.545V5.684ZM207.437 6.68186L207.385 30.9659L209.385 30.9701L209.437 6.68614L207.437 6.68186ZM208.385 31.968H225.493V29.968H208.385V31.968ZM224.493 30.968V37H226.493V30.968H224.493ZM225.493 36H201.105V38H225.493V36ZM202.105 37V0.599998H200.105V37H202.105ZM201.105 1.6H225.493V-0.400002H201.105V1.6ZM261.896 37V38H263.99L262.674 36.3717L261.896 37ZM252.64 37L251.864 37.6297L252.164 38H252.64V37ZM247.076 30.136L246.532 29.2974L245.6 29.9026L246.3 30.7657L247.076 30.136ZM253.16 26.184L253.938 25.5557L253.372 24.8542L252.616 25.3454L253.16 26.184ZM253.628 25.04L254.045 25.9491L254.047 25.9484L253.628 25.04ZM251.288 25.872L251.057 24.8991L251.046 24.9019L251.288 25.872ZM248.688 26.236L248.723 27.2354L248.739 27.2349L248.755 27.2338L248.688 26.236ZM244.892 26.288L244.869 27.2877L244.881 27.288H244.892V26.288ZM239.068 26.236V25.236H238.068V26.236H239.068ZM239.068 37V38H240.068V37H239.068ZM231.736 37H230.736V38H231.736V37ZM231.736 0.599998V-0.400002H230.736V0.599998H231.736ZM253.16 1.64L252.747 2.55037L252.759 2.55598L252.771 2.56125L253.16 1.64ZM257.216 4.396L256.499 5.09247L256.509 5.10318L256.52 5.11358L257.216 4.396ZM259.972 8.504L259.048 8.88576L259.053 8.89802L259.059 8.91014L259.972 8.504ZM258.932 20.464L258.105 19.9028L258.098 19.9126L258.932 20.464ZM239.068 18.956H238.068V19.956H239.068V18.956ZM252.172 17.344L252.88 18.0511L252.885 18.0455L252.891 18.0398L252.172 17.344ZM253.316 10.74L252.382 11.096L252.392 11.1235L252.404 11.1504L253.316 10.74ZM252.12 8.816L251.368 9.4745L251.379 9.48742L251.391 9.49994L252.12 8.816ZM250.352 7.516L249.887 8.40092L249.914 8.41527L249.942 8.42792L250.352 7.516ZM239.068 6.996V5.996H238.068V6.996H239.068ZM261.896 36H252.64V38H261.896V36ZM253.417 36.3703L247.853 29.5063L246.3 30.7657L251.864 37.6297L253.417 36.3703ZM247.621 30.9746L253.705 27.0226L252.616 25.3454L246.532 29.2974L247.621 30.9746ZM252.382 26.8123L261.118 37.6283L262.674 36.3717L253.938 25.5557L252.382 26.8123ZM253.212 24.1309C252.427 24.4908 251.709 24.7439 251.057 24.8992L251.52 26.8448C252.324 26.6534 253.166 26.3519 254.045 25.9491L253.212 24.1309ZM251.046 24.9019C250.43 25.0558 249.627 25.1712 248.622 25.2382L248.755 27.2338C249.83 27.1621 250.76 27.0348 251.531 26.8421L251.046 24.9019ZM248.654 25.2366C247.664 25.2707 246.411 25.288 244.892 25.288V27.288C246.424 27.288 247.702 27.2706 248.723 27.2354L248.654 25.2366ZM244.916 25.2883C243.414 25.2533 241.464 25.236 239.068 25.236V27.236C241.457 27.236 243.389 27.2533 244.869 27.2877L244.916 25.2883ZM238.068 26.236V37H240.068V26.236H238.068ZM239.068 36H231.736V38H239.068V36ZM232.736 37V0.599998H230.736V37H232.736ZM231.736 1.6H248.22V-0.400002H231.736V1.6ZM248.22 1.6C249.854 1.6 251.358 1.91934 252.747 2.55037L253.574 0.729633C251.912 -0.0260124 250.123 -0.400002 248.22 -0.400002V1.6ZM252.771 2.56125C254.212 3.16942 255.451 4.013 256.499 5.09247L257.934 3.69952C256.694 2.42167 255.229 1.42791 253.549 0.71875L252.771 2.56125ZM256.52 5.11358C257.596 6.15761 258.439 7.41093 259.048 8.88576L260.897 8.12224C260.189 6.40773 259.195 4.92238 257.913 3.67842L256.52 5.11358ZM259.059 8.91014C259.693 10.3377 260.012 11.8628 260.012 13.496H262.012C262.012 11.5932 261.638 9.79031 260.886 8.09786L259.059 8.91014ZM260.012 13.496C260.012 15.9069 259.373 18.032 258.105 19.9028L259.76 21.0252C261.265 18.8053 262.012 16.2851 262.012 13.496H260.012ZM258.098 19.9126C256.847 21.8057 255.222 23.2058 253.21 24.1316L254.047 25.9484C256.403 24.8635 258.314 23.2129 259.767 21.0154L258.098 19.9126ZM239.068 19.956H248.22V17.956H239.068V19.956ZM248.22 19.956C250.038 19.956 251.612 19.3188 252.88 18.0511L251.465 16.6369C250.584 17.5185 249.523 17.956 248.22 17.956V19.956ZM252.891 18.0398C254.18 16.7093 254.784 14.9685 254.784 12.924H252.784C252.784 14.5542 252.315 15.76 251.454 16.6482L252.891 18.0398ZM254.784 12.924C254.784 12.0203 254.599 11.1524 254.228 10.3296L252.404 11.1504C252.658 11.7143 252.784 12.3024 252.784 12.924H254.784ZM254.251 10.384C253.928 9.53746 253.461 8.78403 252.85 8.13206L251.391 9.49994C251.82 9.9573 252.15 10.4865 252.382 11.096L254.251 10.384ZM252.873 8.15749C252.29 7.49131 251.583 6.97309 250.763 6.60408L249.942 8.42792C250.509 8.68291 250.98 9.03135 251.368 9.4745L252.873 8.15749ZM250.818 6.63108C250.012 6.20692 249.141 5.996 248.22 5.996V7.996C248.825 7.996 249.375 8.13175 249.887 8.40092L250.818 6.63108ZM248.22 5.996H239.068V7.996H248.22V5.996ZM238.068 6.996V18.8H240.068V6.996H238.068ZM238.068 18.8V18.852H240.068V18.8H238.068ZM238.068 18.852V18.956H240.068V18.852H238.068ZM309.019 32.268L309.726 32.9751L310.444 32.2567L309.714 31.5498L309.019 32.268ZM303.819 37.468L303.105 38.1687L303.812 38.8886L304.526 38.1751L303.819 37.468ZM300.959 34.556L301.672 33.8552L301.662 33.8454L300.959 34.556ZM295.655 29.304L294.945 30.0085L294.951 30.0146L295.655 29.304ZM288.687 22.284L289.396 21.5795L288.735 20.9131L288.028 21.5314L288.687 22.284ZM288.271 22.648L287.612 21.8954L287.606 21.9006L288.271 22.648ZM288.531 29.096L287.85 29.8288L287.863 29.8405L287.876 29.8517L288.531 29.096ZM290.299 30.188L289.91 31.1096L289.939 31.1216L289.968 31.1319L290.299 30.188ZM293.783 30.5L293.854 31.4975L293.783 30.5ZM295.187 30.24L296.143 29.9476L295.85 28.9896L294.892 29.2842L295.187 30.24ZM297.111 36.532L297.414 37.4849L298.356 37.1851L298.067 36.2396L297.111 36.532ZM294.771 37.104L294.599 36.1188L294.592 36.1201L294.771 37.104ZM287.491 36.376L287.119 37.3045L287.491 36.376ZM283.383 33.88L282.698 34.6088L282.709 34.6195L282.721 34.6298L283.383 33.88ZM280.627 30.136L279.728 30.5744L280.627 30.136ZM280.523 21.14L279.611 20.7278L279.607 20.738L280.523 21.14ZM283.331 17.292L282.706 16.5111L282.68 16.5317L282.656 16.554L283.331 17.292ZM283.591 17.084L284.215 17.8649L284.986 17.2487L284.38 16.4701L283.591 17.084ZM281.875 14.068L280.942 14.429L281.875 14.068ZM282.135 6.58L283.043 6.9975L282.135 6.58ZM288.219 0.912L288.564 1.85034L288.571 1.84789L288.578 1.84534L288.219 0.912ZM295.915 0.651997L295.598 1.60068L295.613 1.60547L295.627 1.60982L295.915 0.651997ZM298.723 1.9L298.193 2.748L298.2 2.75282L298.208 2.75749L298.723 1.9ZM301.011 3.668L300.303 4.3751L300.312 4.38417L300.322 4.393L301.011 3.668ZM302.883 5.644L303.488 6.43975L304.324 5.80348L303.647 4.99986L302.883 5.644ZM297.007 10.116L296.191 10.694L296.789 11.5385L297.612 10.9118L297.007 10.116ZM295.031 7.828L295.72 7.10386V7.10386L295.031 7.828ZM289.675 7.984L290.398 8.67447L290.406 8.66645L290.413 8.65827L289.675 7.984ZM289.623 12.924L290.517 12.4768L290.426 12.2942L290.27 12.1621L289.623 12.924ZM289.675 13.028L288.78 13.4752L288.853 13.6216L288.969 13.7371L289.675 13.028ZM299.087 22.388L298.381 23.0971L300.087 24.7928V22.388H299.087ZM299.087 17.136L298.823 16.1712L298.087 16.3722V17.136H299.087ZM300.543 16.772L300.772 17.7454L300.798 17.7391L300.825 17.7314L300.543 16.772ZM302.415 16.252L302.669 17.2191L302.693 17.2129L302.716 17.2056L302.415 16.252ZM304.443 15.68L304.685 16.6501L304.708 16.6445L304.73 16.6378L304.443 15.68ZM306.367 15.108H307.367V13.7715L306.084 14.1486L306.367 15.108ZM306.159 27.38L305.188 27.1375L305.183 27.1605L305.178 27.1839L306.159 27.38ZM305.691 29.044L304.748 28.7112L304.534 29.316L304.995 29.7622L305.691 29.044ZM308.311 31.5609L303.111 36.7609L304.526 38.1751L309.726 32.9751L308.311 31.5609ZM304.532 36.7673L301.672 33.8553L300.245 35.2567L303.105 38.1687L304.532 36.7673ZM301.662 33.8454L296.358 28.5934L294.951 30.0146L300.255 35.2666L301.662 33.8454ZM296.364 28.5995L289.396 21.5795L287.977 22.9885L294.945 30.0085L296.364 28.5995ZM288.028 21.5314L287.612 21.8954L288.929 23.4006L289.345 23.0366L288.028 21.5314ZM287.606 21.9006C286.472 22.9089 285.867 24.1801 285.867 25.664H287.867C287.867 24.7906 288.197 24.0511 288.935 23.3954L287.606 21.9006ZM285.867 25.664C285.867 26.4879 286.063 27.2723 286.451 28.0039L288.218 27.0681C287.982 26.6211 287.867 26.1575 287.867 25.664H285.867ZM286.451 28.0039C286.815 28.6916 287.282 29.3013 287.85 29.8288L289.211 28.3632C288.808 27.9893 288.478 27.5591 288.218 27.0681L286.451 28.0039ZM287.876 29.8517C288.478 30.374 289.158 30.793 289.91 31.1096L290.687 29.2664C290.121 29.0283 289.623 28.7193 289.185 28.3403L287.876 29.8517ZM289.968 31.1319C290.767 31.4113 291.589 31.552 292.431 31.552V29.552C291.816 29.552 291.217 29.45 290.629 29.2441L289.968 31.1319ZM292.431 31.552C292.874 31.552 293.349 31.5335 293.854 31.4975L293.711 29.5025C293.246 29.5358 292.819 29.552 292.431 29.552V31.552ZM293.854 31.4975C294.412 31.4576 294.955 31.3574 295.481 31.1958L294.892 29.2842C294.517 29.3999 294.123 29.4731 293.711 29.5025L293.854 31.4975ZM294.23 30.5324L296.154 36.8244L298.067 36.2396L296.143 29.9476L294.23 30.5324ZM296.807 35.5791C296.088 35.8078 295.352 35.9878 294.599 36.1188L294.942 38.0892C295.783 37.9429 296.607 37.7415 297.414 37.4849L296.807 35.5791ZM294.592 36.1201C293.89 36.2478 293.17 36.312 292.431 36.312V38.312C293.286 38.312 294.126 38.2376 294.949 38.0879L294.592 36.1201ZM292.431 36.312C290.82 36.312 289.3 36.0228 287.862 35.4475L287.119 37.3045C288.801 37.9772 290.574 38.312 292.431 38.312V36.312ZM287.862 35.4475C286.401 34.8631 285.131 34.0894 284.044 33.1302L282.721 34.6298C283.991 35.7506 285.46 36.6409 287.119 37.3045L287.862 35.4475ZM284.067 33.1512C283.012 32.1601 282.166 31.0108 281.525 29.6976L279.728 30.5744C280.474 32.1039 281.465 33.4505 282.698 34.6088L284.067 33.1512ZM281.525 29.6976C280.898 28.4109 280.587 27.0699 280.587 25.664H278.587C278.587 27.3781 278.969 29.0185 279.728 30.5744L281.525 29.6976ZM280.587 25.664C280.587 24.2038 280.871 22.8331 281.438 21.542L279.607 20.738C278.926 22.2896 278.587 23.9348 278.587 25.664H280.587ZM281.434 21.5522C282.035 20.2233 282.889 19.0506 284.005 18.03L282.656 16.554C281.345 17.7521 280.328 19.1447 279.611 20.7278L281.434 21.5522ZM283.955 18.0729L284.215 17.8649L282.966 16.3031L282.706 16.5111L283.955 18.0729ZM284.38 16.4701C283.71 15.6087 283.187 14.6882 282.807 13.707L280.942 14.429C281.394 15.5971 282.015 16.6873 282.801 17.6979L284.38 16.4701ZM282.807 13.707C282.437 12.7501 282.251 11.7461 282.251 10.688H280.251C280.251 11.9873 280.48 13.2365 280.942 14.429L282.807 13.707ZM282.251 10.688C282.251 9.37146 282.516 8.14503 283.043 6.9975L281.226 6.1625C280.574 7.58029 280.251 9.09254 280.251 10.688H282.251ZM283.043 6.9975C283.576 5.83773 284.33 4.7988 285.314 3.87827L283.947 2.41773C282.782 3.50786 281.872 4.75693 281.226 6.1625L283.043 6.9975ZM285.314 3.87827C286.296 2.95964 287.378 2.28732 288.564 1.85034L287.873 -0.0263433C286.424 0.507345 285.115 1.32569 283.947 2.41773L285.314 3.87827ZM288.578 1.84534C289.814 1.36963 291.097 1.132 292.431 1.132V-0.868003C290.852 -0.868003 289.327 -0.585639 287.86 -0.0213451L288.578 1.84534ZM292.431 1.132C293.624 1.132 294.676 1.29322 295.598 1.60068L296.231 -0.296686C295.073 -0.68256 293.803 -0.868003 292.431 -0.868003V1.132ZM295.627 1.60982C296.591 1.89889 297.444 2.27999 298.193 2.748L299.253 1.052C298.337 0.480006 297.318 0.0290995 296.202 -0.305829L295.627 1.60982ZM298.208 2.75749C299.01 3.23897 299.707 3.77892 300.303 4.3751L301.718 2.96089C300.996 2.23974 300.168 1.60103 299.237 1.04251L298.208 2.75749ZM300.322 4.393C300.991 5.02889 301.589 5.66071 302.118 6.28813L303.647 4.99986C303.066 4.30995 302.417 3.62444 301.699 2.943L300.322 4.393ZM302.277 4.84824L296.401 9.32024L297.612 10.9118L303.488 6.43975L302.277 4.84824ZM297.823 9.53798C297.196 8.65406 296.496 7.84234 295.72 7.10386L294.341 8.55214C295.021 9.20033 295.638 9.91394 296.191 10.694L297.823 9.53798ZM295.72 7.10386C294.806 6.23344 293.693 5.788 292.431 5.788V7.788C293.179 7.788 293.799 8.03589 294.341 8.55214L295.72 7.10386ZM292.431 5.788C291.049 5.788 289.859 6.2985 288.936 7.30973L290.413 8.65827C290.946 8.07483 291.593 7.788 292.431 7.788V5.788ZM288.951 7.29352C288.048 8.23935 287.583 9.3869 287.583 10.688H289.583C289.583 9.9091 289.845 9.25398 290.398 8.67447L288.951 7.29352ZM287.583 10.688C287.583 11.8859 288.061 12.9087 288.975 13.6859L290.27 12.1621C289.798 11.7606 289.583 11.2927 289.583 10.688H287.583ZM288.728 13.3712L288.78 13.4752L290.569 12.5808L290.517 12.4768L288.728 13.3712ZM288.969 13.7371L298.381 23.0971L299.792 21.6789L290.38 12.3189L288.969 13.7371ZM300.087 22.388V17.136H298.087V22.388H300.087ZM299.35 18.1008C299.715 18.001 300.188 17.8826 300.772 17.7454L300.314 15.7986C299.718 15.9387 299.22 16.063 298.823 16.1712L299.35 18.1008ZM300.825 17.7314C301.404 17.561 302.019 17.3902 302.669 17.2191L302.16 15.2849C301.493 15.4604 300.86 15.6363 300.26 15.8126L300.825 17.7314ZM302.716 17.2056C303.354 17.0039 304.011 16.8187 304.685 16.6501L304.2 14.7099C303.488 14.8879 302.792 15.0841 302.113 15.2984L302.716 17.2056ZM304.73 16.6378C305.422 16.4303 306.061 16.2401 306.649 16.0674L306.084 14.1486C305.493 14.3226 304.85 14.5137 304.155 14.7222L304.73 16.6378ZM305.367 15.108V25.664H307.367V15.108H305.367ZM305.367 25.664C305.367 26.1741 305.307 26.6645 305.188 27.1375L307.129 27.6225C307.288 26.9861 307.367 26.3326 307.367 25.664H305.367ZM305.178 27.1839C305.085 27.6502 304.943 28.1588 304.748 28.7112L306.634 29.3768C306.855 28.7505 307.024 28.1498 307.139 27.5761L305.178 27.1839ZM304.995 29.7622L308.323 32.9862L309.714 31.5498L306.386 28.3258L304.995 29.7622ZM361.964 28.628L362.809 29.162L363.339 28.3222L362.503 27.7861L361.964 28.628ZM359 32.216L358.315 31.4872L358.309 31.4924L358.304 31.4978L359 32.216ZM355.307 35.024L355.799 35.895L355.807 35.8903L355.815 35.8854L355.307 35.024ZM350.94 36.792L350.682 35.8258L350.94 36.792ZM338.823 35.96L338.428 36.8784L338.433 36.8806L338.823 35.96ZM332.896 32.008L332.181 32.7078L332.188 32.7151L332.196 32.7224L332.896 32.008ZM328.944 26.08L328.023 26.4706L328.025 26.4756L328.944 26.08ZM328.944 11.572L329.862 11.9676L329.864 11.9625L328.944 11.572ZM332.896 5.644L332.188 4.93689L332.896 5.644ZM338.823 1.64L338.433 0.719404L338.428 0.721587L338.823 1.64ZM350.94 0.807998L351.197 -0.158237V-0.158237L350.94 0.807998ZM355.307 2.628L354.8 3.48936L354.808 3.49425L354.816 3.49898L355.307 2.628ZM359 5.384L358.304 6.10224L358.309 6.10758L358.315 6.11285L359 5.384ZM361.964 8.972L362.503 9.81388L363.339 9.27783L362.809 8.43801L361.964 8.972ZM355.88 12.872L354.992 13.3323L355.496 14.3054L356.419 13.7139L355.88 12.872ZM351.875 8.4L351.317 9.22944L351.323 9.23339L351.329 9.23727L351.875 8.4ZM341.788 7.672L342.207 8.57996L342.216 8.57557L342.225 8.57099L341.788 7.672ZM338.251 10.272L338.982 10.9552L338.987 10.9494L338.992 10.9435L338.251 10.272ZM335.859 14.12L336.786 14.4952L336.789 14.4877L335.859 14.12ZM335.859 23.532L334.93 23.8997L334.933 23.9072L335.859 23.532ZM338.251 27.38L337.511 28.0515L337.516 28.0574L337.521 28.0632L338.251 27.38ZM341.788 29.98L341.35 30.879L341.359 30.8836L341.368 30.888L341.788 29.98ZM351.875 29.252L352.422 30.0893L352.428 30.0854L352.434 30.0814L351.875 29.252ZM355.88 24.728L356.419 23.8861L355.496 23.2946L354.992 24.2677L355.88 24.728ZM361.118 28.094C360.332 29.3393 359.398 30.4699 358.315 31.4872L359.684 32.9448C360.889 31.8127 361.932 30.5513 362.809 29.162L361.118 28.094ZM358.304 31.4978C357.252 32.5166 356.085 33.4048 354.8 34.1626L355.815 35.8854C357.234 35.0486 358.528 34.0648 359.695 32.9342L358.304 31.4978ZM354.816 34.153C353.541 34.8726 352.164 35.4306 350.682 35.8258L351.197 37.7582C352.835 37.3214 354.37 36.7008 355.799 35.895L354.816 34.153ZM350.682 35.8258C349.208 36.2187 347.683 36.416 346.104 36.416V38.416C347.852 38.416 349.551 38.1973 351.197 37.7582L350.682 35.8258ZM346.104 36.416C343.668 36.416 341.375 35.956 339.214 35.0394L338.433 36.8806C340.848 37.9054 343.408 38.416 346.104 38.416V36.416ZM339.219 35.0416C337.075 34.1181 335.203 32.8687 333.595 31.2936L332.196 32.7224C333.985 34.4753 336.065 35.8606 338.428 36.8784L339.219 35.0416ZM333.61 31.3082C332.035 29.7003 330.785 27.8283 329.862 25.6844L328.025 26.4756C329.043 28.8384 330.428 30.9184 332.181 32.7078L333.61 31.3082ZM329.864 25.6894C328.948 23.529 328.487 21.2356 328.487 18.8H326.487C326.487 21.4951 326.998 24.055 328.023 26.4706L329.864 25.6894ZM328.487 18.8C328.487 16.3644 328.948 14.0903 329.862 11.9676L328.025 11.1764C326.998 13.5603 326.487 16.1049 326.487 18.8H328.487ZM329.864 11.9625C330.787 9.78607 332.034 7.91924 333.603 6.3511L332.188 4.93689C330.429 6.69675 329.041 8.78193 328.023 11.1814L329.864 11.9625ZM333.603 6.3511C335.21 4.74389 337.08 3.48009 339.219 2.55841L338.428 0.721587C336.061 1.74125 333.979 3.14678 332.188 4.93689L333.603 6.3511ZM339.214 2.56058C341.375 1.64402 343.668 1.184 346.104 1.184V-0.816C343.408 -0.816 340.848 -0.305355 338.433 0.719418L339.214 2.56058ZM346.104 1.184C347.683 1.184 349.208 1.38133 350.682 1.77423L351.197 -0.158237C349.551 -0.59733 347.852 -0.816 346.104 -0.816V1.184ZM350.682 1.77423C352.157 2.16749 353.528 2.73951 354.8 3.48936L355.815 1.76663C354.383 0.921819 352.842 0.280508 351.197 -0.158237L350.682 1.77423ZM354.816 3.49898C356.094 4.21989 357.256 5.08731 358.304 6.10224L359.695 4.66576C358.524 3.53135 357.225 2.56144 355.799 1.75702L354.816 3.49898ZM358.315 6.11285C359.398 7.13005 360.332 8.26068 361.118 9.50599L362.809 8.43801C361.931 7.04865 360.889 5.78728 359.684 4.65515L358.315 6.11285ZM361.424 8.13012L355.34 12.0301L356.419 13.7139L362.503 9.81388L361.424 8.13012ZM356.767 12.4117C355.721 10.393 354.271 8.77004 352.422 7.56273L351.329 9.23727C352.877 10.2486 354.097 11.607 354.992 13.3323L356.767 12.4117ZM352.434 7.57056C350.562 6.30972 348.441 5.684 346.104 5.684V7.684C348.064 7.684 349.792 8.20228 351.317 9.22944L352.434 7.57056ZM346.104 5.684C344.429 5.684 342.84 6.0469 341.35 6.77301L342.225 8.57099C343.439 7.97976 344.728 7.684 346.104 7.684V5.684ZM341.368 6.76404C339.894 7.44472 338.606 8.39204 337.511 9.60048L338.992 10.9435C339.908 9.93329 340.977 9.14728 342.207 8.57996L341.368 6.76404ZM337.521 9.58884C336.423 10.7631 335.561 12.1554 334.93 13.7523L336.789 14.4877C337.337 13.1033 338.07 11.9303 338.982 10.9552L337.521 9.58884ZM334.933 13.7448C334.292 15.327 333.975 17.0151 333.975 18.8H335.975C335.975 17.2569 336.248 15.825 336.786 14.4952L334.933 13.7448ZM333.975 18.8C333.975 20.585 334.292 22.2875 334.93 23.8997L336.789 23.1643C336.248 21.7952 335.975 20.343 335.975 18.8H333.975ZM334.933 23.9072C335.564 25.4667 336.422 26.8509 337.511 28.0515L338.992 26.7085C338.07 25.6905 337.334 24.5093 336.786 23.1568L334.933 23.9072ZM337.521 28.0632C338.612 29.229 339.89 30.168 341.35 30.879L342.225 29.081C340.981 28.4746 339.902 27.6803 338.982 26.6968L337.521 28.0632ZM341.368 30.888C342.855 31.5741 344.437 31.916 346.104 31.916V29.916C344.719 29.916 343.424 29.6339 342.207 29.072L341.368 30.888ZM346.104 31.916C348.435 31.916 350.551 31.3112 352.422 30.0893L351.329 28.4147C349.802 29.4114 348.071 29.916 346.104 29.916V31.916ZM352.434 30.0814C354.276 28.8411 355.722 27.2044 356.767 25.1883L354.992 24.2677C354.096 25.9956 352.872 27.3749 351.317 28.4226L352.434 30.0814ZM355.34 25.5699L361.424 29.4699L362.503 27.7861L356.419 23.8861L355.34 25.5699ZM390.044 1.64L389.632 2.55093L389.643 2.55616L390.044 1.64ZM395.816 5.644L395.095 6.33626L395.102 6.34362L395.816 5.644ZM399.612 11.572L398.682 11.9385L398.685 11.9471L398.689 11.9556L399.612 11.572ZM392.852 34.504L393.407 35.3361L393.411 35.3334L392.852 34.504ZM387.34 36.896L386.478 37.403L386.854 38.042L387.575 37.8681L387.34 36.896ZM383.7 30.708L383.629 29.7105L382.021 29.8254L382.838 31.215L383.7 30.708ZM387.652 29.564L388.14 30.437L388.148 30.4322L387.652 29.564ZM390.772 26.964L391.541 27.6042L391.546 27.598L391.551 27.5918L390.772 26.964ZM392.8 23.272L393.744 23.6024L393.747 23.5951L392.8 23.272ZM392.696 14.172L391.755 14.5083L391.758 14.5182L391.762 14.528L392.696 14.172ZM390.512 10.376L389.758 11.0328L390.512 10.376ZM387.132 7.828L386.695 8.72728L386.704 8.73174L387.132 7.828ZM378.552 7.828L378.124 6.92421L378.115 6.92876L378.552 7.828ZM375.172 10.376L374.43 9.70571L374.424 9.71241L374.418 9.71922L375.172 10.376ZM372.936 14.172L372.002 13.816L371.998 13.8258L371.995 13.8357L372.936 14.172ZM372.936 23.428L371.995 23.7643L371.998 23.7742L372.002 23.784L372.936 23.428ZM375.172 27.224L374.418 27.8808L374.424 27.8876L374.43 27.8943L375.172 27.224ZM378.552 29.772L378.115 30.6713L378.124 30.6757L378.552 29.772ZM382.868 30.708H383.868V29.708H382.868V30.708ZM382.868 37.468V38.468H383.868V37.468H382.868ZM375.692 36.012L376.093 35.0958L375.692 36.012ZM369.92 32.008L369.199 32.7002L369.92 32.008ZM366.072 26.08L365.142 26.4465L365.145 26.4551L365.149 26.4636L366.072 26.08ZM366.072 11.572L365.147 11.1934L365.144 11.2006L366.072 11.572ZM369.92 5.644L370.635 6.34366L370.642 6.33622L369.92 5.644ZM375.692 1.64L376.093 2.55624L376.105 2.55085L375.692 1.64ZM382.868 1.132C385.299 1.132 387.549 1.60738 389.632 2.55085L390.457 0.729147C388.102 -0.338051 385.568 -0.868003 382.868 -0.868003V1.132ZM389.643 2.55616C391.745 3.47559 393.559 4.73537 395.095 6.33622L396.538 4.95177C394.815 3.1553 392.781 1.74574 390.445 0.723843L389.643 2.55616ZM395.102 6.34362C396.632 7.90685 397.827 9.7678 398.682 11.9385L400.543 11.2055C399.595 8.8002 398.259 6.70915 396.531 4.94437L395.102 6.34362ZM398.689 11.9556C399.572 14.0812 400.016 16.3594 400.016 18.8H402.016C402.016 16.1099 401.525 13.5695 400.536 11.1884L398.689 11.9556ZM400.016 18.8C400.016 20.8818 399.703 22.8546 399.08 24.7238L400.977 25.3562C401.671 23.2734 402.016 21.0862 402.016 18.8H400.016ZM399.08 24.7238C398.454 26.5998 397.569 28.2866 396.424 29.7905L398.016 31.0015C399.299 29.3161 400.285 27.4322 400.977 25.3562L399.08 24.7238ZM396.424 29.7905C395.279 31.2961 393.904 32.5903 392.294 33.6746L393.411 35.3334C395.198 34.1297 396.735 32.6852 398.016 31.0015L396.424 29.7905ZM392.298 33.672C390.735 34.714 389.006 35.4652 387.106 35.9239L387.575 37.8681C389.696 37.3562 391.642 36.5127 393.407 35.3361L392.298 33.672ZM388.202 36.389L384.562 30.201L382.838 31.215L386.478 37.403L388.202 36.389ZM383.772 31.7055C385.362 31.5919 386.823 31.1728 388.14 30.4369L387.164 28.6911C386.124 29.2725 384.951 29.6161 383.629 29.7105L383.772 31.7055ZM388.148 30.4322C389.462 29.6817 390.595 28.7388 391.541 27.6042L390.004 26.3238C389.216 27.2692 388.269 28.0597 387.156 28.6958L388.148 30.4322ZM391.551 27.5918C392.494 26.4226 393.224 25.0899 393.744 23.6024L391.856 22.9417C391.406 24.2274 390.784 25.3561 389.994 26.3362L391.551 27.5918ZM393.747 23.5951C394.269 22.0658 394.528 20.4656 394.528 18.8H392.528C392.528 20.2544 392.302 21.6355 391.854 22.9489L393.747 23.5951ZM394.528 18.8C394.528 17.0546 394.231 15.3909 393.631 13.816L391.762 14.528C392.271 15.8651 392.528 17.2867 392.528 18.8H394.528ZM393.638 13.8357C393.08 12.2721 392.291 10.8958 391.266 9.71922L389.758 11.0328C390.605 12.0056 391.273 13.1599 391.755 14.5083L393.638 13.8357ZM391.266 9.71922C390.238 8.53825 388.999 7.60586 387.56 6.92426L386.704 8.73174C387.9 9.29814 388.915 10.0644 389.758 11.0328L391.266 9.71922ZM387.57 6.92876C386.138 6.23242 384.565 5.892 382.868 5.892V7.892C384.291 7.892 385.561 8.17557 386.695 8.72723L387.57 6.92876ZM382.868 5.892C381.171 5.892 379.585 6.23249 378.124 6.92426L378.98 8.73174C380.155 8.1755 381.446 7.892 382.868 7.892V5.892ZM378.115 6.92876C376.715 7.60971 375.485 8.53739 374.43 9.70571L375.914 11.0463C376.801 10.0653 377.824 9.29428 378.99 8.72723L378.115 6.92876ZM374.418 9.71922C373.398 10.8907 372.595 12.2602 372.002 13.816L373.871 14.528C374.387 13.1718 375.075 12.0107 375.926 11.0328L374.418 9.71922ZM371.995 13.8357C371.434 15.4053 371.156 17.0623 371.156 18.8H373.156C373.156 17.2791 373.399 15.8507 373.878 14.5083L371.995 13.8357ZM371.156 18.8C371.156 20.5377 371.434 22.1947 371.995 23.7643L373.878 23.0917C373.399 21.7493 373.156 20.3209 373.156 18.8H371.156ZM372.002 23.784C372.595 25.3398 373.398 26.7093 374.418 27.8808L375.926 26.5672C375.075 25.5893 374.387 24.4282 373.871 23.072L372.002 23.784ZM374.43 27.8943C375.485 29.0626 376.715 29.9903 378.115 30.6712L378.99 28.8728C377.824 28.3057 376.801 27.5347 375.914 26.5537L374.43 27.8943ZM378.124 30.6757C379.585 31.3675 381.171 31.708 382.868 31.708V29.708C381.446 29.708 380.155 29.4245 378.98 28.8683L378.124 30.6757ZM381.868 30.708V37.468H383.868V30.708H381.868ZM382.868 36.468C380.433 36.468 378.178 36.008 376.093 35.0958L375.292 36.9282C377.644 37.9574 380.173 38.468 382.868 38.468V36.468ZM376.093 35.0958C373.992 34.1764 372.178 32.9166 370.642 31.3158L369.199 32.7002C370.922 34.4967 372.956 35.9063 375.292 36.9282L376.093 35.0958ZM370.642 31.3158C369.102 29.7099 367.886 27.8395 366.996 25.6964L365.149 26.4636C366.131 28.8272 367.48 30.9088 369.199 32.7002L370.642 31.3158ZM367.003 25.7135C366.149 23.5472 365.72 21.2454 365.72 18.8H363.72C363.72 21.4853 364.193 24.0368 365.142 26.4465L367.003 25.7135ZM365.72 18.8C365.72 16.3545 366.149 14.072 367.001 11.9434L365.144 11.2006C364.193 13.5787 363.72 16.1148 363.72 18.8H365.72ZM366.998 11.9506C367.888 9.77481 369.101 7.90969 370.635 6.34362L369.206 4.94437C367.481 6.70631 366.129 8.79319 365.147 11.1934L366.998 11.9506ZM370.642 6.33622C372.178 4.73537 373.992 3.47559 376.093 2.55616L375.292 0.723843C372.956 1.74574 370.922 3.1553 369.199 4.95177L370.642 6.33622ZM376.105 2.55085C378.187 1.60738 380.438 1.132 382.868 1.132V-0.868003C380.168 -0.868003 377.635 -0.338051 375.28 0.729147L376.105 2.55085ZM406.739 37H405.739V38H406.739V37ZM406.739 0.599998V-0.400002H405.739V0.599998H406.739ZM414.019 0.599998H415.019V-0.400002H414.019V0.599998ZM414.019 37V38H415.019V37H414.019ZM415.111 29.72V28.72H413.409L414.237 30.2067L415.111 29.72ZM431.127 29.72H432.127V28.72H431.127V29.72ZM431.127 37V38H432.127V37H431.127ZM419.167 37L418.293 37.4867L418.579 38H419.167V37ZM407.739 37V0.599998H405.739V37H407.739ZM406.739 1.6H414.019V-0.400002H406.739V1.6ZM413.019 0.599998V37H415.019V0.599998H413.019ZM414.019 36H406.739V38H414.019V36ZM415.111 30.72H431.127V28.72H415.111V30.72ZM430.127 29.72V37H432.127V29.72H430.127ZM431.127 36H419.167V38H431.127V36ZM420.04 36.5133L415.984 29.2333L414.237 30.2067L418.293 37.4867L420.04 36.5133ZM436.304 37H435.304V38H436.304V37ZM436.304 0.599998V-0.400002H435.304V0.599998H436.304ZM443.584 0.599998H444.584V-0.400002H443.584V0.599998ZM443.584 37V38H444.584V37H443.584ZM444.676 29.72V28.72H442.974L443.802 30.2067L444.676 29.72ZM460.692 29.72H461.692V28.72H460.692V29.72ZM460.692 37V38H461.692V37H460.692ZM448.732 37L447.858 37.4867L448.144 38H448.732V37ZM437.304 37V0.599998H435.304V37H437.304ZM436.304 1.6H443.584V-0.400002H436.304V1.6ZM442.584 0.599998V37H444.584V0.599998H442.584ZM443.584 36H436.304V38H443.584V36ZM444.676 30.72H460.692V28.72H444.676V30.72ZM459.692 29.72V37H461.692V29.72H459.692ZM460.692 36H448.732V38H460.692V36ZM449.605 36.5133L445.549 29.2333L443.802 30.2067L447.858 37.4867L449.605 36.5133ZM485.94 22.492V23.492H486.94V22.492H485.94ZM477.828 22.492L476.933 22.9365L477.208 23.492H477.828V22.492ZM474.448 15.68V14.68H472.836L473.553 16.1245L474.448 15.68ZM485.94 15.68H486.94V14.68H485.94V15.68ZM490.256 0.599998L491.256 0.591451L491.248 -0.400002H490.256V0.599998ZM490.308 6.684V7.684H491.317L491.308 6.67545L490.308 6.684ZM473.2 6.684V5.684H472.203L472.2 6.68186L473.2 6.684ZM473.148 30.968L472.148 30.9659L472.146 31.968H473.148V30.968ZM490.256 30.968H491.256V29.968H490.256V30.968ZM490.256 37V38H491.256V37H490.256ZM465.868 37H464.868V38H465.868V37ZM465.868 0.599998V-0.400002H464.868V0.599998H465.868ZM485.94 21.492H477.828V23.492H485.94V21.492ZM478.724 22.0475L475.344 15.2355L473.553 16.1245L476.933 22.9365L478.724 22.0475ZM474.448 16.68H485.94V14.68H474.448V16.68ZM484.94 15.68V22.492H486.94V15.68H484.94ZM489.256 0.608544L489.308 6.69255L491.308 6.67545L491.256 0.591451L489.256 0.608544ZM490.308 5.684H473.2V7.684H490.308V5.684ZM472.2 6.68186L472.148 30.9659L474.148 30.9701L474.2 6.68614L472.2 6.68186ZM473.148 31.968H490.256V29.968H473.148V31.968ZM489.256 30.968V37H491.256V30.968H489.256ZM490.256 36H465.868V38H490.256V36ZM466.868 37V0.599998H464.868V37H466.868ZM465.868 1.6H490.256V-0.400002H465.868V1.6ZM527.104 28.628L527.95 29.162L528.48 28.3222L527.644 27.7861L527.104 28.628ZM524.14 32.216L523.455 31.4872L523.45 31.4924L523.444 31.4978L524.14 32.216ZM520.448 35.024L520.939 35.895L520.948 35.8903L520.956 35.8854L520.448 35.024ZM516.08 36.792L515.822 35.8258L516.08 36.792ZM503.964 35.96L503.568 36.8784L503.574 36.8806L503.964 35.96ZM498.036 32.008L497.322 32.7078L497.329 32.7151L497.336 32.7224L498.036 32.008ZM494.084 26.08L493.164 26.4706L493.166 26.4756L494.084 26.08ZM494.084 11.572L495.003 11.9676L495.005 11.9625L494.084 11.572ZM498.036 5.644L497.329 4.93689L498.036 5.644ZM503.964 1.64L503.574 0.719404L503.569 0.721587L503.964 1.64ZM516.08 0.807998L516.338 -0.158237V-0.158237L516.08 0.807998ZM520.448 2.628L519.94 3.48936L519.948 3.49425L519.957 3.49898L520.448 2.628ZM524.14 5.384L523.444 6.10224L523.45 6.10758L523.455 6.11285L524.14 5.384ZM527.104 8.972L527.644 9.81388L528.48 9.27783L527.95 8.43801L527.104 8.972ZM521.02 12.872L520.132 13.3323L520.637 14.3054L521.56 13.7139L521.02 12.872ZM517.016 8.4L516.458 9.22944L516.463 9.23339L516.469 9.23727L517.016 8.4ZM506.928 7.672L507.347 8.57996L507.357 8.57557L507.366 8.57099L506.928 7.672ZM503.392 10.272L504.122 10.9552L504.128 10.9494L504.133 10.9435L503.392 10.272ZM501 14.12L501.927 14.4952L501.93 14.4877L501 14.12ZM501 23.532L500.07 23.8997L500.073 23.9072L501 23.532ZM503.392 27.38L502.651 28.0515L502.656 28.0574L502.662 28.0632L503.392 27.38ZM506.928 29.98L506.49 30.879L506.5 30.8836L506.509 30.888L506.928 29.98ZM517.016 29.252L517.563 30.0893L517.569 30.0854L517.575 30.0814L517.016 29.252ZM521.02 24.728L521.56 23.8861L520.637 23.2946L520.132 24.2677L521.02 24.728ZM526.259 28.094C525.472 29.3393 524.538 30.4699 523.455 31.4872L524.825 32.9448C526.03 31.8127 527.072 30.5513 527.95 29.162L526.259 28.094ZM523.444 31.4978C522.393 32.5166 521.225 33.4048 519.94 34.1626L520.956 35.8854C522.375 35.0486 523.669 34.0648 524.836 32.9342L523.444 31.4978ZM519.957 34.153C518.681 34.8726 517.304 35.4306 515.822 35.8258L516.338 37.7582C517.976 37.3214 519.511 36.7008 520.939 35.895L519.957 34.153ZM515.822 35.8258C514.349 36.2187 512.824 36.416 511.244 36.416V38.416C512.992 38.416 514.691 38.1973 516.338 37.7582L515.822 35.8258ZM511.244 36.416C508.809 36.416 506.515 35.956 504.355 35.0394L503.574 36.8806C505.989 37.9054 508.549 38.416 511.244 38.416V36.416ZM504.36 35.0416C502.216 34.1181 500.344 32.8687 498.736 31.2936L497.336 32.7224C499.126 34.4753 501.206 35.8606 503.569 36.8784L504.36 35.0416ZM498.75 31.3082C497.175 29.7003 495.926 27.8283 495.003 25.6844L493.166 26.4756C494.184 28.8384 495.569 30.9184 497.322 32.7078L498.75 31.3082ZM495.005 25.6894C494.088 23.529 493.628 21.2356 493.628 18.8H491.628C491.628 21.4951 492.139 24.055 493.164 26.4706L495.005 25.6894ZM493.628 18.8C493.628 16.3644 494.088 14.0903 495.003 11.9676L493.166 11.1764C492.139 13.5603 491.628 16.1049 491.628 18.8H493.628ZM495.005 11.9625C495.928 9.78607 497.175 7.91924 498.743 6.3511L497.329 4.93689C495.569 6.69675 494.182 8.78193 493.164 11.1814L495.005 11.9625ZM498.743 6.3511C500.35 4.74389 502.22 3.48009 504.36 2.55841L503.569 0.721587C501.201 1.74125 499.119 3.14678 497.329 4.93689L498.743 6.3511ZM504.355 2.56058C506.515 1.64402 508.809 1.184 511.244 1.184V-0.816C508.549 -0.816 505.989 -0.305355 503.574 0.719418L504.355 2.56058ZM511.244 1.184C512.824 1.184 514.349 1.38133 515.822 1.77423L516.338 -0.158237C514.691 -0.59733 512.992 -0.816 511.244 -0.816V1.184ZM515.822 1.77423C517.297 2.16749 518.669 2.73951 519.94 3.48936L520.956 1.76663C519.524 0.921819 517.983 0.280508 516.338 -0.158237L515.822 1.77423ZM519.957 3.49898C521.235 4.21989 522.397 5.08731 523.444 6.10224L524.836 4.66576C523.665 3.53135 522.365 2.56144 520.939 1.75702L519.957 3.49898ZM523.455 6.11285C524.538 7.13005 525.472 8.26068 526.259 9.50599L527.95 8.43801C527.072 7.04865 526.03 5.78728 524.825 4.65515L523.455 6.11285ZM526.564 8.13012L520.48 12.0301L521.56 13.7139L527.644 9.81388L526.564 8.13012ZM521.908 12.4117C520.861 10.393 519.412 8.77004 517.563 7.56273L516.469 9.23727C518.018 10.2486 519.238 11.607 520.132 13.3323L521.908 12.4117ZM517.575 7.57056C515.703 6.30972 513.582 5.684 511.244 5.684V7.684C513.205 7.684 514.932 8.20228 516.458 9.22944L517.575 7.57056ZM511.244 5.684C509.569 5.684 507.981 6.0469 506.49 6.77301L507.366 8.57099C508.58 7.97976 509.868 7.684 511.244 7.684V5.684ZM506.509 6.76404C505.034 7.44472 503.746 8.39204 502.651 9.60048L504.133 10.9435C505.049 9.93329 506.118 9.14728 507.347 8.57996L506.509 6.76404ZM502.662 9.58884C501.563 10.7631 500.702 12.1554 500.07 13.7523L501.93 14.4877C502.477 13.1033 503.21 11.9303 504.122 10.9552L502.662 9.58884ZM500.073 13.7448C499.433 15.327 499.116 17.0151 499.116 18.8H501.116C501.116 17.2569 501.389 15.825 501.927 14.4952L500.073 13.7448ZM499.116 18.8C499.116 20.585 499.433 22.2875 500.07 23.8997L501.93 23.1643C501.389 21.7952 501.116 20.343 501.116 18.8H499.116ZM500.073 23.9072C500.704 25.4667 501.563 26.8509 502.651 28.0515L504.133 26.7085C503.211 25.6905 502.475 24.5093 501.927 23.1568L500.073 23.9072ZM502.662 28.0632C503.752 29.229 505.031 30.168 506.49 30.879L507.366 29.081C506.121 28.4746 505.042 27.6803 504.122 26.6968L502.662 28.0632ZM506.509 30.888C507.996 31.5741 509.578 31.916 511.244 31.916V29.916C509.86 29.916 508.565 29.6339 507.347 29.072L506.509 30.888ZM511.244 31.916C513.576 31.916 515.692 31.3112 517.563 30.0893L516.469 28.4147C514.943 29.4114 513.211 29.916 511.244 29.916V31.916ZM517.575 30.0814C519.417 28.8411 520.862 27.2044 521.908 25.1883L520.132 24.2677C519.236 25.9956 518.013 27.3749 516.458 28.4226L517.575 30.0814ZM520.48 25.5699L526.564 29.4699L527.644 27.7861L521.56 23.8861L520.48 25.5699ZM549.28 0.599998H550.28V-0.400002H549.28V0.599998ZM549.28 37V38H550.28V37H549.28ZM541.792 37H540.792V38H541.792V37ZM541.792 6.944H542.792V5.944H541.792V6.944ZM531.08 6.944H530.08V7.944H531.08V6.944ZM531.08 0.599998V-0.400002H530.08V0.599998H531.08ZM550.372 0.599998V-0.400002H548.754L549.477 1.04721L550.372 0.599998ZM559.992 0.599998H560.992V-0.400002H559.992V0.599998ZM559.992 6.944V7.944H560.992V6.944H559.992ZM553.544 6.944L552.649 7.39121L552.926 7.944H553.544V6.944ZM548.28 0.599998V37H550.28V0.599998H548.28ZM549.28 36H541.792V38H549.28V36ZM542.792 37V6.944H540.792V37H542.792ZM541.792 5.944H531.08V7.944H541.792V5.944ZM532.08 6.944V0.599998H530.08V6.944H532.08ZM531.08 1.6H549.28V-0.400002H531.08V1.6ZM550.372 1.6H559.992V-0.400002H550.372V1.6ZM558.992 0.599998V6.944H560.992V0.599998H558.992ZM559.992 5.944H553.544V7.944H559.992V5.944ZM554.438 6.49679L551.266 0.152784L549.477 1.04721L552.649 7.39121L554.438 6.49679ZM586.337 0.599998L587.159 0.029933L586.86 -0.400002H586.337V0.599998ZM609.789 34.4H610.789V34.0871L610.611 33.8299L609.789 34.4ZM609.789 37V38H610.789V37H609.789ZM602.197 37L601.375 37.5697L601.673 38H602.197V37ZM586.337 14.12L587.159 13.5503L585.337 10.9221V14.12H586.337ZM586.337 37V38H587.337V37H586.337ZM578.745 37H577.745V38H578.745V37ZM578.745 0.599998V-0.400002H577.745V0.599998H578.745ZM602.197 0.599998V-0.400002H601.197V0.599998H602.197ZM609.789 0.599998H610.789V-0.400002H609.789V0.599998ZM609.789 27.848L609.205 28.6599L610.789 29.7989V27.848H609.789ZM602.197 22.388H601.197V22.9006L601.613 23.1998L602.197 22.388ZM585.515 1.17006L608.967 34.9701L610.611 33.8299L587.159 0.029933L585.515 1.17006ZM608.789 34.4V37H610.789V34.4H608.789ZM609.789 36H602.197V38H609.789V36ZM603.019 36.4303L587.159 13.5503L585.515 14.6897L601.375 37.5697L603.019 36.4303ZM585.337 14.12V37H587.337V14.12H585.337ZM586.337 36H578.745V38H586.337V36ZM579.745 37V0.599998H577.745V37H579.745ZM578.745 1.6H586.337V-0.400002H578.745V1.6ZM602.197 1.6H609.789V-0.400002H602.197V1.6ZM608.789 0.599998V27.848H610.789V0.599998H608.789ZM610.373 27.0361L602.781 21.5761L601.613 23.1998L609.205 28.6599L610.373 27.0361ZM603.197 22.388V0.599998H601.197V22.388H603.197ZM628.041 22.388L627.146 22.8352L627.423 23.388H628.041V22.388ZM624.661 15.628V14.628H623.043L623.766 16.0752L624.661 15.628ZM636.205 15.628H637.205V14.628H636.205V15.628ZM636.205 22.388V23.388H637.205V22.388H636.205ZM616.029 0.547998V-0.452002H615.029V0.547998H616.029ZM640.625 0.547998H641.625V-0.452002H640.625V0.547998ZM640.625 6.684V7.684H641.625V6.684H640.625ZM623.361 6.684V5.684H622.361V6.684H623.361ZM623.361 37V38H624.361V37H623.361ZM616.029 37H615.029V38H616.029V37ZM628.935 21.9408L625.555 15.1808L623.766 16.0752L627.146 22.8352L628.935 21.9408ZM624.661 16.628H636.205V14.628H624.661V16.628ZM635.205 15.628V22.388H637.205V15.628H635.205ZM636.205 21.388H628.041V23.388H636.205V21.388ZM616.029 1.548H640.625V-0.452002H616.029V1.548ZM639.625 0.547998V6.684H641.625V0.547998H639.625ZM640.625 5.684H623.361V7.684H640.625V5.684ZM622.361 6.684V37H624.361V6.684H622.361ZM623.361 36H616.029V38H623.361V36ZM617.029 37V0.547998H615.029V37H617.029ZM663.223 0.599998H664.223V-0.400002H663.223V0.599998ZM663.223 37V38H664.223V37H663.223ZM655.735 37H654.735V38H655.735V37ZM655.735 6.944H656.735V5.944H655.735V6.944ZM645.023 6.944H644.023V7.944H645.023V6.944ZM645.023 0.599998V-0.400002H644.023V0.599998H645.023ZM664.315 0.599998V-0.400002H662.697L663.42 1.04721L664.315 0.599998ZM673.935 0.599998H674.935V-0.400002H673.935V0.599998ZM673.935 6.944V7.944H674.935V6.944H673.935ZM667.487 6.944L666.592 7.39121L666.869 7.944H667.487V6.944ZM662.223 0.599998V37H664.223V0.599998H662.223ZM663.223 36H655.735V38H663.223V36ZM656.735 37V6.944H654.735V37H656.735ZM655.735 5.944H645.023V7.944H655.735V5.944ZM646.023 6.944V0.599998H644.023V6.944H646.023ZM645.023 1.6H663.223V-0.400002H645.023V1.6ZM664.315 1.6H673.935V-0.400002H664.315V1.6ZM672.935 0.599998V6.944H674.935V0.599998H672.935ZM673.935 5.944H667.487V7.944H673.935V5.944ZM668.381 6.49679L665.209 0.152784L663.42 1.04721L666.592 7.39121L668.381 6.49679ZM694.638 15.732L694.9 14.7667L694.887 14.7633L694.638 15.732ZM699.214 17.24L698.843 18.1685L698.851 18.1716L699.214 17.24ZM702.854 19.268L702.233 20.0515L702.239 20.0566L702.246 20.0616L702.854 19.268ZM705.246 22.128L704.352 22.5752L704.357 22.5863L704.363 22.5972L705.246 22.128ZM705.09 30.812L704.196 30.3648L704.191 30.3738L704.187 30.3829L705.09 30.812ZM702.282 34.4L702.918 35.1719L702.92 35.17L702.282 34.4ZM698.07 36.688L698.38 37.6388L698.393 37.6347L698.07 36.688ZM687.722 36.844L687.45 37.8063L687.463 37.8098L687.475 37.8129L687.722 36.844ZM683.354 35.128L682.871 36.0032L682.88 36.0082L682.889 36.0129L683.354 35.128ZM679.87 32.684L679.19 33.4168L679.196 33.4227L679.203 33.4286L679.87 32.684ZM677.634 29.876L677.1 29.0309L676.314 29.5282L676.753 30.3482L677.634 29.876ZM683.718 26.028L684.46 25.3571L683.895 24.7329L683.184 25.1829L683.718 26.028ZM685.694 28.004L685.028 28.7492L685.039 28.7592L685.05 28.7689L685.694 28.004ZM687.774 29.46L687.278 30.3282L687.294 30.3373L687.31 30.3458L687.774 29.46ZM690.166 30.344L689.933 31.3164L690.166 30.344ZM695.002 30.448L694.806 29.4674L694.796 29.4694L695.002 30.448ZM696.874 29.772L696.384 28.9004L696.874 29.772ZM698.226 28.628L699.019 29.2377L699.03 29.2237L699.04 29.2092L698.226 28.628ZM698.382 25.456L699.263 24.9819L698.382 25.456ZM697.134 24.156L696.527 24.9504L696.542 24.962L696.558 24.973L697.134 24.156ZM694.742 22.908L694.36 23.832L694.374 23.8377L694.388 23.843L694.742 22.908ZM690.946 21.712L691.189 20.7418L691.18 20.7398L690.946 21.712ZM685.902 20.204L685.535 21.134L685.544 21.1377L685.554 21.1412L685.902 20.204ZM682.106 18.124L681.482 18.9049L681.49 18.9113L681.498 18.9176L682.106 18.124ZM679.714 15.16L680.614 14.7237L679.714 15.16ZM679.818 6.528L678.915 6.09892L678.91 6.10894L679.818 6.528ZM682.522 3.044L681.889 2.27004L682.522 3.044ZM686.526 0.912L686.83 1.86502L686.843 1.86068L686.526 0.912ZM696.51 0.755999L696.242 1.71919V1.7192L696.51 0.755999ZM700.514 2.368L700.027 3.24094L700.036 3.24648L700.046 3.25179L700.514 2.368ZM703.582 4.552L702.89 5.27339L702.905 5.2875L702.92 5.30099L703.582 4.552ZM705.818 6.892L706.359 7.73294L707.276 7.14308L706.61 6.28055L705.818 6.892ZM699.838 10.74L699.148 11.4637L699.718 12.0067L700.379 11.5809L699.838 10.74ZM695.574 7.776L695.166 8.68882L695.18 8.69522L695.195 8.70117L695.574 7.776ZM689.074 7.256L689.391 8.20468L689.405 8.19974L689.42 8.19434L689.074 7.256ZM687.514 8.088L688.114 8.888L688.135 8.87262L688.155 8.85622L687.514 8.088ZM686.526 9.18L685.663 8.67613L685.646 8.70396L685.632 8.73279L686.526 9.18ZM686.734 12.196L685.902 12.7507L685.924 12.7832L685.948 12.8138L686.734 12.196ZM688.346 13.548L687.832 14.4055L687.841 14.411L687.85 14.4162L688.346 13.548ZM690.998 14.692L690.682 15.6407L690.691 15.6437L690.998 14.692ZM694.377 16.6972C696.009 17.1393 697.497 17.6302 698.843 18.1685L699.586 16.3115C698.158 15.7405 696.596 15.226 694.9 14.7668L694.377 16.6972ZM698.851 18.1716C700.196 18.6966 701.319 19.3265 702.233 20.0515L703.476 18.4845C702.379 17.6148 701.075 16.8927 699.578 16.3084L698.851 18.1716ZM702.246 20.0616C703.173 20.772 703.869 21.6092 704.352 22.5752L706.141 21.6808C705.514 20.4281 704.616 19.3587 703.463 18.4744L702.246 20.0616ZM704.363 22.5972C704.861 23.5342 705.13 24.6835 705.13 26.08H707.13C707.13 24.4258 706.81 22.9405 706.129 21.6588L704.363 22.5972ZM705.13 26.08V26.236H707.13V26.08H705.13ZM705.13 26.236C705.13 27.7564 704.815 29.127 704.196 30.3648L705.985 31.2592C706.753 29.7236 707.13 28.0436 707.13 26.236H705.13ZM704.187 30.3829C703.593 31.6344 702.749 32.7151 701.644 33.63L702.92 35.17C704.243 34.0742 705.271 32.7629 705.994 31.2411L704.187 30.3829ZM701.647 33.6281C700.572 34.513 699.278 35.2206 697.748 35.7413L698.393 37.6347C700.122 37.046 701.635 36.2284 702.918 35.1719L701.647 33.6281ZM697.76 35.7373C696.278 36.2205 694.634 36.468 692.818 36.468V38.468C694.816 38.468 696.673 38.1955 698.38 37.6387L697.76 35.7373ZM692.818 36.468C691.13 36.468 689.514 36.2694 687.97 35.8751L687.475 37.8129C689.189 38.2506 690.971 38.468 692.818 38.468V36.468ZM687.994 35.8817C686.459 35.4479 685.069 34.9005 683.82 34.2431L682.889 36.0129C684.274 36.7421 685.796 37.3388 687.45 37.8063L687.994 35.8817ZM683.838 34.2528C682.579 33.5571 681.481 32.785 680.538 31.9394L679.203 33.4286C680.27 34.3856 681.495 35.2429 682.871 36.0032L683.838 34.2528ZM680.551 31.9512C679.645 31.1102 678.974 30.2596 678.516 29.4038L676.753 30.3482C677.334 31.4337 678.154 32.4551 679.19 33.4168L680.551 31.9512ZM678.169 30.7211L684.253 26.8731L683.184 25.1829L677.1 29.0309L678.169 30.7211ZM682.977 26.6989C683.657 27.4502 684.34 28.1341 685.028 28.7492L686.361 27.2588C685.731 26.6953 685.098 26.0618 684.46 25.3571L682.977 26.6989ZM685.05 28.7689C685.754 29.3614 686.496 29.8815 687.278 30.3282L688.271 28.5918C687.596 28.2065 686.952 27.756 686.339 27.2391L685.05 28.7689ZM687.31 30.3458C688.117 30.7685 688.993 31.0908 689.933 31.3164L690.4 29.3716C689.607 29.1812 688.887 28.9142 688.238 28.5742L687.31 30.3458ZM689.933 31.3164C690.888 31.5455 691.92 31.656 693.026 31.656V29.656C692.052 29.656 691.179 29.5585 690.4 29.3716L689.933 31.3164ZM693.026 31.656C693.756 31.656 694.483 31.5792 695.208 31.4265L694.796 29.4694C694.204 29.5942 693.614 29.656 693.026 29.656V31.656ZM695.198 31.4286C695.984 31.2715 696.709 31.0125 697.365 30.6436L696.384 28.9004C695.931 29.1555 695.408 29.3471 694.806 29.4674L695.198 31.4286ZM697.365 30.6436C698.023 30.2734 698.581 29.8072 699.019 29.2377L697.434 28.0183C697.178 28.3502 696.835 28.6466 696.384 28.9004L697.365 30.6436ZM699.04 29.2092C699.527 28.5279 699.746 27.7268 699.746 26.86H697.746C697.746 27.3799 697.619 27.7574 697.413 28.0468L699.04 29.2092ZM699.746 26.86C699.746 26.2001 699.58 25.5701 699.263 24.9819L697.502 25.9301C697.671 26.2433 697.746 26.5493 697.746 26.86H699.746ZM699.263 24.9819C698.923 24.3509 698.378 23.81 697.711 23.339L696.558 24.973C697.069 25.334 697.356 25.6598 697.502 25.9301L699.263 24.9819ZM697.742 23.3616C697.049 22.8322 696.156 22.3747 695.097 21.973L694.388 23.843C695.339 24.2039 696.041 24.5785 696.527 24.9504L697.742 23.3616ZM695.125 21.984C694.059 21.5429 692.743 21.1304 691.189 20.7419L690.704 22.6821C692.201 23.0563 693.415 23.441 694.36 23.832L695.125 21.984ZM691.18 20.7398C689.34 20.2966 687.697 19.805 686.251 19.2668L685.554 21.1412C687.089 21.7124 688.809 22.2261 690.712 22.6842L691.18 20.7398ZM686.27 19.274C684.847 18.7115 683.667 18.0604 682.715 17.3304L681.498 18.9176C682.626 19.7822 683.976 20.5178 685.535 21.134L686.27 19.274ZM682.731 17.3431C681.802 16.5996 681.101 15.7274 680.614 14.7237L678.815 15.5963C679.437 16.8806 680.331 17.9844 681.482 18.9049L682.731 17.3431ZM680.614 14.7237C680.139 13.7431 679.882 12.5465 679.882 11.104H677.882C677.882 12.7815 678.181 14.2889 678.815 15.5963L680.614 14.7237ZM679.882 11.104C679.882 9.52967 680.171 8.15036 680.726 6.94706L678.91 6.10894C678.218 7.60963 677.882 9.28099 677.882 11.104H679.882ZM680.722 6.95706C681.319 5.6986 682.13 4.65672 683.156 3.81795L681.889 2.27004C680.626 3.30328 679.635 4.58406 678.915 6.09894L680.722 6.95706ZM683.156 3.81796C684.194 2.96832 685.414 2.31517 686.83 1.86493L686.223 -0.040926C684.588 0.479498 683.139 1.24767 681.889 2.27004L683.156 3.81796ZM686.843 1.86068C688.293 1.37714 689.85 1.132 691.518 1.132V-0.868003C689.651 -0.868003 687.879 -0.59314 686.21 -0.0366831L686.843 1.86068ZM691.518 1.132C693.281 1.132 694.853 1.33167 696.242 1.71919L696.779 -0.207197C695.186 -0.651678 693.43 -0.868003 691.518 -0.868003V1.132ZM696.242 1.7192C697.667 2.11693 698.926 2.62607 700.027 3.24094L701.002 1.49506C699.745 0.79259 698.335 0.227068 696.779 -0.207198L696.242 1.7192ZM700.046 3.25179C701.152 3.83706 702.097 4.51232 702.89 5.27339L704.275 3.83061C703.334 2.92768 702.234 2.14693 700.982 1.48421L700.046 3.25179ZM702.92 5.30099C703.785 6.06642 704.484 6.80105 705.027 7.50345L706.61 6.28055C705.974 5.45762 705.182 4.63224 704.245 3.803L702.92 5.30099ZM705.277 6.05106L699.297 9.89906L700.379 11.5809L706.359 7.73294L705.277 6.05106ZM700.528 10.0163C698.982 8.54154 697.458 7.46781 695.954 6.85083L695.195 8.70117C696.395 9.19353 697.714 10.0958 699.148 11.4637L700.528 10.0163ZM695.983 6.86318C694.536 6.21585 693.01 5.892 691.414 5.892V7.892C692.731 7.892 693.978 8.15748 695.166 8.68882L695.983 6.86318ZM691.414 5.892C690.427 5.892 689.524 6.02447 688.729 6.31766L689.42 8.19434C689.942 8.00219 690.599 7.892 691.414 7.892V5.892ZM688.758 6.30732C688.041 6.54652 687.404 6.87817 686.874 7.31977L688.155 8.85622C688.457 8.60449 688.86 8.38148 689.391 8.20468L688.758 6.30732ZM686.914 7.288C686.4 7.67366 685.978 8.13586 685.663 8.67613L687.39 9.68387C687.56 9.39214 687.797 9.12634 688.114 8.888L686.914 7.288ZM685.632 8.73279C685.37 9.25761 685.214 9.80901 685.214 10.376H687.214C687.214 10.1803 687.267 9.93439 687.421 9.62721L685.632 8.73279ZM685.214 10.376C685.214 11.2443 685.434 12.0487 685.902 12.7507L687.566 11.6413C687.341 11.3033 687.214 10.8943 687.214 10.376H685.214ZM685.948 12.8138C686.424 13.4195 687.065 13.9452 687.832 14.4055L688.861 12.6905C688.241 12.3188 687.807 11.9431 687.521 11.5782L685.948 12.8138ZM687.85 14.4162C688.65 14.8731 689.598 15.2792 690.682 15.6407L691.315 13.7433C690.319 13.4115 689.499 13.0549 688.842 12.6798L687.85 14.4162ZM690.691 15.6437C691.789 15.9979 693.023 16.3501 694.39 16.7007L694.887 14.7633C693.55 14.4206 692.357 14.0795 691.305 13.7403L690.691 15.6437Z" fill="#F7941D"/>
</svg>
