<svg width="493" height="39" viewBox="0 0 493 39" fill="none" xmlns="http://www.w3.org/2000/svg">
<path d="M20.0625 18.2812C20.0625 22.1615 19.2357 25.1497 17.582 27.2461C15.9284 29.3424 13.5781 30.3906 10.5312 30.3906C7.60156 30.3906 5.28385 29.375 3.57812 27.3438C1.88542 25.2995 1.00651 22.4154 0.941406 18.6914V13.3398C0.941406 9.53776 1.78125 6.5625 3.46094 4.41406C5.14062 2.2526 7.48438 1.17188 10.4922 1.17188C13.487 1.17188 15.8177 2.20703 17.4844 4.27734C19.1641 6.33464 20.0234 9.27734 20.0625 13.1055V18.2812ZM16.4883 13.3008C16.4883 10.293 15.9935 8.0599 15.0039 6.60156C14.0273 5.13021 12.5234 4.39453 10.4922 4.39453C8.52604 4.39453 7.03516 5.13672 6.01953 6.62109C5.01693 8.10547 4.50911 10.293 4.49609 13.1836V18.2812C4.49609 21.1849 4.9974 23.3984 6 24.9219C7.01562 26.4453 8.52604 27.207 10.5312 27.207C12.5365 27.207 14.0208 26.5039 14.9844 25.0977C15.9479 23.6914 16.4492 21.5365 16.4883 18.6328V13.3008ZM40.8633 23.9258L44.0664 8.86719H47.4844L42.3086 30H39.5547L35.4336 14.8828L31.4102 30H28.6367L23.5 8.86719H26.8984L30.1797 23.5547L34.1055 8.86719H36.8398L40.8633 23.9258ZM54.3789 8.86719L54.4766 11.1523C55.8177 9.36849 57.5299 8.47656 59.6133 8.47656C63.3503 8.47656 65.2448 10.9701 65.2969 15.957V30H61.8594V16.1133C61.8594 14.4596 61.5794 13.2878 61.0195 12.5977C60.4727 11.8945 59.6458 11.543 58.5391 11.543C57.6797 11.543 56.9049 11.8294 56.2148 12.4023C55.5378 12.9753 54.9909 13.724 54.5742 14.6484V30H51.1172V8.86719H54.3789ZM96 4.64844H88.5195V30H84.9453V4.64844H77.4844V1.5625H96V4.64844ZM97.0352 18.457C97.0352 15.3841 97.7773 12.9557 99.2617 11.1719C100.759 9.375 102.732 8.47656 105.18 8.47656C107.628 8.47656 109.594 9.34896 111.078 11.0938C112.576 12.8385 113.344 15.2148 113.383 18.2227V20.4492C113.383 23.5091 112.641 25.931 111.156 27.7148C109.672 29.4987 107.693 30.3906 105.219 30.3906C102.771 30.3906 100.805 29.5247 99.3203 27.793C97.849 26.0612 97.0872 23.7174 97.0352 20.7617V18.457ZM100.492 20.4492C100.492 22.6237 100.915 24.3359 101.762 25.5859C102.621 26.8229 103.773 27.4414 105.219 27.4414C108.266 27.4414 109.835 25.2409 109.926 20.8398V18.457C109.926 16.2956 109.496 14.5898 108.637 13.3398C107.777 12.0768 106.625 11.4453 105.18 11.4453C103.76 11.4453 102.621 12.0768 101.762 13.3398C100.915 14.5898 100.492 16.2891 100.492 18.4375V20.4492ZM121.098 8.86719L121.176 10.8203C122.465 9.25781 124.164 8.47656 126.273 8.47656C128.63 8.47656 130.277 9.4987 131.215 11.543C132.543 9.4987 134.392 8.47656 136.762 8.47656C140.655 8.47656 142.647 10.9049 142.738 15.7617V30H139.301V16.0938C139.301 14.5573 139.027 13.418 138.48 12.6758C137.934 11.9206 137.009 11.543 135.707 11.543C134.665 11.543 133.819 11.9466 133.168 12.7539C132.517 13.5612 132.139 14.5898 132.035 15.8398V30H128.559V15.9375C128.52 13.0078 127.328 11.543 124.984 11.543C123.24 11.543 122.009 12.4154 121.293 14.1602V30H117.855V8.86719H121.098ZM147.23 18.457C147.23 15.3841 147.973 12.9557 149.457 11.1719C150.954 9.375 152.927 8.47656 155.375 8.47656C157.823 8.47656 159.789 9.34896 161.273 11.0938C162.771 12.8385 163.539 15.2148 163.578 18.2227V20.4492C163.578 23.5091 162.836 25.931 161.352 27.7148C159.867 29.4987 157.888 30.3906 155.414 30.3906C152.966 30.3906 151 29.5247 149.516 27.793C148.044 26.0612 147.283 23.7174 147.23 20.7617V18.457ZM150.688 20.4492C150.688 22.6237 151.111 24.3359 151.957 25.5859C152.816 26.8229 153.969 27.4414 155.414 27.4414C158.461 27.4414 160.03 25.2409 160.121 20.8398V18.457C160.121 16.2956 159.691 14.5898 158.832 13.3398C157.973 12.0768 156.82 11.4453 155.375 11.4453C153.956 11.4453 152.816 12.0768 151.957 13.3398C151.111 14.5898 150.688 16.2891 150.688 18.4375V20.4492ZM176.762 12.1094C176.28 12.0182 175.759 11.9727 175.199 11.9727C173.428 11.9727 172.191 12.9427 171.488 14.8828V30H168.031V8.86719H171.391L171.449 11.0156C172.374 9.32292 173.682 8.47656 175.375 8.47656C175.922 8.47656 176.378 8.56771 176.742 8.75L176.762 12.1094ZM188.949 12.1094C188.467 12.0182 187.947 11.9727 187.387 11.9727C185.616 11.9727 184.379 12.9427 183.676 14.8828V30H180.219V8.86719H183.578L183.637 11.0156C184.561 9.32292 185.87 8.47656 187.562 8.47656C188.109 8.47656 188.565 8.56771 188.93 8.75L188.949 12.1094ZM191.293 18.457C191.293 15.3841 192.035 12.9557 193.52 11.1719C195.017 9.375 196.99 8.47656 199.438 8.47656C201.885 8.47656 203.852 9.34896 205.336 11.0938C206.833 12.8385 207.602 15.2148 207.641 18.2227V20.4492C207.641 23.5091 206.898 25.931 205.414 27.7148C203.93 29.4987 201.951 30.3906 199.477 30.3906C197.029 30.3906 195.062 29.5247 193.578 27.793C192.107 26.0612 191.345 23.7174 191.293 20.7617V18.457ZM194.75 20.4492C194.75 22.6237 195.173 24.3359 196.02 25.5859C196.879 26.8229 198.031 27.4414 199.477 27.4414C202.523 27.4414 204.092 25.2409 204.184 20.8398V18.457C204.184 16.2956 203.754 14.5898 202.895 13.3398C202.035 12.0768 200.883 11.4453 199.438 11.4453C198.018 11.4453 196.879 12.0768 196.02 13.3398C195.173 14.5898 194.75 16.2891 194.75 18.4375V20.4492ZM227.855 23.9258L231.059 8.86719H234.477L229.301 30H226.547L222.426 14.8828L218.402 30H215.629L210.492 8.86719H213.891L217.172 23.5547L221.098 8.86719H223.832L227.855 23.9258ZM240.473 2.16797L240.062 9.35547H237.543L237.562 0H240.473V2.16797ZM253.812 24.5898C253.812 23.8477 253.533 23.2096 252.973 22.6758C252.413 22.1419 251.332 21.5169 249.73 20.8008C247.868 20.0326 246.553 19.375 245.785 18.8281C245.03 18.2812 244.464 17.6628 244.086 16.9727C243.708 16.2695 243.52 15.4362 243.52 14.4727C243.52 12.7539 244.145 11.3281 245.395 10.1953C246.658 9.04948 248.266 8.47656 250.219 8.47656C252.276 8.47656 253.93 9.07552 255.18 10.2734C256.43 11.4714 257.055 13.0078 257.055 14.8828H253.617C253.617 13.9323 253.298 13.125 252.66 12.4609C252.022 11.7839 251.208 11.4453 250.219 11.4453C249.203 11.4453 248.402 11.7122 247.816 12.2461C247.243 12.7669 246.957 13.4701 246.957 14.3555C246.957 15.0586 247.165 15.625 247.582 16.0547C248.012 16.4844 249.034 17.0508 250.648 17.7539C253.214 18.7565 254.958 19.7396 255.883 20.7031C256.807 21.6536 257.27 22.8646 257.27 24.3359C257.27 26.1719 256.638 27.6432 255.375 28.75C254.112 29.8438 252.419 30.3906 250.297 30.3906C248.096 30.3906 246.312 29.7591 244.945 28.4961C243.578 27.2331 242.895 25.6315 242.895 23.6914H246.371C246.41 24.8633 246.768 25.7812 247.445 26.4453C248.122 27.1094 249.073 27.4414 250.297 27.4414C251.443 27.4414 252.315 27.1875 252.914 26.6797C253.513 26.1589 253.812 25.4622 253.812 24.5898ZM290.062 30H286.469V16.8555H275.023V30H271.449V1.5625H275.023V13.7891H286.469V1.5625H290.062V30ZM306.645 30C306.436 29.5443 306.286 28.776 306.195 27.6953C304.971 29.4922 303.409 30.3906 301.508 30.3906C299.594 30.3906 298.096 29.8568 297.016 28.7891C295.948 27.7083 295.414 26.1914 295.414 24.2383C295.414 22.0898 296.143 20.3841 297.602 19.1211C299.06 17.8581 301.059 17.2135 303.598 17.1875H306.137V14.9414C306.137 13.6784 305.857 12.7799 305.297 12.2461C304.737 11.7122 303.884 11.4453 302.738 11.4453C301.697 11.4453 300.85 11.7578 300.199 12.3828C299.548 12.9948 299.223 13.776 299.223 14.7266H295.766C295.766 13.6458 296.085 12.6172 296.723 11.6406C297.361 10.651 298.22 9.8763 299.301 9.31641C300.382 8.75651 301.586 8.47656 302.914 8.47656C305.076 8.47656 306.716 9.01693 307.836 10.0977C308.969 11.1654 309.548 12.7279 309.574 14.7852V25.4492C309.587 27.0768 309.809 28.4896 310.238 29.6875V30H306.645ZM302.035 27.2461C302.882 27.2461 303.689 27.0117 304.457 26.543C305.225 26.0742 305.785 25.4883 306.137 24.7852V19.7461H304.184C302.543 19.7721 301.247 20.1432 300.297 20.8594C299.346 21.5625 298.871 22.5521 298.871 23.8281C298.871 25.026 299.112 25.8984 299.594 26.4453C300.076 26.9792 300.889 27.2461 302.035 27.2461ZM323.676 12.1094C323.194 12.0182 322.673 11.9727 322.113 11.9727C320.342 11.9727 319.105 12.9427 318.402 14.8828V30H314.945V8.86719H318.305L318.363 11.0156C319.288 9.32292 320.596 8.47656 322.289 8.47656C322.836 8.47656 323.292 8.56771 323.656 8.75L323.676 12.1094ZM333.48 24.7461L337.484 8.86719H341L334.73 30H332.152L325.805 8.86719H329.32L333.48 24.7461ZM351.879 30.3906C349.249 30.3906 347.23 29.6094 345.824 28.0469C344.418 26.4714 343.702 24.1667 343.676 21.1328V18.5742C343.676 15.4232 344.359 12.9557 345.727 11.1719C347.107 9.375 349.027 8.47656 351.488 8.47656C353.962 8.47656 355.811 9.26432 357.035 10.8398C358.259 12.4154 358.884 14.8698 358.91 18.2031V20.4688H347.113V20.957C347.113 23.2227 347.536 24.8698 348.383 25.8984C349.242 26.9271 350.473 27.4414 352.074 27.4414C353.09 27.4414 353.982 27.2526 354.75 26.875C355.531 26.4844 356.26 25.8724 356.938 25.0391L358.734 27.2266C357.237 29.3359 354.952 30.3906 351.879 30.3906ZM351.488 11.4453C350.056 11.4453 348.995 11.9401 348.305 12.9297C347.615 13.9062 347.224 15.4297 347.133 17.5H355.453V17.0312C355.362 15.026 354.997 13.5938 354.359 12.7344C353.734 11.875 352.777 11.4453 351.488 11.4453ZM373.344 24.5898C373.344 23.8477 373.064 23.2096 372.504 22.6758C371.944 22.1419 370.863 21.5169 369.262 20.8008C367.4 20.0326 366.085 19.375 365.316 18.8281C364.561 18.2812 363.995 17.6628 363.617 16.9727C363.24 16.2695 363.051 15.4362 363.051 14.4727C363.051 12.7539 363.676 11.3281 364.926 10.1953C366.189 9.04948 367.797 8.47656 369.75 8.47656C371.807 8.47656 373.461 9.07552 374.711 10.2734C375.961 11.4714 376.586 13.0078 376.586 14.8828H373.148C373.148 13.9323 372.829 13.125 372.191 12.4609C371.553 11.7839 370.74 11.4453 369.75 11.4453C368.734 11.4453 367.934 11.7122 367.348 12.2461C366.775 12.7669 366.488 13.4701 366.488 14.3555C366.488 15.0586 366.697 15.625 367.113 16.0547C367.543 16.4844 368.565 17.0508 370.18 17.7539C372.745 18.7565 374.49 19.7396 375.414 20.7031C376.339 21.6536 376.801 22.8646 376.801 24.3359C376.801 26.1719 376.169 27.6432 374.906 28.75C373.643 29.8438 371.951 30.3906 369.828 30.3906C367.628 30.3906 365.844 29.7591 364.477 28.4961C363.109 27.2331 362.426 25.6315 362.426 23.6914H365.902C365.941 24.8633 366.299 25.7812 366.977 26.4453C367.654 27.1094 368.604 27.4414 369.828 27.4414C370.974 27.4414 371.846 27.1875 372.445 26.6797C373.044 26.1589 373.344 25.4622 373.344 24.5898ZM385.844 3.75V8.86719H389.027V11.6602H385.844V24.7656C385.844 25.599 385.98 26.2305 386.254 26.6602C386.527 27.0898 386.996 27.3047 387.66 27.3047C388.116 27.3047 388.578 27.2266 389.047 27.0703L389.008 30C388.227 30.2604 387.426 30.3906 386.605 30.3906C385.238 30.3906 384.197 29.9023 383.48 28.9258C382.764 27.9492 382.406 26.569 382.406 24.7852V11.6602H379.184V8.86719H382.406V3.75H385.844ZM418.656 4.64844H411.176V30H407.602V4.64844H400.141V1.5625H418.656V4.64844ZM419.691 18.457C419.691 15.3841 420.434 12.9557 421.918 11.1719C423.415 9.375 425.388 8.47656 427.836 8.47656C430.284 8.47656 432.25 9.34896 433.734 11.0938C435.232 12.8385 436 15.2148 436.039 18.2227V20.4492C436.039 23.5091 435.297 25.931 433.812 27.7148C432.328 29.4987 430.349 30.3906 427.875 30.3906C425.427 30.3906 423.461 29.5247 421.977 27.793C420.505 26.0612 419.743 23.7174 419.691 20.7617V18.457ZM423.148 20.4492C423.148 22.6237 423.572 24.3359 424.418 25.5859C425.277 26.8229 426.43 27.4414 427.875 27.4414C430.922 27.4414 432.491 25.2409 432.582 20.8398V18.457C432.582 16.2956 432.152 14.5898 431.293 13.3398C430.434 12.0768 429.281 11.4453 427.836 11.4453C426.417 11.4453 425.277 12.0768 424.418 13.3398C423.572 14.5898 423.148 16.2891 423.148 18.4375V20.4492ZM439.77 18.4766C439.77 15.2214 440.375 12.7409 441.586 11.0352C442.81 9.32943 444.561 8.47656 446.84 8.47656C448.858 8.47656 450.434 9.29688 451.566 10.9375V0H455.023V30H451.859L451.684 27.7344C450.551 29.5052 448.93 30.3906 446.82 30.3906C444.633 30.3906 442.914 29.5443 441.664 27.8516C440.427 26.1458 439.796 23.7435 439.77 20.6445V18.4766ZM443.227 20.4492C443.227 22.819 443.578 24.5638 444.281 25.6836C444.984 26.7904 446.13 27.3438 447.719 27.3438C449.438 27.3438 450.72 26.4779 451.566 24.7461V14.082C450.681 12.3893 449.405 11.543 447.738 11.543C446.15 11.543 445.004 12.1029 444.301 13.2227C443.598 14.3294 443.24 16.0352 443.227 18.3398V20.4492ZM471.215 30C471.007 29.5443 470.857 28.776 470.766 27.6953C469.542 29.4922 467.979 30.3906 466.078 30.3906C464.164 30.3906 462.667 29.8568 461.586 28.7891C460.518 27.7083 459.984 26.1914 459.984 24.2383C459.984 22.0898 460.714 20.3841 462.172 19.1211C463.63 17.8581 465.629 17.2135 468.168 17.1875H470.707V14.9414C470.707 13.6784 470.427 12.7799 469.867 12.2461C469.307 11.7122 468.454 11.4453 467.309 11.4453C466.267 11.4453 465.421 11.7578 464.77 12.3828C464.118 12.9948 463.793 13.776 463.793 14.7266H460.336C460.336 13.6458 460.655 12.6172 461.293 11.6406C461.931 10.651 462.79 9.8763 463.871 9.31641C464.952 8.75651 466.156 8.47656 467.484 8.47656C469.646 8.47656 471.286 9.01693 472.406 10.0977C473.539 11.1654 474.118 12.7279 474.145 14.7852V25.4492C474.158 27.0768 474.379 28.4896 474.809 29.6875V30H471.215ZM466.605 27.2461C467.452 27.2461 468.259 27.0117 469.027 26.543C469.796 26.0742 470.355 25.4883 470.707 24.7852V19.7461H468.754C467.113 19.7721 465.818 20.1432 464.867 20.8594C463.917 21.5625 463.441 22.5521 463.441 23.8281C463.441 25.026 463.682 25.8984 464.164 26.4453C464.646 26.9792 465.46 27.2461 466.605 27.2461ZM484.984 24.2578L488.832 8.86719H492.504L485.59 32.9883C485.069 34.7982 484.333 36.1719 483.383 37.1094C482.432 38.0599 481.352 38.5352 480.141 38.5352C479.672 38.5352 479.073 38.431 478.344 38.2227V35.293L479.105 35.3711C480.108 35.3711 480.889 35.1302 481.449 34.6484C482.022 34.1797 482.484 33.3594 482.836 32.1875L483.52 29.8242L477.309 8.86719H481.078L484.984 24.2578Z" fill="white"/>
<path d="M17.582 27.2461L16.7969 26.6268L17.582 27.2461ZM3.57812 27.3438L2.80788 27.9815L2.81232 27.9868L3.57812 27.3438ZM0.941406 18.6914H-0.0585938V18.7001L-0.0584409 18.7089L0.941406 18.6914ZM3.46094 4.41406L4.24875 5.02999L4.25055 5.02767L3.46094 4.41406ZM17.4844 4.27734L16.7054 4.90444L16.7098 4.90978L17.4844 4.27734ZM20.0625 13.1055H21.0626L21.0624 13.0953L20.0625 13.1055ZM15.0039 6.60156L14.1707 7.15459L14.1764 7.16306L15.0039 6.60156ZM6.01953 6.62109L5.19421 6.0564L5.19085 6.06137L6.01953 6.62109ZM4.49609 13.1836L3.49609 13.1791V13.1836H4.49609ZM6 24.9219L5.16465 25.4716L5.16795 25.4766L6 24.9219ZM16.4883 18.6328L17.4883 18.6463V18.6328H16.4883ZM19.0625 18.2812C19.0625 22.0353 18.2606 24.7712 16.7969 26.6268L18.3672 27.8654C20.2107 25.5283 21.0625 22.2876 21.0625 18.2812H19.0625ZM16.7969 26.6268C15.3612 28.4468 13.3208 29.3906 10.5312 29.3906V31.3906C13.8354 31.3906 16.4955 30.2381 18.3672 27.8654L16.7969 26.6268ZM10.5312 29.3906C7.86214 29.3906 5.8383 28.4802 4.34393 26.7007L2.81232 27.9868C4.7294 30.2698 7.34099 31.3906 10.5312 31.3906V29.3906ZM4.34835 26.706C2.84879 24.895 2.00396 22.2609 1.94125 18.6739L-0.0584409 18.7089C0.00905728 22.5698 0.922044 25.704 2.8079 27.9815L4.34835 26.706ZM1.94141 18.6914V13.3398H-0.0585938V18.6914H1.94141ZM1.94141 13.3398C1.94141 9.67457 2.7517 6.94481 4.24874 5.02998L2.67313 3.79814C0.810804 6.18019 -0.0585938 9.40096 -0.0585938 13.3398H1.94141ZM4.25055 5.02767C5.72031 3.13635 7.75813 2.17188 10.4922 2.17188V0.171875C7.21062 0.171875 4.56094 1.36886 2.67133 3.80045L4.25055 5.02767ZM10.4922 2.17188C13.2277 2.17188 15.2542 3.10178 16.7054 4.90443L18.2633 3.65026C16.3812 1.31228 13.7463 0.171875 10.4922 0.171875V2.17188ZM16.7098 4.90978C18.1945 6.72825 19.0248 9.41705 19.0626 13.1157L21.0624 13.0953C21.0221 9.13764 20.1337 5.94102 18.259 3.64491L16.7098 4.90978ZM19.0625 13.1055V18.2812H21.0625V13.1055H19.0625ZM17.4883 13.3008C17.4883 10.2188 16.9879 7.74433 15.8314 6.04006L14.1764 7.16306C14.9991 8.37546 15.4883 10.3671 15.4883 13.3008H17.4883ZM15.8371 6.04856C14.645 4.25246 12.7999 3.39453 10.4922 3.39453V5.39453C12.247 5.39453 13.4097 6.00796 14.1707 7.15456L15.8371 6.04856ZM10.4922 3.39453C8.23212 3.39453 6.41578 4.27106 5.19422 6.05641L6.84484 7.18578C7.65453 6.00238 8.81996 5.39453 10.4922 5.39453V3.39453ZM5.19085 6.06137C4.02849 7.78227 3.50952 10.2012 3.4961 13.1791L5.49608 13.1881C5.50871 10.3847 6.00537 8.42867 6.84821 7.18082L5.19085 6.06137ZM3.49609 13.1836V18.2812H5.49609V13.1836H3.49609ZM3.49609 18.2812C3.49609 21.2744 4.00837 23.7146 5.16467 25.4716L6.83533 24.3721C5.98642 23.0822 5.49609 21.0953 5.49609 18.2812H3.49609ZM5.16795 25.4766C6.38897 27.3081 8.22928 28.207 10.5312 28.207V26.207C8.82281 26.207 7.64228 25.5825 6.83205 24.3672L5.16795 25.4766ZM10.5312 28.207C12.7994 28.207 14.6245 27.3921 15.8093 25.6629L14.1594 24.5324C13.4172 25.6157 12.2735 26.207 10.5312 26.207V28.207ZM15.8093 25.6629C16.938 24.0156 17.4481 21.6236 17.4882 18.6463L15.4884 18.6194C15.4503 21.4493 14.9578 23.3673 14.1594 24.5324L15.8093 25.6629ZM17.4883 18.6328V13.3008H15.4883V18.6328H17.4883ZM40.8633 23.9258L39.8972 24.1839L41.8414 24.1338L40.8633 23.9258ZM44.0664 8.86719V7.86719H43.2567L43.0883 8.65913L44.0664 8.86719ZM47.4844 8.86719L48.4557 9.10507L48.7588 7.86719H47.4844V8.86719ZM42.3086 30V31H43.0932L43.2799 30.2379L42.3086 30ZM39.5547 30L38.5899 30.263L38.7908 31H39.5547V30ZM35.4336 14.8828L36.3984 14.6198L35.422 11.0382L34.4672 14.6256L35.4336 14.8828ZM31.4102 30V31H32.1788L32.3765 30.2572L31.4102 30ZM28.6367 30L27.665 30.2362L27.8507 31H28.6367V30ZM23.5 8.86719V7.86719H22.2278L22.5283 9.10338L23.5 8.86719ZM26.8984 8.86719L27.8744 8.64916L27.6997 7.86719H26.8984V8.86719ZM30.1797 23.5547L29.2037 23.7727L31.1458 23.8129L30.1797 23.5547ZM34.1055 8.86719V7.86719H33.3377L33.1394 8.60896L34.1055 8.86719ZM36.8398 8.86719L37.806 8.60906L37.6077 7.86719H36.8398V8.86719ZM41.8414 24.1338L45.0445 9.07524L43.0883 8.65913L39.8852 23.7177L41.8414 24.1338ZM44.0664 9.86719H47.4844V7.86719H44.0664V9.86719ZM46.5131 8.6293L41.3373 29.7621L43.2799 30.2379L48.4557 9.10507L46.5131 8.6293ZM42.3086 29H39.5547V31H42.3086V29ZM40.5195 29.737L36.3984 14.6198L34.4688 15.1458L38.5899 30.263L40.5195 29.737ZM34.4672 14.6256L30.4438 29.7428L32.3765 30.2572L36.4 15.14L34.4672 14.6256ZM31.4102 29H28.6367V31H31.4102V29ZM29.6084 29.7638L24.4717 8.631L22.5283 9.10338L27.665 30.2362L29.6084 29.7638ZM23.5 9.86719H26.8984V7.86719H23.5V9.86719ZM25.9225 9.08522L29.2037 23.7727L31.1556 23.3367L27.8744 8.64916L25.9225 9.08522ZM31.1458 23.8129L35.0716 9.12541L33.1394 8.60896L29.2136 23.2965L31.1458 23.8129ZM34.1055 9.86719H36.8398V7.86719H34.1055V9.86719ZM35.8737 9.12532L39.8972 24.1839L41.8294 23.6677L37.806 8.60906L35.8737 9.12532ZM54.3789 8.86719L55.378 8.82449L55.3371 7.86719H54.3789V8.86719ZM54.4766 11.1523L53.4775 11.195L53.5968 13.9866L55.2759 11.7533L54.4766 11.1523ZM65.2969 15.957H66.2969L66.2968 15.9466L65.2969 15.957ZM65.2969 30V31H66.2969V30H65.2969ZM61.8594 30H60.8594V31H61.8594V30ZM61.0195 12.5977L60.2302 13.2116L60.2365 13.2197L60.243 13.2277L61.0195 12.5977ZM56.2148 12.4023L55.5761 11.6329L55.5689 11.639L56.2148 12.4023ZM54.5742 14.6484L53.6625 14.2375L53.5742 14.4335V14.6484H54.5742ZM54.5742 30V31H55.5742V30H54.5742ZM51.1172 30H50.1172V31H51.1172V30ZM51.1172 8.86719V7.86719H50.1172V8.86719H51.1172ZM53.3798 8.90988L53.4775 11.195L55.4757 11.1096L55.378 8.82449L53.3798 8.90988ZM55.2759 11.7533C56.4437 10.1999 57.8694 9.47656 59.6133 9.47656V7.47656C57.1904 7.47656 55.1917 8.53711 53.6773 10.5514L55.2759 11.7533ZM59.6133 9.47656C61.2371 9.47656 62.3201 10.0033 63.0407 10.9517C63.8011 11.9525 64.2719 13.5709 64.2969 15.9675L66.2968 15.9466C66.2698 13.3562 65.7672 11.2343 64.6332 9.7417C63.4592 8.19659 61.7264 7.47656 59.6133 7.47656V9.47656ZM64.2969 15.957V30H66.2969V15.957H64.2969ZM65.2969 29H61.8594V31H65.2969V29ZM62.8594 30V16.1133H60.8594V30H62.8594ZM62.8594 16.1133C62.8594 14.4028 62.5809 12.935 61.7961 11.9676L60.243 13.2277C60.5779 13.6406 60.8594 14.5164 60.8594 16.1133H62.8594ZM61.8089 11.9837C61.027 10.9785 59.8718 10.543 58.5391 10.543V12.543C59.4199 12.543 59.9183 12.8106 60.2302 13.2116L61.8089 11.9837ZM58.5391 10.543C57.4356 10.543 56.4372 10.9181 55.5761 11.6329L56.8536 13.1718C57.3727 12.7408 57.9238 12.543 58.5391 12.543V10.543ZM55.5689 11.639C54.7628 12.321 54.1316 13.1967 53.6625 14.2375L55.4859 15.0593C55.8501 14.2512 56.3127 13.6295 56.8608 13.1657L55.5689 11.639ZM53.5742 14.6484V30H55.5742V14.6484H53.5742ZM54.5742 29H51.1172V31H54.5742V29ZM52.1172 30V8.86719H50.1172V30H52.1172ZM51.1172 9.86719H54.3789V7.86719H51.1172V9.86719ZM96 4.64844V5.64844H97V4.64844H96ZM88.5195 4.64844V3.64844H87.5195V4.64844H88.5195ZM88.5195 30V31H89.5195V30H88.5195ZM84.9453 30H83.9453V31H84.9453V30ZM84.9453 4.64844H85.9453V3.64844H84.9453V4.64844ZM77.4844 4.64844H76.4844V5.64844H77.4844V4.64844ZM77.4844 1.5625V0.5625H76.4844V1.5625H77.4844ZM96 1.5625H97V0.5625H96V1.5625ZM96 3.64844H88.5195V5.64844H96V3.64844ZM87.5195 4.64844V30H89.5195V4.64844H87.5195ZM88.5195 29H84.9453V31H88.5195V29ZM85.9453 30V4.64844H83.9453V30H85.9453ZM84.9453 3.64844H77.4844V5.64844H84.9453V3.64844ZM78.4844 4.64844V1.5625H76.4844V4.64844H78.4844ZM77.4844 2.5625H96V0.5625H77.4844V2.5625ZM95 1.5625V4.64844H97V1.5625H95ZM99.2617 11.1719L98.4935 10.5317L98.493 10.5322L99.2617 11.1719ZM111.078 11.0938L110.316 11.7417L110.319 11.745L111.078 11.0938ZM113.383 18.2227H114.383L114.383 18.2097L113.383 18.2227ZM99.3203 27.793L98.5582 28.4405L98.5611 28.4438L99.3203 27.793ZM97.0352 20.7617H96.0352V20.7705L96.0353 20.7793L97.0352 20.7617ZM101.762 25.5859L100.934 26.1466L100.94 26.1565L101.762 25.5859ZM109.926 20.8398L110.926 20.8605L110.926 20.8502V20.8398H109.926ZM108.637 13.3398L107.81 13.9024L107.813 13.9064L108.637 13.3398ZM101.762 13.3398L100.935 12.7773L100.934 12.7792L101.762 13.3398ZM98.0352 18.457C98.0352 15.5414 98.738 13.3647 100.03 11.8115L98.493 10.5322C96.8167 12.5468 96.0352 15.2268 96.0352 18.457H98.0352ZM100.03 11.8121C101.327 10.2551 103.013 9.47656 105.18 9.47656V7.47656C102.451 7.47656 100.191 8.49491 98.4935 10.5317L100.03 11.8121ZM105.18 9.47656C107.357 9.47656 109.036 10.2371 110.316 11.7417L111.84 10.4458C110.151 8.46079 107.898 7.47656 105.18 7.47656V9.47656ZM110.319 11.745C111.622 13.2632 112.346 15.389 112.383 18.2356L114.383 18.2097C114.342 15.0407 113.529 12.4138 111.837 10.4425L110.319 11.745ZM112.383 18.2227V20.4492H114.383V18.2227H112.383ZM112.383 20.4492C112.383 23.3506 111.681 25.5214 110.388 27.0752L111.925 28.3545C113.601 26.3406 114.383 23.6676 114.383 20.4492H112.383ZM110.388 27.0752C109.107 28.6141 107.418 29.3906 105.219 29.3906V31.3906C107.967 31.3906 110.237 30.3833 111.925 28.3545L110.388 27.0752ZM105.219 29.3906C103.038 29.3906 101.359 28.6345 100.08 27.1422L98.5611 28.4438C100.251 30.415 102.503 31.3906 105.219 31.3906V29.3906ZM100.082 27.1455C98.8007 25.637 98.0843 23.5391 98.035 20.7441L96.0353 20.7793C96.0902 23.8958 96.8972 26.4854 98.5582 28.4405L100.082 27.1455ZM98.0352 20.7617V18.457H96.0352V20.7617H98.0352ZM99.4922 20.4492C99.4922 22.7395 99.9359 24.673 100.934 26.1466L102.59 25.0253C101.895 23.9989 101.492 22.5079 101.492 20.4492H99.4922ZM100.94 26.1565C101.977 27.649 103.43 28.4414 105.219 28.4414V26.4414C104.117 26.4414 103.265 25.9968 102.583 25.0154L100.94 26.1565ZM105.219 28.4414C107.018 28.4414 108.497 27.7715 109.495 26.3716C110.449 25.0339 110.878 23.1471 110.926 20.8605L108.926 20.8191C108.882 22.9336 108.482 24.3476 107.866 25.2105C107.296 26.011 106.467 26.4414 105.219 26.4414V28.4414ZM110.926 20.8398V18.457H108.926V20.8398H110.926ZM110.926 18.457C110.926 16.1758 110.474 14.2471 109.461 12.7733L107.813 13.9064C108.518 14.9326 108.926 16.4154 108.926 18.457H110.926ZM109.463 12.7773C108.431 11.2591 106.978 10.4453 105.18 10.4453V12.4453C106.272 12.4453 107.124 12.8945 107.81 13.9024L109.463 12.7773ZM105.18 10.4453C103.401 10.4453 101.964 11.2653 100.935 12.7773L102.588 13.9024C103.278 12.8883 104.12 12.4453 105.18 12.4453V10.4453ZM100.934 12.7792C99.9371 14.2511 99.4922 16.1703 99.4922 18.4375H101.492C101.492 16.4078 101.894 14.9286 102.59 13.9005L100.934 12.7792ZM99.4922 18.4375V20.4492H101.492V18.4375H99.4922ZM121.098 8.86719L122.097 8.82722L122.058 7.86719H121.098V8.86719ZM121.176 10.8203L120.177 10.8603L120.281 13.476L121.947 11.4567L121.176 10.8203ZM131.215 11.543L130.306 11.9598L131.063 13.6116L132.053 12.0878L131.215 11.543ZM142.738 15.7617H143.738V15.7523L143.738 15.743L142.738 15.7617ZM142.738 30V31H143.738V30H142.738ZM139.301 30H138.301V31H139.301V30ZM138.48 12.6758L137.671 13.2623L137.675 13.269L138.48 12.6758ZM132.035 15.8398L131.039 15.7568L131.035 15.7982V15.8398H132.035ZM132.035 30V31H133.035V30H132.035ZM128.559 30H127.559V31H128.559V30ZM128.559 15.9375H129.559L129.559 15.9242L128.559 15.9375ZM121.293 14.1602L120.368 13.7804L120.293 13.9629V14.1602H121.293ZM121.293 30V31H122.293V30H121.293ZM117.855 30H116.855V31H117.855V30ZM117.855 8.86719V7.86719H116.855V8.86719H117.855ZM120.098 8.90716L120.177 10.8603L122.175 10.7803L122.097 8.82722L120.098 8.90716ZM121.947 11.4567C123.037 10.1352 124.448 9.47656 126.273 9.47656V7.47656C123.88 7.47656 121.892 8.38042 120.404 10.1839L121.947 11.4567ZM126.273 9.47656C127.306 9.47656 128.115 9.69934 128.749 10.0929C129.38 10.4845 129.906 11.087 130.306 11.9598L132.124 11.1261C131.587 9.95465 130.82 9.02397 129.804 8.39347C128.791 7.76486 127.598 7.47656 126.273 7.47656V9.47656ZM132.053 12.0878C133.203 10.3176 134.742 9.47656 136.762 9.47656V7.47656C134.042 7.47656 131.882 8.67984 130.376 10.9982L132.053 12.0878ZM136.762 9.47656C138.487 9.47656 139.641 10.004 140.403 10.9321C141.197 11.9001 141.695 13.4608 141.738 15.7805L143.738 15.743C143.69 13.2058 143.147 11.124 141.949 9.6636C140.718 8.16334 138.929 7.47656 136.762 7.47656V9.47656ZM141.738 15.7617V30H143.738V15.7617H141.738ZM142.738 29H139.301V31H142.738V29ZM140.301 30V16.0938H138.301V30H140.301ZM140.301 16.0938C140.301 14.4731 140.019 13.0776 139.286 12.0826L137.675 13.269C138.036 13.7583 138.301 14.6415 138.301 16.0938H140.301ZM139.29 12.0893C138.488 10.9807 137.193 10.543 135.707 10.543V12.543C136.825 12.543 137.38 12.8604 137.671 13.2623L139.29 12.0893ZM135.707 10.543C134.365 10.543 133.231 11.0823 132.39 12.1262L133.946 13.3817C134.407 12.811 134.966 12.543 135.707 12.543V10.543ZM132.39 12.1262C131.589 13.1192 131.156 14.3498 131.039 15.7568L133.032 15.9229C133.123 14.8299 133.445 14.0032 133.946 13.3817L132.39 12.1262ZM131.035 15.8398V30H133.035V15.8398H131.035ZM132.035 29H128.559V31H132.035V29ZM129.559 30V15.9375H127.559V30H129.559ZM129.559 15.9242C129.538 14.3514 129.209 12.9911 128.412 12.0106C127.581 10.9893 126.378 10.543 124.984 10.543V12.543C125.935 12.543 126.499 12.8291 126.86 13.2726C127.254 13.757 127.541 14.5939 127.559 15.9508L129.559 15.9242ZM124.984 10.543C123.938 10.543 122.984 10.8074 122.175 11.3815C121.37 11.9517 120.78 12.7765 120.368 13.7804L122.218 14.5399C122.522 13.799 122.905 13.3152 123.331 13.013C123.752 12.7147 124.286 12.543 124.984 12.543V10.543ZM120.293 14.1602V30H122.293V14.1602H120.293ZM121.293 29H117.855V31H121.293V29ZM118.855 30V8.86719H116.855V30H118.855ZM117.855 9.86719H121.098V7.86719H117.855V9.86719ZM149.457 11.1719L148.689 10.5317L148.688 10.5322L149.457 11.1719ZM161.273 11.0938L160.512 11.7417L160.515 11.745L161.273 11.0938ZM163.578 18.2227H164.578L164.578 18.2097L163.578 18.2227ZM149.516 27.793L148.754 28.4405L148.756 28.4438L149.516 27.793ZM147.23 20.7617H146.23V20.7705L146.231 20.7793L147.23 20.7617ZM151.957 25.5859L151.129 26.1466L151.136 26.1565L151.957 25.5859ZM160.121 20.8398L161.121 20.8605L161.121 20.8502V20.8398H160.121ZM158.832 13.3398L158.005 13.9024L158.008 13.9064L158.832 13.3398ZM151.957 13.3398L151.13 12.7773L151.129 12.7792L151.957 13.3398ZM148.23 18.457C148.23 15.5414 148.933 13.3647 150.226 11.8115L148.688 10.5322C147.012 12.5468 146.23 15.2268 146.23 18.457H148.23ZM150.225 11.8121C151.523 10.2551 153.208 9.47656 155.375 9.47656V7.47656C152.646 7.47656 150.386 8.49491 148.689 10.5317L150.225 11.8121ZM155.375 9.47656C157.553 9.47656 159.232 10.2371 160.512 11.7417L162.035 10.4458C160.346 8.46079 158.093 7.47656 155.375 7.47656V9.47656ZM160.515 11.745C161.818 13.2632 162.541 15.389 162.578 18.2356L164.578 18.2097C164.537 15.0407 163.724 12.4138 162.032 10.4425L160.515 11.745ZM162.578 18.2227V20.4492H164.578V18.2227H162.578ZM162.578 20.4492C162.578 23.3506 161.876 25.5214 160.583 27.0752L162.12 28.3545C163.796 26.3406 164.578 23.6676 164.578 20.4492H162.578ZM160.583 27.0752C159.302 28.6141 157.613 29.3906 155.414 29.3906V31.3906C158.163 31.3906 160.432 30.3833 162.12 28.3545L160.583 27.0752ZM155.414 29.3906C153.234 29.3906 151.554 28.6345 150.275 27.1422L148.756 28.4438C150.446 30.415 152.698 31.3906 155.414 31.3906V29.3906ZM150.278 27.1455C148.996 25.637 148.28 23.5391 148.23 20.7441L146.231 20.7793C146.286 23.8958 147.092 26.4854 148.754 28.4405L150.278 27.1455ZM148.23 20.7617V18.457H146.23V20.7617H148.23ZM149.688 20.4492C149.688 22.7395 150.131 24.673 151.129 26.1466L152.785 25.0253C152.09 23.9989 151.688 22.5079 151.688 20.4492H149.688ZM151.136 26.1565C152.173 27.649 153.625 28.4414 155.414 28.4414V26.4414C154.312 26.4414 153.46 25.9968 152.778 25.0154L151.136 26.1565ZM155.414 28.4414C157.213 28.4414 158.692 27.7715 159.69 26.3716C160.644 25.0339 161.074 23.1471 161.121 20.8605L159.121 20.8191C159.078 22.9336 158.677 24.3476 158.062 25.2105C157.491 26.011 156.662 26.4414 155.414 26.4414V28.4414ZM161.121 20.8398V18.457H159.121V20.8398H161.121ZM161.121 18.457C161.121 16.1758 160.669 14.2471 159.656 12.7733L158.008 13.9064C158.714 14.9326 159.121 16.4154 159.121 18.457H161.121ZM159.659 12.7773C158.626 11.2591 157.173 10.4453 155.375 10.4453V12.4453C156.468 12.4453 157.319 12.8945 158.005 13.9024L159.659 12.7773ZM155.375 10.4453C153.596 10.4453 152.159 11.2653 151.13 12.7773L152.784 13.9024C153.474 12.8883 154.316 12.4453 155.375 12.4453V10.4453ZM151.129 12.7792C150.132 14.2511 149.688 16.1703 149.688 18.4375H151.688C151.688 16.4078 152.089 14.9286 152.785 13.9005L151.129 12.7792ZM149.688 18.4375V20.4492H151.688V18.4375H149.688ZM176.762 12.1094L176.576 13.0919L177.769 13.3176L177.762 12.1036L176.762 12.1094ZM171.488 14.8828L170.548 14.5421L170.488 14.7072V14.8828H171.488ZM171.488 30V31H172.488V30H171.488ZM168.031 30H167.031V31H168.031V30ZM168.031 8.86719V7.86719H167.031V8.86719H168.031ZM171.391 8.86719L172.39 8.83992L172.364 7.86719H171.391V8.86719ZM171.449 11.0156L170.45 11.0429L170.551 14.7472L172.327 11.4949L171.449 11.0156ZM176.742 8.75L177.742 8.74419L177.739 8.13017L177.189 7.85557L176.742 8.75ZM176.948 11.1268C176.397 11.0226 175.813 10.9727 175.199 10.9727V12.9727C175.705 12.9727 176.163 13.0139 176.576 13.0919L176.948 11.1268ZM175.199 10.9727C174.12 10.9727 173.143 11.2729 172.326 11.9133C171.521 12.5448 170.944 13.4499 170.548 14.5421L172.428 15.2235C172.736 14.3756 173.129 13.8257 173.56 13.4871C173.981 13.1575 174.508 12.9727 175.199 12.9727V10.9727ZM170.488 14.8828V30H172.488V14.8828H170.488ZM171.488 29H168.031V31H171.488V29ZM169.031 30V8.86719H167.031V30H169.031ZM168.031 9.86719H171.391V7.86719H168.031V9.86719ZM170.391 8.89445L170.45 11.0429L172.449 10.9884L172.39 8.83992L170.391 8.89445ZM172.327 11.4949C173.106 10.069 174.106 9.47656 175.375 9.47656V7.47656C173.259 7.47656 171.642 8.57687 170.572 10.5363L172.327 11.4949ZM175.375 9.47656C175.817 9.47656 176.108 9.55112 176.295 9.64443L177.189 7.85557C176.647 7.5843 176.027 7.47656 175.375 7.47656V9.47656ZM175.742 8.75581L175.762 12.1152L177.762 12.1036L177.742 8.74419L175.742 8.75581ZM188.949 12.1094L188.763 13.0919L189.956 13.3176L189.949 12.1036L188.949 12.1094ZM183.676 14.8828L182.736 14.5421L182.676 14.7072V14.8828H183.676ZM183.676 30V31H184.676V30H183.676ZM180.219 30H179.219V31H180.219V30ZM180.219 8.86719V7.86719H179.219V8.86719H180.219ZM183.578 8.86719L184.578 8.83992L184.551 7.86719H183.578V8.86719ZM183.637 11.0156L182.637 11.0429L182.738 14.7472L184.514 11.4949L183.637 11.0156ZM188.93 8.75L189.93 8.74419L189.926 8.13017L189.377 7.85557L188.93 8.75ZM189.135 11.1268C188.584 11.0226 188 10.9727 187.387 10.9727V12.9727C187.893 12.9727 188.351 13.0139 188.763 13.0919L189.135 11.1268ZM187.387 10.9727C186.307 10.9727 185.33 11.2729 184.514 11.9133C183.709 12.5448 183.131 13.4499 182.736 14.5421L184.616 15.2235C184.923 14.3756 185.316 13.8257 185.748 13.4871C186.168 13.1575 186.695 12.9727 187.387 12.9727V10.9727ZM182.676 14.8828V30H184.676V14.8828H182.676ZM183.676 29H180.219V31H183.676V29ZM181.219 30V8.86719H179.219V30H181.219ZM180.219 9.86719H183.578V7.86719H180.219V9.86719ZM182.578 8.89445L182.637 11.0429L184.636 10.9884L184.578 8.83992L182.578 8.89445ZM184.514 11.4949C185.293 10.069 186.293 9.47656 187.562 9.47656V7.47656C185.446 7.47656 183.829 8.57687 182.759 10.5363L184.514 11.4949ZM187.562 9.47656C188.005 9.47656 188.296 9.55112 188.482 9.64443L189.377 7.85557C188.834 7.5843 188.214 7.47656 187.562 7.47656V9.47656ZM187.93 8.75581L187.949 12.1152L189.949 12.1036L189.93 8.74419L187.93 8.75581ZM193.52 11.1719L192.751 10.5317L192.751 10.5322L193.52 11.1719ZM205.336 11.0938L204.574 11.7417L204.577 11.745L205.336 11.0938ZM207.641 18.2227H208.641L208.641 18.2097L207.641 18.2227ZM193.578 27.793L192.816 28.4405L192.819 28.4438L193.578 27.793ZM191.293 20.7617H190.293V20.7705L190.293 20.7793L191.293 20.7617ZM196.02 25.5859L195.191 26.1466L195.198 26.1565L196.02 25.5859ZM204.184 20.8398L205.183 20.8605L205.184 20.8502V20.8398H204.184ZM202.895 13.3398L202.068 13.9024L202.07 13.9064L202.895 13.3398ZM196.02 13.3398L195.193 12.7773L195.191 12.7792L196.02 13.3398ZM192.293 18.457C192.293 15.5414 192.996 13.3647 194.288 11.8115L192.751 10.5322C191.074 12.5468 190.293 15.2268 190.293 18.457H192.293ZM194.288 11.8121C195.585 10.2551 197.27 9.47656 199.438 9.47656V7.47656C196.709 7.47656 194.449 8.49491 192.751 10.5317L194.288 11.8121ZM199.438 9.47656C201.615 9.47656 203.294 10.2371 204.574 11.7417L206.098 10.4458C204.409 8.46079 202.156 7.47656 199.438 7.47656V9.47656ZM204.577 11.745C205.88 13.2632 206.604 15.389 206.641 18.2356L208.641 18.2097C208.599 15.0407 207.787 12.4138 206.095 10.4425L204.577 11.745ZM206.641 18.2227V20.4492H208.641V18.2227H206.641ZM206.641 20.4492C206.641 23.3506 205.938 25.5214 204.645 27.0752L206.183 28.3545C207.859 26.3406 208.641 23.6676 208.641 20.4492H206.641ZM204.645 27.0752C203.365 28.6141 201.676 29.3906 199.477 29.3906V31.3906C202.225 31.3906 204.494 30.3833 206.183 28.3545L204.645 27.0752ZM199.477 29.3906C197.296 29.3906 195.617 28.6345 194.337 27.1422L192.819 28.4438C194.508 30.415 196.761 31.3906 199.477 31.3906V29.3906ZM194.34 27.1455C193.059 25.637 192.342 23.5391 192.293 20.7441L190.293 20.7793C190.348 23.8958 191.155 26.4854 192.816 28.4405L194.34 27.1455ZM192.293 20.7617V18.457H190.293V20.7617H192.293ZM193.75 20.4492C193.75 22.7395 194.194 24.673 195.191 26.1466L196.848 25.0253C196.153 23.9989 195.75 22.5079 195.75 20.4492H193.75ZM195.198 26.1565C196.235 27.649 197.688 28.4414 199.477 28.4414V26.4414C198.375 26.4414 197.523 25.9968 196.841 25.0154L195.198 26.1565ZM199.477 28.4414C201.276 28.4414 202.754 27.7715 203.753 26.3716C204.706 25.0339 205.136 23.1471 205.183 20.8605L203.184 20.8191C203.14 22.9336 202.74 24.3476 202.124 25.2105C201.553 26.011 200.724 26.4414 199.477 26.4414V28.4414ZM205.184 20.8398V18.457H203.184V20.8398H205.184ZM205.184 18.457C205.184 16.1758 204.732 14.2471 203.719 12.7733L202.07 13.9064C202.776 14.9326 203.184 16.4154 203.184 18.457H205.184ZM203.721 12.7773C202.688 11.2591 201.236 10.4453 199.438 10.4453V12.4453C200.53 12.4453 201.382 12.8945 202.068 13.9024L203.721 12.7773ZM199.438 10.4453C197.658 10.4453 196.222 11.2653 195.193 12.7773L196.846 13.9024C197.536 12.8883 198.378 12.4453 199.438 12.4453V10.4453ZM195.191 12.7792C194.195 14.2511 193.75 16.1703 193.75 18.4375H195.75C195.75 16.4078 196.151 14.9286 196.848 13.9005L195.191 12.7792ZM193.75 18.4375V20.4492H195.75V18.4375H193.75ZM227.855 23.9258L226.889 24.1839L228.834 24.1338L227.855 23.9258ZM231.059 8.86719V7.86719H230.249L230.08 8.65913L231.059 8.86719ZM234.477 8.86719L235.448 9.10507L235.751 7.86719H234.477V8.86719ZM229.301 30V31H230.085L230.272 30.2379L229.301 30ZM226.547 30L225.582 30.263L225.783 31H226.547V30ZM222.426 14.8828L223.391 14.6198L222.414 11.0382L221.459 14.6256L222.426 14.8828ZM218.402 30V31H219.171L219.369 30.2572L218.402 30ZM215.629 30L214.657 30.2362L214.843 31H215.629V30ZM210.492 8.86719V7.86719H209.22L209.52 9.10338L210.492 8.86719ZM213.891 8.86719L214.867 8.64916L214.692 7.86719H213.891V8.86719ZM217.172 23.5547L216.196 23.7727L218.138 23.8129L217.172 23.5547ZM221.098 8.86719V7.86719H220.33L220.132 8.60896L221.098 8.86719ZM223.832 8.86719L224.798 8.60906L224.6 7.86719H223.832V8.86719ZM228.834 24.1338L232.037 9.07524L230.08 8.65913L226.877 23.7177L228.834 24.1338ZM231.059 9.86719H234.477V7.86719H231.059V9.86719ZM233.505 8.6293L228.329 29.7621L230.272 30.2379L235.448 9.10507L233.505 8.6293ZM229.301 29H226.547V31H229.301V29ZM227.512 29.737L223.391 14.6198L221.461 15.1458L225.582 30.263L227.512 29.737ZM221.459 14.6256L217.436 29.7428L219.369 30.2572L223.392 15.14L221.459 14.6256ZM218.402 29H215.629V31H218.402V29ZM216.601 29.7638L211.464 8.631L209.52 9.10338L214.657 30.2362L216.601 29.7638ZM210.492 9.86719H213.891V7.86719H210.492V9.86719ZM212.915 9.08522L216.196 23.7727L218.148 23.3367L214.867 8.64916L212.915 9.08522ZM218.138 23.8129L222.064 9.12541L220.132 8.60896L216.206 23.2965L218.138 23.8129ZM221.098 9.86719H223.832V7.86719H221.098V9.86719ZM222.866 9.12532L226.889 24.1839L228.822 23.6677L224.798 8.60906L222.866 9.12532ZM240.473 2.16797L241.471 2.22494L241.473 2.19648V2.16797H240.473ZM240.062 9.35547V10.3555H241.007L241.061 9.41244L240.062 9.35547ZM237.543 9.35547L236.543 9.35338L236.541 10.3555H237.543V9.35547ZM237.562 0V-1H236.565L236.562 -0.00208759L237.562 0ZM240.473 0H241.473V-1H240.473V0ZM239.474 2.111L239.064 9.2985L241.061 9.41244L241.471 2.22494L239.474 2.111ZM240.062 8.35547H237.543V10.3555H240.062V8.35547ZM238.543 9.35756L238.562 0.00208759L236.562 -0.00208759L236.543 9.35338L238.543 9.35756ZM237.562 1H240.473V-1H237.562V1ZM239.473 0V2.16797H241.473V0H239.473ZM249.73 20.8008L250.139 19.8879L250.125 19.8819L250.112 19.8764L249.73 20.8008ZM245.785 18.8281L245.199 19.6381L245.205 19.6428L245.785 18.8281ZM244.086 16.9727L243.205 17.4458L243.209 17.4527L244.086 16.9727ZM245.395 10.1953L246.066 10.9363L246.066 10.9359L245.395 10.1953ZM255.18 10.2734L255.872 9.55145L255.18 10.2734ZM257.055 14.8828V15.8828H258.055V14.8828H257.055ZM253.617 14.8828H252.617V15.8828H253.617V14.8828ZM252.66 12.4609L251.932 13.1468L251.939 13.1538L252.66 12.4609ZM247.816 12.2461L248.489 12.986L248.49 12.9853L247.816 12.2461ZM247.582 16.0547L246.864 16.7508L246.869 16.7564L246.875 16.7618L247.582 16.0547ZM250.648 17.7539L250.249 18.6707L250.267 18.6784L250.284 18.6853L250.648 17.7539ZM255.883 20.7031L255.161 21.3955L255.166 21.4003L255.883 20.7031ZM255.375 28.75L256.03 29.506L256.034 29.5021L255.375 28.75ZM242.895 23.6914V22.6914H241.895V23.6914H242.895ZM246.371 23.6914L247.371 23.6581L247.338 22.6914H246.371V23.6914ZM252.914 26.6797L253.561 27.4425L253.57 27.4343L252.914 26.6797ZM254.812 24.5898C254.812 23.5614 254.411 22.6656 253.663 21.952L252.283 23.3995C252.654 23.7536 252.812 24.1339 252.812 24.5898H254.812ZM253.663 21.952C252.968 21.2894 251.746 20.6066 250.139 19.8879L249.322 21.7137C250.918 22.4272 251.858 22.9945 252.283 23.3995L253.663 21.952ZM250.112 19.8764C248.259 19.1121 247.035 18.49 246.365 18.0135L245.205 19.6428C246.072 20.26 247.478 20.953 249.349 21.7252L250.112 19.8764ZM246.372 18.0182C245.715 17.5424 245.258 17.0306 244.963 16.4926L243.209 17.4527C243.67 18.2949 244.345 19.0201 245.199 19.6381L246.372 18.0182ZM244.967 16.4995C244.682 15.9691 244.52 15.3051 244.52 14.4727H242.52C242.52 15.5673 242.735 16.5699 243.205 17.4458L244.967 16.4995ZM244.52 14.4727C244.52 13.0301 245.03 11.8755 246.066 10.9363L244.723 9.45432C243.259 10.7807 242.52 12.4777 242.52 14.4727H244.52ZM246.066 10.9359C247.119 9.98127 248.475 9.47656 250.219 9.47656V7.47656C248.056 7.47656 246.196 8.11769 244.723 9.45468L246.066 10.9359ZM250.219 9.47656C252.07 9.47656 253.458 10.0088 254.488 10.9954L255.872 9.55145C254.401 8.14225 252.482 7.47656 250.219 7.47656V9.47656ZM254.488 10.9954C255.524 11.988 256.055 13.2553 256.055 14.8828H258.055C258.055 12.7603 257.336 10.9547 255.872 9.55145L254.488 10.9954ZM257.055 13.8828H253.617V15.8828H257.055V13.8828ZM254.617 14.8828C254.617 13.6832 254.205 12.625 253.381 11.7681L251.939 13.1538C252.392 13.625 252.617 14.1814 252.617 14.8828H254.617ZM253.388 11.7751C252.548 10.8837 251.464 10.4453 250.219 10.4453V12.4453C250.952 12.4453 251.496 12.684 251.932 13.1467L253.388 11.7751ZM250.219 10.4453C249.026 10.4453 247.96 10.7621 247.143 11.5069L248.49 12.9853C248.844 12.6623 249.38 12.4453 250.219 12.4453V10.4453ZM247.144 11.5062C246.331 12.2446 245.957 13.2329 245.957 14.3555H247.957C247.957 13.7072 248.156 13.2893 248.489 12.986L247.144 11.5062ZM245.957 14.3555C245.957 15.2698 246.235 16.1023 246.864 16.7508L248.3 15.3585C248.095 15.1477 247.957 14.8474 247.957 14.3555H245.957ZM246.875 16.7618C247.191 17.0782 247.654 17.3815 248.186 17.6764C248.735 17.9807 249.426 18.3122 250.249 18.6707L251.048 16.8371C250.257 16.4925 249.629 16.1893 249.156 15.9271C248.666 15.6556 248.402 15.4609 248.289 15.3476L246.875 16.7618ZM250.284 18.6853C252.828 19.6795 254.397 20.5986 255.161 21.3955L256.604 20.0108C255.52 18.8805 253.599 17.8335 251.012 16.8225L250.284 18.6853ZM255.166 21.4003C255.888 22.143 256.27 23.0938 256.27 24.3359H258.27C258.27 22.6353 257.726 21.1643 256.6 20.0059L255.166 21.4003ZM256.27 24.3359C256.27 25.914 255.741 27.1001 254.716 27.9979L256.034 29.5021C257.535 28.1864 258.27 26.4298 258.27 24.3359H256.27ZM254.72 27.9941C253.684 28.8915 252.246 29.3906 250.297 29.3906V31.3906C252.593 31.3906 254.54 30.796 256.03 29.5059L254.72 27.9941ZM250.297 29.3906C248.299 29.3906 246.773 28.8235 245.624 27.7616L244.267 29.2306C245.852 30.6947 247.894 31.3906 250.297 31.3906V29.3906ZM245.624 27.7616C244.471 26.6967 243.895 25.3659 243.895 23.6914H241.895C241.895 25.8971 242.685 27.7694 244.267 29.2306L245.624 27.7616ZM242.895 24.6914H246.371V22.6914H242.895V24.6914ZM245.372 23.7247C245.417 25.0896 245.843 26.2749 246.745 27.1593L248.146 25.7314C247.693 25.2876 247.403 24.637 247.371 23.6581L245.372 23.7247ZM246.745 27.1593C247.659 28.0556 248.89 28.4414 250.297 28.4414V26.4414C249.255 26.4414 248.586 26.1632 248.146 25.7314L246.745 27.1593ZM250.297 28.4414C251.573 28.4414 252.714 28.1603 253.561 27.4424L252.267 25.9169C251.916 26.2147 251.312 26.4414 250.297 26.4414V28.4414ZM253.57 27.4343C254.411 26.7033 254.812 25.7194 254.812 24.5898H252.812C252.812 25.2051 252.615 25.6144 252.258 25.9251L253.57 27.4343ZM290.062 30V31H291.062V30H290.062ZM286.469 30H285.469V31H286.469V30ZM286.469 16.8555H287.469V15.8555H286.469V16.8555ZM275.023 16.8555V15.8555H274.023V16.8555H275.023ZM275.023 30V31H276.023V30H275.023ZM271.449 30H270.449V31H271.449V30ZM271.449 1.5625V0.5625H270.449V1.5625H271.449ZM275.023 1.5625H276.023V0.5625H275.023V1.5625ZM275.023 13.7891H274.023V14.7891H275.023V13.7891ZM286.469 13.7891V14.7891H287.469V13.7891H286.469ZM286.469 1.5625V0.5625H285.469V1.5625H286.469ZM290.062 1.5625H291.062V0.5625H290.062V1.5625ZM290.062 29H286.469V31H290.062V29ZM287.469 30V16.8555H285.469V30H287.469ZM286.469 15.8555H275.023V17.8555H286.469V15.8555ZM274.023 16.8555V30H276.023V16.8555H274.023ZM275.023 29H271.449V31H275.023V29ZM272.449 30V1.5625H270.449V30H272.449ZM271.449 2.5625H275.023V0.5625H271.449V2.5625ZM274.023 1.5625V13.7891H276.023V1.5625H274.023ZM275.023 14.7891H286.469V12.7891H275.023V14.7891ZM287.469 13.7891V1.5625H285.469V13.7891H287.469ZM286.469 2.5625H290.062V0.5625H286.469V2.5625ZM289.062 1.5625V30H291.062V1.5625H289.062ZM306.645 30L305.735 30.4158L306.002 31H306.645V30ZM306.195 27.6953L307.192 27.6113L306.955 24.8037L305.369 27.1323L306.195 27.6953ZM297.016 28.7891L296.304 29.4919L296.313 29.5004L297.016 28.7891ZM297.602 19.1211L296.947 18.3652L297.602 19.1211ZM303.598 17.1875V16.1874L303.587 16.1876L303.598 17.1875ZM306.137 17.1875V18.1875H307.137V17.1875H306.137ZM300.199 12.3828L300.884 13.1115L300.892 13.1042L300.199 12.3828ZM299.223 14.7266V15.7266H300.223V14.7266H299.223ZM295.766 14.7266H294.766V15.7266H295.766V14.7266ZM296.723 11.6406L297.56 12.1876L297.563 12.1825L296.723 11.6406ZM307.836 10.0977L307.141 10.8173L307.15 10.8254L307.836 10.0977ZM309.574 14.7852H310.574L310.574 14.7725L309.574 14.7852ZM309.574 25.4492H308.574L308.574 25.4572L309.574 25.4492ZM310.238 29.6875H311.238V29.5136L311.18 29.3499L310.238 29.6875ZM310.238 30V31H311.238V30H310.238ZM306.137 24.7852L307.031 25.2324L307.137 25.0212V24.7852H306.137ZM306.137 19.7461H307.137V18.7461H306.137V19.7461ZM304.184 19.7461V18.7461H304.176L304.168 18.7462L304.184 19.7461ZM300.297 20.8594L300.892 21.6634L300.899 21.6581L300.297 20.8594ZM299.594 26.4453L298.843 27.1064L298.851 27.1153L299.594 26.4453ZM307.554 29.5842C307.423 29.2975 307.282 28.6793 307.192 27.6113L305.199 27.7794C305.291 28.8728 305.449 29.7911 305.735 30.4158L307.554 29.5842ZM305.369 27.1323C304.3 28.7014 303.026 29.3906 301.508 29.3906V31.3906C303.791 31.3906 305.643 30.2829 307.022 28.2583L305.369 27.1323ZM301.508 29.3906C299.785 29.3906 298.566 28.9154 297.718 28.0777L296.313 29.5004C297.626 30.7981 299.403 31.3906 301.508 31.3906V29.3906ZM297.727 28.0863C296.893 27.242 296.414 26.0068 296.414 24.2383H294.414C294.414 26.376 295.003 28.1747 296.304 29.4919L297.727 28.0863ZM296.414 24.2383C296.414 22.343 297.044 20.9272 298.256 19.877L296.947 18.3652C295.243 19.8411 294.414 21.8367 294.414 24.2383H296.414ZM298.256 19.877C299.485 18.8125 301.23 18.2118 303.608 18.1874L303.587 16.1876C300.887 16.2152 298.634 16.9037 296.947 18.3652L298.256 19.877ZM303.598 18.1875H306.137V16.1875H303.598V18.1875ZM307.137 17.1875V14.9414H305.137V17.1875H307.137ZM307.137 14.9414C307.137 13.5712 306.839 12.3351 305.987 11.5224L304.607 12.9698C304.874 13.2248 305.137 13.7856 305.137 14.9414H307.137ZM305.987 11.5224C305.168 10.7419 304.019 10.4453 302.738 10.4453V12.4453C303.749 12.4453 304.306 12.6826 304.607 12.9698L305.987 11.5224ZM302.738 10.4453C301.481 10.4453 300.373 10.83 299.507 11.6614L300.892 13.1042C301.328 12.6856 301.912 12.4453 302.738 12.4453V10.4453ZM299.514 11.6542C298.648 12.4683 298.223 13.5198 298.223 14.7266H300.223C300.223 14.0323 300.448 13.5213 300.884 13.1114L299.514 11.6542ZM299.223 13.7266H295.766V15.7266H299.223V13.7266ZM296.766 14.7266C296.766 13.8556 297.019 13.015 297.56 12.1876L295.885 11.0937C295.15 12.2194 294.766 13.4361 294.766 14.7266H296.766ZM297.563 12.1825C298.103 11.3445 298.829 10.6868 299.761 10.2043L298.841 8.42849C297.611 9.06577 296.618 9.95755 295.882 11.0987L297.563 12.1825ZM299.761 10.2043C300.687 9.72463 301.731 9.47656 302.914 9.47656V7.47656C301.441 7.47656 300.076 7.78839 298.841 8.42849L299.761 10.2043ZM302.914 9.47656C304.918 9.47656 306.27 9.97657 307.141 10.8172L308.53 9.37811C307.162 8.05729 305.233 7.47656 302.914 7.47656V9.47656ZM307.15 10.8254C308.028 11.6529 308.551 12.9207 308.574 14.7978L310.574 14.7725C310.546 12.535 309.909 10.6778 308.522 9.36995L307.15 10.8254ZM308.574 14.7852V25.4492H310.574V14.7852H308.574ZM308.574 25.4572C308.588 27.1674 308.82 28.6966 309.297 30.0251L311.18 29.3499C310.797 28.2826 310.587 26.9863 310.574 25.4412L308.574 25.4572ZM309.238 29.6875V30H311.238V29.6875H309.238ZM310.238 29H306.645V31H310.238V29ZM302.035 28.2461C303.077 28.2461 304.063 27.9548 304.978 27.3966L303.936 25.6893C303.314 26.0687 302.686 26.2461 302.035 26.2461V28.2461ZM304.978 27.3966C305.883 26.8446 306.584 26.1266 307.031 25.2324L305.242 24.3379C304.986 24.85 304.568 25.3038 303.936 25.6893L304.978 27.3966ZM307.137 24.7852V19.7461H305.137V24.7852H307.137ZM306.137 18.7461H304.184V20.7461H306.137V18.7461ZM304.168 18.7462C302.394 18.7744 300.868 19.1769 299.695 20.0607L300.899 21.6581C301.627 21.1095 302.692 20.7699 304.199 20.746L304.168 18.7462ZM299.702 20.0554C298.474 20.9639 297.871 22.2642 297.871 23.8281H299.871C299.871 22.8399 300.219 22.1611 300.892 21.6633L299.702 20.0554ZM297.871 23.8281C297.871 25.1231 298.125 26.2908 298.843 27.1063L300.344 25.7843C300.099 25.5061 299.871 24.929 299.871 23.8281H297.871ZM298.851 27.1153C299.61 27.9564 300.771 28.2461 302.035 28.2461V26.2461C301.008 26.2461 300.541 26.002 300.336 25.7753L298.851 27.1153ZM323.676 12.1094L323.49 13.0919L324.683 13.3176L324.676 12.1036L323.676 12.1094ZM318.402 14.8828L317.462 14.5421L317.402 14.7072V14.8828H318.402ZM318.402 30V31H319.402V30H318.402ZM314.945 30H313.945V31H314.945V30ZM314.945 8.86719V7.86719H313.945V8.86719H314.945ZM318.305 8.86719L319.304 8.83992L319.278 7.86719H318.305V8.86719ZM318.363 11.0156L317.364 11.0429L317.465 14.7472L319.241 11.4949L318.363 11.0156ZM323.656 8.75L324.656 8.74419L324.653 8.13017L324.103 7.85557L323.656 8.75ZM323.862 11.1268C323.311 11.0226 322.727 10.9727 322.113 10.9727V12.9727C322.619 12.9727 323.077 13.0139 323.49 13.0919L323.862 11.1268ZM322.113 10.9727C321.034 10.9727 320.057 11.2729 319.24 11.9133C318.435 12.5448 317.858 13.4499 317.462 14.5421L319.342 15.2235C319.65 14.3756 320.043 13.8257 320.475 13.4871C320.895 13.1575 321.422 12.9727 322.113 12.9727V10.9727ZM317.402 14.8828V30H319.402V14.8828H317.402ZM318.402 29H314.945V31H318.402V29ZM315.945 30V8.86719H313.945V30H315.945ZM314.945 9.86719H318.305V7.86719H314.945V9.86719ZM317.305 8.89445L317.364 11.0429L319.363 10.9884L319.304 8.83992L317.305 8.89445ZM319.241 11.4949C320.02 10.069 321.02 9.47656 322.289 9.47656V7.47656C320.173 7.47656 318.556 8.57687 317.486 10.5363L319.241 11.4949ZM322.289 9.47656C322.731 9.47656 323.022 9.55112 323.209 9.64443L324.103 7.85557C323.561 7.5843 322.941 7.47656 322.289 7.47656V9.47656ZM322.656 8.75581L322.676 12.1152L324.676 12.1036L324.656 8.74419L322.656 8.75581ZM333.48 24.7461L332.513 24.9995L334.45 24.9906L333.48 24.7461ZM337.484 8.86719V7.86719H336.705L336.515 8.62269L337.484 8.86719ZM341 8.86719L341.959 9.15161L342.34 7.86719H341V8.86719ZM334.73 30V31H335.477L335.689 30.2844L334.73 30ZM332.152 30L331.195 30.2877L331.409 31H332.152V30ZM325.805 8.86719V7.86719H324.46L324.847 9.15486L325.805 8.86719ZM329.32 8.86719L330.288 8.61375L330.092 7.86719H329.32V8.86719ZM334.45 24.9906L338.454 9.11169L336.515 8.62269L332.511 24.5016L334.45 24.9906ZM337.484 9.86719H341V7.86719H337.484V9.86719ZM340.041 8.58277L333.772 29.7156L335.689 30.2844L341.959 9.15161L340.041 8.58277ZM334.73 29H332.152V31H334.73V29ZM333.11 29.7123L326.762 8.57951L324.847 9.15486L331.195 30.2877L333.11 29.7123ZM325.805 9.86719H329.32V7.86719H325.805V9.86719ZM328.353 9.12063L332.513 24.9995L334.448 24.4927L330.288 8.61375L328.353 9.12063ZM345.824 28.0469L345.078 28.7128L345.081 28.7158L345.824 28.0469ZM343.676 21.1328H342.676L342.676 21.1414L343.676 21.1328ZM345.727 11.1719L344.934 10.5627L344.933 10.5636L345.727 11.1719ZM357.035 10.8398L356.245 11.4533L357.035 10.8398ZM358.91 18.2031H359.91L359.91 18.1953L358.91 18.2031ZM358.91 20.4688V21.4688H359.91V20.4688H358.91ZM347.113 20.4688V19.4688H346.113V20.4688H347.113ZM348.383 25.8984L347.611 26.5338L347.615 26.5396L348.383 25.8984ZM354.75 26.875L355.191 27.7725L355.197 27.7694L354.75 26.875ZM356.938 25.0391L357.71 24.4043L356.933 23.4585L356.161 24.4085L356.938 25.0391ZM358.734 27.2266L359.55 27.8054L359.992 27.1823L359.507 26.5918L358.734 27.2266ZM348.305 12.9297L349.121 13.5068L349.125 13.5017L348.305 12.9297ZM347.133 17.5L346.134 17.456L346.088 18.5H347.133V17.5ZM355.453 17.5V18.5H356.453V17.5H355.453ZM355.453 17.0312H356.453V17.0085L356.452 16.9858L355.453 17.0312ZM354.359 12.7344L353.551 13.3226L353.556 13.3305L354.359 12.7344ZM351.879 29.3906C349.456 29.3906 347.738 28.6788 346.568 27.3779L345.081 28.7158C346.723 30.5399 349.042 31.3906 351.879 31.3906V29.3906ZM346.57 27.381C345.384 26.0516 344.701 24.0199 344.676 21.1242L342.676 21.1414C342.703 24.3134 343.452 26.8911 345.078 28.7128L346.57 27.381ZM344.676 21.1328V18.5742H342.676V21.1328H344.676ZM344.676 18.5742C344.676 15.5567 345.331 13.3314 346.52 11.7802L344.933 10.5636C343.387 12.58 342.676 15.2897 342.676 18.5742H344.676ZM346.52 11.781C347.693 10.2541 349.307 9.47656 351.488 9.47656V7.47656C348.747 7.47656 346.521 8.49594 344.934 10.5627L346.52 11.781ZM351.488 9.47656C353.735 9.47656 355.256 10.1798 356.245 11.4533L357.825 10.2264C356.366 8.34887 354.189 7.47656 351.488 7.47656V9.47656ZM356.245 11.4533C357.271 12.7732 357.885 14.9629 357.91 18.2109L359.91 18.1953C359.883 14.7766 359.247 12.0576 357.825 10.2264L356.245 11.4533ZM357.91 18.2031V20.4688H359.91V18.2031H357.91ZM358.91 19.4688H347.113V21.4688H358.91V19.4688ZM346.113 20.4688V20.957H348.113V20.4688H346.113ZM346.113 20.957C346.113 23.3063 346.544 25.238 347.611 26.5338L349.155 25.2631C348.529 24.5016 348.113 23.1391 348.113 20.957H346.113ZM347.615 26.5396C348.702 27.8404 350.24 28.4414 352.074 28.4414V26.4414C350.705 26.4414 349.782 26.0137 349.15 25.2573L347.615 26.5396ZM352.074 28.4414C353.215 28.4414 354.262 28.229 355.191 27.7724L354.309 25.9776C353.701 26.2762 352.965 26.4414 352.074 26.4414V28.4414ZM355.197 27.7694C356.131 27.3024 356.967 26.5886 357.714 25.6697L356.161 24.4085C355.554 25.1562 354.931 25.6663 354.303 25.9806L355.197 27.7694ZM356.165 25.6738L357.962 27.8613L359.507 26.5918L357.71 24.4043L356.165 25.6738ZM357.919 26.6477C356.646 28.441 354.697 29.3906 351.879 29.3906V31.3906C355.206 31.3906 357.828 30.2309 359.55 27.8054L357.919 26.6477ZM351.488 10.4453C349.799 10.4453 348.398 11.0472 347.484 12.3577L349.125 13.5017C349.591 12.833 350.313 12.4453 351.488 12.4453V10.4453ZM347.488 12.3526C346.633 13.5629 346.228 15.3178 346.134 17.456L348.132 17.544C348.22 15.5416 348.596 14.2496 349.121 13.5068L347.488 12.3526ZM347.133 18.5H355.453V16.5H347.133V18.5ZM356.453 17.5V17.0312H354.453V17.5H356.453ZM356.452 16.9858C356.359 14.9303 355.984 13.2455 355.162 12.1383L353.556 13.3305C354.01 13.942 354.365 15.1218 354.454 17.0767L356.452 16.9858ZM355.168 12.1462C354.314 10.9717 353.02 10.4453 351.488 10.4453V12.4453C352.534 12.4453 353.155 12.7783 353.551 13.3225L355.168 12.1462ZM369.262 20.8008L369.67 19.8879L369.657 19.8819L369.643 19.8764L369.262 20.8008ZM365.316 18.8281L364.73 19.6381L364.736 19.6428L365.316 18.8281ZM363.617 16.9727L362.736 17.4458L362.74 17.4527L363.617 16.9727ZM364.926 10.1953L365.597 10.9363L365.598 10.9359L364.926 10.1953ZM374.711 10.2734L375.403 9.55145L374.711 10.2734ZM376.586 14.8828V15.8828H377.586V14.8828H376.586ZM373.148 14.8828H372.148V15.8828H373.148V14.8828ZM372.191 12.4609L371.464 13.1468L371.47 13.1538L372.191 12.4609ZM367.348 12.2461L368.02 12.986L368.021 12.9853L367.348 12.2461ZM367.113 16.0547L366.395 16.7508L366.401 16.7564L366.406 16.7618L367.113 16.0547ZM370.18 17.7539L369.78 18.6707L369.798 18.6784L369.816 18.6853L370.18 17.7539ZM375.414 20.7031L374.692 21.3955L374.697 21.4003L375.414 20.7031ZM374.906 28.75L375.561 29.506L375.565 29.5021L374.906 28.75ZM362.426 23.6914V22.6914H361.426V23.6914H362.426ZM365.902 23.6914L366.902 23.6581L366.87 22.6914H365.902V23.6914ZM372.445 26.6797L373.092 27.4425L373.102 27.4343L372.445 26.6797ZM374.344 24.5898C374.344 23.5614 373.942 22.6656 373.194 21.952L371.814 23.3995C372.185 23.7536 372.344 24.1339 372.344 24.5898H374.344ZM373.194 21.952C372.499 21.2894 371.277 20.6066 369.67 19.8879L368.854 21.7137C370.449 22.4272 371.389 22.9945 371.814 23.3995L373.194 21.952ZM369.643 19.8764C367.791 19.1121 366.566 18.49 365.896 18.0135L364.736 19.6428C365.603 20.26 367.009 20.953 368.88 21.7252L369.643 19.8764ZM365.903 18.0182C365.246 17.5424 364.789 17.0306 364.494 16.4926L362.74 17.4527C363.201 18.2949 363.877 19.0201 364.73 19.6381L365.903 18.0182ZM364.498 16.4995C364.213 15.9691 364.051 15.3051 364.051 14.4727H362.051C362.051 15.5673 362.266 16.5699 362.736 17.4458L364.498 16.4995ZM364.051 14.4727C364.051 13.0301 364.561 11.8755 365.597 10.9363L364.254 9.45432C362.791 10.7807 362.051 12.4777 362.051 14.4727H364.051ZM365.598 10.9359C366.65 9.98127 368.007 9.47656 369.75 9.47656V7.47656C367.587 7.47656 365.728 8.11769 364.254 9.45468L365.598 10.9359ZM369.75 9.47656C371.601 9.47656 372.99 10.0088 374.019 10.9954L375.403 9.55145C373.932 8.14225 372.013 7.47656 369.75 7.47656V9.47656ZM374.019 10.9954C375.055 11.988 375.586 13.2553 375.586 14.8828H377.586C377.586 12.7603 376.867 10.9547 375.403 9.55145L374.019 10.9954ZM376.586 13.8828H373.148V15.8828H376.586V13.8828ZM374.148 14.8828C374.148 13.6832 373.736 12.625 372.913 11.7681L371.47 13.1538C371.923 13.625 372.148 14.1814 372.148 14.8828H374.148ZM372.919 11.7751C372.079 10.8837 370.995 10.4453 369.75 10.4453V12.4453C370.484 12.4453 371.028 12.684 371.464 13.1467L372.919 11.7751ZM369.75 10.4453C368.558 10.4453 367.492 10.7621 366.674 11.5069L368.021 12.9853C368.376 12.6623 368.911 12.4453 369.75 12.4453V10.4453ZM366.675 11.5062C365.863 12.2446 365.488 13.2329 365.488 14.3555H367.488C367.488 13.7072 367.687 13.2893 368.02 12.986L366.675 11.5062ZM365.488 14.3555C365.488 15.2698 365.767 16.1023 366.395 16.7508L367.831 15.3585C367.627 15.1477 367.488 14.8474 367.488 14.3555H365.488ZM366.406 16.7618C366.723 17.0782 367.185 17.3815 367.717 17.6764C368.266 17.9807 368.957 18.3122 369.78 18.6707L370.579 16.8371C369.788 16.4925 369.16 16.1893 368.687 15.9271C368.197 15.6556 367.934 15.4609 367.82 15.3476L366.406 16.7618ZM369.816 18.6853C372.359 19.6795 373.928 20.5986 374.692 21.3955L376.136 20.0108C375.051 18.8805 373.13 17.8335 370.544 16.8225L369.816 18.6853ZM374.697 21.4003C375.419 22.143 375.801 23.0938 375.801 24.3359H377.801C377.801 22.6353 377.258 21.1643 376.131 20.0059L374.697 21.4003ZM375.801 24.3359C375.801 25.914 375.272 27.1001 374.247 27.9979L375.565 29.5021C377.067 28.1864 377.801 26.4298 377.801 24.3359H375.801ZM374.252 27.9941C373.215 28.8915 371.777 29.3906 369.828 29.3906V31.3906C372.124 31.3906 374.071 30.796 375.561 29.5059L374.252 27.9941ZM369.828 29.3906C367.83 29.3906 366.305 28.8235 365.155 27.7616L363.798 29.2306C365.383 30.6947 367.425 31.3906 369.828 31.3906V29.3906ZM365.155 27.7616C364.002 26.6967 363.426 25.3659 363.426 23.6914H361.426C361.426 25.8971 362.216 27.7694 363.798 29.2306L365.155 27.7616ZM362.426 24.6914H365.902V22.6914H362.426V24.6914ZM364.903 23.7247C364.948 25.0896 365.375 26.2749 366.276 27.1593L367.677 25.7314C367.224 25.2876 366.934 24.637 366.902 23.6581L364.903 23.7247ZM366.276 27.1593C367.19 28.0556 368.422 28.4414 369.828 28.4414V26.4414C368.787 26.4414 368.117 26.1632 367.677 25.7314L366.276 27.1593ZM369.828 28.4414C371.105 28.4414 372.245 28.1603 373.092 27.4424L371.799 25.9169C371.447 26.2147 370.843 26.4414 369.828 26.4414V28.4414ZM373.102 27.4343C373.942 26.7033 374.344 25.7194 374.344 24.5898H372.344C372.344 25.2051 372.146 25.6144 371.789 25.9251L373.102 27.4343ZM385.844 3.75H386.844V2.75H385.844V3.75ZM385.844 8.86719H384.844V9.86719H385.844V8.86719ZM389.027 8.86719H390.027V7.86719H389.027V8.86719ZM389.027 11.6602V12.6602H390.027V11.6602H389.027ZM385.844 11.6602V10.6602H384.844V11.6602H385.844ZM389.047 27.0703L390.047 27.0836L390.066 25.6767L388.731 26.1216L389.047 27.0703ZM389.008 30L389.324 30.9487L389.998 30.7239L390.008 30.0133L389.008 30ZM383.48 28.9258L382.674 29.5171L383.48 28.9258ZM382.406 11.6602H383.406V10.6602H382.406V11.6602ZM379.184 11.6602H378.184V12.6602H379.184V11.6602ZM379.184 8.86719V7.86719H378.184V8.86719H379.184ZM382.406 8.86719V9.86719H383.406V8.86719H382.406ZM382.406 3.75V2.75H381.406V3.75H382.406ZM384.844 3.75V8.86719H386.844V3.75H384.844ZM385.844 9.86719H389.027V7.86719H385.844V9.86719ZM388.027 8.86719V11.6602H390.027V8.86719H388.027ZM389.027 10.6602H385.844V12.6602H389.027V10.6602ZM384.844 11.6602V24.7656H386.844V11.6602H384.844ZM384.844 24.7656C384.844 25.6801 384.989 26.5347 385.41 27.197L387.098 26.1233C386.972 25.9263 386.844 25.5179 386.844 24.7656H384.844ZM385.41 27.197C385.922 28.0017 386.771 28.3047 387.66 28.3047V26.3047C387.221 26.3047 387.132 26.178 387.098 26.1233L385.41 27.197ZM387.66 28.3047C388.232 28.3047 388.801 28.2064 389.363 28.019L388.731 26.1216C388.355 26.2467 388 26.3047 387.66 26.3047V28.3047ZM388.047 27.057L388.008 29.9867L390.008 30.0133L390.047 27.0836L388.047 27.057ZM388.692 29.0513C388.012 29.2779 387.318 29.3906 386.605 29.3906V31.3906C387.534 31.3906 388.441 31.243 389.324 30.9487L388.692 29.0513ZM386.605 29.3906C385.51 29.3906 384.788 29.0182 384.287 28.3344L382.674 29.5171C383.605 30.7864 384.967 31.3906 386.605 31.3906V29.3906ZM384.287 28.3344C383.743 27.5933 383.406 26.4524 383.406 24.7852H381.406C381.406 26.6856 381.785 28.3051 382.674 29.5171L384.287 28.3344ZM383.406 24.7852V11.6602H381.406V24.7852H383.406ZM382.406 10.6602H379.184V12.6602H382.406V10.6602ZM380.184 11.6602V8.86719H378.184V11.6602H380.184ZM379.184 9.86719H382.406V7.86719H379.184V9.86719ZM383.406 8.86719V3.75H381.406V8.86719H383.406ZM382.406 4.75H385.844V2.75H382.406V4.75ZM418.656 4.64844V5.64844H419.656V4.64844H418.656ZM411.176 4.64844V3.64844H410.176V4.64844H411.176ZM411.176 30V31H412.176V30H411.176ZM407.602 30H406.602V31H407.602V30ZM407.602 4.64844H408.602V3.64844H407.602V4.64844ZM400.141 4.64844H399.141V5.64844H400.141V4.64844ZM400.141 1.5625V0.5625H399.141V1.5625H400.141ZM418.656 1.5625H419.656V0.5625H418.656V1.5625ZM418.656 3.64844H411.176V5.64844H418.656V3.64844ZM410.176 4.64844V30H412.176V4.64844H410.176ZM411.176 29H407.602V31H411.176V29ZM408.602 30V4.64844H406.602V30H408.602ZM407.602 3.64844H400.141V5.64844H407.602V3.64844ZM401.141 4.64844V1.5625H399.141V4.64844H401.141ZM400.141 2.5625H418.656V0.5625H400.141V2.5625ZM417.656 1.5625V4.64844H419.656V1.5625H417.656ZM421.918 11.1719L421.15 10.5317L421.149 10.5322L421.918 11.1719ZM433.734 11.0938L432.973 11.7417L432.976 11.745L433.734 11.0938ZM436.039 18.2227H437.039L437.039 18.2097L436.039 18.2227ZM421.977 27.793L421.214 28.4405L421.217 28.4438L421.977 27.793ZM419.691 20.7617H418.691V20.7705L418.692 20.7793L419.691 20.7617ZM424.418 25.5859L423.59 26.1466L423.597 26.1565L424.418 25.5859ZM432.582 20.8398L433.582 20.8605L433.582 20.8502V20.8398H432.582ZM431.293 13.3398L430.466 13.9024L430.469 13.9064L431.293 13.3398ZM424.418 13.3398L423.591 12.7773L423.59 12.7792L424.418 13.3398ZM420.691 18.457C420.691 15.5414 421.394 13.3647 422.687 11.8115L421.149 10.5322C419.473 12.5468 418.691 15.2268 418.691 18.457H420.691ZM422.686 11.8121C423.984 10.2551 425.669 9.47656 427.836 9.47656V7.47656C425.107 7.47656 422.847 8.49491 421.15 10.5317L422.686 11.8121ZM427.836 9.47656C430.014 9.47656 431.693 10.2371 432.973 11.7417L434.496 10.4458C432.807 8.46079 430.554 7.47656 427.836 7.47656V9.47656ZM432.976 11.745C434.278 13.2632 435.002 15.389 435.039 18.2356L437.039 18.2097C436.998 15.0407 436.185 12.4138 434.493 10.4425L432.976 11.745ZM435.039 18.2227V20.4492H437.039V18.2227H435.039ZM435.039 20.4492C435.039 23.3506 434.337 25.5214 433.044 27.0752L434.581 28.3545C436.257 26.3406 437.039 23.6676 437.039 20.4492H435.039ZM433.044 27.0752C431.763 28.6141 430.074 29.3906 427.875 29.3906V31.3906C430.624 31.3906 432.893 30.3833 434.581 28.3545L433.044 27.0752ZM427.875 29.3906C425.695 29.3906 424.015 28.6345 422.736 27.1422L421.217 28.4438C422.907 30.415 425.159 31.3906 427.875 31.3906V29.3906ZM422.739 27.1455C421.457 25.637 420.741 23.5391 420.691 20.7441L418.692 20.7793C418.746 23.8958 419.553 26.4854 421.214 28.4405L422.739 27.1455ZM420.691 20.7617V18.457H418.691V20.7617H420.691ZM422.148 20.4492C422.148 22.7395 422.592 24.673 423.59 26.1466L425.246 25.0253C424.551 23.9989 424.148 22.5079 424.148 20.4492H422.148ZM423.597 26.1565C424.634 27.649 426.086 28.4414 427.875 28.4414V26.4414C426.773 26.4414 425.921 25.9968 425.239 25.0154L423.597 26.1565ZM427.875 28.4414C429.674 28.4414 431.153 27.7715 432.151 26.3716C433.105 25.0339 433.534 23.1471 433.582 20.8605L431.582 20.8191C431.538 22.9336 431.138 24.3476 430.523 25.2105C429.952 26.011 429.123 26.4414 427.875 26.4414V28.4414ZM433.582 20.8398V18.457H431.582V20.8398H433.582ZM433.582 18.457C433.582 16.1758 433.13 14.2471 432.117 12.7733L430.469 13.9064C431.174 14.9326 431.582 16.4154 431.582 18.457H433.582ZM432.12 12.7773C431.087 11.2591 429.634 10.4453 427.836 10.4453V12.4453C428.928 12.4453 429.78 12.8945 430.466 13.9024L432.12 12.7773ZM427.836 10.4453C426.057 10.4453 424.62 11.2653 423.591 12.7773L425.245 13.9024C425.935 12.8883 426.776 12.4453 427.836 12.4453V10.4453ZM423.59 12.7792C422.593 14.2511 422.148 16.1703 422.148 18.4375H424.148C424.148 16.4078 424.55 14.9286 425.246 13.9005L423.59 12.7792ZM422.148 18.4375V20.4492H424.148V18.4375H422.148ZM441.586 11.0352L440.773 10.4522L440.771 10.4563L441.586 11.0352ZM451.566 10.9375L450.743 11.5057L452.566 14.1457V10.9375H451.566ZM451.566 0V-1H450.566V0H451.566ZM455.023 0H456.023V-1H455.023V0ZM455.023 30V31H456.023V30H455.023ZM451.859 30L450.862 30.0774L450.934 31H451.859V30ZM451.684 27.7344L452.681 27.657L452.45 24.6811L450.841 27.1955L451.684 27.7344ZM441.664 27.8516L440.854 28.4387L440.86 28.4456L441.664 27.8516ZM439.77 20.6445H438.77L438.77 20.6529L439.77 20.6445ZM444.281 25.6836L443.434 26.2154L443.437 26.2198L444.281 25.6836ZM451.566 24.7461L452.465 25.1852L452.566 24.9774V24.7461H451.566ZM451.566 14.082H452.566V13.8363L452.453 13.6185L451.566 14.082ZM444.301 13.2227L445.145 13.7589L445.148 13.7544L444.301 13.2227ZM443.227 18.3398L442.227 18.3342V18.3398H443.227ZM440.77 18.4766C440.77 15.3214 441.36 13.0802 442.401 11.614L440.771 10.4563C439.39 12.4015 438.77 15.1213 438.77 18.4766H440.77ZM442.398 11.6182C443.417 10.1992 444.851 9.47656 446.84 9.47656V7.47656C444.271 7.47656 442.203 8.45961 440.773 10.4522L442.398 11.6182ZM446.84 9.47656C448.534 9.47656 449.8 10.1394 450.743 11.5057L452.389 10.3693C451.067 8.45433 449.182 7.47656 446.84 7.47656V9.47656ZM452.566 10.9375V0H450.566V10.9375H452.566ZM451.566 1H455.023V-1H451.566V1ZM454.023 0V30H456.023V0H454.023ZM455.023 29H451.859V31H455.023V29ZM452.856 29.9226L452.681 27.657L450.687 27.8117L450.862 30.0774L452.856 29.9226ZM450.841 27.1955C449.893 28.6778 448.59 29.3906 446.82 29.3906V31.3906C449.269 31.3906 451.209 30.3326 452.526 28.2733L450.841 27.1955ZM446.82 29.3906C444.935 29.3906 443.521 28.6833 442.469 27.2575L440.86 28.4456C442.307 30.4053 444.33 31.3906 446.82 31.3906V29.3906ZM442.474 27.2645C441.404 25.7895 440.795 23.6203 440.77 20.6361L438.77 20.6529C438.797 23.8666 439.45 26.5021 440.855 28.4386L442.474 27.2645ZM440.77 20.6445V18.4766H438.77V20.6445H440.77ZM442.227 20.4492C442.227 22.8782 442.58 24.8541 443.434 26.2154L445.128 25.1518C444.577 24.2735 444.227 22.7599 444.227 20.4492H442.227ZM443.437 26.2198C444.365 27.6796 445.872 28.3438 447.719 28.3438V26.3438C446.389 26.3438 445.604 25.9012 445.125 25.1474L443.437 26.2198ZM447.719 28.3438C448.755 28.3438 449.705 28.0798 450.529 27.5231C451.347 26.9709 451.983 26.1702 452.465 25.1852L450.668 24.307C450.303 25.0538 449.875 25.5519 449.41 25.8655C448.952 26.1747 448.402 26.3438 447.719 26.3438V28.3438ZM452.566 24.7461V14.082H450.566V24.7461H452.566ZM452.453 13.6185C451.951 12.6592 451.307 11.8811 450.498 11.3444C449.682 10.8029 448.75 10.543 447.738 10.543V12.543C448.393 12.543 448.933 12.7062 449.393 13.0111C449.859 13.3207 450.297 13.8122 450.68 14.5455L452.453 13.6185ZM447.738 10.543C445.886 10.543 444.379 11.2175 443.454 12.6909L445.148 13.7544C445.629 12.9882 446.413 12.543 447.738 12.543V10.543ZM443.457 12.6864C442.602 14.0315 442.24 15.9658 442.227 18.3342L444.227 18.3455C444.239 16.1045 444.593 14.6273 445.145 13.7589L443.457 12.6864ZM442.227 18.3398V20.4492H444.227V18.3398H442.227ZM471.215 30L470.305 30.4158L470.572 31H471.215V30ZM470.766 27.6953L471.762 27.6113L471.525 24.8037L469.939 27.1323L470.766 27.6953ZM461.586 28.7891L460.875 29.4919L460.883 29.5004L461.586 28.7891ZM462.172 19.1211L461.517 18.3652L462.172 19.1211ZM468.168 17.1875V16.1874L468.158 16.1876L468.168 17.1875ZM470.707 17.1875V18.1875H471.707V17.1875H470.707ZM464.77 12.3828L465.454 13.1115L465.462 13.1042L464.77 12.3828ZM463.793 14.7266V15.7266H464.793V14.7266H463.793ZM460.336 14.7266H459.336V15.7266H460.336V14.7266ZM461.293 11.6406L462.13 12.1876L462.133 12.1825L461.293 11.6406ZM472.406 10.0977L471.712 10.8173L471.72 10.8254L472.406 10.0977ZM474.145 14.7852H475.145L475.144 14.7725L474.145 14.7852ZM474.145 25.4492H473.145L473.145 25.4572L474.145 25.4492ZM474.809 29.6875H475.809V29.5136L475.75 29.3499L474.809 29.6875ZM474.809 30V31H475.809V30H474.809ZM470.707 24.7852L471.601 25.2324L471.707 25.0212V24.7852H470.707ZM470.707 19.7461H471.707V18.7461H470.707V19.7461ZM468.754 19.7461V18.7461H468.746L468.738 18.7462L468.754 19.7461ZM464.867 20.8594L465.462 21.6634L465.469 21.6581L464.867 20.8594ZM464.164 26.4453L463.414 27.1064L463.422 27.1153L464.164 26.4453ZM472.124 29.5842C471.993 29.2975 471.852 28.6793 471.762 27.6113L469.769 27.7794C469.861 28.8728 470.02 29.7911 470.305 30.4158L472.124 29.5842ZM469.939 27.1323C468.87 28.7014 467.597 29.3906 466.078 29.3906V31.3906C468.362 31.3906 470.213 30.2829 471.592 28.2583L469.939 27.1323ZM466.078 29.3906C464.355 29.3906 463.137 28.9154 462.289 28.0777L460.883 29.5004C462.197 30.7981 463.973 31.3906 466.078 31.3906V29.3906ZM462.297 28.0863C461.463 27.242 460.984 26.0068 460.984 24.2383H458.984C458.984 26.376 459.573 28.1747 460.875 29.4919L462.297 28.0863ZM460.984 24.2383C460.984 22.343 461.614 20.9272 462.827 19.877L461.517 18.3652C459.813 19.8411 458.984 21.8367 458.984 24.2383H460.984ZM462.827 19.877C464.056 18.8125 465.8 18.2118 468.178 18.1874L468.158 16.1876C465.458 16.2152 463.205 16.9037 461.517 18.3652L462.827 19.877ZM468.168 18.1875H470.707V16.1875H468.168V18.1875ZM471.707 17.1875V14.9414H469.707V17.1875H471.707ZM471.707 14.9414C471.707 13.5712 471.41 12.3351 470.557 11.5224L469.177 12.9698C469.445 13.2248 469.707 13.7856 469.707 14.9414H471.707ZM470.557 11.5224C469.739 10.7419 468.589 10.4453 467.309 10.4453V12.4453C468.319 12.4453 468.876 12.6826 469.177 12.9698L470.557 11.5224ZM467.309 10.4453C466.052 10.4453 464.943 10.83 464.077 11.6614L465.462 13.1042C465.898 12.6856 466.482 12.4453 467.309 12.4453V10.4453ZM464.085 11.6542C463.219 12.4683 462.793 13.5198 462.793 14.7266H464.793C464.793 14.0323 465.018 13.5213 465.454 13.1114L464.085 11.6542ZM463.793 13.7266H460.336V15.7266H463.793V13.7266ZM461.336 14.7266C461.336 13.8556 461.59 13.015 462.13 12.1876L460.456 11.0937C459.72 12.2194 459.336 13.4361 459.336 14.7266H461.336ZM462.133 12.1825C462.674 11.3445 463.4 10.6868 464.331 10.2043L463.411 8.42849C462.181 9.06577 461.188 9.95755 460.453 11.0987L462.133 12.1825ZM464.331 10.2043C465.257 9.72463 466.301 9.47656 467.484 9.47656V7.47656C466.011 7.47656 464.647 7.78839 463.411 8.42849L464.331 10.2043ZM467.484 9.47656C469.489 9.47656 470.841 9.97657 471.712 10.8172L473.101 9.37811C471.732 8.05729 469.803 7.47656 467.484 7.47656V9.47656ZM471.72 10.8254C472.598 11.6529 473.121 12.9207 473.145 14.7978L475.144 14.7725C475.116 12.535 474.48 10.6778 473.092 9.36995L471.72 10.8254ZM473.145 14.7852V25.4492H475.145V14.7852H473.145ZM473.145 25.4572C473.158 27.1674 473.391 28.6966 473.867 30.0251L475.75 29.3499C475.367 28.2826 475.157 26.9863 475.145 25.4412L473.145 25.4572ZM473.809 29.6875V30H475.809V29.6875H473.809ZM474.809 29H471.215V31H474.809V29ZM466.605 28.2461C467.647 28.2461 468.633 27.9548 469.548 27.3966L468.506 25.6893C467.885 26.0687 467.256 26.2461 466.605 26.2461V28.2461ZM469.548 27.3966C470.453 26.8446 471.154 26.1266 471.601 25.2324L469.813 24.3379C469.557 24.85 469.138 25.3038 468.506 25.6893L469.548 27.3966ZM471.707 24.7852V19.7461H469.707V24.7852H471.707ZM470.707 18.7461H468.754V20.7461H470.707V18.7461ZM468.738 18.7462C466.964 18.7744 465.438 19.1769 464.265 20.0607L465.469 21.6581C466.197 21.1095 467.262 20.7699 468.77 20.746L468.738 18.7462ZM464.272 20.0554C463.044 20.9639 462.441 22.2642 462.441 23.8281H464.441C464.441 22.8399 464.789 22.1611 465.462 21.6633L464.272 20.0554ZM462.441 23.8281C462.441 25.1231 462.695 26.2908 463.414 27.1063L464.914 25.7843C464.669 25.5061 464.441 24.929 464.441 23.8281H462.441ZM463.422 27.1153C464.181 27.9564 465.341 28.2461 466.605 28.2461V26.2461C465.578 26.2461 465.111 26.002 464.906 25.7753L463.422 27.1153ZM484.984 24.2578L484.015 24.5038L485.955 24.5003L484.984 24.2578ZM488.832 8.86719V7.86719H488.051L487.862 8.62465L488.832 8.86719ZM492.504 8.86719L493.465 9.14273L493.831 7.86719H492.504V8.86719ZM485.59 32.9883L486.551 33.2648L486.551 33.2638L485.59 32.9883ZM483.383 37.1094L482.681 36.3974L482.676 36.4023L483.383 37.1094ZM478.344 38.2227H477.344V38.977L478.069 39.1842L478.344 38.2227ZM478.344 35.293L478.446 34.2982L477.344 34.1852V35.293H478.344ZM479.105 35.3711L479.003 36.3659L479.054 36.3711H479.105V35.3711ZM481.449 34.6484L480.816 33.8745L480.806 33.8823L480.797 33.8904L481.449 34.6484ZM482.836 32.1875L483.794 32.4749L483.797 32.4654L482.836 32.1875ZM483.52 29.8242L484.48 30.1021L484.562 29.8208L484.478 29.5401L483.52 29.8242ZM477.309 8.86719V7.86719H475.969L476.35 9.15134L477.309 8.86719ZM481.078 8.86719L482.047 8.62118L481.856 7.86719H481.078V8.86719ZM485.955 24.5003L489.802 9.10972L487.862 8.62465L484.014 24.0153L485.955 24.5003ZM488.832 9.86719H492.504V7.86719H488.832V9.86719ZM491.543 8.59164L484.629 32.7127L486.551 33.2638L493.465 9.14273L491.543 8.59164ZM484.629 32.7117C484.137 34.4207 483.469 35.6199 482.681 36.3974L484.085 37.8213C485.198 36.7239 486.001 35.1756 486.551 33.2648L484.629 32.7117ZM482.676 36.4023C481.89 37.1879 481.056 37.5352 480.141 37.5352V39.5352C481.647 39.5352 482.974 38.9319 484.09 37.8165L482.676 36.4023ZM480.141 37.5352C479.804 37.5352 479.306 37.4576 478.618 37.2611L478.069 39.1842C478.84 39.4044 479.54 39.5352 480.141 39.5352V37.5352ZM479.344 38.2227V35.293H477.344V38.2227H479.344ZM478.242 36.2878L479.003 36.3659L479.207 34.3763L478.446 34.2982L478.242 36.2878ZM479.105 36.3711C480.262 36.3711 481.304 36.0925 482.101 35.4064L480.797 33.8904C480.474 34.1679 479.955 34.3711 479.105 34.3711V36.3711ZM482.082 35.4224C482.881 34.7693 483.419 33.7251 483.794 32.4748L481.878 31.9002C481.55 32.9936 481.164 33.5901 480.816 33.8745L482.082 35.4224ZM483.797 32.4654L484.48 30.1021L482.559 29.5464L481.875 31.9096L483.797 32.4654ZM484.478 29.5401L478.267 8.58304L476.35 9.15134L482.561 30.1084L484.478 29.5401ZM477.309 9.86719H481.078V7.86719H477.309V9.86719ZM480.109 9.1132L484.015 24.5038L485.954 24.0118L482.047 8.62118L480.109 9.1132Z" fill="#F7941D"/>
</svg>
