<svg width="367" height="67" viewBox="0 0 367 67" fill="none" xmlns="http://www.w3.org/2000/svg">
<path d="M11.1681 1.2C12.8001 1.2 14.3415 1.51733 15.7921 2.152C17.2428 2.764 18.5008 3.614 19.5661 4.702C20.6541 5.76733 21.5041 7.02533 22.1161 8.476C22.7508 9.92667 23.0681 11.468 23.0681 13.1C23.0681 14.732 22.7508 16.2733 22.1161 17.724C21.5041 19.1747 20.6541 20.444 19.5661 21.532C18.5008 22.5973 17.2428 23.4473 15.7921 24.082C14.3415 24.694 12.8001 25 11.1681 25H9.19612L6.95212 20.852H11.1681C12.1428 20.852 13.0608 20.6593 13.9221 20.274C14.8061 19.8887 15.5655 19.356 16.2001 18.676C16.8575 17.9733 17.3675 17.146 17.7301 16.194C18.1155 15.242 18.3081 14.2107 18.3081 13.1C18.3081 12.012 18.1155 10.992 17.7301 10.04C17.3675 9.088 16.8575 8.272 16.2001 7.592C15.5655 6.88933 14.8061 6.34533 13.9221 5.96C13.0608 5.552 12.1428 5.348 11.1681 5.348H5.72812V25H0.968122V1.2H11.1681ZM26.8068 1.2H31.7708V25H26.8068V1.2ZM46.6227 11.094C47.7107 11.3887 48.708 11.7173 49.6147 12.08C50.544 12.4427 51.3374 12.8847 51.9947 13.406C52.6747 13.9273 53.196 14.5507 53.5587 15.276C53.944 16.0013 54.1367 16.8627 54.1367 17.86V17.962C54.1367 19.05 53.91 20.0473 53.4567 20.954C53.026 21.8607 52.414 22.6427 51.6207 23.3C50.85 23.9347 49.932 24.4333 48.8667 24.796C47.824 25.136 46.6794 25.306 45.4327 25.306C44.2767 25.306 43.166 25.17 42.1007 24.898C41.058 24.6033 40.106 24.2293 39.2447 23.776C38.3834 23.3 37.624 22.7673 36.9667 22.178C36.332 21.5887 35.8447 20.9767 35.5047 20.342L39.4827 17.826C39.9134 18.302 40.344 18.7327 40.7747 19.118C41.2054 19.4807 41.6587 19.798 42.1347 20.07C42.6107 20.3193 43.132 20.512 43.6987 20.648C44.2654 20.784 44.8887 20.852 45.5687 20.852C45.9994 20.852 46.43 20.8067 46.8607 20.716C47.314 20.6253 47.722 20.478 48.0847 20.274C48.4474 20.07 48.742 19.8207 48.9687 19.526C49.1954 19.2087 49.3087 18.8233 49.3087 18.37C49.3087 18.0527 49.2294 17.7467 49.0707 17.452C48.912 17.1573 48.64 16.874 48.2547 16.602C47.8694 16.3073 47.348 16.0353 46.6907 15.786C46.0334 15.514 45.206 15.2533 44.2087 15.004C42.9847 14.7093 41.8854 14.3807 40.9107 14.018C39.936 13.6327 39.1087 13.1793 38.4287 12.658C37.7487 12.114 37.2274 11.468 36.8647 10.72C36.502 9.972 36.3207 9.088 36.3207 8.068C36.3207 6.95733 36.5247 5.96 36.9327 5.076C37.3634 4.16933 37.9527 3.41 38.7007 2.798C39.4487 2.186 40.3214 1.72133 41.3187 1.404C42.3387 1.064 43.4267 0.893998 44.5827 0.893998C45.784 0.893998 46.872 1.03 47.8467 1.302C48.8214 1.574 49.694 1.92533 50.4647 2.356C51.2354 2.764 51.904 3.24 52.4707 3.784C53.06 4.30533 53.5474 4.81533 53.9327 5.314L50.0227 7.83C49.048 6.90067 48.1187 6.25467 47.2347 5.892C46.3734 5.50666 45.4667 5.314 44.5147 5.314C43.9254 5.314 43.4154 5.39333 42.9847 5.552C42.5767 5.688 42.2367 5.86933 41.9647 6.096C41.6927 6.3 41.4774 6.538 41.3187 6.81C41.1827 7.082 41.1147 7.34267 41.1147 7.592C41.1147 8.04533 41.228 8.442 41.4547 8.782C41.704 9.09933 42.0554 9.394 42.5087 9.666C42.9847 9.938 43.5627 10.1873 44.2427 10.414C44.9454 10.6407 45.7387 10.8673 46.6227 11.094ZM79.2701 19.526C78.7261 20.3873 78.0801 21.1693 77.3321 21.872C76.6068 22.5747 75.8021 23.1867 74.9181 23.708C74.0341 24.2067 73.0821 24.592 72.0621 24.864C71.0421 25.136 69.9881 25.272 68.9001 25.272C67.2228 25.272 65.6361 24.9547 64.1401 24.32C62.6668 23.6853 61.3748 22.824 60.2641 21.736C59.1761 20.6253 58.3148 19.3333 57.6801 17.86C57.0455 16.364 56.7281 14.7773 56.7281 13.1C56.7281 11.4227 57.0455 9.84733 57.6801 8.374C58.3148 6.878 59.1761 5.586 60.2641 4.498C61.3748 3.38733 62.6668 2.51467 64.1401 1.88C65.6361 1.24533 67.2228 0.928 68.9001 0.928C69.9881 0.928 71.0421 1.064 72.0621 1.336C73.0821 1.608 74.0341 2.00467 74.9181 2.526C75.8021 3.02467 76.6068 3.62533 77.3321 4.328C78.0801 5.03067 78.7261 5.81267 79.2701 6.674L75.2921 9.224C74.6575 8 73.7848 7.02533 72.6741 6.3C71.5635 5.552 70.3055 5.178 68.9001 5.178C67.9028 5.178 66.9621 5.39333 66.0781 5.824C65.1941 6.232 64.4235 6.79867 63.7661 7.524C63.1088 8.22667 62.5875 9.06533 62.2021 10.04C61.8168 10.992 61.6241 12.012 61.6241 13.1C61.6241 14.188 61.8168 15.2193 62.2021 16.194C62.5875 17.146 63.1088 17.9847 63.7661 18.71C64.4235 19.4127 65.1941 19.9793 66.0781 20.41C66.9621 20.818 67.9028 21.022 68.9001 21.022C70.3055 21.022 71.5635 20.6593 72.6741 19.934C73.7848 19.186 74.6575 18.2 75.2921 16.976L79.2701 19.526ZM92.9387 0.893998C94.616 0.893998 96.18 1.22267 97.6307 1.88C99.0813 2.51467 100.339 3.38733 101.405 4.498C102.47 5.586 103.297 6.878 103.887 8.374C104.499 9.84733 104.805 11.4227 104.805 13.1C104.805 14.528 104.589 15.888 104.159 17.18C103.728 18.472 103.116 19.6393 102.323 20.682C101.529 21.7247 100.577 22.62 99.4667 23.368C98.3787 24.0933 97.1773 24.6147 95.8627 24.932L93.4827 20.886C94.4347 20.818 95.296 20.5687 96.0667 20.138C96.86 19.6847 97.54 19.118 98.1067 18.438C98.6733 17.7353 99.1153 16.9307 99.4327 16.024C99.75 15.0947 99.9087 14.12 99.9087 13.1C99.9087 12.0347 99.7273 11.026 99.3647 10.074C99.0247 9.122 98.5487 8.29467 97.9367 7.592C97.3247 6.88933 96.588 6.334 95.7267 5.926C94.888 5.518 93.9587 5.314 92.9387 5.314C91.9187 5.314 90.978 5.518 90.1167 5.926C89.278 6.334 88.5413 6.88933 87.9067 7.592C87.2947 8.29467 86.8073 9.122 86.4447 10.074C86.1047 11.026 85.9347 12.0347 85.9347 13.1C85.9347 14.1653 86.1047 15.174 86.4447 16.126C86.8073 17.078 87.2947 17.9053 87.9067 18.608C88.5413 19.3107 89.278 19.866 90.1167 20.274C90.978 20.682 91.9187 20.886 92.9387 20.886V25.306C91.2613 25.306 89.6973 24.9887 88.2467 24.354C86.796 23.7193 85.538 22.8467 84.4727 21.736C83.4073 20.6253 82.5687 19.3333 81.9567 17.86C81.3673 16.364 81.0727 14.7773 81.0727 13.1C81.0727 11.4227 81.3673 9.84733 81.9567 8.374C82.5687 6.878 83.4073 5.586 84.4727 4.498C85.538 3.38733 86.796 2.51467 88.2467 1.88C89.6973 1.22267 91.2613 0.893998 92.9387 0.893998ZM110.24 1.2L117.108 17.86L113.334 21.158L105.106 1.2H110.24ZM124.656 1.2H129.79L120.032 25H114.932L124.656 1.2ZM145.318 15.514H140.014L137.804 11.06H145.318V15.514ZM148.14 1.2L148.174 5.178H136.988L136.954 21.056H148.14V25H132.194V1.2H148.14ZM171.942 25H165.89L162.252 20.512L166.23 17.928L171.942 25ZM166.536 17.18C165.992 17.4293 165.482 17.6107 165.006 17.724C164.552 17.8373 163.986 17.9167 163.306 17.962C162.648 17.9847 161.821 17.996 160.824 17.996C159.849 17.9733 158.58 17.962 157.016 17.962V25H152.222V1.2H163C164.156 1.2 165.232 1.42667 166.23 1.88C167.25 2.31067 168.134 2.91133 168.882 3.682C169.652 4.43 170.253 5.32533 170.684 6.368C171.137 7.388 171.364 8.476 171.364 9.632C171.364 11.332 170.91 12.8507 170.004 14.188C169.12 15.5253 167.964 16.5227 166.536 17.18ZM157.016 13.202H163C164.02 13.202 164.881 12.8507 165.584 12.148C166.286 11.4227 166.638 10.4593 166.638 9.258C166.638 8.75933 166.536 8.28333 166.332 7.83C166.15 7.354 165.89 6.93467 165.55 6.572C165.232 6.20933 164.847 5.926 164.394 5.722C163.963 5.49533 163.498 5.382 163 5.382H157.016V13.1V13.134V13.202ZM202.752 21.906L199.352 25.306L197.482 23.402L194.014 19.968L189.458 15.378L189.186 15.616C188.574 16.16 188.268 16.8173 188.268 17.588C188.268 18.0187 188.37 18.4267 188.574 18.812C188.778 19.1973 189.039 19.5373 189.356 19.832C189.696 20.1267 190.082 20.3647 190.512 20.546C190.966 20.7047 191.43 20.784 191.906 20.784C192.178 20.784 192.473 20.7727 192.79 20.75C193.108 20.7273 193.414 20.6707 193.708 20.58L194.966 24.694C194.468 24.8527 193.958 24.9773 193.436 25.068C192.938 25.1587 192.428 25.204 191.906 25.204C190.773 25.204 189.696 25 188.676 24.592C187.656 24.184 186.761 23.64 185.99 22.96C185.242 22.2573 184.642 21.4413 184.188 20.512C183.735 19.5827 183.508 18.608 183.508 17.588C183.508 16.5453 183.712 15.5593 184.12 14.63C184.551 13.678 185.163 12.8393 185.956 12.114L186.126 11.978C185.65 11.366 185.276 10.7087 185.004 10.006C184.732 9.30333 184.596 8.56667 184.596 7.796C184.596 6.844 184.789 5.94867 185.174 5.11C185.56 4.27133 186.104 3.52333 186.806 2.866C187.509 2.20867 188.291 1.72133 189.152 1.404C190.036 1.064 190.954 0.893998 191.906 0.893998C192.745 0.893998 193.504 1.00733 194.184 1.234C194.864 1.438 195.476 1.71 196.02 2.05C196.587 2.39 197.086 2.77533 197.516 3.206C197.97 3.63667 198.378 4.06733 198.74 4.498L194.898 7.422C194.513 6.878 194.082 6.37933 193.606 5.926C193.13 5.47267 192.564 5.246 191.906 5.246C191.181 5.246 190.58 5.50667 190.104 6.028C189.628 6.52667 189.39 7.116 189.39 7.796C189.39 8.38533 189.617 8.87267 190.07 9.258L190.104 9.326L196.258 15.446V12.012C196.508 11.944 196.825 11.8647 197.21 11.774C197.596 11.6607 198.004 11.5473 198.434 11.434C198.865 11.298 199.307 11.1733 199.76 11.06C200.214 10.924 200.633 10.7993 201.018 10.686V17.588C201.018 17.9733 200.973 18.3473 200.882 18.71C200.814 19.05 200.712 19.4127 200.576 19.798L202.752 21.906ZM237.37 19.526C236.826 20.3873 236.18 21.1693 235.432 21.872C234.707 22.5747 233.902 23.1867 233.018 23.708C232.134 24.2067 231.182 24.592 230.162 24.864C229.142 25.136 228.088 25.272 227 25.272C225.323 25.272 223.736 24.9547 222.24 24.32C220.767 23.6853 219.475 22.824 218.364 21.736C217.276 20.6253 216.415 19.3333 215.78 17.86C215.145 16.364 214.828 14.7773 214.828 13.1C214.828 11.4227 215.145 9.84733 215.78 8.374C216.415 6.878 217.276 5.586 218.364 4.498C219.475 3.38733 220.767 2.51467 222.24 1.88C223.736 1.24533 225.323 0.928 227 0.928C228.088 0.928 229.142 1.064 230.162 1.336C231.182 1.608 232.134 2.00467 233.018 2.526C233.902 3.02467 234.707 3.62533 235.432 4.328C236.18 5.03067 236.826 5.81267 237.37 6.674L233.392 9.224C232.757 8 231.885 7.02533 230.774 6.3C229.663 5.552 228.405 5.178 227 5.178C226.003 5.178 225.062 5.39333 224.178 5.824C223.294 6.232 222.523 6.79867 221.866 7.524C221.209 8.22667 220.687 9.06533 220.302 10.04C219.917 10.992 219.724 12.012 219.724 13.1C219.724 14.188 219.917 15.2193 220.302 16.194C220.687 17.146 221.209 17.9847 221.866 18.71C222.523 19.4127 223.294 19.9793 224.178 20.41C225.062 20.818 226.003 21.022 227 21.022C228.405 21.022 229.663 20.6593 230.774 19.934C231.885 19.186 232.757 18.2 233.392 16.976L237.37 19.526ZM251.039 0.893998C252.716 0.893998 254.28 1.22267 255.731 1.88C257.181 2.51467 258.439 3.38733 259.505 4.498C260.57 5.586 261.397 6.878 261.987 8.374C262.599 9.84733 262.905 11.4227 262.905 13.1C262.905 14.528 262.689 15.888 262.259 17.18C261.828 18.472 261.216 19.6393 260.423 20.682C259.629 21.7247 258.677 22.62 257.567 23.368C256.479 24.0933 255.277 24.6147 253.963 24.932L251.583 20.886C252.535 20.818 253.396 20.5687 254.167 20.138C254.96 19.6847 255.64 19.118 256.207 18.438C256.773 17.7353 257.215 16.9307 257.533 16.024C257.85 15.0947 258.009 14.12 258.009 13.1C258.009 12.0347 257.827 11.026 257.465 10.074C257.125 9.122 256.649 8.29467 256.037 7.592C255.425 6.88933 254.688 6.334 253.827 5.926C252.988 5.518 252.059 5.314 251.039 5.314C250.019 5.314 249.078 5.518 248.217 5.926C247.378 6.334 246.641 6.88933 246.007 7.592C245.395 8.29467 244.907 9.122 244.545 10.074C244.205 11.026 244.035 12.0347 244.035 13.1C244.035 14.1653 244.205 15.174 244.545 16.126C244.907 17.078 245.395 17.9053 246.007 18.608C246.641 19.3107 247.378 19.866 248.217 20.274C249.078 20.682 250.019 20.886 251.039 20.886V25.306C249.361 25.306 247.797 24.9887 246.347 24.354C244.896 23.7193 243.638 22.8467 242.573 21.736C241.507 20.6253 240.669 19.3333 240.057 17.86C239.467 16.364 239.173 14.7773 239.173 13.1C239.173 11.4227 239.467 9.84733 240.057 8.374C240.669 6.878 241.507 5.586 242.573 4.498C243.638 3.38733 244.896 2.51467 246.347 1.88C247.797 1.22267 249.361 0.893998 251.039 0.893998ZM266.646 25V1.2H271.406V25H266.646ZM272.12 20.24H282.592V25H274.772L272.12 20.24ZM285.977 25V1.2H290.737V25H285.977ZM291.451 20.24H301.923V25H294.103L291.451 20.24ZM318.432 15.514H313.128L310.918 11.06H318.432V15.514ZM321.254 1.2L321.288 5.178H310.102L310.068 21.056H321.254V25H305.308V1.2H321.254ZM345.347 19.526C344.803 20.3873 344.157 21.1693 343.409 21.872C342.683 22.5747 341.879 23.1867 340.995 23.708C340.111 24.2067 339.159 24.592 338.139 24.864C337.119 25.136 336.065 25.272 334.977 25.272C333.299 25.272 331.713 24.9547 330.217 24.32C328.743 23.6853 327.451 22.824 326.341 21.736C325.253 20.6253 324.391 19.3333 323.757 17.86C323.122 16.364 322.805 14.7773 322.805 13.1C322.805 11.4227 323.122 9.84733 323.757 8.374C324.391 6.878 325.253 5.586 326.341 4.498C327.451 3.38733 328.743 2.51467 330.217 1.88C331.713 1.24533 333.299 0.928 334.977 0.928C336.065 0.928 337.119 1.064 338.139 1.336C339.159 1.608 340.111 2.00467 340.995 2.526C341.879 3.02467 342.683 3.62533 343.409 4.328C344.157 5.03067 344.803 5.81267 345.347 6.674L341.369 9.224C340.734 8 339.861 7.02533 338.751 6.3C337.64 5.552 336.382 5.178 334.977 5.178C333.979 5.178 333.039 5.39333 332.155 5.824C331.271 6.232 330.5 6.79867 329.843 7.524C329.185 8.22667 328.664 9.06533 328.279 10.04C327.893 10.992 327.701 12.012 327.701 13.1C327.701 14.188 327.893 15.2193 328.279 16.194C328.664 17.146 329.185 17.9847 329.843 18.71C330.5 19.4127 331.271 19.9793 332.155 20.41C333.039 20.818 333.979 21.022 334.977 21.022C336.382 21.022 337.64 20.6593 338.751 19.934C339.861 19.186 340.734 18.2 341.369 16.976L345.347 19.526ZM359.846 1.2V25H354.95V5.348H347.946V1.2H359.846ZM360.56 1.2H366.85V5.348H362.634L360.56 1.2ZM151.495 42.2L166.829 64.3V66H161.865L151.495 51.04V66H146.531V42.2H151.495ZM161.865 42.2H166.829V60.016L161.865 56.446V42.2ZM178.762 56.446L176.552 52.026H184.1V56.446H178.762ZM170.908 42.166H186.99V46.178H175.702V66H170.908V42.166ZM201.766 42.2V66H196.87V46.348H189.866V42.2H201.766ZM202.48 42.2H208.77V46.348H204.554L202.48 42.2ZM222.307 52.094C223.395 52.3887 224.392 52.7173 225.299 53.08C226.228 53.4427 227.022 53.8847 227.679 54.406C228.359 54.9273 228.88 55.5507 229.243 56.276C229.628 57.0013 229.821 57.8627 229.821 58.86V58.962C229.821 60.05 229.594 61.0473 229.141 61.954C228.71 62.8607 228.098 63.6427 227.305 64.3C226.534 64.9347 225.616 65.4333 224.551 65.796C223.508 66.136 222.364 66.306 221.117 66.306C219.961 66.306 218.85 66.17 217.785 65.898C216.742 65.6033 215.79 65.2293 214.929 64.776C214.068 64.3 213.308 63.7673 212.651 63.178C212.016 62.5887 211.529 61.9767 211.189 61.342L215.167 58.826C215.598 59.302 216.028 59.7327 216.459 60.118C216.89 60.4807 217.343 60.798 217.819 61.07C218.295 61.3193 218.816 61.512 219.383 61.648C219.95 61.784 220.573 61.852 221.253 61.852C221.684 61.852 222.114 61.8067 222.545 61.716C222.998 61.6253 223.406 61.478 223.769 61.274C224.132 61.07 224.426 60.8207 224.653 60.526C224.88 60.2087 224.993 59.8233 224.993 59.37C224.993 59.0527 224.914 58.7467 224.755 58.452C224.596 58.1573 224.324 57.874 223.939 57.602C223.554 57.3073 223.032 57.0353 222.375 56.786C221.718 56.514 220.89 56.2533 219.893 56.004C218.669 55.7093 217.57 55.3807 216.595 55.018C215.62 54.6327 214.793 54.1793 214.113 53.658C213.433 53.114 212.912 52.468 212.549 51.72C212.186 50.972 212.005 50.088 212.005 49.068C212.005 47.9573 212.209 46.96 212.617 46.076C213.048 45.1693 213.637 44.41 214.385 43.798C215.133 43.186 216.006 42.7213 217.003 42.404C218.023 42.064 219.111 41.894 220.267 41.894C221.468 41.894 222.556 42.03 223.531 42.302C224.506 42.574 225.378 42.9253 226.149 43.356C226.92 43.764 227.588 44.24 228.155 44.784C228.744 45.3053 229.232 45.8153 229.617 46.314L225.707 48.83C224.732 47.9007 223.803 47.2547 222.919 46.892C222.058 46.5067 221.151 46.314 220.199 46.314C219.61 46.314 219.1 46.3933 218.669 46.552C218.261 46.688 217.921 46.8693 217.649 47.096C217.377 47.3 217.162 47.538 217.003 47.81C216.867 48.082 216.799 48.3427 216.799 48.592C216.799 49.0453 216.912 49.442 217.139 49.782C217.388 50.0993 217.74 50.394 218.193 50.666C218.669 50.938 219.247 51.1873 219.927 51.414C220.63 51.6407 221.423 51.8673 222.307 52.094Z" fill="white"/>
<path d="M15.7921 2.152L15.5917 2.61012L15.5978 2.61268L15.7921 2.152ZM19.5661 4.702L19.2088 5.05189L19.2163 5.05926L19.5661 4.702ZM22.1161 8.476L21.6554 8.67037L21.658 8.67641L22.1161 8.476ZM22.1161 17.724L21.658 17.5236L21.6554 17.5296L22.1161 17.724ZM19.5661 21.532L19.2126 21.1784L19.5661 21.532ZM15.7921 24.082L15.9865 24.5427L15.9925 24.5401L15.7921 24.082ZM9.19612 25L8.75635 25.2379L8.89814 25.5H9.19612V25ZM6.95212 20.852V20.352H6.11315L6.51235 21.0899L6.95212 20.852ZM13.9221 20.274L13.7223 19.8156L13.7179 19.8176L13.9221 20.274ZM16.2001 18.676L15.835 18.3344L15.8346 18.3348L16.2001 18.676ZM17.7301 16.194L17.2665 16.0064L17.2629 16.016L17.7301 16.194ZM17.7301 10.04L17.2628 10.218L17.2666 10.2276L17.7301 10.04ZM16.2001 7.592L15.8291 7.92714L15.8347 7.93342L15.8406 7.93951L16.2001 7.592ZM13.9221 5.96L13.7081 6.41187L13.7152 6.41522L13.7223 6.41835L13.9221 5.96ZM5.72812 5.348V4.848H5.22812V5.348H5.72812ZM5.72812 25V25.5H6.22812V25H5.72812ZM0.968122 25H0.468122V25.5H0.968122V25ZM0.968122 1.2V0.699998H0.468122V1.2H0.968122ZM11.1681 1.7C12.7333 1.7 14.2062 2.00391 15.5917 2.61008L15.9925 1.69392C14.4767 1.03075 12.8669 0.699998 11.1681 0.699998V1.7ZM15.5978 2.61268C16.9894 3.19979 18.1915 4.01283 19.2089 5.05181L19.9234 4.35219C18.8101 3.21517 17.4961 2.32821 15.9865 1.69132L15.5978 2.61268ZM19.2163 5.05926C20.2553 6.07659 21.0683 7.27868 21.6554 8.67035L22.5768 8.28165C21.9399 6.77199 21.053 5.45807 19.9159 4.34474L19.2163 5.05926ZM21.658 8.67641C22.2642 10.0619 22.5681 11.5348 22.5681 13.1H23.5681C23.5681 11.4012 23.2374 9.79141 22.5742 8.27559L21.658 8.67641ZM22.5681 13.1C22.5681 14.6652 22.2642 16.1381 21.658 17.5236L22.5742 17.9244C23.2374 16.4086 23.5681 14.7988 23.5681 13.1H22.5681ZM21.6554 17.5296C21.0679 18.9222 20.2538 20.1372 19.2126 21.1784L19.9197 21.8856C21.0544 20.7508 21.9403 19.4271 22.5768 17.9184L21.6554 17.5296ZM19.2126 21.1784C18.1935 22.1975 16.9882 23.013 15.5917 23.6239L15.9925 24.5401C17.4974 23.8817 18.808 22.9972 19.9197 21.8856L19.2126 21.1784ZM15.5978 23.6213C14.2109 24.2064 12.7359 24.5 11.1681 24.5V25.5C12.8644 25.5 14.472 25.1816 15.9865 24.5427L15.5978 23.6213ZM11.1681 24.5H9.19612V25.5H11.1681V24.5ZM9.63589 24.7621L7.39189 20.6141L6.51235 21.0899L8.75635 25.2379L9.63589 24.7621ZM6.95212 21.352H11.1681V20.352H6.95212V21.352ZM11.1681 21.352C12.2108 21.352 13.1986 21.1454 14.1263 20.7304L13.7179 19.8176C12.923 20.1732 12.0748 20.352 11.1681 20.352V21.352ZM14.1219 20.7323C15.0662 20.3207 15.8826 19.749 16.5657 19.0172L15.8346 18.3348C15.2483 18.963 14.546 19.4566 13.7223 19.8157L14.1219 20.7323ZM16.5653 19.0176C17.2695 18.2648 17.813 17.381 18.1974 16.372L17.2629 16.016C16.9219 16.911 16.4454 17.6819 15.835 18.3344L16.5653 19.0176ZM18.1936 16.3816C18.605 15.3653 18.8081 14.2697 18.8081 13.1H17.8081C17.8081 14.1516 17.626 15.1187 17.2666 16.0064L18.1936 16.3816ZM18.8081 13.1C18.8081 11.9516 18.6045 10.8675 18.1936 9.8524L17.2666 10.2276C17.6264 11.1165 17.8081 12.0724 17.8081 13.1H18.8081ZM18.1974 9.862C17.8125 8.85172 17.2675 7.97678 16.5596 7.24449L15.8406 7.93951C16.4474 8.56722 16.9224 9.32427 17.2629 10.218L18.1974 9.862ZM16.5712 7.25686C15.8879 6.50041 15.0699 5.91486 14.1219 5.50165L13.7223 6.41835C14.5424 6.7758 15.243 7.27825 15.8291 7.92714L16.5712 7.25686ZM14.1362 5.50813C13.2064 5.06771 12.2151 4.848 11.1681 4.848V5.848C12.0705 5.848 12.9152 6.03629 13.7081 6.41187L14.1362 5.50813ZM11.1681 4.848H5.72812V5.848H11.1681V4.848ZM5.22812 5.348V25H6.22812V5.348H5.22812ZM5.72812 24.5H0.968122V25.5H5.72812V24.5ZM1.46812 25V1.2H0.468122V25H1.46812ZM0.968122 1.7H11.1681V0.699998H0.968122V1.7ZM26.8068 1.2V0.699998H26.3068V1.2H26.8068ZM31.7708 1.2H32.2708V0.699998H31.7708V1.2ZM31.7708 25V25.5H32.2708V25H31.7708ZM26.8068 25H26.3068V25.5H26.8068V25ZM26.8068 1.7H31.7708V0.699998H26.8068V1.7ZM31.2708 1.2V25H32.2708V1.2H31.2708ZM31.7708 24.5H26.8068V25.5H31.7708V24.5ZM27.3068 25V1.2H26.3068V25H27.3068ZM46.6227 11.094L46.7534 10.6113L46.7469 10.6097L46.6227 11.094ZM49.6147 12.08L49.429 12.5443L49.4329 12.5458L49.6147 12.08ZM51.9947 13.406L51.6839 13.7978L51.6905 13.8028L51.9947 13.406ZM53.5587 15.276L53.1113 15.4997L53.1171 15.5106L53.5587 15.276ZM53.4567 20.954L53.0094 20.7303L53.0051 20.7395L53.4567 20.954ZM51.6207 23.3L51.9385 23.686L51.9397 23.685L51.6207 23.3ZM48.8667 24.796L49.0217 25.2714L49.0278 25.2693L48.8667 24.796ZM42.1007 24.898L41.9647 25.3793L41.977 25.3825L42.1007 24.898ZM39.2447 23.776L39.0028 24.2137L39.0118 24.2185L39.2447 23.776ZM36.9667 22.178L36.6264 22.5445L36.6329 22.5503L36.9667 22.178ZM35.5047 20.342L35.2374 19.9194L34.8443 20.1681L35.0639 20.5781L35.5047 20.342ZM39.4827 17.826L39.8535 17.4905L39.5711 17.1785L39.2154 17.4034L39.4827 17.826ZM40.7747 19.118L40.4413 19.4906L40.4469 19.4956L40.4526 19.5005L40.7747 19.118ZM42.1347 20.07L41.8866 20.5041L41.8946 20.5087L41.9027 20.5129L42.1347 20.07ZM43.6987 20.648L43.582 21.1342L43.6987 20.648ZM46.8607 20.716L46.7626 20.2257L46.7577 20.2267L46.8607 20.716ZM48.0847 20.274L47.8396 19.8382L48.0847 20.274ZM48.9687 19.526L49.365 19.8309L49.3704 19.8238L49.3756 19.8166L48.9687 19.526ZM49.0707 17.452L49.5109 17.215V17.2149L49.0707 17.452ZM48.2547 16.602L47.951 16.9992L47.9585 17.005L47.9663 17.0105L48.2547 16.602ZM46.6907 15.786L46.4995 16.248L46.5064 16.2509L46.5134 16.2535L46.6907 15.786ZM44.2087 15.004L44.33 14.5189L44.3257 14.5179L44.2087 15.004ZM40.9107 14.018L40.7268 14.4831L40.7363 14.4866L40.9107 14.018ZM38.4287 12.658L38.1163 13.0485L38.1245 13.0548L38.4287 12.658ZM36.8647 10.72L37.3146 10.5019L36.8647 10.72ZM36.9327 5.076L36.481 4.86146L36.4787 4.86647L36.9327 5.076ZM38.7007 2.798L38.3841 2.41102L38.7007 2.798ZM41.3187 1.404L41.4703 1.88051L41.4768 1.87834L41.3187 1.404ZM47.8467 1.302L47.7123 1.7836L47.8467 1.302ZM50.4647 2.356L50.2207 2.79258L50.2307 2.79789L50.4647 2.356ZM52.4707 3.784L52.1244 4.14469L52.1318 4.15175L52.1394 4.1585L52.4707 3.784ZM53.9327 5.314L54.2032 5.73447L54.6616 5.43954L54.3283 5.00827L53.9327 5.314ZM50.0227 7.83L49.6777 8.19187L49.9624 8.46337L50.2933 8.25047L50.0227 7.83ZM47.2347 5.892L47.0305 6.34841L47.0377 6.35161L47.0449 6.35458L47.2347 5.892ZM42.9847 5.552L43.1428 6.02634L43.1502 6.02387L43.1575 6.02117L42.9847 5.552ZM41.9647 6.096L42.2647 6.496L42.2749 6.48831L42.2848 6.48011L41.9647 6.096ZM41.3187 6.81L40.8868 6.55806L40.8787 6.57198L40.8715 6.58639L41.3187 6.81ZM41.4547 8.782L41.0387 9.05935L41.0495 9.07557L41.0615 9.09091L41.4547 8.782ZM42.5087 9.666L42.2514 10.0948L42.2606 10.1001L42.5087 9.666ZM44.2427 10.414L44.0846 10.8884L44.0892 10.8899L44.2427 10.414ZM46.492 11.5766C47.5641 11.867 48.5428 12.1897 49.429 12.5442L49.8004 11.6158C48.8733 11.2449 47.8573 10.9104 46.7534 10.6114L46.492 11.5766ZM49.4329 12.5458C50.3243 12.8937 51.0723 13.3126 51.684 13.7977L52.3054 13.0142C51.6024 12.4567 50.7637 11.9917 49.7965 11.6142L49.4329 12.5458ZM51.6905 13.8028C52.3138 14.2807 52.7846 14.8459 53.1115 15.4996L54.0059 15.0524C53.6074 14.2554 53.0356 13.574 52.2989 13.0092L51.6905 13.8028ZM53.1171 15.5106C53.4567 16.1498 53.6367 16.9271 53.6367 17.86H54.6367C54.6367 16.7982 54.4313 15.8529 54.0002 15.0414L53.1171 15.5106ZM53.6367 17.86V17.962H54.6367V17.86H53.6367ZM53.6367 17.962C53.6367 18.9782 53.4256 19.8982 53.0095 20.7304L53.9039 21.1776C54.3945 20.1965 54.6367 19.1218 54.6367 17.962H53.6367ZM53.0051 20.7395C52.6065 21.5786 52.0404 22.3029 51.3017 22.915L51.9397 23.685C52.7876 22.9825 53.4456 22.1428 53.9083 21.1685L53.0051 20.7395ZM51.3028 22.914C50.5842 23.5058 49.721 23.977 48.7056 24.3227L49.0278 25.2693C50.143 24.8897 51.1158 24.3635 51.9385 23.686L51.3028 22.914ZM48.7117 24.3206C47.7254 24.6423 46.6338 24.806 45.4327 24.806V25.806C46.7249 25.806 47.9227 25.6297 49.0217 25.2714L48.7117 24.3206ZM45.4327 24.806C44.3163 24.806 43.2473 24.6747 42.2244 24.4135L41.977 25.3825C43.0848 25.6653 44.2371 25.806 45.4327 25.806V24.806ZM42.2367 24.4168C41.2238 24.1306 40.3048 23.7689 39.4776 23.3335L39.0118 24.2185C39.9072 24.6897 40.8922 25.0761 41.9647 25.3792L42.2367 24.4168ZM39.4865 23.3384C38.6545 22.8786 37.9267 22.3672 37.3005 21.8057L36.6329 22.5503C37.3213 23.1675 38.1122 23.7214 39.0028 24.2136L39.4865 23.3384ZM37.3069 21.8116C36.7048 21.2525 36.2547 20.6831 35.9454 20.1059L35.0639 20.5781C35.4347 21.2702 35.9593 21.9249 36.6265 22.5444L37.3069 21.8116ZM35.772 20.7646L39.75 18.2486L39.2154 17.4034L35.2374 19.9194L35.772 20.7646ZM39.1119 18.1615C39.5531 18.6491 39.9962 19.0924 40.4413 19.4906L41.1081 18.7454C40.6919 18.373 40.2736 17.9549 39.8535 17.4905L39.1119 18.1615ZM40.4526 19.5005C40.9057 19.882 41.3837 20.2168 41.8866 20.5041L42.3828 19.6359C41.9336 19.3792 41.505 19.0793 41.0968 18.7355L40.4526 19.5005ZM41.9027 20.5129C42.4181 20.7829 42.9786 20.9894 43.582 21.1342L43.8154 20.1618C43.2854 20.0346 42.8032 19.8558 42.3667 19.6271L41.9027 20.5129ZM43.582 21.1342C44.1926 21.2807 44.8557 21.352 45.5687 21.352V20.352C44.9216 20.352 44.3381 20.2873 43.8154 20.1618L43.582 21.1342ZM45.5687 21.352C46.0347 21.352 46.4999 21.3029 46.9637 21.2053L46.7577 20.2267C46.3601 20.3104 45.964 20.352 45.5687 20.352V21.352ZM46.9587 21.2063C47.458 21.1064 47.9165 20.9423 48.3298 20.7098L47.8396 19.8382C47.5275 20.0137 47.1701 20.1442 46.7626 20.2257L46.9587 21.2063ZM48.3298 20.7098C48.7442 20.4767 49.0926 20.1849 49.365 19.8309L48.5724 19.2211C48.3914 19.4564 48.1505 19.6633 47.8396 19.8382L48.3298 20.7098ZM49.3756 19.8166C49.6722 19.4013 49.8087 18.9101 49.8087 18.37H48.8087C48.8087 18.7366 48.7185 19.016 48.5618 19.2354L49.3756 19.8166ZM49.8087 18.37C49.8087 17.9654 49.7066 17.5784 49.5109 17.215L48.6304 17.689C48.7521 17.915 48.8087 18.14 48.8087 18.37H49.8087ZM49.5109 17.2149C49.3037 16.8301 48.9673 16.493 48.543 16.1935L47.9663 17.0105C48.3127 17.255 48.5203 17.4846 48.6305 17.689L49.5109 17.2149ZM48.5584 16.2048C48.1215 15.8707 47.5522 15.578 46.868 15.3185L46.5134 16.2535C47.1438 16.4926 47.6172 16.7439 47.951 16.9992L48.5584 16.2048ZM46.8819 15.324C46.1943 15.0395 45.3416 14.7718 44.33 14.5189L44.0874 15.4891C45.0704 15.7348 45.8724 15.9885 46.4995 16.248L46.8819 15.324ZM44.3257 14.5179C43.1173 14.227 42.0376 13.9038 41.0851 13.5494L40.7363 14.4866C41.7331 14.8575 42.8521 15.1917 44.0917 15.4901L44.3257 14.5179ZM41.0945 13.553C40.1537 13.1811 39.369 12.7489 38.7329 12.2612L38.1245 13.0548C38.8484 13.6098 39.7183 14.0843 40.7269 14.483L41.0945 13.553ZM38.741 12.2676C38.1163 11.7678 37.6432 11.1797 37.3146 10.5019L36.4148 10.9381C36.8115 11.7563 37.3811 12.4602 38.1163 13.0484L38.741 12.2676ZM37.3146 10.5019C36.9915 9.83553 36.8207 9.02926 36.8207 8.068H35.8207C35.8207 9.14674 36.0125 10.1085 36.4148 10.9381L37.3146 10.5019ZM36.8207 8.068C36.8207 7.0195 37.013 6.09518 37.3867 5.28553L36.4787 4.86647C36.0364 5.82482 35.8207 6.89516 35.8207 8.068H36.8207ZM37.3843 5.29053C37.7845 4.44797 38.3287 3.74836 39.0173 3.18498L38.3841 2.41102C37.5766 3.07164 36.9422 3.89069 36.481 4.86147L37.3843 5.29053ZM39.0173 3.18498C39.7125 2.61616 40.5281 2.18025 41.4703 1.88046L41.1671 0.927537C40.1146 1.26242 39.1848 1.75584 38.3841 2.41102L39.0173 3.18498ZM41.4768 1.87834C42.4421 1.55657 43.4764 1.394 44.5827 1.394V0.393998C43.377 0.393998 42.2353 0.57143 41.1606 0.929658L41.4768 1.87834ZM44.5827 1.394C45.7468 1.394 46.7886 1.52584 47.7123 1.7836L47.9811 0.820401C46.9554 0.534161 45.8212 0.393998 44.5827 0.393998V1.394ZM47.7123 1.7836C48.6542 2.04646 49.4893 2.3837 50.2208 2.79247L50.7086 1.91953C49.8987 1.46696 48.9885 1.10153 47.9811 0.820401L47.7123 1.7836ZM50.2307 2.79789C50.9648 3.18653 51.5947 3.63616 52.1244 4.14469L52.817 3.42331C52.2133 2.84384 51.5059 2.34147 50.6986 1.91411L50.2307 2.79789ZM52.1394 4.1585C52.7107 4.66388 53.175 5.15119 53.537 5.61972L54.3283 5.00827C53.9197 4.47948 53.4093 3.94679 52.802 3.4095L52.1394 4.1585ZM53.6621 4.89353L49.7521 7.40953L50.2933 8.25047L54.2032 5.73447L53.6621 4.89353ZM50.3677 7.46813C49.3651 6.5121 48.3844 5.82324 47.4245 5.42941L47.0449 6.35458C47.853 6.6861 48.731 7.28923 49.6777 8.19187L50.3677 7.46813ZM47.4389 5.43559C46.5127 5.02126 45.5364 4.814 44.5147 4.814V5.814C45.397 5.814 46.234 5.99207 47.0305 6.34841L47.4389 5.43559ZM44.5147 4.814C43.8823 4.814 43.3111 4.8989 42.8118 5.08283L43.1575 6.02117C43.5196 5.88776 43.9684 5.814 44.5147 5.814V4.814ZM42.8266 5.07766C42.3718 5.22926 41.9736 5.43775 41.6446 5.71189L42.2848 6.48011C42.4998 6.30091 42.7816 6.14674 43.1428 6.02634L42.8266 5.07766ZM41.6647 5.696C41.3436 5.93683 41.0817 6.22393 40.8868 6.55806L41.7506 7.06193C41.873 6.85207 42.0418 6.66317 42.2647 6.496L41.6647 5.696ZM40.8715 6.58639C40.7083 6.9128 40.6147 7.24984 40.6147 7.592H41.6147C41.6147 7.4355 41.6571 7.2512 41.7659 7.03361L40.8715 6.58639ZM40.6147 7.592C40.6147 8.13282 40.7513 8.62835 41.0387 9.05935L41.8707 8.50465C41.7047 8.25565 41.6147 7.95784 41.6147 7.592H40.6147ZM41.0615 9.09091C41.3581 9.46842 41.7612 9.80061 42.2514 10.0947L42.7659 9.23725C42.3495 8.98739 42.0499 8.73024 41.8478 8.47309L41.0615 9.09091ZM42.2606 10.1001C42.7724 10.3925 43.3823 10.6542 44.0846 10.8883L44.4008 9.93966C43.7431 9.72042 43.197 9.48345 42.7568 9.23188L42.2606 10.1001ZM44.0892 10.8899C44.8035 11.1203 45.6068 11.3497 46.4985 11.5783L46.7469 10.6097C45.8705 10.385 45.0872 10.1611 44.3962 9.93814L44.0892 10.8899ZM79.2701 19.526L79.6929 19.793L79.9581 19.3731L79.54 19.1051L79.2701 19.526ZM77.3321 21.872L76.9897 21.5075L76.9842 21.5129L77.3321 21.872ZM74.9181 23.708L75.1638 24.1436L75.1721 24.1387L74.9181 23.708ZM72.0621 24.864L71.9333 24.3809L72.0621 24.864ZM64.1401 24.32L63.9423 24.7792L63.9448 24.7803L64.1401 24.32ZM60.2641 21.736L59.9069 22.086L59.9142 22.0932L60.2641 21.736ZM57.6801 17.86L57.2198 18.0553L57.2209 18.0578L57.6801 17.86ZM57.6801 8.374L58.1393 8.57181L58.1404 8.56927L57.6801 8.374ZM60.2641 4.498L59.9106 4.14445L60.2641 4.498ZM64.1401 1.88L63.9448 1.4197L63.9423 1.42079L64.1401 1.88ZM72.0621 1.336L72.191 0.852881L72.1909 0.852881L72.0621 1.336ZM74.9181 2.526L74.6641 2.95676L74.6725 2.96149L74.9181 2.526ZM77.3321 4.328L76.9842 4.68716L76.9898 4.69242L77.3321 4.328ZM79.2701 6.674L79.54 7.09494L79.9581 6.82691L79.6929 6.407L79.2701 6.674ZM75.2921 9.224L74.8482 9.45416L75.1005 9.94072L75.562 9.64494L75.2921 9.224ZM72.6741 6.3L72.3948 6.71476L72.4007 6.71863L72.6741 6.3ZM66.0781 5.824L66.2877 6.27808L66.2971 6.27349L66.0781 5.824ZM63.7661 7.524L64.1313 7.86562L64.1366 7.85976L63.7661 7.524ZM62.2021 10.04L62.6656 10.2276L62.6671 10.2238L62.2021 10.04ZM62.2021 16.194L61.7371 16.3778L61.7386 16.3816L62.2021 16.194ZM63.7661 18.71L63.3956 19.0458L63.401 19.0516L63.7661 18.71ZM66.0781 20.41L65.8591 20.8596L65.8686 20.864L66.0781 20.41ZM72.6741 19.934L72.9475 20.3527L72.9534 20.3487L72.6741 19.934ZM75.2921 16.976L75.562 16.5551L75.1005 16.2593L74.8482 16.7458L75.2921 16.976ZM78.8474 19.259C78.3261 20.0843 77.7072 20.8336 76.9898 21.5076L77.6745 22.2364C78.453 21.505 79.1261 20.6903 79.6929 19.793L78.8474 19.259ZM76.9842 21.5129C76.2877 22.1876 75.5147 22.7757 74.6641 23.2773L75.1721 24.1387C76.0896 23.5976 76.9259 22.9617 77.68 22.2311L76.9842 21.5129ZM74.6725 23.2725C73.8267 23.7496 72.9141 24.1193 71.9333 24.3809L72.1909 25.3471C73.2501 25.0647 74.2416 24.6637 75.1638 24.1435L74.6725 23.2725ZM71.9333 24.3809C70.9566 24.6413 69.946 24.772 68.9001 24.772V25.772C70.0303 25.772 71.1276 25.6307 72.1909 25.3471L71.9333 24.3809ZM68.9001 24.772C67.2877 24.772 65.7676 24.4673 64.3354 23.8597L63.9448 24.7803C65.5046 25.442 67.1579 25.772 68.9001 25.772V24.772ZM64.3379 23.8608C62.9193 23.2497 61.6793 22.4224 60.614 21.3788L59.9142 22.0932C61.0703 23.2256 62.4143 24.121 63.9423 24.7792L64.3379 23.8608ZM60.6213 21.3861C59.5778 20.3208 58.7504 19.0808 58.1393 17.6622L57.2209 18.0578C57.8792 19.5859 58.7745 20.9298 59.9069 22.0859L60.6213 21.3861ZM58.1404 17.6647C57.5328 16.2325 57.2281 14.7124 57.2281 13.1H56.2281C56.2281 14.8422 56.5581 16.4955 57.2198 18.0553L58.1404 17.6647ZM57.2281 13.1C57.2281 11.4875 57.5328 9.97983 58.1393 8.57181L57.2209 8.17619C56.5581 9.71484 56.2281 11.3578 56.2281 13.1H57.2281ZM58.1404 8.56927C58.7514 7.12903 59.5776 5.89162 60.6177 4.85155L59.9106 4.14445C58.7746 5.28038 57.8782 6.62697 57.2198 8.17872L58.1404 8.56927ZM60.6177 4.85155C61.6826 3.78661 62.9215 2.94938 64.3379 2.33921L63.9423 1.42079C62.4121 2.07996 61.067 2.98806 59.9106 4.14445L60.6177 4.85155ZM64.3354 2.34029C65.7676 1.73268 67.2877 1.428 68.9001 1.428V0.428C67.1579 0.428 65.5046 0.757989 63.9448 1.41971L64.3354 2.34029ZM68.9001 1.428C69.946 1.428 70.9566 1.55866 71.9333 1.81912L72.1909 0.852881C71.1276 0.569335 70.0303 0.428 68.9001 0.428V1.428ZM71.9333 1.81912C72.9106 2.07974 73.8204 2.45909 74.6641 2.95668L75.1721 2.09532C74.2479 1.55024 73.2536 1.13625 72.191 0.852881L71.9333 1.81912ZM74.6725 2.96149C75.5194 3.43928 76.2897 4.01432 76.9842 4.68712L77.68 3.96888C76.9239 3.23634 76.0848 2.61005 75.1638 2.09051L74.6725 2.96149ZM76.9898 4.69242C77.7072 5.36636 78.3261 6.11567 78.8474 6.941L79.6929 6.407C79.1261 5.50966 78.453 4.69497 77.6745 3.96357L76.9898 4.69242ZM79.0003 6.25306L75.0223 8.80306L75.562 9.64494L79.54 7.09494L79.0003 6.25306ZM75.736 8.99384C75.0633 7.69652 74.1332 6.65568 72.9475 5.88136L72.4007 6.71863C73.4364 7.39498 74.2516 8.30348 74.8482 9.45416L75.736 8.99384ZM72.9534 5.88528C71.756 5.07886 70.3998 4.678 68.9001 4.678V5.678C70.2111 5.678 71.3709 6.02514 72.3948 6.71472L72.9534 5.88528ZM68.9001 4.678C67.828 4.678 66.8124 4.91012 65.8591 5.37451L66.2971 6.27349C67.1119 5.87655 67.9775 5.678 68.9001 5.678V4.678ZM65.8686 5.37002C64.9232 5.80636 64.0979 6.41335 63.3956 7.18824L64.1366 7.85976C64.749 7.18398 65.465 6.65764 66.2877 6.27798L65.8686 5.37002ZM63.401 7.18242C62.6971 7.93487 62.1435 8.82835 61.7371 9.85617L62.6671 10.2238C63.0314 9.30231 63.5205 8.51846 64.1313 7.86558L63.401 7.18242ZM61.7386 9.8524C61.3278 10.8675 61.1241 11.9516 61.1241 13.1H62.1241C62.1241 12.0724 62.3058 11.1165 62.6656 10.2276L61.7386 9.8524ZM61.1241 13.1C61.1241 14.2485 61.3278 15.3424 61.7371 16.3778L62.6671 16.0102C62.3058 15.0963 62.1241 14.1275 62.1241 13.1H61.1241ZM61.7386 16.3816C62.1449 17.3854 62.6969 18.2748 63.3956 19.0458L64.1366 18.3742C63.5207 17.6946 63.03 16.9066 62.6656 16.0064L61.7386 16.3816ZM63.401 19.0516C64.101 19.7998 64.9215 20.4027 65.8591 20.8595L66.2971 19.9605C65.4668 19.556 64.7459 19.0255 64.1313 18.3684L63.401 19.0516ZM65.8686 20.864C66.8199 21.303 67.8323 21.522 68.9001 21.522V20.522C67.9733 20.522 67.1043 20.333 66.2877 19.956L65.8686 20.864ZM68.9001 21.522C70.3965 21.522 71.7506 21.1343 72.9475 20.3526L72.4007 19.5154C71.3763 20.1844 70.2144 20.522 68.9001 20.522V21.522ZM72.9534 20.3487C74.1356 19.5525 75.064 18.5022 75.736 17.2062L74.8482 16.7458C74.2509 17.8978 73.4339 18.8195 72.3948 19.5193L72.9534 20.3487ZM75.0223 17.3969L79.0003 19.9469L79.54 19.1051L75.562 16.5551L75.0223 17.3969ZM97.6307 1.88L97.4243 2.33547L97.4302 2.33808L97.6307 1.88ZM101.405 4.498L101.044 4.84413L101.047 4.84781L101.405 4.498ZM103.887 8.374L103.421 8.55729L103.425 8.5658L103.887 8.374ZM99.4667 23.368L99.744 23.784L99.746 23.7827L99.4667 23.368ZM95.8627 24.932L95.4317 25.1855L95.6196 25.505L95.98 25.418L95.8627 24.932ZM93.4827 20.886L93.447 20.3873L92.643 20.4447L93.0517 21.1395L93.4827 20.886ZM96.0667 20.138L96.3106 20.5745L96.3147 20.5721L96.0667 20.138ZM98.1067 18.438L98.4908 18.7581L98.4959 18.7519L98.1067 18.438ZM99.4327 16.024L99.9046 16.1892L99.9058 16.1856L99.4327 16.024ZM99.3647 10.074L98.8937 10.2422L98.8974 10.252L99.3647 10.074ZM97.9367 7.592L97.5596 7.92039V7.92039L97.9367 7.592ZM95.7267 5.926L95.5079 6.37564L95.5126 6.37787L95.7267 5.926ZM90.1167 5.926L89.9026 5.4741L89.8979 5.47638L90.1167 5.926ZM87.9067 7.592L87.5355 7.2568L87.5296 7.26361L87.9067 7.592ZM86.4447 10.074L85.9773 9.89596L85.9738 9.90583L86.4447 10.074ZM86.4447 16.126L85.9737 16.2942L85.9774 16.304L86.4447 16.126ZM87.9067 18.608L87.5296 18.9364L87.5356 18.9431L87.9067 18.608ZM90.1167 20.274L89.8979 20.7236L89.9026 20.7259L90.1167 20.274ZM92.9387 20.886H93.4387V20.386H92.9387V20.886ZM92.9387 25.306V25.806H93.4387V25.306H92.9387ZM88.2467 24.354L88.4471 23.8959L88.2467 24.354ZM84.4727 21.736L84.1118 22.0821L84.4727 21.736ZM81.9567 17.86L81.4914 18.0433L81.4949 18.0518L81.9567 17.86ZM81.9567 8.374L81.4939 8.18468L81.4924 8.1883L81.9567 8.374ZM84.4727 4.498L84.8299 4.84783L84.8335 4.84411L84.4727 4.498ZM88.2467 1.88L88.4471 2.33812L88.453 2.33543L88.2467 1.88ZM92.9387 1.394C94.5487 1.394 96.0419 1.70902 97.4243 2.33543L97.837 1.42457C96.3181 0.736308 94.6833 0.393998 92.9387 0.393998V1.394ZM97.4302 2.33808C98.8224 2.94713 100.025 3.78235 101.044 4.84411L101.765 4.15189C100.653 2.99232 99.3403 2.0822 97.8311 1.42192L97.4302 2.33808ZM101.047 4.84781C102.063 5.88542 102.855 7.1199 103.421 8.55726L104.352 8.19074C103.739 6.6361 102.877 5.28657 101.762 4.14819L101.047 4.84781ZM103.425 8.5658C104.01 9.97525 104.305 11.4851 104.305 13.1H105.305C105.305 11.3603 104.987 9.71942 104.348 8.1822L103.425 8.5658ZM104.305 13.1C104.305 14.4769 104.097 15.7833 103.684 17.0219L104.633 17.3381C105.081 15.9927 105.305 14.5791 105.305 13.1H104.305ZM103.684 17.0219C103.27 18.2639 102.684 19.382 101.925 20.3792L102.721 20.9848C103.548 19.8967 104.186 18.6801 104.633 17.3381L103.684 17.0219ZM101.925 20.3792C101.165 21.3774 100.254 22.2352 99.1874 22.9533L99.746 23.7827C100.901 23.0048 101.893 22.072 102.721 20.9848L101.925 20.3792ZM99.1893 22.952C98.1518 23.6436 97.005 24.1419 95.7453 24.446L95.98 25.418C97.3497 25.0874 98.6055 24.543 99.744 23.784L99.1893 22.952ZM96.2936 24.6785L93.9136 20.6325L93.0517 21.1395L95.4317 25.1855L96.2936 24.6785ZM93.5183 21.3847C94.5374 21.3119 95.4708 21.0438 96.3106 20.5745L95.8227 19.7015C95.1212 20.0936 94.3319 20.3241 93.447 20.3873L93.5183 21.3847ZM96.3147 20.5721C97.1581 20.0902 97.8847 19.4854 98.4908 18.7581L97.7225 18.1179C97.1953 18.7506 96.5618 19.2792 95.8186 19.7039L96.3147 20.5721ZM98.4959 18.7519C99.1006 18.002 99.5696 17.1463 99.9046 16.1892L98.9607 15.8588C98.661 16.715 98.246 17.4687 97.7175 18.1241L98.4959 18.7519ZM99.9058 16.1856C100.242 15.2022 100.409 14.1728 100.409 13.1H99.4087C99.4087 14.0672 99.2584 14.9871 98.9595 15.8624L99.9058 16.1856ZM100.409 13.1C100.409 11.9767 100.217 10.9074 99.8319 9.896L98.8974 10.252C99.2374 11.1446 99.4087 12.0927 99.4087 13.1H100.409ZM99.8355 9.90583C99.4763 8.90005 98.9701 8.01721 98.3137 7.26361L97.5596 7.92039C98.1273 8.57212 98.573 9.34395 98.8938 10.2422L99.8355 9.90583ZM98.3137 7.26361C97.6554 6.50779 96.8628 5.91093 95.9407 5.47413L95.5126 6.37787C96.3131 6.75707 96.9939 7.27087 97.5596 7.92039L98.3137 7.26361ZM95.9454 5.47638C95.0324 5.03221 94.0272 4.814 92.9387 4.814V5.814C93.8901 5.814 94.7436 6.00379 95.5079 6.37562L95.9454 5.47638ZM92.9387 4.814C91.8499 4.814 90.8355 5.03224 89.9026 5.47413L90.3307 6.37787C91.1205 6.00375 91.9874 5.814 92.9387 5.814V4.814ZM89.8979 5.47638C89.0007 5.91286 88.2126 6.50736 87.5356 7.25686L88.2777 7.92714C88.8701 7.2713 89.5553 6.75514 90.3354 6.37562L89.8979 5.47638ZM87.5296 7.26361C86.8755 8.01466 86.3591 8.89408 85.9774 9.896L86.9119 10.252C87.2556 9.34991 87.7138 8.57467 88.2837 7.92039L87.5296 7.26361ZM85.9738 9.90583C85.6135 10.9147 85.4347 11.9805 85.4347 13.1H86.4347C86.4347 12.0889 86.5958 11.1373 86.9155 10.2422L85.9738 9.90583ZM85.4347 13.1C85.4347 14.2195 85.6135 15.2853 85.9738 16.2942L86.9155 15.9578C86.5958 15.0627 86.4347 14.1111 86.4347 13.1H85.4347ZM85.9774 16.304C86.3591 17.3059 86.8755 18.1853 87.5296 18.9364L88.2837 18.2796C87.7138 17.6253 87.2556 16.8501 86.9119 15.948L85.9774 16.304ZM87.5356 18.9431C88.2126 19.6926 89.0007 20.2871 89.8979 20.7236L90.3354 19.8244C89.5553 19.4449 88.8701 18.9287 88.2777 18.2729L87.5356 18.9431ZM89.9026 20.7259C90.8355 21.1678 91.8499 21.386 92.9387 21.386V20.386C91.9874 20.386 91.1205 20.1962 90.3307 19.8221L89.9026 20.7259ZM92.4387 20.886V25.306H93.4387V20.886H92.4387ZM92.9387 24.806C91.3261 24.806 89.8308 24.5013 88.4471 23.8959L88.0462 24.8121C89.5638 25.476 91.1965 25.806 92.9387 25.806V24.806ZM88.4471 23.8959C87.0549 23.2869 85.8519 22.4516 84.8335 21.3899L84.1118 22.0821C85.2241 23.2417 86.537 24.1518 88.0462 24.8121L88.4471 23.8959ZM84.8335 21.3899C83.8126 20.3256 83.0075 19.0864 82.4184 17.6682L81.4949 18.0518C82.1298 19.5802 83.002 20.9251 84.1118 22.0821L84.8335 21.3899ZM82.4219 17.6767C81.8565 16.2416 81.5727 14.7174 81.5727 13.1H80.5727C80.5727 14.8373 80.8781 16.4864 81.4915 18.0433L82.4219 17.6767ZM81.5727 13.1C81.5727 11.4826 81.8565 9.97065 82.4209 8.55969L81.4924 8.1883C80.8781 9.72402 80.5727 11.3627 80.5727 13.1H81.5727ZM82.4194 8.56332C83.0085 7.12341 83.8125 5.88684 84.8299 4.84781L84.1154 4.14819C83.0021 5.28515 82.1288 6.63259 81.4939 8.18468L82.4194 8.56332ZM84.8335 4.84411C85.8519 3.78235 87.0549 2.94713 88.4471 2.33808L88.0462 1.42192C86.537 2.0822 85.2241 2.99232 84.1118 4.15189L84.8335 4.84411ZM88.453 2.33543C89.8354 1.70902 91.3286 1.394 92.9387 1.394V0.393998C91.194 0.393998 89.5592 0.736308 88.0403 1.42457L88.453 2.33543ZM110.24 1.2L110.703 1.00943L110.575 0.699998H110.24V1.2ZM117.108 17.86L117.437 18.2365L117.707 18.0007L117.571 17.6694L117.108 17.86ZM113.334 21.158L112.872 21.3486L113.138 21.9936L113.663 21.5345L113.334 21.158ZM105.106 1.2V0.699998H104.359L104.644 1.39057L105.106 1.2ZM124.656 1.2V0.699998H124.321L124.194 1.01089L124.656 1.2ZM129.79 1.2L130.253 1.38968L130.536 0.699998H129.79V1.2ZM120.032 25V25.5H120.368L120.495 25.1897L120.032 25ZM114.932 25L114.47 24.8109L114.188 25.5H114.932V25ZM109.778 1.39056L116.646 18.0506L117.571 17.6694L110.703 1.00943L109.778 1.39056ZM116.779 17.4835L113.005 20.7815L113.663 21.5345L117.437 18.2365L116.779 17.4835ZM113.797 20.9674L105.569 1.00943L104.644 1.39057L112.872 21.3486L113.797 20.9674ZM105.106 1.7H110.24V0.699998H105.106V1.7ZM124.656 1.7H129.79V0.699998H124.656V1.7ZM129.328 1.01032L119.57 24.8103L120.495 25.1897L130.253 1.38968L129.328 1.01032ZM120.032 24.5H114.932V25.5H120.032V24.5ZM115.395 25.1891L125.119 1.38911L124.194 1.01089L114.47 24.8109L115.395 25.1891ZM145.318 15.514V16.014H145.818V15.514H145.318ZM140.014 15.514L139.566 15.7362L139.703 16.014H140.014V15.514ZM137.804 11.06V10.56H136.997L137.356 11.2822L137.804 11.06ZM145.318 11.06H145.818V10.56H145.318V11.06ZM148.14 1.2L148.639 1.19573L148.635 0.699998H148.14V1.2ZM148.174 5.178V5.678H148.678L148.673 5.17373L148.174 5.178ZM136.988 5.178V4.678H136.489L136.488 5.17693L136.988 5.178ZM136.954 21.056L136.454 21.0549L136.452 21.556H136.954V21.056ZM148.14 21.056H148.64V20.556H148.14V21.056ZM148.14 25V25.5H148.64V25H148.14ZM132.194 25H131.694V25.5H132.194V25ZM132.194 1.2V0.699998H131.694V1.2H132.194ZM145.318 15.014H140.014V16.014H145.318V15.014ZM140.461 15.2918L138.251 10.8378L137.356 11.2822L139.566 15.7362L140.461 15.2918ZM137.804 11.56H145.318V10.56H137.804V11.56ZM144.818 11.06V15.514H145.818V11.06H144.818ZM147.64 1.20427L147.674 5.18227L148.673 5.17373L148.639 1.19573L147.64 1.20427ZM148.174 4.678H136.988V5.678H148.174V4.678ZM136.488 5.17693L136.454 21.0549L137.454 21.0571L137.488 5.17907L136.488 5.17693ZM136.954 21.556H148.14V20.556H136.954V21.556ZM147.64 21.056V25H148.64V21.056H147.64ZM148.14 24.5H132.194V25.5H148.14V24.5ZM132.694 25V1.2H131.694V25H132.694ZM132.194 1.7H148.14V0.699998H132.194V1.7ZM171.942 25V25.5H172.988L172.331 24.6858L171.942 25ZM165.89 25L165.501 25.3149L165.651 25.5H165.89V25ZM162.252 20.512L161.979 20.0927L161.513 20.3953L161.863 20.8269L162.252 20.512ZM166.23 17.928L166.619 17.6138L166.335 17.2631L165.957 17.5087L166.23 17.928ZM166.536 17.18L166.744 17.6345L166.745 17.6342L166.536 17.18ZM165.006 17.724L164.89 17.2376L164.884 17.2389L165.006 17.724ZM163.306 17.962L163.323 18.4617L163.331 18.4614L163.339 18.4609L163.306 17.962ZM160.824 17.996L160.812 18.496H160.824V17.996ZM157.016 17.962V17.462H156.516V17.962H157.016ZM157.016 25V25.5H157.516V25H157.016ZM152.222 25H151.722V25.5H152.222V25ZM152.222 1.2V0.699998H151.722V1.2H152.222ZM166.23 1.88L166.023 2.33535L166.035 2.34062L166.23 1.88ZM168.882 3.682L168.523 4.03024L168.528 4.03559L168.533 4.04079L168.882 3.682ZM170.684 6.368L170.221 6.55895L170.227 6.57107L170.684 6.368ZM170.004 14.188L169.59 13.9074L169.587 13.9123L170.004 14.188ZM157.016 13.202H156.516V13.702H157.016V13.202ZM165.584 12.148L165.937 12.5016L165.943 12.4959L165.584 12.148ZM166.332 7.83L165.864 8.008L165.87 8.02176L165.876 8.03518L166.332 7.83ZM165.55 6.572L165.173 6.90125L165.179 6.90771L165.185 6.91397L165.55 6.572ZM164.394 5.722L164.161 6.16446L164.174 6.17164L164.188 6.17796L164.394 5.722ZM157.016 5.382V4.882H156.516V5.382H157.016ZM171.942 24.5H165.89V25.5H171.942V24.5ZM166.278 24.6851L162.64 20.1971L161.863 20.8269L165.501 25.3149L166.278 24.6851ZM162.524 20.9313L166.502 18.3473L165.957 17.5087L161.979 20.0927L162.524 20.9313ZM165.841 18.2422L171.553 25.3142L172.331 24.6858L166.619 17.6138L165.841 18.2422ZM166.327 16.7255C165.807 16.9641 165.328 17.1333 164.89 17.2376L165.121 18.2104C165.635 18.088 166.177 17.8946 166.744 17.6345L166.327 16.7255ZM164.884 17.2389C164.47 17.3426 163.935 17.4189 163.272 17.4631L163.339 18.4609C164.036 18.4144 164.635 18.3321 165.127 18.2091L164.884 17.2389ZM163.288 17.4623C162.639 17.4847 161.818 17.496 160.824 17.496V18.496C161.824 18.496 162.658 18.4846 163.323 18.4617L163.288 17.4623ZM160.835 17.4961C159.855 17.4733 158.581 17.462 157.016 17.462V18.462C158.578 18.462 159.843 18.4733 160.812 18.4959L160.835 17.4961ZM156.516 17.962V25H157.516V17.962H156.516ZM157.016 24.5H152.222V25.5H157.016V24.5ZM152.722 25V1.2H151.722V25H152.722ZM152.222 1.7H163V0.699998H152.222V1.7ZM163 1.7C164.088 1.7 165.094 1.913 166.023 2.33518L166.437 1.42482C165.371 0.940327 164.223 0.699998 163 0.699998V1.7ZM166.035 2.34062C166.995 2.74605 167.823 3.30917 168.523 4.03024L169.24 3.33376C168.444 2.5135 167.504 1.87529 166.424 1.41938L166.035 2.34062ZM168.533 4.04079C169.253 4.7388 169.816 5.57613 170.221 6.55888L171.146 6.17712C170.69 5.07453 170.052 4.12119 169.23 3.32321L168.533 4.04079ZM170.227 6.57107C170.651 7.52484 170.864 8.5434 170.864 9.632H171.864C171.864 8.4086 171.623 7.25115 171.141 6.16493L170.227 6.57107ZM170.864 9.632C170.864 11.2375 170.437 12.6573 169.59 13.9074L170.417 14.4686C171.383 13.044 171.864 11.4265 171.864 9.632H170.864ZM169.587 13.9123C168.753 15.1735 167.668 16.1082 166.327 16.7258L166.745 17.6342C168.259 16.9371 169.486 15.8771 170.421 14.4637L169.587 13.9123ZM157.016 13.702H163V12.702H157.016V13.702ZM163 13.702C164.148 13.702 165.138 13.3007 165.937 12.5016L165.23 11.7944C164.624 12.4006 163.891 12.702 163 12.702V13.702ZM165.943 12.4959C166.753 11.66 167.138 10.5629 167.138 9.258H166.138C166.138 10.3558 165.82 11.1854 165.225 11.8001L165.943 12.4959ZM167.138 9.258C167.138 8.68882 167.021 8.14287 166.788 7.62482L165.876 8.03518C166.051 8.4238 166.138 8.82984 166.138 9.258H167.138ZM166.799 7.652C166.595 7.11673 166.3 6.64135 165.914 6.23003L165.185 6.91397C165.479 7.22798 165.706 7.59127 165.864 8.008L166.799 7.652ZM165.926 6.24275C165.56 5.82432 165.115 5.49854 164.599 5.26604L164.188 6.17796C164.578 6.35345 164.905 6.59434 165.173 6.90125L165.926 6.24275ZM164.627 5.27954C164.122 5.01412 163.577 4.882 163 4.882V5.882C163.419 5.882 163.804 5.97654 164.161 6.16446L164.627 5.27954ZM163 4.882H157.016V5.882H163V4.882ZM156.516 5.382V13.1H157.516V5.382H156.516ZM156.516 13.1V13.134H157.516V13.1H156.516ZM156.516 13.134V13.202H157.516V13.134H156.516ZM202.752 21.906L203.106 22.2596L203.465 21.9003L203.1 21.5469L202.752 21.906ZM199.352 25.306L198.996 25.6564L199.349 26.0163L199.706 25.6596L199.352 25.306ZM197.482 23.402L197.839 23.0516L197.834 23.0467L197.482 23.402ZM194.014 19.968L193.659 20.3202L193.662 20.3233L194.014 19.968ZM189.458 15.378L189.813 15.0258L189.482 14.6925L189.129 15.0017L189.458 15.378ZM189.186 15.616L188.857 15.2397L188.854 15.2423L189.186 15.616ZM189.356 19.832L189.016 20.1984L189.022 20.2042L189.029 20.2098L189.356 19.832ZM190.512 20.546L190.318 21.0068L190.333 21.0128L190.347 21.0179L190.512 20.546ZM192.79 20.75L192.826 21.2487H192.826L192.79 20.75ZM193.708 20.58L194.186 20.4338L194.04 19.9548L193.561 20.1021L193.708 20.58ZM194.966 24.694L195.118 25.1705L195.589 25.0206L195.444 24.5478L194.966 24.694ZM193.436 25.068L193.351 24.5754L193.347 24.5761L193.436 25.068ZM188.676 24.592L188.491 25.0562L188.676 24.592ZM185.99 22.96L185.648 23.3244L185.654 23.3298L185.659 23.3349L185.99 22.96ZM184.188 20.512L183.739 20.7312L184.188 20.512ZM184.12 14.63L183.665 14.4239L183.662 14.429L184.12 14.63ZM185.956 12.114L185.644 11.7236L185.631 11.7339L185.619 11.745L185.956 12.114ZM186.126 11.978L186.439 12.3684L186.824 12.0603L186.521 11.671L186.126 11.978ZM185.004 10.006L184.538 10.1865L185.004 10.006ZM185.174 5.11L185.629 5.31875L185.174 5.11ZM189.152 1.404L189.325 1.87322L189.332 1.87067L189.152 1.404ZM194.184 1.234L194.026 1.70834L194.033 1.71073L194.041 1.71291L194.184 1.234ZM196.02 2.05L195.755 2.47407L195.763 2.47875L196.02 2.05ZM197.516 3.206L197.163 3.55967L197.172 3.5685L197.516 3.206ZM198.74 4.498L199.043 4.89588L199.461 4.57774L199.123 4.17593L198.74 4.498ZM194.898 7.422L194.49 7.71101L194.789 8.13324L195.201 7.81988L194.898 7.422ZM193.606 5.926L193.951 5.56393L193.606 5.926ZM190.104 6.028L190.466 6.37332L190.474 6.36513L190.104 6.028ZM190.07 9.258L190.518 9.03439L190.472 8.94312L190.394 8.87703L190.07 9.258ZM190.104 9.326L189.657 9.54961L189.694 9.62281L189.752 9.68053L190.104 9.326ZM196.258 15.446L195.906 15.8005L196.758 16.6484V15.446H196.258ZM196.258 12.012L196.127 11.5296L195.758 11.6301V12.012H196.258ZM197.21 11.774L197.325 12.2607L197.338 12.2576L197.351 12.2537L197.21 11.774ZM198.434 11.434L198.562 11.9175L198.573 11.9144L198.585 11.9108L198.434 11.434ZM199.76 11.06L199.882 11.5451L199.893 11.5423L199.904 11.5389L199.76 11.06ZM201.018 10.686H201.518V10.0178L200.877 10.2063L201.018 10.686ZM200.882 18.71L200.397 18.5887L200.394 18.6003L200.392 18.6119L200.882 18.71ZM200.576 19.798L200.105 19.6316L199.998 19.934L200.228 20.1571L200.576 19.798ZM202.399 21.5524L198.999 24.9524L199.706 25.6596L203.106 22.2596L202.399 21.5524ZM199.709 24.9556L197.839 23.0516L197.126 23.7524L198.996 25.6564L199.709 24.9556ZM197.834 23.0467L194.366 19.6127L193.662 20.3233L197.13 23.7573L197.834 23.0467ZM194.369 19.6158L189.813 15.0258L189.103 15.7302L193.659 20.3202L194.369 19.6158ZM189.129 15.0017L188.857 15.2397L189.516 15.9923L189.788 15.7543L189.129 15.0017ZM188.854 15.2423C188.143 15.8745 187.768 16.6647 187.768 17.588H188.768C188.768 16.9699 189.006 16.4455 189.518 15.9897L188.854 15.2423ZM187.768 17.588C187.768 18.1013 187.891 18.5895 188.132 19.0459L189.016 18.5781C188.85 18.2639 188.768 17.9361 188.768 17.588H187.768ZM188.132 19.0459C188.362 19.4805 188.657 19.8653 189.016 20.1984L189.697 19.4656C189.421 19.2093 189.194 18.9142 189.016 18.5781L188.132 19.0459ZM189.029 20.2098C189.41 20.5403 189.841 20.8058 190.318 21.0068L190.706 20.0852C190.322 19.9235 189.982 19.713 189.684 19.4542L189.029 20.2098ZM190.347 21.0179C190.853 21.195 191.374 21.284 191.906 21.284V20.284C191.487 20.284 191.078 20.2143 190.677 20.0741L190.347 21.0179ZM191.906 21.284C192.192 21.284 192.499 21.2721 192.826 21.2487L192.755 20.2513C192.447 20.2732 192.165 20.284 191.906 20.284V21.284ZM192.826 21.2487C193.18 21.2234 193.523 21.1601 193.855 21.0579L193.561 20.1021C193.304 20.1813 193.035 20.2312 192.755 20.2513L192.826 21.2487ZM193.23 20.7262L194.488 24.8402L195.444 24.5478L194.186 20.4338L193.23 20.7262ZM194.815 24.2175C194.338 24.3693 193.85 24.4886 193.351 24.5754L193.522 25.5606C194.065 25.4661 194.597 25.3361 195.118 25.1705L194.815 24.2175ZM193.347 24.5761C192.879 24.6612 192.398 24.704 191.906 24.704V25.704C192.457 25.704 192.997 25.6561 193.526 25.5599L193.347 24.5761ZM191.906 24.704C190.835 24.704 189.821 24.5114 188.862 24.1278L188.491 25.0562C189.572 25.4886 190.711 25.704 191.906 25.704V24.704ZM188.862 24.1278C187.891 23.7395 187.046 23.2247 186.321 22.5851L185.659 23.3349C186.476 24.0553 187.421 24.6285 188.491 25.0562L188.862 24.1278ZM186.333 22.5956C185.629 21.9347 185.065 21.168 184.638 20.2928L183.739 20.7312C184.219 21.7146 184.855 22.5799 185.648 23.3244L186.333 22.5956ZM184.638 20.2928C184.217 19.4308 184.008 18.531 184.008 17.588H183.008C183.008 18.685 183.253 19.7346 183.739 20.7312L184.638 20.2928ZM184.008 17.588C184.008 16.6126 184.199 15.6952 184.578 14.831L183.662 14.429C183.226 15.4234 183.008 16.4781 183.008 17.588H184.008ZM184.576 14.8361C184.978 13.9476 185.549 13.164 186.294 12.483L185.619 11.745C184.777 12.5147 184.124 13.4084 183.665 14.4239L184.576 14.8361ZM186.269 12.5044L186.439 12.3684L185.814 11.5876L185.644 11.7236L186.269 12.5044ZM186.521 11.671C186.074 11.0963 185.724 10.4814 185.471 9.8255L184.538 10.1865C184.828 10.9359 185.227 11.6356 185.732 12.285L186.521 11.671ZM185.471 9.8255C185.221 9.18173 185.096 8.50637 185.096 7.796H184.096C184.096 8.62696 184.243 9.42494 184.538 10.1865L185.471 9.8255ZM185.096 7.796C185.096 6.91373 185.274 6.08985 185.629 5.31875L184.72 4.90125C184.304 5.80748 184.096 6.77427 184.096 7.796H185.096ZM185.629 5.31875C185.986 4.54153 186.491 3.84607 187.148 3.23114L186.465 2.50086C185.717 3.2006 185.134 4.00113 184.72 4.90125L185.629 5.31875ZM187.148 3.23114C187.804 2.61716 188.529 2.16633 189.325 1.87317L188.979 0.934828C188.052 1.27634 187.214 1.80018 186.465 2.50086L187.148 3.23114ZM189.332 1.87067C190.158 1.55282 191.015 1.394 191.906 1.394V0.393998C190.893 0.393998 189.914 0.575181 188.973 0.937327L189.332 1.87067ZM191.906 1.394C192.7 1.394 193.405 1.50128 194.026 1.70834L194.342 0.759656C193.604 0.513386 192.79 0.393998 191.906 0.393998V1.394ZM194.041 1.71291C194.682 1.90545 195.253 2.15999 195.755 2.474L196.285 1.626C195.7 1.26 195.046 0.97055 194.328 0.755085L194.041 1.71291ZM195.763 2.47875C196.298 2.79948 196.763 3.16013 197.163 3.55955L197.87 2.85245C197.408 2.39054 196.876 1.98052 196.278 1.62125L195.763 2.47875ZM197.172 3.5685C197.613 3.98778 198.008 4.40502 198.358 4.82007L199.123 4.17593C198.747 3.72964 198.326 3.28555 197.861 2.8435L197.172 3.5685ZM198.437 4.10012L194.595 7.02412L195.201 7.81988L199.043 4.89588L198.437 4.10012ZM195.306 7.13299C194.903 6.56303 194.451 6.03983 193.951 5.56393L193.261 6.28807C193.714 6.71883 194.123 7.19297 194.49 7.71101L195.306 7.13299ZM193.951 5.56393C193.382 5.02205 192.692 4.746 191.906 4.746V5.746C192.435 5.746 192.878 5.92328 193.261 6.28807L193.951 5.56393ZM191.906 4.746C191.045 4.746 190.309 5.06258 189.735 5.69086L190.474 6.36513C190.852 5.95075 191.317 5.746 191.906 5.746V4.746ZM189.743 5.68276C189.179 6.27301 188.89 6.98545 188.89 7.796H189.89C189.89 7.24655 190.077 6.78032 190.466 6.37324L189.743 5.68276ZM188.89 7.796C188.89 8.53363 189.183 9.15969 189.746 9.63897L190.394 8.87703C190.051 8.58565 189.89 8.23703 189.89 7.796H188.89ZM189.623 9.48161L189.657 9.54961L190.551 9.10239L190.518 9.03439L189.623 9.48161ZM189.752 9.68053L195.906 15.8005L196.611 15.0915L190.457 8.97147L189.752 9.68053ZM196.758 15.446V12.012H195.758V15.446H196.758ZM196.39 12.4944C196.631 12.4285 196.943 12.3507 197.325 12.2607L197.096 11.2873C196.707 11.3787 196.384 11.4595 196.127 11.5296L196.39 12.4944ZM197.351 12.2537C197.732 12.1418 198.135 12.0298 198.562 11.9175L198.307 10.9505C197.872 11.0649 197.46 11.1795 197.069 11.2943L197.351 12.2537ZM198.585 11.9108C199.006 11.778 199.438 11.656 199.882 11.5451L199.639 10.5749C199.176 10.6906 198.724 10.818 198.284 10.9572L198.585 11.9108ZM199.904 11.5389C200.357 11.4031 200.775 11.2787 201.159 11.1657L200.877 10.2063C200.491 10.3199 200.071 10.4449 199.617 10.5811L199.904 11.5389ZM200.518 10.686V17.588H201.518V10.686H200.518ZM200.518 17.588C200.518 17.9337 200.478 18.2669 200.397 18.5887L201.367 18.8313C201.468 18.4277 201.518 18.013 201.518 17.588H200.518ZM200.392 18.6119C200.329 18.9251 200.234 19.2647 200.105 19.6316L201.048 19.9644C201.19 19.5606 201.299 19.1749 201.373 18.8081L200.392 18.6119ZM200.228 20.1571L202.404 22.2651L203.1 21.5469L200.924 19.4389L200.228 20.1571ZM237.37 19.526L237.793 19.793L238.058 19.3731L237.64 19.1051L237.37 19.526ZM235.432 21.872L235.09 21.5075L235.084 21.5129L235.432 21.872ZM233.018 23.708L233.264 24.1436L233.272 24.1387L233.018 23.708ZM230.162 24.864L230.033 24.3809L230.162 24.864ZM222.24 24.32L222.042 24.7792L222.045 24.7803L222.24 24.32ZM218.364 21.736L218.007 22.086L218.014 22.0932L218.364 21.736ZM215.78 17.86L215.32 18.0553L215.321 18.0578L215.78 17.86ZM215.78 8.374L216.239 8.57181L216.24 8.56927L215.78 8.374ZM218.364 4.498L218.011 4.14445L218.364 4.498ZM222.24 1.88L222.045 1.4197L222.042 1.42079L222.24 1.88ZM230.162 1.336L230.291 0.852881V0.852881L230.162 1.336ZM233.018 2.526L232.764 2.95676L232.772 2.96149L233.018 2.526ZM235.432 4.328L235.084 4.68716L235.09 4.69242L235.432 4.328ZM237.37 6.674L237.64 7.09494L238.058 6.82691L237.793 6.407L237.37 6.674ZM233.392 9.224L232.948 9.45416L233.201 9.94072L233.662 9.64494L233.392 9.224ZM230.774 6.3L230.495 6.71476L230.501 6.71863L230.774 6.3ZM224.178 5.824L224.388 6.27808L224.397 6.27349L224.178 5.824ZM221.866 7.524L222.231 7.86562L222.237 7.85976L221.866 7.524ZM220.302 10.04L220.766 10.2276L220.767 10.2238L220.302 10.04ZM220.302 16.194L219.837 16.3778L219.839 16.3816L220.302 16.194ZM221.866 18.71L221.496 19.0458L221.501 19.0516L221.866 18.71ZM224.178 20.41L223.959 20.8596L223.969 20.864L224.178 20.41ZM230.774 19.934L231.048 20.3527L231.053 20.3487L230.774 19.934ZM233.392 16.976L233.662 16.5551L233.201 16.2593L232.948 16.7458L233.392 16.976ZM236.947 19.259C236.426 20.0843 235.807 20.8336 235.09 21.5076L235.774 22.2364C236.553 21.505 237.226 20.6903 237.793 19.793L236.947 19.259ZM235.084 21.5129C234.388 22.1876 233.615 22.7757 232.764 23.2773L233.272 24.1387C234.19 23.5976 235.026 22.9617 235.78 22.2311L235.084 21.5129ZM232.772 23.2725C231.927 23.7496 231.014 24.1193 230.033 24.3809L230.291 25.3471C231.35 25.0647 232.342 24.6637 233.264 24.1435L232.772 23.2725ZM230.033 24.3809C229.057 24.6413 228.046 24.772 227 24.772V25.772C228.13 25.772 229.228 25.6307 230.291 25.3471L230.033 24.3809ZM227 24.772C225.388 24.772 223.868 24.4673 222.435 23.8597L222.045 24.7803C223.605 25.442 225.258 25.772 227 25.772V24.772ZM222.438 23.8608C221.019 23.2497 219.779 22.4224 218.714 21.3788L218.014 22.0932C219.17 23.2256 220.514 24.121 222.042 24.7792L222.438 23.8608ZM218.721 21.3861C217.678 20.3208 216.85 19.0808 216.239 17.6622L215.321 18.0578C215.979 19.5859 216.874 20.9298 218.007 22.0859L218.721 21.3861ZM216.24 17.6647C215.633 16.2325 215.328 14.7124 215.328 13.1H214.328C214.328 14.8422 214.658 16.4955 215.32 18.0553L216.24 17.6647ZM215.328 13.1C215.328 11.4875 215.633 9.97983 216.239 8.57181L215.321 8.17619C214.658 9.71484 214.328 11.3578 214.328 13.1H215.328ZM216.24 8.56927C216.851 7.12903 217.678 5.89162 218.718 4.85155L218.011 4.14445C216.875 5.28038 215.978 6.62697 215.32 8.17872L216.24 8.56927ZM218.718 4.85155C219.783 3.78661 221.021 2.94938 222.438 2.33921L222.042 1.42079C220.512 2.07996 219.167 2.98806 218.011 4.14445L218.718 4.85155ZM222.435 2.34029C223.868 1.73268 225.388 1.428 227 1.428V0.428C225.258 0.428 223.605 0.757989 222.045 1.41971L222.435 2.34029ZM227 1.428C228.046 1.428 229.057 1.55866 230.033 1.81912L230.291 0.852881C229.228 0.569335 228.13 0.428 227 0.428V1.428ZM230.033 1.81912C231.011 2.07974 231.92 2.45909 232.764 2.95668L233.272 2.09532C232.348 1.55024 231.354 1.13625 230.291 0.852881L230.033 1.81912ZM232.772 2.96149C233.619 3.43928 234.39 4.01432 235.084 4.68712L235.78 3.96888C235.024 3.23634 234.185 2.61005 233.264 2.09051L232.772 2.96149ZM235.09 4.69242C235.807 5.36636 236.426 6.11567 236.947 6.941L237.793 6.407C237.226 5.50966 236.553 4.69497 235.774 3.96357L235.09 4.69242ZM237.1 6.25306L233.122 8.80306L233.662 9.64494L237.64 7.09494L237.1 6.25306ZM233.836 8.99384C233.163 7.69652 232.233 6.65568 231.048 5.88136L230.501 6.71863C231.536 7.39498 232.352 8.30348 232.948 9.45416L233.836 8.99384ZM231.053 5.88528C229.856 5.07886 228.5 4.678 227 4.678V5.678C228.311 5.678 229.471 6.02514 230.495 6.71472L231.053 5.88528ZM227 4.678C225.928 4.678 224.912 4.91012 223.959 5.37451L224.397 6.27349C225.212 5.87655 226.078 5.678 227 5.678V4.678ZM223.969 5.37002C223.023 5.80636 222.198 6.41335 221.496 7.18824L222.237 7.85976C222.849 7.18398 223.565 6.65764 224.388 6.27798L223.969 5.37002ZM221.501 7.18242C220.797 7.93487 220.243 8.82835 219.837 9.85617L220.767 10.2238C221.131 9.30231 221.62 8.51846 222.231 7.86558L221.501 7.18242ZM219.839 9.8524C219.428 10.8675 219.224 11.9516 219.224 13.1H220.224C220.224 12.0724 220.406 11.1165 220.766 10.2276L219.839 9.8524ZM219.224 13.1C219.224 14.2485 219.428 15.3424 219.837 16.3778L220.767 16.0102C220.406 15.0963 220.224 14.1275 220.224 13.1H219.224ZM219.839 16.3816C220.245 17.3854 220.797 18.2748 221.496 19.0458L222.237 18.3742C221.621 17.6946 221.13 16.9066 220.766 16.0064L219.839 16.3816ZM221.501 19.0516C222.201 19.7998 223.021 20.4027 223.959 20.8595L224.397 19.9605C223.567 19.556 222.846 19.0255 222.231 18.3684L221.501 19.0516ZM223.969 20.864C224.92 21.303 225.932 21.522 227 21.522V20.522C226.073 20.522 225.204 20.333 224.388 19.956L223.969 20.864ZM227 21.522C228.496 21.522 229.851 21.1343 231.048 20.3526L230.501 19.5154C229.476 20.1844 228.314 20.522 227 20.522V21.522ZM231.053 20.3487C232.236 19.5525 233.164 18.5022 233.836 17.2062L232.948 16.7458C232.351 17.8978 231.534 18.8195 230.495 19.5193L231.053 20.3487ZM233.122 17.3969L237.1 19.9469L237.64 19.1051L233.662 16.5551L233.122 17.3969ZM255.731 1.88L255.524 2.33547L255.53 2.33808L255.731 1.88ZM259.505 4.498L259.144 4.84413L259.147 4.84781L259.505 4.498ZM261.987 8.374L261.521 8.55729L261.525 8.5658L261.987 8.374ZM257.567 23.368L257.844 23.784L257.846 23.7827L257.567 23.368ZM253.963 24.932L253.532 25.1855L253.72 25.505L254.08 25.418L253.963 24.932ZM251.583 20.886L251.547 20.3873L250.743 20.4447L251.152 21.1395L251.583 20.886ZM254.167 20.138L254.411 20.5745L254.415 20.5721L254.167 20.138ZM256.207 18.438L256.591 18.7581L256.596 18.7519L256.207 18.438ZM257.533 16.024L258.005 16.1892L258.006 16.1856L257.533 16.024ZM257.465 10.074L256.994 10.2422L256.997 10.252L257.465 10.074ZM256.037 7.592L255.66 7.92039V7.92039L256.037 7.592ZM253.827 5.926L253.608 6.37564L253.613 6.37787L253.827 5.926ZM248.217 5.926L248.003 5.4741L247.998 5.47638L248.217 5.926ZM246.007 7.592L245.636 7.2568L245.63 7.26361L246.007 7.592ZM244.545 10.074L244.077 9.89596L244.074 9.90583L244.545 10.074ZM244.545 16.126L244.074 16.2942L244.077 16.304L244.545 16.126ZM246.007 18.608L245.63 18.9364L245.636 18.9431L246.007 18.608ZM248.217 20.274L247.998 20.7236L248.003 20.7259L248.217 20.274ZM251.039 20.886H251.539V20.386H251.039V20.886ZM251.039 25.306V25.806H251.539V25.306H251.039ZM246.347 24.354L246.547 23.8959L246.347 24.354ZM242.573 21.736L242.212 22.0821L242.573 21.736ZM240.057 17.86L239.591 18.0433L239.595 18.0518L240.057 17.86ZM240.057 8.374L239.594 8.18468L239.592 8.1883L240.057 8.374ZM242.573 4.498L242.93 4.84783L242.933 4.84411L242.573 4.498ZM246.347 1.88L246.547 2.33812L246.553 2.33543L246.347 1.88ZM251.039 1.394C252.649 1.394 254.142 1.70902 255.524 2.33543L255.937 1.42457C254.418 0.736308 252.783 0.393998 251.039 0.393998V1.394ZM255.53 2.33808C256.922 2.94713 258.125 3.78235 259.144 4.84411L259.865 4.15189C258.753 2.99232 257.44 2.0822 255.931 1.42192L255.53 2.33808ZM259.147 4.84781C260.163 5.88542 260.955 7.1199 261.521 8.55726L262.452 8.19074C261.839 6.6361 260.977 5.28657 259.862 4.14819L259.147 4.84781ZM261.525 8.5658C262.11 9.97525 262.405 11.4851 262.405 13.1H263.405C263.405 11.3603 263.087 9.71942 262.448 8.1822L261.525 8.5658ZM262.405 13.1C262.405 14.4769 262.197 15.7833 261.784 17.0219L262.733 17.3381C263.181 15.9927 263.405 14.5791 263.405 13.1H262.405ZM261.784 17.0219C261.37 18.2639 260.784 19.382 260.025 20.3792L260.821 20.9848C261.648 19.8967 262.286 18.6801 262.733 17.3381L261.784 17.0219ZM260.025 20.3792C259.265 21.3774 258.354 22.2352 257.287 22.9533L257.846 23.7827C259.001 23.0048 259.993 22.072 260.821 20.9848L260.025 20.3792ZM257.289 22.952C256.252 23.6436 255.105 24.1419 253.845 24.446L254.08 25.418C255.45 25.0874 256.706 24.543 257.844 23.784L257.289 22.952ZM254.394 24.6785L252.014 20.6325L251.152 21.1395L253.532 25.1855L254.394 24.6785ZM251.618 21.3847C252.637 21.3119 253.571 21.0438 254.411 20.5745L253.923 19.7015C253.221 20.0936 252.432 20.3241 251.547 20.3873L251.618 21.3847ZM254.415 20.5721C255.258 20.0902 255.985 19.4854 256.591 18.7581L255.823 18.1179C255.295 18.7506 254.662 19.2792 253.919 19.7039L254.415 20.5721ZM256.596 18.7519C257.201 18.002 257.67 17.1463 258.005 16.1892L257.061 15.8588C256.761 16.715 256.346 17.4687 255.817 18.1241L256.596 18.7519ZM258.006 16.1856C258.342 15.2022 258.509 14.1728 258.509 13.1H257.509C257.509 14.0672 257.358 14.9871 257.059 15.8624L258.006 16.1856ZM258.509 13.1C258.509 11.9767 258.317 10.9074 257.932 9.896L256.997 10.252C257.337 11.1446 257.509 12.0927 257.509 13.1H258.509ZM257.936 9.90583C257.576 8.90005 257.07 8.01721 256.414 7.26361L255.66 7.92039C256.227 8.57212 256.673 9.34395 256.994 10.2422L257.936 9.90583ZM256.414 7.26361C255.755 6.50779 254.963 5.91093 254.041 5.47413L253.613 6.37787C254.413 6.75707 255.094 7.27087 255.66 7.92039L256.414 7.26361ZM254.045 5.47638C253.132 5.03221 252.127 4.814 251.039 4.814V5.814C251.99 5.814 252.844 6.00379 253.608 6.37562L254.045 5.47638ZM251.039 4.814C249.95 4.814 248.935 5.03224 248.003 5.47413L248.431 6.37787C249.22 6.00375 250.087 5.814 251.039 5.814V4.814ZM247.998 5.47638C247.101 5.91286 246.313 6.50736 245.636 7.25686L246.378 7.92714C246.97 7.2713 247.655 6.75514 248.435 6.37562L247.998 5.47638ZM245.63 7.26361C244.975 8.01466 244.459 8.89408 244.077 9.896L245.012 10.252C245.356 9.34991 245.814 8.57467 246.384 7.92039L245.63 7.26361ZM244.074 9.90583C243.713 10.9147 243.535 11.9805 243.535 13.1H244.535C244.535 12.0889 244.696 11.1373 245.016 10.2422L244.074 9.90583ZM243.535 13.1C243.535 14.2195 243.713 15.2853 244.074 16.2942L245.016 15.9578C244.696 15.0627 244.535 14.1111 244.535 13.1H243.535ZM244.077 16.304C244.459 17.3059 244.975 18.1853 245.63 18.9364L246.384 18.2796C245.814 17.6253 245.356 16.8501 245.012 15.948L244.077 16.304ZM245.636 18.9431C246.313 19.6926 247.101 20.2871 247.998 20.7236L248.435 19.8244C247.655 19.4449 246.97 18.9287 246.378 18.2729L245.636 18.9431ZM248.003 20.7259C248.935 21.1678 249.95 21.386 251.039 21.386V20.386C250.087 20.386 249.22 20.1962 248.431 19.8221L248.003 20.7259ZM250.539 20.886V25.306H251.539V20.886H250.539ZM251.039 24.806C249.426 24.806 247.931 24.5013 246.547 23.8959L246.146 24.8121C247.664 25.476 249.296 25.806 251.039 25.806V24.806ZM246.547 23.8959C245.155 23.2869 243.952 22.4516 242.933 21.3899L242.212 22.0821C243.324 23.2417 244.637 24.1518 246.146 24.8121L246.547 23.8959ZM242.933 21.3899C241.913 20.3256 241.107 19.0864 240.518 17.6682L239.595 18.0518C240.23 19.5802 241.102 20.9251 242.212 22.0821L242.933 21.3899ZM240.522 17.6767C239.956 16.2416 239.673 14.7174 239.673 13.1H238.673C238.673 14.8373 238.978 16.4864 239.591 18.0433L240.522 17.6767ZM239.673 13.1C239.673 11.4826 239.956 9.97065 240.521 8.55969L239.592 8.1883C238.978 9.72402 238.673 11.3627 238.673 13.1H239.673ZM240.519 8.56332C241.108 7.12341 241.913 5.88684 242.93 4.84781L242.215 4.14819C241.102 5.28515 240.229 6.63259 239.594 8.18468L240.519 8.56332ZM242.933 4.84411C243.952 3.78235 245.155 2.94713 246.547 2.33808L246.146 1.42192C244.637 2.0822 243.324 2.99232 242.212 4.15189L242.933 4.84411ZM246.553 2.33543C247.935 1.70902 249.429 1.394 251.039 1.394V0.393998C249.294 0.393998 247.659 0.736308 246.14 1.42457L246.553 2.33543ZM266.646 25H266.146V25.5H266.646V25ZM266.646 1.2V0.699998H266.146V1.2H266.646ZM271.406 1.2H271.906V0.699998H271.406V1.2ZM271.406 25V25.5H271.906V25H271.406ZM272.12 20.24V19.74H271.269L271.683 20.4834L272.12 20.24ZM282.592 20.24H283.092V19.74H282.592V20.24ZM282.592 25V25.5H283.092V25H282.592ZM274.772 25L274.335 25.2434L274.478 25.5H274.772V25ZM267.146 25V1.2H266.146V25H267.146ZM266.646 1.7H271.406V0.699998H266.646V1.7ZM270.906 1.2V25H271.906V1.2H270.906ZM271.406 24.5H266.646V25.5H271.406V24.5ZM272.12 20.74H282.592V19.74H272.12V20.74ZM282.092 20.24V25H283.092V20.24H282.092ZM282.592 24.5H274.772V25.5H282.592V24.5ZM275.209 24.7566L272.557 19.9966L271.683 20.4834L274.335 25.2434L275.209 24.7566ZM285.977 25H285.477V25.5H285.977V25ZM285.977 1.2V0.699998H285.477V1.2H285.977ZM290.737 1.2H291.237V0.699998H290.737V1.2ZM290.737 25V25.5H291.237V25H290.737ZM291.451 20.24V19.74H290.6L291.014 20.4834L291.451 20.24ZM301.923 20.24H302.423V19.74H301.923V20.24ZM301.923 25V25.5H302.423V25H301.923ZM294.103 25L293.666 25.2434L293.809 25.5H294.103V25ZM286.477 25V1.2H285.477V25H286.477ZM285.977 1.7H290.737V0.699998H285.977V1.7ZM290.237 1.2V25H291.237V1.2H290.237ZM290.737 24.5H285.977V25.5H290.737V24.5ZM291.451 20.74H301.923V19.74H291.451V20.74ZM301.423 20.24V25H302.423V20.24H301.423ZM301.923 24.5H294.103V25.5H301.923V24.5ZM294.54 24.7566L291.888 19.9966L291.014 20.4834L293.666 25.2434L294.54 24.7566ZM318.432 15.514V16.014H318.932V15.514H318.432ZM313.128 15.514L312.68 15.7362L312.818 16.014H313.128V15.514ZM310.918 11.06V10.56H310.112L310.47 11.2822L310.918 11.06ZM318.432 11.06H318.932V10.56H318.432V11.06ZM321.254 1.2L321.754 1.19573L321.75 0.699998H321.254V1.2ZM321.288 5.178V5.678H321.792L321.788 5.17373L321.288 5.178ZM310.102 5.178V4.678H309.603L309.602 5.17693L310.102 5.178ZM310.068 21.056L309.568 21.0549L309.567 21.556H310.068V21.056ZM321.254 21.056H321.754V20.556H321.254V21.056ZM321.254 25V25.5H321.754V25H321.254ZM305.308 25H304.808V25.5H305.308V25ZM305.308 1.2V0.699998H304.808V1.2H305.308ZM318.432 15.014H313.128V16.014H318.432V15.014ZM313.576 15.2918L311.366 10.8378L310.47 11.2822L312.68 15.7362L313.576 15.2918ZM310.918 11.56H318.432V10.56H310.918V11.56ZM317.932 11.06V15.514H318.932V11.06H317.932ZM320.754 1.20427L320.788 5.18227L321.788 5.17373L321.754 1.19573L320.754 1.20427ZM321.288 4.678H310.102V5.678H321.288V4.678ZM309.602 5.17693L309.568 21.0549L310.568 21.0571L310.602 5.17907L309.602 5.17693ZM310.068 21.556H321.254V20.556H310.068V21.556ZM320.754 21.056V25H321.754V21.056H320.754ZM321.254 24.5H305.308V25.5H321.254V24.5ZM305.808 25V1.2H304.808V25H305.808ZM305.308 1.7H321.254V0.699998H305.308V1.7ZM345.347 19.526L345.769 19.793L346.035 19.3731L345.617 19.1051L345.347 19.526ZM343.409 21.872L343.066 21.5075L343.061 21.5129L343.409 21.872ZM340.995 23.708L341.24 24.1436L341.249 24.1387L340.995 23.708ZM338.139 24.864L338.01 24.3809L338.139 24.864ZM330.217 24.32L330.019 24.7792L330.021 24.7803L330.217 24.32ZM326.341 21.736L325.983 22.086L325.991 22.0932L326.341 21.736ZM323.757 17.86L323.296 18.0553L323.298 18.0578L323.757 17.86ZM323.757 8.374L324.216 8.57181L324.217 8.56927L323.757 8.374ZM326.341 4.498L325.987 4.14445L326.341 4.498ZM330.217 1.88L330.021 1.4197L330.019 1.42079L330.217 1.88ZM338.139 1.336L338.268 0.852881V0.852881L338.139 1.336ZM340.995 2.526L340.741 2.95676L340.749 2.96149L340.995 2.526ZM343.409 4.328L343.061 4.68716L343.066 4.69242L343.409 4.328ZM345.347 6.674L345.617 7.09494L346.035 6.82691L345.769 6.407L345.347 6.674ZM341.369 9.224L340.925 9.45416L341.177 9.94072L341.639 9.64494L341.369 9.224ZM338.751 6.3L338.471 6.71476L338.477 6.71863L338.751 6.3ZM332.155 5.824L332.364 6.27808L332.374 6.27349L332.155 5.824ZM329.843 7.524L330.208 7.86562L330.213 7.85976L329.843 7.524ZM328.279 10.04L328.742 10.2276L328.744 10.2238L328.279 10.04ZM328.279 16.194L327.814 16.3778L327.815 16.3816L328.279 16.194ZM329.843 18.71L329.472 19.0458L329.478 19.0516L329.843 18.71ZM332.155 20.41L331.936 20.8596L331.945 20.864L332.155 20.41ZM338.751 19.934L339.024 20.3527L339.03 20.3487L338.751 19.934ZM341.369 16.976L341.639 16.5551L341.177 16.2593L340.925 16.7458L341.369 16.976ZM344.924 19.259C344.403 20.0843 343.784 20.8336 343.066 21.5076L343.751 22.2364C344.53 21.505 345.203 20.6903 345.769 19.793L344.924 19.259ZM343.061 21.5129C342.364 22.1876 341.591 22.7757 340.741 23.2773L341.249 24.1387C342.166 23.5976 343.002 22.9617 343.757 22.2311L343.061 21.5129ZM340.749 23.2725C339.903 23.7496 338.991 24.1193 338.01 24.3809L338.268 25.3471C339.327 25.0647 340.318 24.6637 341.24 24.1435L340.749 23.2725ZM338.01 24.3809C337.033 24.6413 336.023 24.772 334.977 24.772V25.772C336.107 25.772 337.204 25.6307 338.268 25.3471L338.01 24.3809ZM334.977 24.772C333.364 24.772 331.844 24.4673 330.412 23.8597L330.021 24.7803C331.581 25.442 333.234 25.772 334.977 25.772V24.772ZM330.415 23.8608C328.996 23.2497 327.756 22.4224 326.691 21.3788L325.991 22.0932C327.147 23.2256 328.491 24.121 330.019 24.7792L330.415 23.8608ZM326.698 21.3861C325.654 20.3208 324.827 19.0808 324.216 17.6622L323.298 18.0578C323.956 19.5859 324.851 20.9298 325.984 22.0859L326.698 21.3861ZM324.217 17.6647C323.609 16.2325 323.305 14.7124 323.305 13.1H322.305C322.305 14.8422 322.635 16.4955 323.296 18.0553L324.217 17.6647ZM323.305 13.1C323.305 11.4875 323.609 9.97983 324.216 8.57181L323.298 8.17619C322.635 9.71484 322.305 11.3578 322.305 13.1H323.305ZM324.217 8.56927C324.828 7.12903 325.654 5.89162 326.694 4.85155L325.987 4.14445C324.851 5.28038 323.955 6.62697 323.296 8.17872L324.217 8.56927ZM326.694 4.85155C327.759 3.78661 328.998 2.94938 330.415 2.33921L330.019 1.42079C328.489 2.07996 327.144 2.98806 325.987 4.14445L326.694 4.85155ZM330.412 2.34029C331.844 1.73268 333.364 1.428 334.977 1.428V0.428C333.234 0.428 331.581 0.757989 330.021 1.41971L330.412 2.34029ZM334.977 1.428C336.023 1.428 337.033 1.55866 338.01 1.81912L338.268 0.852881C337.204 0.569335 336.107 0.428 334.977 0.428V1.428ZM338.01 1.81912C338.987 2.07974 339.897 2.45909 340.741 2.95668L341.249 2.09532C340.324 1.55024 339.33 1.13625 338.268 0.852881L338.01 1.81912ZM340.749 2.96149C341.596 3.43928 342.366 4.01432 343.061 4.68712L343.757 3.96888C343 3.23634 342.161 2.61005 341.24 2.09051L340.749 2.96149ZM343.066 4.69242C343.784 5.36636 344.403 6.11567 344.924 6.941L345.769 6.407C345.203 5.50966 344.53 4.69497 343.751 3.96357L343.066 4.69242ZM345.077 6.25306L341.099 8.80306L341.639 9.64494L345.617 7.09494L345.077 6.25306ZM341.813 8.99384C341.14 7.69652 340.21 6.65568 339.024 5.88136L338.477 6.71863C339.513 7.39498 340.328 8.30348 340.925 9.45416L341.813 8.99384ZM339.03 5.88528C337.833 5.07886 336.476 4.678 334.977 4.678V5.678C336.288 5.678 337.448 6.02514 338.471 6.71472L339.03 5.88528ZM334.977 4.678C333.905 4.678 332.889 4.91012 331.936 5.37451L332.374 6.27349C333.188 5.87655 334.054 5.678 334.977 5.678V4.678ZM331.945 5.37002C331 5.80636 330.174 6.41335 329.472 7.18824L330.213 7.85976C330.826 7.18398 331.542 6.65764 332.364 6.27798L331.945 5.37002ZM329.478 7.18242C328.774 7.93487 328.22 8.82835 327.814 9.85617L328.744 10.2238C329.108 9.30231 329.597 8.51846 330.208 7.86558L329.478 7.18242ZM327.815 9.8524C327.404 10.8675 327.201 11.9516 327.201 13.1H328.201C328.201 12.0724 328.382 11.1165 328.742 10.2276L327.815 9.8524ZM327.201 13.1C327.201 14.2485 327.404 15.3424 327.814 16.3778L328.744 16.0102C328.382 15.0963 328.201 14.1275 328.201 13.1H327.201ZM327.815 16.3816C328.222 17.3854 328.773 18.2748 329.472 19.0458L330.213 18.3742C329.597 17.6946 329.107 16.9066 328.742 16.0064L327.815 16.3816ZM329.478 19.0516C330.178 19.7998 330.998 20.4027 331.936 20.8595L332.374 19.9605C331.543 19.556 330.823 19.0255 330.208 18.3684L329.478 19.0516ZM331.945 20.864C332.897 21.303 333.909 21.522 334.977 21.522V20.522C334.05 20.522 333.181 20.333 332.364 19.956L331.945 20.864ZM334.977 21.522C336.473 21.522 337.827 21.1343 339.024 20.3526L338.477 19.5154C337.453 20.1844 336.291 20.522 334.977 20.522V21.522ZM339.03 20.3487C340.212 19.5525 341.141 18.5022 341.813 17.2062L340.925 16.7458C340.328 17.8978 339.511 18.8195 338.471 19.5193L339.03 20.3487ZM341.099 17.3969L345.077 19.9469L345.617 19.1051L341.639 16.5551L341.099 17.3969ZM359.846 1.2H360.346V0.699998H359.846V1.2ZM359.846 25V25.5H360.346V25H359.846ZM354.95 25H354.45V25.5H354.95V25ZM354.95 5.348H355.45V4.848H354.95V5.348ZM347.946 5.348H347.446V5.848H347.946V5.348ZM347.946 1.2V0.699998H347.446V1.2H347.946ZM360.56 1.2V0.699998H359.751L360.113 1.4236L360.56 1.2ZM366.85 1.2H367.35V0.699998H366.85V1.2ZM366.85 5.348V5.848H367.35V5.348H366.85ZM362.634 5.348L362.187 5.57161L362.325 5.848H362.634V5.348ZM359.346 1.2V25H360.346V1.2H359.346ZM359.846 24.5H354.95V25.5H359.846V24.5ZM355.45 25V5.348H354.45V25H355.45ZM354.95 4.848H347.946V5.848H354.95V4.848ZM348.446 5.348V1.2H347.446V5.348H348.446ZM347.946 1.7H359.846V0.699998H347.946V1.7ZM360.56 1.7H366.85V0.699998H360.56V1.7ZM366.35 1.2V5.348H367.35V1.2H366.35ZM366.85 4.848H362.634V5.848H366.85V4.848ZM363.081 5.12439L361.007 0.976392L360.113 1.4236L362.187 5.57161L363.081 5.12439ZM151.495 42.2L151.905 41.915L151.756 41.7H151.495V42.2ZM166.829 64.3H167.329V64.1435L167.239 64.015L166.829 64.3ZM166.829 66V66.5H167.329V66H166.829ZM161.865 66L161.454 66.2849L161.603 66.5H161.865V66ZM151.495 51.04L151.906 50.7551L150.995 49.441V51.04H151.495ZM151.495 66V66.5H151.995V66H151.495ZM146.531 66H146.031V66.5H146.531V66ZM146.531 42.2V41.7H146.031V42.2H146.531ZM161.865 42.2V41.7H161.365V42.2H161.865ZM166.829 42.2H167.329V41.7H166.829V42.2ZM166.829 60.016L166.537 60.4219L167.329 60.9915V60.016H166.829ZM161.865 56.446H161.365V56.7023L161.573 56.8519L161.865 56.446ZM151.084 42.485L166.418 64.585L167.239 64.015L151.905 41.915L151.084 42.485ZM166.329 64.3V66H167.329V64.3H166.329ZM166.829 65.5H161.865V66.5H166.829V65.5ZM162.276 65.7151L151.906 50.7551L151.084 51.3248L161.454 66.2849L162.276 65.7151ZM150.995 51.04V66H151.995V51.04H150.995ZM151.495 65.5H146.531V66.5H151.495V65.5ZM147.031 66V42.2H146.031V66H147.031ZM146.531 42.7H151.495V41.7H146.531V42.7ZM161.865 42.7H166.829V41.7H161.865V42.7ZM166.329 42.2V60.016H167.329V42.2H166.329ZM167.121 59.6101L162.157 56.0401L161.573 56.8519L166.537 60.4219L167.121 59.6101ZM162.365 56.446V42.2H161.365V56.446H162.365ZM178.762 56.446L178.315 56.6696L178.453 56.946H178.762V56.446ZM176.552 52.026V51.526H175.743L176.105 52.2496L176.552 52.026ZM184.1 52.026H184.6V51.526H184.1V52.026ZM184.1 56.446V56.946H184.6V56.446H184.1ZM170.908 42.166V41.666H170.408V42.166H170.908ZM186.99 42.166H187.49V41.666H186.99V42.166ZM186.99 46.178V46.678H187.49V46.178H186.99ZM175.702 46.178V45.678H175.202V46.178H175.702ZM175.702 66V66.5H176.202V66H175.702ZM170.908 66H170.408V66.5H170.908V66ZM179.21 56.2224L177 51.8024L176.105 52.2496L178.315 56.6696L179.21 56.2224ZM176.552 52.526H184.1V51.526H176.552V52.526ZM183.6 52.026V56.446H184.6V52.026H183.6ZM184.1 55.946H178.762V56.946H184.1V55.946ZM170.908 42.666H186.99V41.666H170.908V42.666ZM186.49 42.166V46.178H187.49V42.166H186.49ZM186.99 45.678H175.702V46.678H186.99V45.678ZM175.202 46.178V66H176.202V46.178H175.202ZM175.702 65.5H170.908V66.5H175.702V65.5ZM171.408 66V42.166H170.408V66H171.408ZM201.766 42.2H202.266V41.7H201.766V42.2ZM201.766 66V66.5H202.266V66H201.766ZM196.87 66H196.37V66.5H196.87V66ZM196.87 46.348H197.37V45.848H196.87V46.348ZM189.866 46.348H189.366V46.848H189.866V46.348ZM189.866 42.2V41.7H189.366V42.2H189.866ZM202.48 42.2V41.7H201.671L202.033 42.4236L202.48 42.2ZM208.77 42.2H209.27V41.7H208.77V42.2ZM208.77 46.348V46.848H209.27V46.348H208.77ZM204.554 46.348L204.107 46.5716L204.245 46.848H204.554V46.348ZM201.266 42.2V66H202.266V42.2H201.266ZM201.766 65.5H196.87V66.5H201.766V65.5ZM197.37 66V46.348H196.37V66H197.37ZM196.87 45.848H189.866V46.848H196.87V45.848ZM190.366 46.348V42.2H189.366V46.348H190.366ZM189.866 42.7H201.766V41.7H189.866V42.7ZM202.48 42.7H208.77V41.7H202.48V42.7ZM208.27 42.2V46.348H209.27V42.2H208.27ZM208.77 45.848H204.554V46.848H208.77V45.848ZM205.001 46.1244L202.927 41.9764L202.033 42.4236L204.107 46.5716L205.001 46.1244ZM222.307 52.094L222.438 51.6113L222.431 51.6097L222.307 52.094ZM225.299 53.08L225.113 53.5443L225.117 53.5458L225.299 53.08ZM227.679 54.406L227.368 54.7978L227.375 54.8028L227.679 54.406ZM229.243 56.276L228.796 56.4997L228.801 56.5106L229.243 56.276ZM229.141 61.954L228.694 61.7303L228.689 61.7395L229.141 61.954ZM227.305 64.3L227.623 64.686L227.624 64.685L227.305 64.3ZM224.551 65.796L224.706 66.2714L224.712 66.2693L224.551 65.796ZM217.785 65.898L217.649 66.3793L217.661 66.3825L217.785 65.898ZM214.929 64.776L214.687 65.2137L214.696 65.2185L214.929 64.776ZM212.651 63.178L212.311 63.5444L212.317 63.5503L212.651 63.178ZM211.189 61.342L210.922 60.9194L210.529 61.1681L210.748 61.5781L211.189 61.342ZM215.167 58.826L215.538 58.4905L215.255 58.1785L214.9 58.4034L215.167 58.826ZM216.459 60.118L216.126 60.4906L216.131 60.4956L216.137 60.5005L216.459 60.118ZM217.819 61.07L217.571 61.5041L217.579 61.5087L217.587 61.5129L217.819 61.07ZM219.383 61.648L219.266 62.1342L219.383 61.648ZM222.545 61.716L222.447 61.2257L222.442 61.2267L222.545 61.716ZM223.769 61.274L223.524 60.8382L223.769 61.274ZM224.653 60.526L225.049 60.8309L225.055 60.8238L225.06 60.8166L224.653 60.526ZM224.755 58.452L225.195 58.215L224.755 58.452ZM223.939 57.602L223.635 57.9992L223.643 58.005L223.651 58.0105L223.939 57.602ZM222.375 56.786L222.184 57.248L222.191 57.2509L222.198 57.2535L222.375 56.786ZM219.893 56.004L220.014 55.5189L220.01 55.5179L219.893 56.004ZM216.595 55.018L216.411 55.4831L216.421 55.4866L216.595 55.018ZM214.113 53.658L213.801 54.0485L213.809 54.0548L214.113 53.658ZM212.549 51.72L212.999 51.5019L212.549 51.72ZM212.617 46.076L212.165 45.8615L212.163 45.8665L212.617 46.076ZM214.385 43.798L214.068 43.411L214.385 43.798ZM217.003 42.404L217.155 42.8805L217.161 42.8783L217.003 42.404ZM223.531 42.302L223.397 42.7836L223.531 42.302ZM226.149 43.356L225.905 43.7926L225.915 43.7979L226.149 43.356ZM228.155 44.784L227.809 45.1447L227.816 45.1517L227.824 45.1585L228.155 44.784ZM229.617 46.314L229.888 46.7345L230.346 46.4395L230.013 46.0083L229.617 46.314ZM225.707 48.83L225.362 49.1919L225.647 49.4634L225.978 49.2505L225.707 48.83ZM222.919 46.892L222.715 47.3484L222.722 47.3516L222.729 47.3546L222.919 46.892ZM218.669 46.552L218.827 47.0263L218.835 47.0239L218.842 47.0212L218.669 46.552ZM217.649 47.096L217.949 47.496L217.959 47.4883L217.969 47.4801L217.649 47.096ZM217.003 47.81L216.571 47.5581L216.563 47.572L216.556 47.5864L217.003 47.81ZM217.139 49.782L216.723 50.0593L216.734 50.0756L216.746 50.0909L217.139 49.782ZM218.193 50.666L217.936 51.0948L217.945 51.1001L218.193 50.666ZM219.927 51.414L219.769 51.8884L219.774 51.8899L219.927 51.414ZM222.176 52.5766C223.248 52.867 224.227 53.1898 225.113 53.5442L225.485 52.6158C224.558 52.2449 223.542 51.9104 222.438 51.6114L222.176 52.5766ZM225.117 53.5458C226.009 53.8937 226.757 54.3126 227.368 54.7977L227.99 54.0143C227.287 53.4567 226.448 52.9917 225.481 52.6142L225.117 53.5458ZM227.375 54.8028C227.998 55.2807 228.469 55.8459 228.796 56.4996L229.69 56.0524C229.292 55.2554 228.72 54.574 227.983 54.0092L227.375 54.8028ZM228.801 56.5106C229.141 57.1498 229.321 57.9271 229.321 58.86H230.321C230.321 57.7982 230.116 56.8529 229.685 56.0414L228.801 56.5106ZM229.321 58.86V58.962H230.321V58.86H229.321ZM229.321 58.962C229.321 59.9782 229.11 60.8982 228.694 61.7304L229.588 62.1776C230.079 61.1965 230.321 60.1218 230.321 58.962H229.321ZM228.689 61.7395C228.291 62.5786 227.725 63.3029 226.986 63.915L227.624 64.685C228.472 63.9825 229.13 63.1428 229.593 62.1685L228.689 61.7395ZM226.987 63.914C226.269 64.5058 225.405 64.977 224.39 65.3227L224.712 66.2693C225.827 65.8897 226.8 65.3635 227.623 64.686L226.987 63.914ZM224.396 65.3206C223.41 65.6423 222.318 65.806 221.117 65.806V66.806C222.409 66.806 223.607 66.6297 224.706 66.2714L224.396 65.3206ZM221.117 65.806C220.001 65.806 218.932 65.6747 217.909 65.4135L217.661 66.3825C218.769 66.6653 219.921 66.806 221.117 66.806V65.806ZM217.921 65.4168C216.908 65.1306 215.989 64.7689 215.162 64.3335L214.696 65.2185C215.592 65.6897 216.577 66.0761 217.649 66.3792L217.921 65.4168ZM215.171 64.3384C214.339 63.8786 213.611 63.3672 212.985 62.8057L212.317 63.5503C213.006 64.1675 213.797 64.7214 214.687 65.2136L215.171 64.3384ZM212.991 62.8116C212.389 62.2525 211.939 61.6831 211.63 61.1059L210.748 61.5781C211.119 62.2702 211.644 62.9249 212.311 63.5444L212.991 62.8116ZM211.456 61.7646L215.434 59.2486L214.9 58.4034L210.922 60.9194L211.456 61.7646ZM214.796 59.1615C215.237 59.6491 215.681 60.0924 216.126 60.4906L216.792 59.7454C216.376 59.373 215.958 58.9549 215.538 58.4905L214.796 59.1615ZM216.137 60.5005C216.59 60.882 217.068 61.2168 217.571 61.5041L218.067 60.6359C217.618 60.3792 217.189 60.0793 216.781 59.7355L216.137 60.5005ZM217.587 61.5129C218.102 61.7829 218.663 61.9894 219.266 62.1342L219.5 61.1618C218.97 61.0346 218.488 60.8558 218.051 60.6271L217.587 61.5129ZM219.266 62.1342C219.877 62.2807 220.54 62.352 221.253 62.352V61.352C220.606 61.352 220.022 61.2873 219.5 61.1618L219.266 62.1342ZM221.253 62.352C221.719 62.352 222.184 62.3029 222.648 62.2053L222.442 61.2267C222.045 61.3104 221.648 61.352 221.253 61.352V62.352ZM222.643 62.2063C223.142 62.1064 223.601 61.9423 224.014 61.7098L223.524 60.8382C223.212 61.0137 222.854 61.1442 222.447 61.2257L222.643 62.2063ZM224.014 61.7098C224.429 61.4767 224.777 61.1849 225.049 60.8309L224.257 60.2211C224.076 60.4564 223.835 60.6633 223.524 60.8382L224.014 61.7098ZM225.06 60.8166C225.357 60.4013 225.493 59.9101 225.493 59.37H224.493C224.493 59.7366 224.403 60.016 224.246 60.2354L225.06 60.8166ZM225.493 59.37C225.493 58.9654 225.391 58.5784 225.195 58.215L224.315 58.689C224.436 58.915 224.493 59.14 224.493 59.37H225.493ZM225.195 58.215C224.988 57.8301 224.652 57.493 224.227 57.1935L223.651 58.0105C223.997 58.255 224.205 58.4846 224.315 58.689L225.195 58.215ZM224.243 57.2048C223.806 56.8707 223.237 56.578 222.552 56.3185L222.198 57.2535C222.828 57.4926 223.302 57.7439 223.635 57.9992L224.243 57.2048ZM222.566 56.324C221.879 56.0395 221.026 55.7718 220.014 55.5189L219.772 56.4891C220.755 56.7348 221.557 56.9885 222.184 57.248L222.566 56.324ZM220.01 55.5179C218.802 55.227 217.722 54.9038 216.769 54.5494L216.421 55.4866C217.418 55.8575 218.536 56.1917 219.776 56.4901L220.01 55.5179ZM216.779 54.553C215.838 54.1811 215.053 53.7489 214.417 53.2612L213.809 54.0548C214.533 54.6098 215.403 55.0843 216.411 55.483L216.779 54.553ZM214.425 53.2676C213.801 52.7678 213.328 52.1797 212.999 51.5019L212.099 51.9381C212.496 52.7563 213.065 53.4602 213.801 54.0484L214.425 53.2676ZM212.999 51.5019C212.676 50.8355 212.505 50.0293 212.505 49.068H211.505C211.505 50.1467 211.697 51.1085 212.099 51.9381L212.999 51.5019ZM212.505 49.068C212.505 48.0195 212.697 47.0952 213.071 46.2855L212.163 45.8665C211.721 46.8248 211.505 47.8952 211.505 49.068H212.505ZM213.069 46.2905C213.469 45.448 214.013 44.7484 214.702 44.185L214.068 43.411C213.261 44.0716 212.627 44.8907 212.165 45.8615L213.069 46.2905ZM214.702 44.185C215.397 43.6162 216.212 43.1803 217.155 42.8805L216.851 41.9275C215.799 42.2624 214.869 42.7558 214.068 43.411L214.702 44.185ZM217.161 42.8783C218.126 42.5566 219.161 42.394 220.267 42.394V41.394C219.061 41.394 217.92 41.5714 216.845 41.9297L217.161 42.8783ZM220.267 42.394C221.431 42.394 222.473 42.5258 223.397 42.7836L223.665 41.8204C222.64 41.5342 221.506 41.394 220.267 41.394V42.394ZM223.397 42.7836C224.339 43.0465 225.174 43.3837 225.905 43.7925L226.393 42.9195C225.583 42.467 224.673 42.1015 223.665 41.8204L223.397 42.7836ZM225.915 43.7979C226.649 44.1865 227.279 44.6362 227.809 45.1447L228.501 44.4233C227.898 43.8438 227.19 43.3415 226.383 42.9141L225.915 43.7979ZM227.824 45.1585C228.395 45.6639 228.859 46.1512 229.221 46.6197L230.013 46.0083C229.604 45.4795 229.094 44.9468 228.486 44.4095L227.824 45.1585ZM229.346 45.8935L225.436 48.4095L225.978 49.2505L229.888 46.7345L229.346 45.8935ZM226.052 48.4681C225.049 47.5121 224.069 46.8232 223.109 46.4294L222.729 47.3546C223.537 47.6861 224.415 48.2892 225.362 49.1919L226.052 48.4681ZM223.123 46.4356C222.197 46.0213 221.221 45.814 220.199 45.814V46.814C221.081 46.814 221.918 46.9921 222.715 47.3484L223.123 46.4356ZM220.199 45.814C219.567 45.814 218.995 45.8989 218.496 46.0828L218.842 47.0212C219.204 46.8878 219.653 46.814 220.199 46.814V45.814ZM218.511 46.0777C218.056 46.2293 217.658 46.4378 217.329 46.7119L217.969 47.4801C218.184 47.3009 218.466 47.1467 218.827 47.0263L218.511 46.0777ZM217.349 46.696C217.028 46.9368 216.766 47.2239 216.571 47.5581L217.435 48.0619C217.557 47.8521 217.726 47.6632 217.949 47.496L217.349 46.696ZM216.556 47.5864C216.393 47.9128 216.299 48.2498 216.299 48.592H217.299C217.299 48.4355 217.341 48.2512 217.45 48.0336L216.556 47.5864ZM216.299 48.592C216.299 49.1328 216.436 49.6284 216.723 50.0593L217.555 49.5047C217.389 49.2556 217.299 48.9578 217.299 48.592H216.299ZM216.746 50.0909C217.043 50.4684 217.446 50.8006 217.936 51.0947L218.45 50.2373C218.034 49.9874 217.734 49.7302 217.532 49.4731L216.746 50.0909ZM217.945 51.1001C218.457 51.3925 219.067 51.6542 219.769 51.8883L220.085 50.9397C219.427 50.7204 218.881 50.4834 218.441 50.2319L217.945 51.1001ZM219.774 51.8899C220.488 52.1203 221.291 52.3497 222.183 52.5783L222.431 51.6097C221.555 51.385 220.772 51.1611 220.081 50.9381L219.774 51.8899Z" fill="#F7941D"/>
</svg>
