<svg width="124" height="90" viewBox="0 0 124 90" fill="none" xmlns="http://www.w3.org/2000/svg">
<path id="blobs/blobs1" fill-rule="evenodd" clip-rule="evenodd" d="M101.127 117.956C91.6122 125.723 76.7274 125.727 63.4975 128.765C50.9323 131.65 39.7624 139.848 25.7424 135.265C11.7661 130.696 5.51393 115.4 -6.03043 106.036C-20.2321 94.5166 -45.1622 89.5725 -49.4079 74.309C-53.6013 59.2331 -30.4474 55.0366 -23.5321 43.1157C-16.4834 30.9649 -22.3215 11.0668 -8.86268 4.41551C4.81988 -2.34635 26.253 1.2813 42.7687 10.3501C58.1694 18.8065 59.7324 37.709 72.7338 49.2199C87.585 62.3685 115.48 64.2546 122.3 80.7639C128.856 96.6338 112.742 108.475 101.127 117.956Z" fill="url(#paint0_linear_181_458)" fill-opacity="0.5"/>
<defs>
<linearGradient id="paint0_linear_181_458" x1="44" y1="50.6401" x2="-4.51503" y2="109.506" gradientUnits="userSpaceOnUse">
<stop stop-color="#F7941D"/>
<stop offset="1" stop-color="#39B54A"/>
</linearGradient>
</defs>
</svg>
