<svg width="117" height="95" viewBox="0 0 117 95" fill="none" xmlns="http://www.w3.org/2000/svg">
<path id="blobs/blobs1" fill-rule="evenodd" clip-rule="evenodd" d="M22.8575 -22.309C32.3728 -30.0764 47.2575 -30.0808 60.4875 -33.1185C73.0527 -36.0036 84.2226 -44.2013 98.2426 -39.6181C112.219 -35.0492 118.471 -19.7532 130.015 -10.3893C144.217 1.1299 169.147 6.07401 173.393 21.3375C177.586 36.4134 154.432 40.6099 147.517 52.5308C140.468 64.6816 146.306 84.5797 132.848 91.231C119.165 97.9928 97.732 94.3652 81.2163 85.2964C65.8156 76.84 64.2526 57.9375 51.2512 46.4266C36.4 33.278 8.50457 31.3918 1.68483 14.8826C-4.87081 -0.987337 11.2432 -12.8282 22.8575 -22.309Z" fill="url(#paint0_linear_181_488)" fill-opacity="0.5"/>
<defs>
<linearGradient id="paint0_linear_181_488" x1="65.5" y1="35.6401" x2="128.5" y2="-13.8599" gradientUnits="userSpaceOnUse">
<stop stop-color="#F7941D"/>
<stop offset="1" stop-color="#39B54A"/>
</linearGradient>
</defs>
</svg>
