<svg width="151" height="112" viewBox="0 0 151 112" fill="none" xmlns="http://www.w3.org/2000/svg">
<path d="M32.7463 63.9108C32.7463 63.9108 26.7673 65.8419 25.3872 65.5017C24.657 65.3213 23.5168 64.2862 22.4566 63.1695C22.2811 62.9844 22.1081 62.7974 21.9392 62.6118C20.7704 61.3246 19.815 60.0978 19.815 60.0978C19.815 60.0978 16.9189 56.7013 19.2432 55.1873C19.2432 55.1873 20.2682 55.2841 21.0434 56.115C21.8179 56.9453 22.5454 58.2702 22.7475 58.7132C22.9503 59.1562 25.794 63.2623 25.9424 63.3545C26.0895 63.4467 27.3325 63.1197 28.329 63.0368C29.9536 62.9016 32.3852 62.0726 32.3852 62.0726L32.7457 63.9102L32.7463 63.9108Z" fill="#494F80"/>
<path d="M116.065 103.794C107.894 103.794 100.438 104.168 94.7687 104.784C89.6735 104.367 83.5534 104.124 76.9694 104.124C71.6934 104.124 66.7149 104.28 62.3233 104.556C57.8444 103.042 46.0129 101.961 32.1202 101.961C14.3806 101.961 -0.000488281 103.725 -0.000488281 105.899C-0.000488281 108.074 14.3806 109.837 32.1202 109.837C37.3962 109.837 42.3747 109.681 46.7662 109.405C51.2452 110.918 63.0767 111.999 76.9694 111.999C85.1402 111.999 92.5968 111.625 98.2657 111.009C103.361 111.426 109.481 111.669 116.065 111.669C133.805 111.669 148.186 109.906 148.186 107.731C148.186 105.557 133.805 103.794 116.065 103.794Z" fill="url(#paint0_linear_923_10379)"/>
<path d="M138.423 42.2111H95.5034V99.5265H138.423V42.2111Z" fill="url(#paint1_linear_923_10379)"/>
<path d="M141.125 36.692V29.7808C141.125 14.2787 128.737 1.66656 113.511 1.66656C98.2843 1.66656 85.8962 14.2787 85.8962 29.7808V36.692C82.1375 37.9413 79.4189 41.5348 79.4189 45.7789V96.0756C79.4189 101.355 83.6229 105.636 88.8102 105.636H138.213C143.399 105.636 147.603 101.355 147.603 96.0756V45.7789C147.603 41.5348 144.885 37.9413 141.126 36.692H141.125ZM113.511 6.87283C125.918 6.87283 136.012 17.1494 136.012 29.7808V36.2172H91.0099V29.7808C91.0099 17.1494 101.103 6.87283 113.511 6.87283ZM116.153 72.4614V89.1492H110.869V72.4614C106.693 71.283 103.624 67.3964 103.624 62.7704C103.624 57.2107 108.051 52.7047 113.511 52.7047C118.972 52.7047 123.398 57.2113 123.398 62.7704C123.398 67.3964 120.329 71.283 116.154 72.4614H116.153Z" fill="url(#paint2_linear_923_10379)"/>
<path d="M144.523 36.6932V29.7813C144.523 14.2786 132.135 1.66577 116.908 1.66577C116.046 1.66577 115.193 1.70689 114.35 1.78514C113.144 1.89853 111.962 2.09217 110.805 2.35875C108.598 2.86604 106.492 3.64589 104.52 4.65651C95.4955 9.28717 89.2918 18.8104 89.2918 29.7813V36.6932C85.5331 37.9412 82.8146 41.534 82.8146 45.7788V96.0755C82.8146 101.356 87.0206 105.636 92.2058 105.636H141.609C141.679 105.636 141.747 105.636 141.817 105.632C143.053 105.605 144.23 105.335 145.304 104.865C148.653 103.406 151 100.022 151 96.0761V45.7794C151 41.5347 148.282 37.9412 144.523 36.6938V36.6932ZM119.549 72.4613V89.1497H114.265V72.4613C110.09 71.2836 107.022 67.3976 107.022 62.7709C107.022 57.2119 111.448 52.7052 116.908 52.7052C117.631 52.7052 118.338 52.7835 119.018 52.936C123.465 53.9181 126.796 57.9479 126.796 62.7702C126.796 65.4659 125.753 67.9102 124.057 69.7133C122.843 71.0064 121.293 71.9679 119.55 72.4606L119.549 72.4613ZM94.4069 36.217V29.782C94.4069 21.1599 99.1098 13.636 106.042 9.72749C107.973 8.63862 110.079 7.8296 112.305 7.35745C113.468 7.10811 114.663 6.95294 115.885 6.89989C116.223 6.88331 116.566 6.87535 116.908 6.87535C129.316 6.87535 139.408 17.1513 139.408 29.7826V36.2177H94.4069V36.217Z" fill="url(#paint3_linear_923_10379)"/>
<g style="mix-blend-mode:soft-light">
<path d="M151 45.7788V96.0755C151 100.021 148.653 103.406 145.304 104.864L124.69 36.2157H139.409V29.7807C139.409 17.1493 129.316 6.87335 116.908 6.87335C116.566 6.87335 116.224 6.88131 115.886 6.89789L114.351 1.78446C115.194 1.70621 116.047 1.6651 116.908 1.6651C132.136 1.6651 144.524 14.2779 144.524 29.7807V36.6925C148.282 37.9405 151.001 41.5334 151.001 45.7781L151 45.7788Z" fill="#FFEFE3"/>
</g>
<g style="mix-blend-mode:soft-light">
<path d="M110.805 2.35876L112.306 7.35681C110.08 7.82896 107.974 8.63798 106.042 9.72685L104.519 4.65719C106.492 3.64657 108.597 2.86673 110.805 2.35943L110.805 2.35876Z" fill="white"/>
</g>
<g style="mix-blend-mode:soft-light">
<path d="M141.817 105.632C141.747 105.636 141.679 105.636 141.609 105.636H134.845L124.057 69.7133C125.753 67.9109 126.796 65.4665 126.796 62.7702C126.796 57.9479 123.466 53.9174 119.018 52.936L113.998 36.2164H120.974L141.818 105.632H141.817Z" fill="#FFEFE3"/>
</g>
<path d="M114.584 101.643H97.4441V103.726H114.584V101.643Z" fill="url(#paint4_linear_923_10379)"/>
<path d="M115.209 99.5609H98.0688V101.644H115.209V99.5609Z" fill="url(#paint5_linear_923_10379)"/>
<path d="M114.86 97.478H97.7203V99.5609H114.86V97.478Z" fill="url(#paint6_linear_923_10379)"/>
<path d="M115.209 95.3951H98.0688V97.478H115.209V95.3951Z" fill="url(#paint7_linear_923_10379)"/>
<path d="M115.503 93.3122H98.363V95.3951H115.503V93.3122Z" fill="url(#paint8_linear_923_10379)"/>
<path d="M115.943 103.64H98.801V105.723H115.943V103.64Z" fill="url(#paint9_linear_923_10379)"/>
<path d="M111.532 91.2001H94.3916V93.283H111.532V91.2001Z" fill="url(#paint10_linear_923_10379)"/>
<path d="M111.151 89.1172H94.0093V91.2002H111.151V89.1172Z" fill="url(#paint11_linear_923_10379)"/>
<path d="M111.85 87.0343H94.7103V89.1172H111.85V87.0343Z" fill="url(#paint12_linear_923_10379)"/>
<path d="M113.442 85.2445L113.393 87.3274L111.85 87.291L109.649 87.2379L101.211 87.0343L96.2554 86.9156L96.3071 84.834L110.677 85.1782L113.442 85.2445Z" fill="url(#paint13_linear_923_10379)"/>
<g style="mix-blend-mode:soft-light">
<path d="M115.943 103.64V105.723H100.407L101.447 103.64L102.446 101.643L103.262 100.011L103.487 99.5609L104.528 97.478L105.571 95.3951L106.059 94.419L106.613 93.3122H115.504V95.3951H115.209V97.478H114.86V99.5609H115.209V101.643H114.585V103.64H115.943Z" fill="white"/>
</g>
<path opacity="0.95" d="M106.923 106.981C106.923 109.179 95.0582 110.961 80.4227 110.961C65.7872 110.961 53.9226 109.179 53.9226 106.981C53.9226 104.782 65.7872 103.001 80.4227 103.001C95.0582 103.001 106.923 104.782 106.923 106.981Z" fill="url(#paint14_linear_923_10379)"/>
<path d="M87.5016 61.4216V91.561C87.5016 93.5564 85.8862 95.1724 83.8932 95.1724H31.1607C29.167 95.1724 27.5524 93.5557 27.5524 91.561V61.4216C27.5524 59.4289 29.1677 57.8121 31.1607 57.8121H83.8932C85.8869 57.8121 87.5016 59.4289 87.5016 61.4216Z" fill="url(#paint15_linear_923_10379)"/>
<path d="M87.5015 81.7001H27.553V88.9223H87.5015V81.7001Z" fill="#5C5C5C"/>
<path d="M46.3627 67.8791H34.6478C33.5976 67.8791 32.7462 68.7312 32.7462 69.7823V76.2783C32.7462 77.3295 33.5976 78.1815 34.6478 78.1815H46.3627C47.4129 78.1815 48.2642 77.3295 48.2642 76.2783V69.7823C48.2642 68.7312 47.4129 67.8791 46.3627 67.8791Z" fill="white"/>
<path d="M83.8939 76.4918H62.4307V78.1815H83.8939V76.4918Z" fill="url(#paint16_linear_923_10379)"/>
<path d="M83.8939 73.6218H62.4307V75.3115H83.8939V73.6218Z" fill="url(#paint17_linear_923_10379)"/>
<path d="M88.1397 61.4214V91.5609C88.1397 93.5563 86.5243 95.1723 84.5313 95.1723H31.7982C29.8045 95.1723 28.1898 93.5556 28.1898 91.5609V61.4214C28.1898 59.4287 29.8052 57.812 31.7982 57.812H84.5307C86.5243 57.812 88.139 59.4287 88.139 61.4214H88.1397Z" fill="url(#paint18_linear_923_10379)"/>
<path d="M88.139 81.7001H28.1904V88.9223H88.139V81.7001Z" fill="#5C5C5C"/>
<path d="M47.0001 67.879H35.2852C34.235 67.879 33.3837 68.7311 33.3837 69.7822V76.2783C33.3837 77.3294 34.235 78.1815 35.2852 78.1815H47.0001C48.0503 78.1815 48.9017 77.3294 48.9017 76.2783V69.7822C48.9017 68.7311 48.0503 67.879 47.0001 67.879Z" fill="white"/>
<path d="M84.5314 76.4918H63.0681V78.1815H84.5314V76.4918Z" fill="url(#paint19_linear_923_10379)"/>
<path d="M84.5314 73.6218H63.0681V75.3114H84.5314V73.6218Z" fill="url(#paint20_linear_923_10379)"/>
<path d="M41.6366 76.6437H40.6487C39.6999 76.6437 38.928 75.8712 38.928 74.9215V71.139C38.928 70.1894 39.6999 69.4169 40.6487 69.4169H41.6366C42.5854 69.4169 43.3572 70.1894 43.3572 71.139V74.9215C43.3572 75.8712 42.5854 76.6437 41.6366 76.6437ZM40.6487 69.9838C40.0119 69.9838 39.4945 70.5024 39.4945 71.139V74.9215C39.4945 75.5588 40.0126 76.0767 40.6487 76.0767H41.6366C42.2733 76.0767 42.7914 75.5582 42.7914 74.9215V71.139C42.7914 70.5018 42.2733 69.9838 41.6366 69.9838H40.6487Z" fill="url(#paint21_linear_923_10379)"/>
<path d="M48.9017 71.4056H33.3837V71.9726H48.9017V71.4056Z" fill="url(#paint22_linear_923_10379)"/>
<path d="M48.9017 74.0886H33.3837V74.6556H48.9017V74.0886Z" fill="url(#paint23_linear_923_10379)"/>
<g style="mix-blend-mode:soft-light">
<path d="M88.1397 61.4214V91.5609C88.1397 93.5562 86.5243 95.1723 84.5313 95.1723H58.0345L69.8084 57.8113H84.532C86.5256 57.8113 88.1403 59.4281 88.1403 61.4208L88.1397 61.4214Z" fill="white"/>
</g>
<path d="M103.656 24.3947V99.6498C103.656 102.753 101.142 105.269 98.0397 105.269H61.9893C60.3482 105.269 58.872 104.565 57.8456 103.442C56.9306 102.44 56.3734 101.113 56.3734 99.6498V24.3947C56.3734 21.2893 58.8892 18.774 61.9893 18.774H98.0397C101.142 18.774 103.656 21.2893 103.656 24.3947Z" fill="url(#paint24_linear_923_10379)"/>
<path d="M104.801 24.3947V99.6498C104.801 102.753 102.288 105.269 99.1853 105.269H63.135C61.4938 105.269 60.0176 104.565 58.9913 103.442C58.0763 102.44 57.519 101.113 57.519 99.6498V24.3947C57.519 21.2893 60.0348 18.774 63.135 18.774H99.1853C102.288 18.774 104.801 21.2893 104.801 24.3947Z" fill="url(#paint25_linear_923_10379)"/>
<path d="M101.205 22.5446H61.1154V94.6425H101.205V22.5446Z" fill="url(#paint26_linear_923_10379)"/>
<g style="mix-blend-mode:hard-light">
<path d="M66.7843 28.3052H95.5371C97.0127 28.3052 98.2106 29.5042 98.2106 30.981V82.5277C98.2106 84.0045 97.0127 85.2035 95.5371 85.2035H66.7843C65.3088 85.2035 64.1108 84.0045 64.1108 82.5277V30.981C64.1108 29.5042 65.3088 28.3052 66.7843 28.3052Z" fill="#F5F5F5"/>
</g>
<path d="M81.1608 54.6064C79.4805 54.6064 77.8599 54.257 76.3446 53.5666C72.1916 51.6774 69.5076 47.5076 69.5076 42.9432C69.5076 36.5122 74.7352 31.28 81.1608 31.28C87.5864 31.28 92.8141 36.5122 92.8141 42.9432C92.8141 47.5076 90.1307 51.6774 85.977 53.5666C84.4617 54.2563 82.8417 54.6064 81.1608 54.6064ZM81.1608 31.8961C75.0745 31.8961 70.1231 36.8517 70.1231 42.9432C70.1231 47.2669 72.6654 51.2165 76.599 53.0063C78.0342 53.6595 79.5687 53.9904 81.1608 53.9904C82.753 53.9904 84.2875 53.6595 85.7219 53.0063C89.6563 51.2165 92.1985 47.2669 92.1985 42.9432C92.1985 36.8517 87.2472 31.8961 81.1608 31.8961Z" fill="url(#paint27_linear_923_10379)"/>
<path d="M84.7062 76.4998H77.6147C76.4276 76.4998 75.4653 77.4629 75.4653 78.651V85.7485C75.4653 86.9366 76.4276 87.8998 77.6147 87.8998H84.7062C85.8932 87.8998 86.8555 86.9366 86.8555 85.7485V78.651C86.8555 77.4629 85.8932 76.4998 84.7062 76.4998Z" fill="white"/>
<path d="M81.3721 85.4581C79.5772 85.4581 78.1169 83.9965 78.1169 82.2001C78.1169 80.4037 79.5772 78.9421 81.3721 78.9421C83.167 78.9421 84.6273 80.4037 84.6273 82.2001C84.6273 83.9965 83.167 85.4581 81.3721 85.4581ZM81.3721 79.5721C79.9244 79.5721 78.747 80.7505 78.747 82.1995C78.747 83.6484 79.9244 84.8268 81.3721 84.8268C82.8199 84.8268 83.9972 83.6484 83.9972 82.1995C83.9972 80.7505 82.8199 79.5721 81.3721 79.5721Z" fill="url(#paint28_linear_923_10379)"/>
<path d="M81.164 83.3705L79.6852 81.8904L80.1311 81.4448L81.164 82.4786L82.6131 81.029L83.0583 81.4746L81.164 83.3705Z" fill="url(#paint29_linear_923_10379)"/>
<g style="mix-blend-mode:soft-light">
<path d="M84.416 18.774L58.9913 103.441C58.0763 102.44 57.519 101.112 57.519 99.6491V24.3947C57.519 21.2893 60.0348 18.774 63.135 18.774H84.416Z" fill="white"/>
</g>
<g style="mix-blend-mode:soft-light">
<path d="M65.9621 105.268L91.9354 18.774H88.0051L62.0317 105.268H65.9621Z" fill="white"/>
</g>
<path d="M86.0963 42.9665L78.1912 38.3981V47.5341L86.0963 42.9665Z" fill="url(#paint30_linear_923_10379)"/>
<path d="M93.955 79.6782H89.9166V80.5622H93.955V79.6782Z" fill="#D4DBE1"/>
<path d="M93.955 81.033H89.9166V81.9169H93.955V81.033Z" fill="#D4DBE1"/>
<path d="M90.3393 70.2458C88.2032 70.2458 86.4659 68.5064 86.4659 66.3691C86.4659 64.2318 88.2039 62.4924 90.3393 62.4924C92.4748 62.4924 94.2127 64.2318 94.2127 66.3691C94.2127 68.5064 92.4748 70.2458 90.3393 70.2458ZM90.3393 62.8883C88.4218 62.8883 86.8615 64.45 86.8615 66.3691C86.8615 68.2882 88.4218 69.8499 90.3393 69.8499C92.2568 69.8499 93.8171 68.2882 93.8171 66.3691C93.8171 64.45 92.2568 62.8883 90.3393 62.8883Z" fill="#D4DBE1"/>
<path d="M83.6116 63.3459H72.4453V64.328H83.6116V63.3459Z" fill="#D4DBE1"/>
<path d="M83.6117 65.8777H74.0925V66.8598H83.6117V65.8777Z" fill="#D4DBE1"/>
<path d="M83.6117 68.4089H68.3057V69.3916H83.6117V68.4089Z" fill="#D4DBE1"/>
<path d="M81.1609 50.2271C73.3671 46.2443 74.4994 38.6017 74.4994 38.6017C79.6184 38.6017 81.1609 36.9319 81.1609 36.9319C81.1609 36.9319 82.702 38.6017 87.8223 38.6017C87.8223 38.6017 88.9547 46.2443 81.1609 50.2271Z" fill="url(#paint31_linear_923_10379)"/>
<path d="M87.8216 38.6017C82.7013 38.6017 81.1601 36.9319 81.1601 36.9319C81.1601 36.9319 79.6177 38.6017 74.4987 38.6017C74.4987 38.6017 73.3664 46.2443 81.1601 50.2271C88.9539 46.2443 87.8216 38.6017 87.8216 38.6017ZM81.1601 49.3955C74.3423 45.9101 75.3329 39.2251 75.3329 39.2251C79.8105 39.2251 81.1601 37.7648 81.1601 37.7648C81.1601 37.7648 82.5091 39.2251 86.9874 39.2251C86.9874 39.2251 87.9786 45.9108 81.1601 49.3955Z" fill="url(#paint32_linear_923_10379)"/>
<path opacity="0.72" d="M55.524 96.1664V105.873C55.524 107.938 66.6718 109.612 80.4227 109.612C94.1737 109.612 105.321 107.938 105.321 105.873V96.1664H55.5247H55.524Z" fill="url(#paint33_linear_923_10379)"/>
<path d="M67.8094 67.1735H51.7792C50.5137 67.1735 49.4861 66.1449 49.4861 64.8784V48.8352C49.4861 47.5686 50.5137 46.5401 51.7792 46.5401H67.8094C69.0749 46.5401 70.1025 47.5686 70.1025 48.8352V64.879C70.1025 66.1456 69.0749 67.1741 67.8094 67.1741V67.1735Z" fill="url(#paint34_linear_923_10379)"/>
<path d="M58.9105 62.1575H54.0936V62.822H58.9105V62.1575Z" fill="white"/>
<path d="M61.2249 63.7523H54.0936V64.4168H61.2249V63.7523Z" fill="white"/>
<path d="M55.1822 59.5321H53.321V57.6714H53.6643V59.1893H55.1822V59.5321Z" fill="white"/>
<path d="M66.2676 59.5321H64.4071V59.1893H65.925V57.6714H66.2676V59.5321Z" fill="white"/>
<path d="M53.6643 50.7496H53.321V48.8882H55.1822V49.2317H53.6643V50.7496Z" fill="white"/>
<path d="M66.2676 50.7496H65.925V49.2317H64.4071V48.8882H66.2676V50.7496Z" fill="white"/>
<g style="mix-blend-mode:soft-light">
<path d="M111.543 93.2824H106.639L107.679 91.2001L108.715 89.1252L108.72 89.1172L108.865 88.8275L109.66 87.2379L109.761 87.0343L110.689 85.1782L113.454 85.2445L113.404 87.3274L111.862 87.291V89.1172H111.163V91.2001H111.543V93.2824Z" fill="white"/>
</g>
<path d="M88.0827 20.2269H76.1982C76.0171 20.2269 75.8702 20.3739 75.8702 20.5552V20.7561C75.8702 20.9374 76.0171 21.0844 76.1982 21.0844H88.0827C88.2638 21.0844 88.4107 20.9374 88.4107 20.7561V20.5552C88.4107 20.3739 88.2638 20.2269 88.0827 20.2269Z" fill="#5C5C5C"/>
<path d="M24.5278 100.776C24.5278 100.776 25.2884 102.138 25.7403 102.414C26.3035 102.758 27.3961 103.861 27.7784 103.912C28.16 103.963 29.5322 104.206 29.2671 104.981C29.0498 105.617 25.7767 105.526 25.4077 105.208C25.0386 104.889 23.9348 103.746 23.4889 103.772C23.0436 103.797 23.2086 105.42 23.2086 105.42H22.7249C22.7249 105.42 22.556 103.841 22.5355 103.57C22.4752 102.766 23.0476 102.175 23.0735 101.716C23.0986 101.257 23.1251 100.916 23.1251 100.916L24.5271 100.776H24.5278Z" fill="#16202E"/>
<path d="M27.6684 103.875C27.6684 103.875 26.5897 104.249 25.7589 103.771C24.9287 103.293 23.3345 102.568 22.7714 102.562C22.7714 102.562 23.0788 101.621 23.0848 101.517C23.0914 101.411 23.1252 100.916 23.1252 100.916L24.5186 100.692C24.5186 100.692 25.4223 102.021 25.8205 102.333C26.2187 102.645 27.2391 103.426 27.6684 103.875V103.875Z" fill="#EEA886"/>
<path d="M11.3732 102.058C11.3732 102.058 11.5077 103 11.6548 103.257C11.8019 103.515 12.2054 104.824 12.3889 105.069C12.5724 105.314 12.9759 107.15 12.3889 107.371C11.8019 107.591 10.4198 107.958 9.95463 107.223C9.48951 106.489 9.42855 105.755 9.5021 105.191C9.57564 104.628 10.1335 102.043 10.1262 101.788C10.1183 101.532 11.3739 102.057 11.3739 102.057L11.3732 102.058Z" fill="#EEA886"/>
<path d="M12.1544 104.561C12.1544 104.561 12.2173 105.988 11.1406 105.988C10.064 105.988 9.58758 104.69 9.58758 104.69C9.58758 104.69 9.22051 105.327 9.58758 106.686C9.95464 108.044 11.4832 107.763 11.8257 107.714C12.1683 107.665 13.7916 107.235 12.1544 104.561Z" fill="#16202E"/>
<path d="M13.1488 69.5534C13.1488 69.5534 11.7574 71.3287 11.2665 72.5024C10.7755 73.6768 9.95657 76.2498 10.0659 78.2432C10.1752 80.2365 10.8298 83.9773 10.639 84.8241C10.4482 85.6709 10.2574 87.4183 10.0526 88.0191C9.84791 88.6199 9.02963 90.3672 8.94748 92.1696C8.86532 93.972 9.52987 101.877 9.47554 102.614C9.42121 103.351 11.8588 102.9 11.8588 102.9C11.8588 102.9 11.9211 95.7738 12.1941 94.545C12.467 93.3162 12.7943 89.1384 13.0395 88.838C13.2853 88.5376 13.9744 85.3699 14.0188 84.8526C14.0618 84.3519 16.9805 75.6921 17.1441 74.2173C17.3078 72.7431 20.9625 69.5528 20.9625 69.5528C20.9625 69.5528 17.3773 68.1808 13.1488 69.5528V69.5534Z" fill="#3A3F66"/>
<path d="M22.2141 101.167C21.6959 101.085 20.3072 93.0987 20.4709 91.6782C20.6345 90.2585 20.7982 87.2306 20.3344 86.0005C20.0302 85.1928 18.1287 81.0833 16.8493 78.1987C16.669 77.7915 16.5007 77.4089 16.351 77.0634C15.9448 76.1244 15.6765 75.4593 15.6692 75.322C15.6421 74.7756 13.8631 65.3691 20.8909 69.5534C20.8909 69.5534 20.9625 70.2975 21.044 70.5707C21.1261 70.8439 23.0085 77.8068 23.1993 80.4825C23.3908 83.1583 23.8818 85.4282 23.9633 86.0005C24.0454 86.5721 23.8818 88.4833 23.7181 88.9753C23.5544 89.4673 24.7822 100.564 24.8643 100.837C24.9458 101.111 22.7329 101.249 22.2147 101.167H22.2141Z" fill="#3A3F66"/>
<path d="M18.134 54.6906C18.134 54.6906 19.4638 55.3186 19.9256 55.4108C20.3874 55.503 22.1796 57.8319 22.4937 58.682C22.8078 59.5322 22.4937 60.8074 21.8484 62.3054C21.2024 63.8027 21.8119 64.3014 21.5164 65.7988C21.2216 67.2961 20.9632 70.4666 21.0188 71.2981C21.0745 72.1297 13.549 72.2889 11.831 70.7736C11.831 70.7736 13.557 68.1854 13.7783 67.816C13.9996 67.446 13.8147 65.4314 13.6113 64.9142C13.4079 64.3969 11.9681 60.1217 11.9681 60.1217C11.9681 60.1217 10.9478 56.6157 11.9469 55.8392C12.8149 55.1641 15.1803 54.9234 15.605 54.7755C16.0297 54.6276 17.2654 54.5626 18.1333 54.6919L18.134 54.6906Z" fill="#EDDAD3"/>
<path d="M18.5594 57.6575L19.367 56.7106L18.6647 54.2178C18.6647 54.2178 18.4295 55.6064 18.5594 57.6582V57.6575Z" fill="#D6C5BE"/>
<path d="M18.7681 53.1548C18.7681 53.1548 18.5031 55.5965 18.5587 56.3909C18.5587 56.3909 17.1773 57.7769 15.605 54.7742C15.605 54.7742 16.2662 53.5361 15.768 51.8491C15.2697 50.1621 18.7681 53.1548 18.7681 53.1548Z" fill="#EEA886"/>
<path d="M18.5594 56.3909V57.6575L16.9692 56.4685L18.5594 56.3909Z" fill="#EEA886"/>
<path d="M18.5593 57.6575L17.8987 56.8399L15.6745 54.6217L14.955 55.3153L18.5593 57.6575Z" fill="#D6C5BE"/>
<path d="M16.0051 72.4978C15.379 75.4978 10.849 72.1602 10.849 72.1602C10.849 72.1602 13.7868 67.2205 12.6174 63.2722C12.6081 63.2411 12.5988 63.2099 12.5896 63.1787C12.5147 62.9294 12.4405 62.692 12.3663 62.4665C12.353 62.4254 12.3398 62.385 12.3265 62.3452C12.0714 61.5693 11.8634 60.9267 11.6938 60.3995C11.1717 58.7735 11.0206 58.239 11.0206 58.239C11.0206 58.239 11.2446 55.7099 12.4915 55.4327C13.7444 55.1535 15.0689 54.8922 15.0689 54.8922C15.0689 54.8922 17.2328 57.6694 17.3223 58.9174C17.4124 60.1648 16.6312 69.4984 16.0051 72.4991V72.4978Z" fill="#494F80"/>
<path d="M22.6793 59.257C22.6793 59.257 22.8197 60.9771 21.639 63.2364C21.639 63.2364 21.6642 66.261 21.7013 67.3147C21.7384 68.3684 21.9889 72.3519 21.9889 72.3519L20.6922 73.1125C20.4312 73.2657 20.1072 73.0535 20.1436 72.7524C20.51 69.7206 21.7026 58.2192 19.1206 55.1283L20.2708 55.5255C20.2708 55.5255 22.6793 58.054 22.6793 59.257Z" fill="#494F80"/>
<path d="M19.367 56.7099L20.3854 56.9917L18.6647 54.2172L19.367 56.7099Z" fill="#FAE6DE"/>
<path d="M17.8988 56.8399L16.9692 58.0601L15.069 54.8909L15.6746 54.6217L17.8988 56.8399Z" fill="#FAE6DE"/>
<path d="M17.8054 45.2741C18.7787 45.1806 20.9651 45.5686 21.421 48.1395C21.421 48.1395 21.3759 48.8405 21.2328 49.3968C21.0897 49.9526 21.6569 51.5454 21.533 51.6309C21.4084 51.7165 20.8843 51.8438 20.8843 51.8438C20.8843 51.8438 20.3993 53.6363 19.7791 53.6502C19.159 53.6641 16.793 53.2914 15.5844 51.1482C14.3766 49.0049 13.875 45.6521 17.8047 45.2741H17.8054Z" fill="#EEA886"/>
<path d="M21.421 48.1395C21.421 48.1395 19.8892 49.2954 18.3282 49.5878C16.7672 49.8809 15.9231 52.5984 15.9231 52.5984C15.9231 52.5984 13.3052 48.6607 15.118 46.1388C16.9315 43.6169 21.6192 45.1077 21.4204 48.1389L21.421 48.1395Z" fill="#344052"/>
<path d="M17.6715 49.5474C17.6483 49.243 17.2886 48.8027 16.8095 49.2424C16.3311 49.682 17.0699 51.0978 17.4714 50.9367C17.8729 50.7755 17.6947 49.8617 17.6715 49.5474Z" fill="#EEA886"/>
<path d="M18.772 53.5076C18.7369 53.6972 18.7005 53.9194 18.6706 54.1541C17.3607 53.4068 16.6743 52.4545 16.6743 52.4545C17.4323 53.0779 18.772 53.5069 18.772 53.5069V53.5076Z" fill="#A77860"/>
<path d="M24.4933 64.6602C24.4933 64.6602 24.7225 64.7133 24.8981 64.6317C25.2009 64.4898 25.3983 64.0243 25.8515 64.1576C26.3054 64.2909 26.212 65.7836 26.0384 66.0329C25.8648 66.2823 25.1956 66.2836 24.2892 65.8937C23.3828 65.5037 24.4933 64.6602 24.4933 64.6602Z" fill="#EEA886"/>
<path d="M25.6912 64.1337C25.6912 64.1337 26.4021 64.0482 27.2019 64.0448C27.9042 64.0422 28.7158 64.1649 28.7695 64.2982C28.8291 64.446 28.0645 64.4009 27.3668 64.4487C26.7248 64.4925 26.856 64.586 26.856 64.586C26.856 64.586 26.8202 64.5574 27.5252 64.639C28.2832 64.7272 29.0484 64.8917 29.0928 65.0561C29.114 65.1364 29.0782 65.1795 28.796 65.1907C28.9583 65.2173 28.9722 65.2643 28.9649 65.33C28.9259 65.6722 27.7849 65.7086 27.3317 65.7226C27.6796 65.7133 27.9347 65.7425 27.7683 65.9414C27.5775 66.1695 25.9642 66.1516 25.3844 66.198C24.7517 66.2491 25.6912 64.133 25.6912 64.133V64.1337Z" fill="#EEA886"/>
<path d="M16.2105 49.0016C16.6889 50.0918 16.4 51.2728 15.5645 51.6402C14.729 52.0076 13.6636 51.422 13.1852 50.3318C12.7068 49.2416 12.9957 48.0606 13.8312 47.6932C14.6667 47.3259 15.7321 47.9114 16.2105 49.0016Z" fill="#344052"/>
<path d="M12.2371 55.5255C12.2371 55.5255 13.4761 55.7543 14.089 56.7105C14.7019 57.6668 15.3287 59.0282 15.4486 59.501C15.5685 59.9732 17.8928 64.3094 18.0214 64.4268C18.1499 64.5441 19.4313 64.446 20.4258 64.5435C22.0491 64.7026 24.5894 64.3246 24.5894 64.3246L24.6146 66.198C24.6146 66.198 18.3858 67.0223 17.0891 66.4394C15.5043 65.7265 11.668 60.3651 11.668 60.3651C11.668 60.3651 9.67829 56.5971 12.2365 55.5262L12.2371 55.5255Z" fill="#494F80"/>
<path d="M14.7542 64.2915L12.3259 62.3452C12.0708 61.5693 11.8627 60.9267 11.6931 60.3995C11.6931 60.3995 14.1539 63.6263 14.7535 64.2921L14.7542 64.2915Z" fill="#171929"/>
<path d="M22.4566 63.1695C22.281 62.9845 22.108 62.7975 21.9391 62.6118C21.9391 62.6118 22.597 60.8605 22.6401 60.1198C22.6401 60.1198 22.7945 61.7756 22.4566 63.1695Z" fill="#171929"/>
<path d="M107.696 0H88.4424C86.9212 0 85.6881 1.23419 85.6881 2.75665V22.0267C85.6881 23.5491 86.9212 24.7833 88.4424 24.7833H107.696C109.217 24.7833 110.45 23.5491 110.45 22.0267V2.75665C110.45 1.23419 109.217 0 107.696 0Z" fill="url(#paint35_linear_923_10379)"/>
<g style="mix-blend-mode:hard-light">
<path d="M95.8843 8.2076C95.5868 8.2076 95.3112 8.15653 95.0568 8.05441C94.8024 7.95229 94.5811 7.81436 94.3949 7.63995C94.208 7.46621 94.0596 7.26197 93.949 7.02788C93.8383 6.79446 93.7833 6.5418 93.7833 6.26925C93.7833 5.99671 93.8383 5.75533 93.949 5.51726C94.059 5.2792 94.208 5.07561 94.3949 4.90519C94.5817 4.73543 94.8024 4.59948 95.0568 4.49736C95.3112 4.39524 95.5875 4.34418 95.8843 4.34418C96.1812 4.34418 96.4469 4.39524 96.7059 4.49736C96.965 4.59948 97.1876 4.73543 97.3745 4.90519C97.5613 5.07495 97.7097 5.2792 97.8204 5.51726C97.9303 5.75533 97.986 6.00599 97.986 6.26925C97.986 6.53252 97.9303 6.79379 97.8204 7.02788C97.7097 7.26197 97.5613 7.46555 97.3745 7.63995C97.1876 7.81436 96.965 7.95229 96.7059 8.05441C96.4469 8.15653 96.1732 8.2076 95.8843 8.2076ZM94.4962 12.9231L98.0874 8.73014L101.398 4.37137L102.175 5.0597L98.6983 9.17643L95.2728 13.6115L94.4962 12.9231ZM95.8843 7.35348C96.0115 7.35348 96.1282 7.32364 96.2348 7.26396C96.3408 7.20494 96.4363 7.12602 96.5211 7.02788C96.6059 6.9304 96.6715 6.81568 96.7185 6.68371C96.7649 6.55175 96.7887 6.41382 96.7887 6.26925C96.7887 5.97217 96.7 5.71952 96.5211 5.51063C96.3428 5.30241 96.1301 5.19829 95.8843 5.19829C95.7571 5.19829 95.6405 5.22813 95.5338 5.28782C95.4278 5.3475 95.3324 5.42575 95.2476 5.52389C95.1628 5.62137 95.0965 5.73411 95.0502 5.86143C95.0031 5.98875 94.9799 6.12469 94.9799 6.26925C94.9799 6.567 95.0694 6.82165 95.2476 7.03385C95.4258 7.24605 95.6379 7.35215 95.8843 7.35215V7.35348ZM100.8 13.6493C100.502 13.6493 100.227 13.5982 99.9724 13.4961C99.718 13.394 99.4967 13.258 99.3105 13.0883C99.1236 12.9185 98.9752 12.7169 98.8646 12.4828C98.7539 12.2494 98.6989 11.9967 98.6989 11.7242C98.6989 11.4516 98.7539 11.1997 98.8646 10.9662C98.9746 10.7328 99.1236 10.5286 99.3105 10.3542C99.4973 10.1804 99.718 10.0418 99.9724 9.9397C100.227 9.83758 100.503 9.78652 100.8 9.78652C101.097 9.78652 101.373 9.83758 101.627 9.9397C101.882 10.0418 102.105 10.1798 102.296 10.3542C102.487 10.5286 102.635 10.7321 102.742 10.9662C102.848 11.1997 102.901 11.453 102.901 11.7242C102.901 11.9954 102.848 12.2487 102.742 12.4828C102.636 12.7169 102.487 12.9185 102.296 13.0883C102.105 13.258 101.882 13.394 101.627 13.4961C101.373 13.5982 101.097 13.6493 100.8 13.6493ZM100.8 12.7952C100.927 12.7952 101.044 12.7653 101.15 12.7063C101.256 12.6466 101.351 12.5684 101.437 12.4702C101.521 12.3727 101.587 12.26 101.634 12.1327C101.68 12.0054 101.704 11.8694 101.704 11.7249C101.704 11.5717 101.679 11.4298 101.628 11.2978C101.577 11.1658 101.512 11.0518 101.431 10.9536C101.35 10.8562 101.254 10.7799 101.144 10.7242C101.034 10.6691 100.919 10.6413 100.801 10.6413C100.673 10.6413 100.556 10.6711 100.45 10.7308C100.344 10.7905 100.249 10.8688 100.164 10.9669C100.079 11.0644 100.013 11.1791 99.9664 11.3111C99.9194 11.443 99.8962 11.581 99.8962 11.7255C99.8962 12.0233 99.9856 12.2759 100.164 12.4841C100.342 12.6924 100.554 12.7965 100.801 12.7965L100.8 12.7952Z" fill="#F5F5F5"/>
</g>
<g style="mix-blend-mode:hard-light">
<path d="M92.8021 16.4152H90.5673V14.1797H90.9787V16.0027H92.8021V16.4152Z" fill="#F5F5F5"/>
</g>
<g style="mix-blend-mode:hard-light">
<path d="M106.117 16.4152H103.882V16.0027H105.706V14.1797H106.117V16.4152Z" fill="#F5F5F5"/>
</g>
<g style="mix-blend-mode:hard-light">
<path d="M90.9787 4.88662H90.5673V2.65186H92.8021V3.06366H90.9787V4.88662Z" fill="#F5F5F5"/>
</g>
<g style="mix-blend-mode:hard-light">
<path d="M106.117 4.88662H105.706V3.06366H103.882V2.65186H106.117V4.88662Z" fill="#F5F5F5"/>
</g>
<g style="mix-blend-mode:hard-light">
<path d="M103.065 19.0253H91.6002V19.8231H103.065V19.0253Z" fill="#F5F5F5"/>
</g>
<g style="mix-blend-mode:hard-light">
<path d="M99.4437 20.9404H91.6002V21.7382H99.4437V20.9404Z" fill="#F5F5F5"/>
</g>
<path d="M137.31 103.64H120.17V105.723H137.31V103.64Z" fill="url(#paint36_linear_923_10379)"/>
<path d="M136.929 101.558H119.789V103.641H136.929V101.558Z" fill="url(#paint37_linear_923_10379)"/>
<path d="M137.629 99.4747H120.489V101.558H137.629V99.4747Z" fill="url(#paint38_linear_923_10379)"/>
<path d="M139.22 97.685L139.171 99.7672L137.629 99.7314L131.566 99.5855L126.942 99.4747L122.036 99.3574L122.085 97.2745L132.596 97.5258L139.22 97.685Z" fill="url(#paint39_linear_923_10379)"/>
<g style="mix-blend-mode:soft-light">
<path d="M139.22 97.6849L139.171 99.7671L137.629 99.7313V101.558H136.93V103.64H137.31V105.723H128.499L129.54 103.64L130.581 101.558L131.566 99.5854L131.622 99.4747L132.596 97.5258L139.22 97.6849Z" fill="white"/>
</g>
<defs>
<linearGradient id="paint0_linear_923_10379" x1="73.1093" y1="122.991" x2="77.5315" y2="50.3741" gradientUnits="userSpaceOnUse">
<stop stop-color="#A6A6A6"/>
<stop offset="1" stop-color="#5C5C5C"/>
</linearGradient>
<linearGradient id="paint1_linear_923_10379" x1="116.963" y1="42.3782" x2="116.963" y2="50.8345" gradientUnits="userSpaceOnUse">
<stop stop-color="#FFC05C"/>
<stop offset="1" stop-color="#DE304B"/>
</linearGradient>
<linearGradient id="paint2_linear_923_10379" x1="113.511" y1="-12.5537" x2="113.511" y2="66.0124" gradientUnits="userSpaceOnUse">
<stop stop-color="#FFC05C"/>
<stop offset="1" stop-color="#FF3857"/>
</linearGradient>
<linearGradient id="paint3_linear_923_10379" x1="71.4999" y1="53.6508" x2="175.218" y2="53.6508" gradientUnits="userSpaceOnUse">
<stop stop-color="#FFB136"/>
<stop offset="1" stop-color="#FF3857"/>
</linearGradient>
<linearGradient id="paint4_linear_923_10379" x1="97.4441" y1="102.685" x2="114.585" y2="102.685" gradientUnits="userSpaceOnUse">
<stop stop-color="#FF9340"/>
<stop offset="1" stop-color="#FFCE45"/>
</linearGradient>
<linearGradient id="paint5_linear_923_10379" x1="98.0688" y1="100.602" x2="115.209" y2="100.602" gradientUnits="userSpaceOnUse">
<stop stop-color="#F58631"/>
<stop offset="1" stop-color="#F2C23F"/>
</linearGradient>
<linearGradient id="paint6_linear_923_10379" x1="97.7203" y1="98.5191" x2="114.86" y2="98.5191" gradientUnits="userSpaceOnUse">
<stop stop-color="#FF9340"/>
<stop offset="1" stop-color="#FFCE45"/>
</linearGradient>
<linearGradient id="paint7_linear_923_10379" x1="0.000131871" y1="96.4369" x2="0.0663887" y2="96.4369" gradientUnits="userSpaceOnUse">
<stop stop-color="#F58631"/>
<stop offset="1" stop-color="#F2C23F"/>
</linearGradient>
<linearGradient id="paint8_linear_923_10379" x1="98.363" y1="94.354" x2="115.504" y2="94.354" gradientUnits="userSpaceOnUse">
<stop stop-color="#FF9340"/>
<stop offset="1" stop-color="#FFCE45"/>
</linearGradient>
<linearGradient id="paint9_linear_923_10379" x1="98.801" y1="104.682" x2="115.943" y2="104.682" gradientUnits="userSpaceOnUse">
<stop stop-color="#F58631"/>
<stop offset="1" stop-color="#F2C23F"/>
</linearGradient>
<linearGradient id="paint10_linear_923_10379" x1="94.3916" y1="92.2413" x2="111.532" y2="92.2413" gradientUnits="userSpaceOnUse">
<stop stop-color="#F58631"/>
<stop offset="1" stop-color="#F2C23F"/>
</linearGradient>
<linearGradient id="paint11_linear_923_10379" x1="94.0093" y1="90.1584" x2="111.151" y2="90.1584" gradientUnits="userSpaceOnUse">
<stop stop-color="#FF9340"/>
<stop offset="1" stop-color="#FFCE45"/>
</linearGradient>
<linearGradient id="paint12_linear_923_10379" x1="94.7103" y1="88.0761" x2="111.85" y2="88.0761" gradientUnits="userSpaceOnUse">
<stop stop-color="#F58631"/>
<stop offset="1" stop-color="#F2C23F"/>
</linearGradient>
<linearGradient id="paint13_linear_923_10379" x1="96.2554" y1="86.0807" x2="113.442" y2="86.0807" gradientUnits="userSpaceOnUse">
<stop stop-color="#FF9340"/>
<stop offset="1" stop-color="#FFCE45"/>
</linearGradient>
<linearGradient id="paint14_linear_923_10379" x1="80.4227" y1="101.276" x2="80.4227" y2="108.402" gradientUnits="userSpaceOnUse">
<stop stop-color="#D1D7E0"/>
<stop offset="1" stop-color="#FFA6AA"/>
</linearGradient>
<linearGradient id="paint15_linear_923_10379" x1="57.527" y1="93.5716" x2="57.527" y2="56.7007" gradientUnits="userSpaceOnUse">
<stop stop-color="#FF7575"/>
<stop offset="1" stop-color="#CC2626"/>
</linearGradient>
<linearGradient id="paint16_linear_923_10379" x1="73.1623" y1="93.5721" x2="73.1623" y2="56.7006" gradientUnits="userSpaceOnUse">
<stop stop-color="#FF7575"/>
<stop offset="1" stop-color="#FFD455"/>
</linearGradient>
<linearGradient id="paint17_linear_923_10379" x1="0.000165172" y1="93.5722" x2="0.0665351" y2="56.7007" gradientUnits="userSpaceOnUse">
<stop stop-color="#FF7575"/>
<stop offset="1" stop-color="#FFD455"/>
</linearGradient>
<linearGradient id="paint18_linear_923_10379" x1="56.0899" y1="82.3639" x2="80.1922" y2="14.2577" gradientUnits="userSpaceOnUse">
<stop stop-color="#FF7575"/>
<stop offset="1" stop-color="#FFD455"/>
</linearGradient>
<linearGradient id="paint19_linear_923_10379" x1="73.7997" y1="93.7373" x2="73.7997" y2="72.9666" gradientUnits="userSpaceOnUse">
<stop stop-color="#FF7575"/>
<stop offset="1" stop-color="#FFD455"/>
</linearGradient>
<linearGradient id="paint20_linear_923_10379" x1="73.7997" y1="93.7373" x2="73.7997" y2="72.9666" gradientUnits="userSpaceOnUse">
<stop stop-color="#FF7575"/>
<stop offset="1" stop-color="#FFD455"/>
</linearGradient>
<linearGradient id="paint21_linear_923_10379" x1="39.9198" y1="76.4905" x2="42.3684" y2="69.5714" gradientUnits="userSpaceOnUse">
<stop stop-color="#FF7575"/>
<stop offset="1" stop-color="#FFD455"/>
</linearGradient>
<linearGradient id="paint22_linear_923_10379" x1="33.3837" y1="71.6894" x2="48.9017" y2="71.6894" gradientUnits="userSpaceOnUse">
<stop stop-color="#FF7575"/>
<stop offset="1" stop-color="#FFD455"/>
</linearGradient>
<linearGradient id="paint23_linear_923_10379" x1="33.3837" y1="74.3718" x2="48.9017" y2="74.3718" gradientUnits="userSpaceOnUse">
<stop stop-color="#FF7575"/>
<stop offset="1" stop-color="#FFD455"/>
</linearGradient>
<linearGradient id="paint24_linear_923_10379" x1="80.0138" y1="125.935" x2="80.0138" y2="-38.231" gradientUnits="userSpaceOnUse">
<stop stop-color="#FFE9D9"/>
<stop offset="1" stop-color="#B34542"/>
</linearGradient>
<linearGradient id="paint25_linear_923_10379" x1="81.1601" y1="125.935" x2="81.1601" y2="-38.231" gradientUnits="userSpaceOnUse">
<stop stop-color="#FFE9D9"/>
<stop offset="1" stop-color="#C7C1B9"/>
</linearGradient>
<linearGradient id="paint26_linear_923_10379" x1="81.1607" y1="88.2213" x2="81.1607" y2="26.9498" gradientUnits="userSpaceOnUse">
<stop stop-color="#FF9F55"/>
<stop offset="1" stop-color="#FFD255"/>
</linearGradient>
<linearGradient id="paint27_linear_923_10379" x1="81.1608" y1="55.8903" x2="81.1608" y2="34.1985" gradientUnits="userSpaceOnUse">
<stop stop-color="#FFC05C"/>
<stop offset="1" stop-color="#FF3857"/>
</linearGradient>
<linearGradient id="paint28_linear_923_10379" x1="81.3721" y1="76.8029" x2="81.3721" y2="91.6047" gradientUnits="userSpaceOnUse">
<stop stop-color="#FF9F55"/>
<stop offset="1" stop-color="#FFD255"/>
</linearGradient>
<linearGradient id="paint29_linear_923_10379" x1="81.3721" y1="76.8028" x2="81.3721" y2="91.6046" gradientUnits="userSpaceOnUse">
<stop stop-color="#FF9F55"/>
<stop offset="1" stop-color="#FFD255"/>
</linearGradient>
<linearGradient id="paint30_linear_923_10379" x1="82.144" y1="52.8458" x2="82.144" y2="41.0752" gradientUnits="userSpaceOnUse">
<stop stop-color="#2F4380"/>
<stop offset="1" stop-color="#57BFFF"/>
</linearGradient>
<linearGradient id="paint31_linear_923_10379" x1="81.1609" y1="52.9672" x2="81.1609" y2="34.9532" gradientUnits="userSpaceOnUse">
<stop stop-color="#FFC05C"/>
<stop offset="1" stop-color="#FF3857"/>
</linearGradient>
<linearGradient id="paint32_linear_923_10379" x1="81.1608" y1="53.7948" x2="81.1608" y2="36.4757" gradientUnits="userSpaceOnUse">
<stop stop-color="#FFC05C"/>
<stop offset="1" stop-color="#FF3857"/>
</linearGradient>
<linearGradient id="paint33_linear_923_10379" x1="80.4227" y1="97.0994" x2="80.4227" y2="122.027" gradientUnits="userSpaceOnUse">
<stop stop-color="#E67A56"/>
<stop offset="0.7" stop-color="#E67A56"/>
</linearGradient>
<linearGradient id="paint34_linear_923_10379" x1="64.8305" y1="86.5383" x2="59.2968" y2="53.9767" gradientUnits="userSpaceOnUse">
<stop stop-color="#FFE9D9"/>
<stop offset="1" stop-color="#C7C1B9"/>
</linearGradient>
<linearGradient id="paint35_linear_923_10379" x1="98.0689" y1="28.2495" x2="98.0689" y2="2.61209" gradientUnits="userSpaceOnUse">
<stop stop-color="#FFE9D9"/>
<stop offset="1" stop-color="#C7C1B9"/>
</linearGradient>
<linearGradient id="paint36_linear_923_10379" x1="117.515" y1="104.682" x2="141.912" y2="104.682" gradientUnits="userSpaceOnUse">
<stop stop-color="#D97325"/>
<stop offset="1" stop-color="#FFCE45"/>
</linearGradient>
<linearGradient id="paint37_linear_923_10379" x1="117.899" y1="102.599" x2="130.276" y2="102.599" gradientUnits="userSpaceOnUse">
<stop stop-color="#D97325"/>
<stop offset="1" stop-color="#FFCE45"/>
</linearGradient>
<linearGradient id="paint38_linear_923_10379" x1="120.32" y1="100.516" x2="133.378" y2="100.516" gradientUnits="userSpaceOnUse">
<stop stop-color="#D97325"/>
<stop offset="1" stop-color="#FFCE45"/>
</linearGradient>
<linearGradient id="paint39_linear_923_10379" x1="119.873" y1="98.5212" x2="131.203" y2="98.5212" gradientUnits="userSpaceOnUse">
<stop stop-color="#D97325"/>
<stop offset="1" stop-color="#FFCE45"/>
</linearGradient>
</defs>
</svg>
