<svg width="25" height="21" viewBox="0 0 25 21" fill="none" xmlns="http://www.w3.org/2000/svg">
<path d="M1.125 0.500042C0.859784 0.500042 0.60543 0.605399 0.417893 0.792936C0.230357 0.980472 0.125 1.23483 0.125 1.50004C0.125 1.76526 0.230357 2.01961 0.417893 2.20715C0.60543 2.39469 0.859784 2.50004 1.125 2.50004H3.345L5.969 13C6.192 13.89 6.989 14.5 7.906 14.5H20.376C21.279 14.5 22.046 13.9 22.283 13.03L24.875 3.50004H22.781L20.375 12.5H7.905L5.282 2.00004C5.17365 1.56927 4.92388 1.18732 4.57268 0.915356C4.22148 0.643391 3.78918 0.497147 3.345 0.500042H1.125ZM19.125 14.5C17.48 14.5 16.125 15.855 16.125 17.5C16.125 19.145 17.48 20.5 19.125 20.5C20.77 20.5 22.125 19.145 22.125 17.5C22.125 15.855 20.77 14.5 19.125 14.5ZM10.125 14.5C8.48 14.5 7.125 15.855 7.125 17.5C7.125 19.145 8.48 20.5 10.125 20.5C11.77 20.5 13.125 19.145 13.125 17.5C13.125 15.855 11.77 14.5 10.125 14.5ZM13.125 0.500042V5.50004H10.125L14.125 9.50004L18.125 5.50004H15.125V0.500042H13.125ZM10.125 16.5C10.689 16.5 11.125 16.936 11.125 17.5C11.125 18.064 10.689 18.5 10.125 18.5C9.561 18.5 9.125 18.064 9.125 17.5C9.125 16.936 9.561 16.5 10.125 16.5ZM19.125 16.5C19.689 16.5 20.125 16.936 20.125 17.5C20.125 18.064 19.689 18.5 19.125 18.5C18.561 18.5 18.125 18.064 18.125 17.5C18.125 16.936 18.561 16.5 19.125 16.5Z" fill="#F8F8F8"/>
</svg>
