<svg width="139" height="12" viewBox="0 0 139 12" fill="none" xmlns="http://www.w3.org/2000/svg">
<g id="Ellipse 16">
<g filter="url(#filter0_i_231_6786)">
<ellipse cx="69.5" cy="6" rx="69.5" ry="6" transform="matrix(-1 0 0 1 139 0)" fill="#1A2B32"/>
</g>
<path d="M0.5 6C0.5 6.00124 0.499374 6.01774 0.521606 6.05559C0.5457 6.09663 0.593567 6.15677 0.682663 6.23251C0.864136 6.38678 1.1642 6.562 1.60635 6.74853C2.48622 7.11974 3.81326 7.48871 5.56165 7.84557C9.0504 8.55766 14.1171 9.20216 20.3991 9.74449C32.9578 10.8287 50.3177 11.5 69.5 11.5C88.6823 11.5 106.042 10.8287 118.601 9.74449C124.883 9.20216 129.95 8.55766 133.438 7.84557C135.187 7.48871 136.514 7.11974 137.394 6.74853C137.836 6.562 138.136 6.38678 138.317 6.23251C138.406 6.15677 138.454 6.09663 138.478 6.05559C138.5 6.01854 138.5 6.00195 138.5 6.0001L138.5 6L138.5 5.9999C138.5 5.99805 138.5 5.98146 138.478 5.94441C138.454 5.90337 138.406 5.84323 138.317 5.76749C138.136 5.61322 137.836 5.438 137.394 5.25147C136.514 4.88026 135.187 4.51129 133.438 4.15443C129.95 3.44234 124.883 2.79784 118.601 2.25551C106.042 1.1713 88.6823 0.5 69.5 0.5C50.3177 0.5 32.9578 1.1713 20.3991 2.25551C14.1171 2.79784 9.0504 3.44234 5.56165 4.15443C3.81326 4.51129 2.48622 4.88026 1.60635 5.25147C1.1642 5.438 0.864136 5.61322 0.682663 5.76749C0.593567 5.84323 0.5457 5.90337 0.521606 5.94441C0.499374 5.98226 0.5 5.99876 0.5 6Z" stroke="#899AA1"/>
</g>
<defs>
<filter id="filter0_i_231_6786" x="0" y="-3" width="139" height="15" filterUnits="userSpaceOnUse" color-interpolation-filters="sRGB">
<feFlood flood-opacity="0" result="BackgroundImageFix"/>
<feBlend mode="normal" in="SourceGraphic" in2="BackgroundImageFix" result="shape"/>
<feColorMatrix in="SourceAlpha" type="matrix" values="0 0 0 0 0 0 0 0 0 0 0 0 0 0 0 0 0 0 127 0" result="hardAlpha"/>
<feOffset dy="-3"/>
<feGaussianBlur stdDeviation="2"/>
<feComposite in2="hardAlpha" operator="arithmetic" k2="-1" k3="1"/>
<feColorMatrix type="matrix" values="0 0 0 0 0 0 0 0 0 0 0 0 0 0 0 0 0 0 0.05 0"/>
<feBlend mode="normal" in2="shape" result="effect1_innerShadow_231_6786"/>
</filter>
</defs>
</svg>
