<svg width="35" height="35" viewBox="0 0 35 35" fill="none" xmlns="http://www.w3.org/2000/svg">
<g id="icon-park-outline:more-app" clip-path="url(#clip0_1002_15418)">
<g id="Group">
<path id="Vector" d="M13.1251 2.91663H4.37508C3.98831 2.91663 3.61737 3.07027 3.34388 3.34376C3.07039 3.61725 2.91675 3.98819 2.91675 4.37496V13.125C2.91675 13.5117 3.07039 13.8827 3.34388 14.1562C3.61737 14.4296 3.98831 14.5833 4.37508 14.5833H13.1251C13.5119 14.5833 13.8828 14.4296 14.1563 14.1562C14.4298 13.8827 14.5834 13.5117 14.5834 13.125V4.37496C14.5834 3.98819 14.4298 3.61725 14.1563 3.34376C13.8828 3.07027 13.5119 2.91663 13.1251 2.91663ZM13.1251 20.4166H4.37508C3.98831 20.4166 3.61737 20.5703 3.34388 20.8438C3.07039 21.1173 2.91675 21.4882 2.91675 21.875V30.625C2.91675 31.0117 3.07039 31.3827 3.34388 31.6562C3.61737 31.9296 3.98831 32.0833 4.37508 32.0833H13.1251C13.5119 32.0833 13.8828 31.9296 14.1563 31.6562C14.4298 31.3827 14.5834 31.0117 14.5834 30.625V21.875C14.5834 21.4882 14.4298 21.1173 14.1563 20.8438C13.8828 20.5703 13.5119 20.4166 13.1251 20.4166ZM30.6251 2.91663H21.8751C21.4883 2.91663 21.1174 3.07027 20.8439 3.34376C20.5704 3.61725 20.4167 3.98819 20.4167 4.37496V13.125C20.4167 13.5117 20.5704 13.8827 20.8439 14.1562C21.1174 14.4296 21.4883 14.5833 21.8751 14.5833H30.6251C31.0119 14.5833 31.3828 14.4296 31.6563 14.1562C31.9298 13.8827 32.0834 13.5117 32.0834 13.125V4.37496C32.0834 3.98819 31.9298 3.61725 31.6563 3.34376C31.3828 3.07027 31.0119 2.91663 30.6251 2.91663Z" stroke="#326542" stroke-width="4" stroke-linejoin="round"/>
<path id="Vector_2" d="M20.4167 20.4166H32.0834M26.2501 26.25H32.0834M20.4167 32.0833H32.0834" stroke="#326542" stroke-width="4" stroke-linecap="round" stroke-linejoin="round"/>
</g>
</g>
<defs>
<clipPath id="clip0_1002_15418">
<rect width="35" height="35" fill="white"/>
</clipPath>
</defs>
</svg>
