<svg width="343" height="25" viewBox="0 0 343 25" fill="none" xmlns="http://www.w3.org/2000/svg">
<path d="M11.0625 1.25V0.5H10.3125V1.25H11.0625ZM15.625 1.25H16.375V0.5H15.625V1.25ZM14.6562 21.1562L14.0089 20.7776L14.0077 20.7795L14.6562 21.1562ZM12.0156 23.5625L12.3202 24.2479L12.3255 24.2455L12.0156 23.5625ZM4.26562 23.5625L3.9581 24.2466L3.96336 24.2489L4.26562 23.5625ZM1.60938 21.1562L0.956641 21.5257L0.96087 21.533L1.60938 21.1562ZM0.671875 1.25V0.5H-0.078125V1.25H0.671875ZM5.23438 1.25H5.98438V0.5H5.23438V1.25ZM5.5625 19.1562L4.8689 19.4419L4.87384 19.4533L5.5625 19.1562ZM6.54688 20.25L6.23153 20.9305L6.24142 20.9351L6.25144 20.9394L6.54688 20.25ZM9.75 20.25L10.0578 20.934L10.0653 20.9305L9.75 20.25ZM10.7188 19.1562L10.03 18.8591L10.0252 18.8707L10.7188 19.1562ZM11.0625 2H15.625V0.5H11.0625V2ZM14.875 1.25V16.875H16.375V1.25H14.875ZM14.875 16.875C14.875 18.5389 14.5672 19.823 14.0089 20.7776L15.3036 21.5349C16.037 20.2812 16.375 18.7111 16.375 16.875H14.875ZM14.0077 20.7795C13.4486 21.7419 12.6852 22.4351 11.7057 22.8795L12.3255 24.2455C13.596 23.669 14.593 22.7581 15.3048 21.533L14.0077 20.7795ZM11.711 22.8771C10.6973 23.3277 9.51749 23.5625 8.15625 23.5625V25.0625C9.69084 25.0625 11.0839 24.7973 12.3202 24.2479L11.711 22.8771ZM8.15625 23.5625C6.78395 23.5625 5.59282 23.3275 4.56789 22.8761L3.96336 24.2489C5.20926 24.7975 6.61188 25.0625 8.15625 25.0625V23.5625ZM4.57314 22.8784C3.58316 22.4334 2.81591 21.74 2.25788 20.7795L0.96087 21.533C1.67368 22.76 2.67726 23.6708 3.95811 24.2466L4.57314 22.8784ZM2.26207 20.7868C1.72052 19.8301 1.42188 18.5424 1.42188 16.875H-0.078125C-0.078125 18.7076 0.248232 20.2741 0.956682 21.5257L2.26207 20.7868ZM1.42188 16.875V1.25H-0.078125V16.875H1.42188ZM0.671875 2H5.23438V0.5H0.671875V2ZM4.48438 1.25V16.875H5.98438V1.25H4.48438ZM4.48438 16.875C4.48438 17.902 4.59529 18.7771 4.86899 19.4418L6.25601 18.8707C6.09221 18.4729 5.98438 17.8271 5.98438 16.875H4.48438ZM4.87384 19.4533C5.15858 20.1134 5.60096 20.6383 6.23153 20.9305L6.86222 19.5695C6.63863 19.4659 6.42475 19.2616 6.25116 18.8592L4.87384 19.4533ZM6.25144 20.9394C6.80793 21.1779 7.45146 21.2812 8.15625 21.2812V19.7812C7.5902 19.7812 7.16082 19.6971 6.84231 19.5606L6.25144 20.9394ZM8.15625 21.2812C8.86739 21.2812 9.51301 21.1791 10.0578 20.9339L9.44223 19.5661C9.15366 19.6959 8.73678 19.7812 8.15625 19.7812V21.2812ZM10.0653 20.9305C10.6997 20.6365 11.1383 20.1071 11.4123 19.4418L10.0252 18.8707C9.86169 19.2679 9.65451 19.4676 9.43465 19.5695L10.0653 20.9305ZM11.4074 19.4533C11.696 18.7842 11.8125 17.9043 11.8125 16.875H10.3125C10.3125 17.8248 10.1998 18.4658 10.0301 18.8592L11.4074 19.4533ZM11.8125 16.875V1.25H10.3125V16.875H11.8125ZM35.9912 1.25H36.7412V0.5H35.9912V1.25ZM35.9912 24V24.75H36.7412V24H35.9912ZM31.5694 24L30.899 24.3363L31.1065 24.75H31.5694V24ZM24.4287 9.76562L25.0991 9.42933L23.6787 9.76562H24.4287ZM24.4287 24V24.75H25.1787V24H24.4287ZM20.085 24H19.335V24.75H20.085V24ZM20.085 1.25V0.5H19.335V1.25H20.085ZM24.4444 1.25L25.115 0.914299L24.9077 0.5H24.4444V1.25ZM31.6475 15.6406L30.9768 15.9763L32.3975 15.6406H31.6475ZM31.6475 1.25V0.5H30.8975V1.25H31.6475ZM35.2412 1.25V24H36.7412V1.25H35.2412ZM35.9912 23.25H31.5694V24.75H35.9912V23.25ZM32.2398 23.6637L25.0991 9.42933L23.7584 10.1019L30.899 24.3363L32.2398 23.6637ZM23.6787 9.76562V24H25.1787V9.76562H23.6787ZM24.4287 23.25H20.085V24.75H24.4287V23.25ZM20.835 24V1.25H19.335V24H20.835ZM20.085 2H24.4444V0.5H20.085V2ZM23.7737 1.5857L30.9768 15.9763L32.3182 15.3049L25.115 0.914299L23.7737 1.5857ZM32.3975 15.6406V1.25H30.8975V15.6406H32.3975ZM31.6475 2H35.9912V0.5H31.6475V2ZM53.2637 20.2188H54.0137V19.4688H53.2637V20.2188ZM53.2637 24V24.75H54.0137V24H53.2637ZM43.8106 24H43.0606V24.75H43.8106V24ZM43.8106 20.2188V19.4688H43.0606V20.2188H43.8106ZM45.2169 1.25H45.9669V0.5H45.2169V1.25ZM45.2169 24V24.75H45.9669V24H45.2169ZM40.6387 24H39.8887V24.75H40.6387V24ZM40.6387 1.25V0.5H39.8887V1.25H40.6387ZM52.5137 20.2188V24H54.0137V20.2188H52.5137ZM53.2637 23.25H43.8106V24.75H53.2637V23.25ZM44.5606 24V20.2188H43.0606V24H44.5606ZM43.8106 20.9688H53.2637V19.4688H43.8106V20.9688ZM44.4669 1.25V24H45.9669V1.25H44.4669ZM45.2169 23.25H40.6387V24.75H45.2169V23.25ZM41.3887 24V1.25H39.8887V24H41.3887ZM40.6387 2H45.2169V0.5H40.6387V2ZM69.9581 20.2188H70.7081V19.4688H69.9581V20.2188ZM69.9581 24V24.75H70.7081V24H69.9581ZM60.0675 24H59.3175V24.75H60.0675V24ZM60.0675 20.2188V19.4688H59.3175V20.2188H60.0675ZM61.4894 1.25H62.2394V0.5H61.4894V1.25ZM61.4894 24V24.75H62.2394V24H61.4894ZM56.9113 24H56.1613V24.75H56.9113V24ZM56.9113 1.25V0.5H56.1613V1.25H56.9113ZM68.63 10.4688H69.38V9.71875H68.63V10.4688ZM68.63 14.1406V14.8906H69.38V14.1406H68.63ZM60.0675 14.1406H59.3175V14.8906H60.0675V14.1406ZM60.0675 10.4688V9.71875H59.3175V10.4688H60.0675ZM69.9269 1.25H70.6769V0.5H69.9269V1.25ZM69.9269 5.04688V5.79688H70.6769V5.04688H69.9269ZM60.0675 5.04688H59.3175V5.79688H60.0675V5.04688ZM60.0675 1.25V0.5H59.3175V1.25H60.0675ZM69.2081 20.2188V24H70.7081V20.2188H69.2081ZM69.9581 23.25H60.0675V24.75H69.9581V23.25ZM60.8175 24V20.2188H59.3175V24H60.8175ZM60.0675 20.9688H69.9581V19.4688H60.0675V20.9688ZM60.7394 1.25V24H62.2394V1.25H60.7394ZM61.4894 23.25H56.9113V24.75H61.4894V23.25ZM57.6613 24V1.25H56.1613V24H57.6613ZM56.9113 2H61.4894V0.5H56.9113V2ZM67.88 10.4688V14.1406H69.38V10.4688H67.88ZM68.63 13.3906H60.0675V14.8906H68.63V13.3906ZM60.8175 14.1406V10.4688H59.3175V14.1406H60.8175ZM60.0675 11.2188H68.63V9.71875H60.0675V11.2188ZM69.1769 1.25V5.04688H70.6769V1.25H69.1769ZM69.9269 4.29688H60.0675V5.79688H69.9269V4.29688ZM60.8175 5.04688V1.25H59.3175V5.04688H60.8175ZM60.0675 2H69.9269V0.5H60.0675V2ZM81.8244 5.3125L82.5499 5.50238L82.5648 5.44557L82.5706 5.38713L81.8244 5.3125ZM76.9337 24V24.75H77.5127L77.6593 24.1899L76.9337 24ZM72.1056 24L71.3898 23.7763L71.0855 24.75H72.1056V24ZM79.215 1.25V0.5H78.6636L78.4991 1.02629L79.215 1.25ZM82.2306 1.25L82.9769 1.32463L83.0594 0.5H82.2306V1.25ZM85.6837 24L84.9585 24.191L85.1057 24.75H85.6837V24ZM80.7619 5.3125L80.0165 5.39564L80.0226 5.45032L80.0366 5.50352L80.7619 5.3125ZM80.3087 1.25V0.5H79.4704L79.5634 1.33314L80.3087 1.25ZM83.3712 1.25L84.0865 1.0245L83.9212 0.5H83.3712V1.25ZM90.5431 24V24.75H91.5659L91.2584 23.7745L90.5431 24ZM85.8556 15.5156H86.6056V14.7656H85.8556V15.5156ZM85.8556 19.3125V20.0625H86.6056V19.3125H85.8556ZM75.59 19.3125H74.84V20.0625H75.59V19.3125ZM75.59 15.5156V14.7656H74.84V15.5156H75.59ZM81.0988 5.12262L76.2082 23.8101L77.6593 24.1899L82.5499 5.50238L81.0988 5.12262ZM76.9337 23.25H72.1056V24.75H76.9337V23.25ZM72.8215 24.2237L79.9309 1.47371L78.4991 1.02629L71.3898 23.7763L72.8215 24.2237ZM79.215 2H82.2306V0.5H79.215V2ZM81.4843 1.17537L81.0781 5.23787L82.5706 5.38713L82.9769 1.32463L81.4843 1.17537ZM86.409 23.809L81.4871 5.12148L80.0366 5.50352L84.9585 24.191L86.409 23.809ZM81.5072 5.22936L81.0541 1.16686L79.5634 1.33314L80.0165 5.39564L81.5072 5.22936ZM80.3087 2H83.3712V0.5H80.3087V2ZM82.6559 1.4755L89.8278 24.2255L91.2584 23.7745L84.0865 1.0245L82.6559 1.4755ZM90.5431 23.25H85.6837V24.75H90.5431V23.25ZM85.1056 15.5156V19.3125H86.6056V15.5156H85.1056ZM85.8556 18.5625H75.59V20.0625H85.8556V18.5625ZM76.34 19.3125V15.5156H74.84V19.3125H76.34ZM75.59 16.2656H85.8556V14.7656H75.59V16.2656ZM102.722 15.9844L102.14 16.4581L102.146 16.4645L102.151 16.4707L102.722 15.9844ZM101.706 15.1406L101.301 15.7715L101.307 15.7758L101.706 15.1406ZM99.9875 14.2656L100.282 13.5757L100.278 13.5741L99.9875 14.2656ZM97.5344 13.1406L97.1919 13.8079L97.199 13.8114L97.5344 13.1406ZM95.3938 11.7344L94.9127 12.3098L95.3938 11.7344ZM93.8781 9.85938L93.2072 10.1948L93.2132 10.2063L93.8781 9.85938ZM93.8469 4.6875L93.1637 4.37782L93.1604 4.38545L93.8469 4.6875ZM95.3469 2.6875L95.8342 3.25762L95.8395 3.25306L95.3469 2.6875ZM97.6125 1.39062L97.3678 0.68168L97.3651 0.682598L97.6125 1.39062ZM104.316 1.84375L103.945 2.49572L103.948 2.49726L104.316 1.84375ZM106.8 4.32812L106.144 4.69182L106.147 4.69674L106.8 4.32812ZM107.691 7.95312V8.70312H108.441V7.95312H107.691ZM103.128 7.95312H102.378V8.70312H103.128V7.95312ZM102.847 6.25L102.14 6.50039L102.143 6.50935L102.146 6.51824L102.847 6.25ZM99.0031 5.01562L99.3942 5.65561L99.3991 5.65259L99.0031 5.01562ZM98.1594 5.96875L97.4784 5.65444L97.4748 5.66248L98.1594 5.96875ZM98.1594 8.32812L97.5124 8.70741L97.5202 8.72072L97.5285 8.73369L98.1594 8.32812ZM98.925 9.125L98.4781 9.72732L98.4845 9.73204L98.4909 9.73663L98.925 9.125ZM100.066 9.79688L99.7302 10.4677L99.7365 10.4708L100.066 9.79688ZM101.534 10.4375L101.809 9.73969L101.808 9.73927L101.534 10.4375ZM104.269 11.7812L103.874 12.4192L103.88 12.4229L104.269 11.7812ZM106.253 13.4062L105.69 13.9015L105.694 13.9063L106.253 13.4062ZM107.363 20.5781L106.673 20.2838L106.671 20.2883L107.363 20.5781ZM105.941 22.5781L106.437 23.1403L106.442 23.1356L105.941 22.5781ZM103.675 23.8594L103.433 23.1495L103.43 23.1504L103.675 23.8594ZM97.7531 23.875L97.5231 24.5889L97.5303 24.5911L97.7531 23.875ZM95.2688 22.5156L94.7772 23.0822L94.7862 23.0897L95.2688 22.5156ZM93.5969 20.1875L92.9075 20.4829L92.9087 20.4857L93.5969 20.1875ZM92.9875 16.8281V16.0781H92.2375V16.8281H92.9875ZM97.5656 16.8281H98.3156V16.0781H97.5656V16.8281ZM97.7688 18.5938L97.0459 18.7937L97.047 18.7977L97.7688 18.5938ZM98.3938 19.75L97.8538 20.2707L97.8634 20.2803L98.3938 19.75ZM99.425 20.3906L99.1716 21.0965L99.1823 21.1004L99.1932 21.1039L99.425 20.3906ZM102.284 20.25L101.885 19.615L101.877 19.6203L102.284 20.25ZM104.05 18.0156C104.05 17.5654 104.01 17.1408 103.923 16.746L102.458 17.0665C102.517 17.3384 102.55 17.6534 102.55 18.0156H104.05ZM103.923 16.746C103.822 16.2825 103.605 15.8651 103.293 15.498L102.151 16.4707C102.317 16.6662 102.414 16.8633 102.458 17.0665L103.923 16.746ZM103.303 15.5106C103.005 15.1441 102.593 14.8121 102.105 14.5055L101.307 15.7758C101.715 16.0316 101.981 16.2621 102.14 16.4581L103.303 15.5106ZM102.112 14.5097C101.626 14.1977 101.012 13.8873 100.282 13.5757L99.6933 14.9555C100.379 15.2481 100.911 15.521 101.301 15.7715L102.112 14.5097ZM100.278 13.5741C99.4488 13.2261 98.6462 12.858 97.8698 12.4698L97.199 13.8114C98.0059 14.2149 98.8387 14.5968 99.6972 14.9572L100.278 13.5741ZM97.8768 12.4734C97.131 12.0906 96.4645 11.652 95.8748 11.159L94.9127 12.3098C95.5938 12.8792 96.3545 13.3781 97.192 13.8079L97.8768 12.4734ZM95.8748 11.159C95.3135 10.6896 94.8714 10.1418 94.5431 9.51245L93.2132 10.2063C93.6348 11.0145 94.2032 11.7166 94.9127 12.3098L95.8748 11.159ZM94.549 9.52396C94.2459 8.91785 94.0813 8.18277 94.0813 7.29688H92.5813C92.5813 8.36931 92.7812 9.34257 93.2073 10.1948L94.549 9.52396ZM94.0813 7.29688C94.0813 6.42975 94.2364 5.66457 94.5334 4.98955L93.1604 4.38545C92.7699 5.27293 92.5813 6.24733 92.5813 7.29688H94.0813ZM94.53 4.99717C94.8392 4.31503 95.2728 3.73755 95.8342 3.25759L94.8595 2.11741C94.1293 2.74161 93.5629 3.49747 93.1638 4.37783L94.53 4.99717ZM95.8395 3.25306C96.4085 2.75745 97.079 2.37148 97.8599 2.09865L97.3651 0.682598C96.4168 1.01394 95.5769 1.49255 94.8543 2.12194L95.8395 3.25306ZM97.8573 2.09956C98.6421 1.8286 99.5318 1.6875 100.534 1.6875V0.1875C99.3912 0.1875 98.3329 0.34848 97.3678 0.681685L97.8573 2.09956ZM100.534 1.6875C101.888 1.6875 103.015 1.96718 103.945 2.49572L104.686 1.19178C103.491 0.511985 102.098 0.1875 100.534 0.1875V1.6875ZM103.948 2.49726C104.903 3.03501 105.63 3.76409 106.144 4.69181L107.456 3.96444C106.804 2.78799 105.874 1.86082 104.684 1.19024L103.948 2.49726ZM106.147 4.69674C106.669 5.62239 106.941 6.70068 106.941 7.95312H108.441C108.441 6.47641 108.118 5.13803 107.453 3.95951L106.147 4.69674ZM107.691 7.20312H103.128V8.70312H107.691V7.20312ZM103.878 7.95312C103.878 7.23615 103.774 6.57427 103.547 5.98176L102.146 6.51824C102.295 6.90489 102.378 7.37843 102.378 7.95312H103.878ZM103.554 5.99961C103.33 5.36821 102.955 4.8457 102.422 4.46674L101.553 5.68951C101.811 5.87305 102.009 6.13179 102.14 6.50039L103.554 5.99961ZM102.422 4.46674C101.867 4.07251 101.192 3.90625 100.456 3.90625V5.40625C100.97 5.40625 101.316 5.52124 101.553 5.68951L102.422 4.46674ZM100.456 3.90625C99.7723 3.90625 99.141 4.04686 98.6072 4.37866L99.3991 5.65259C99.6361 5.50523 99.9735 5.40625 100.456 5.40625V3.90625ZM98.612 4.37566C98.1079 4.68376 97.727 5.11594 97.4784 5.65446L98.8403 6.28304C98.9668 6.00906 99.1484 5.80582 99.3942 5.65559L98.612 4.37566ZM97.4748 5.66248C97.2485 6.16832 97.1438 6.72301 97.1438 7.3125H98.6438C98.6438 6.90199 98.7161 6.56085 98.844 6.27502L97.4748 5.66248ZM97.1438 7.3125C97.1438 7.81104 97.2631 8.28213 97.5124 8.70741L98.8064 7.94884C98.7015 7.76995 98.6438 7.56396 98.6438 7.3125H97.1438ZM97.5285 8.73369C97.7721 9.11262 98.0939 9.44227 98.4781 9.72732L99.3719 8.52268C99.1103 8.32856 98.9217 8.12696 98.7903 7.92256L97.5285 8.73369ZM98.4909 9.73663C98.8515 9.99248 99.266 10.2356 99.7302 10.4677L100.401 9.12605C99.9902 8.92066 99.6444 8.71586 99.3591 8.51337L98.4909 9.73663ZM99.7365 10.4708C100.205 10.6995 100.713 10.9211 101.261 11.1357L101.808 9.73927C101.293 9.53726 100.822 9.3317 100.395 9.12295L99.7365 10.4708ZM101.259 11.1353C102.257 11.5282 103.127 11.957 103.874 12.4191L104.663 11.1434C103.827 10.6264 102.874 10.1593 101.809 9.73969L101.259 11.1353ZM103.88 12.4229C104.616 12.8683 105.216 13.3626 105.69 13.9015L106.816 12.911C106.228 12.2415 105.505 11.6526 104.657 11.1396L103.88 12.4229ZM105.694 13.9063C106.161 14.4284 106.513 15.0169 106.751 15.6766L108.162 15.1671C107.858 14.3268 107.407 13.5716 106.812 12.9062L105.694 13.9063ZM106.751 15.6766C106.987 16.3303 107.113 17.0959 107.113 17.9844H108.613C108.613 16.9562 108.467 16.0134 108.162 15.1671L106.751 15.6766ZM107.113 17.9844C107.113 18.8429 106.962 19.6058 106.673 20.2838L108.052 20.8725C108.43 19.9879 108.613 19.0217 108.613 17.9844H107.113ZM106.671 20.2883C106.391 20.9564 105.982 21.5318 105.439 22.0207L106.442 23.1356C107.149 22.4995 107.688 21.7416 108.054 20.8679L106.671 20.2883ZM105.444 22.016C104.902 22.495 104.236 22.8755 103.433 23.1495L103.917 24.5692C104.885 24.239 105.729 23.7654 106.437 23.1402L105.444 22.016ZM103.43 23.1504C102.646 23.4212 101.751 23.5625 100.738 23.5625V25.0625C101.89 25.0625 102.954 24.9018 103.92 24.5683L103.43 23.1504ZM100.738 23.5625C99.7556 23.5625 98.8363 23.4265 97.9759 23.1589L97.5303 24.5911C98.5449 24.9068 99.6153 25.0625 100.738 25.0625V23.5625ZM97.9831 23.1611C97.1335 22.8874 96.3921 22.4801 95.7513 21.9415L94.7862 23.0897C95.5829 23.7594 96.4978 24.2585 97.5231 24.5889L97.9831 23.1611ZM95.7603 21.9491C95.1441 21.4145 94.6507 20.7331 94.285 19.8893L92.9087 20.4857C93.3555 21.5169 93.9767 22.3875 94.7772 23.0821L95.7603 21.9491ZM94.2862 19.8921C93.9287 19.0579 93.7375 18.043 93.7375 16.8281H92.2375C92.2375 18.1966 92.4525 19.4213 92.9075 20.4829L94.2862 19.8921ZM92.9875 17.5781H97.5656V16.0781H92.9875V17.5781ZM96.8156 16.8281C96.8156 17.5611 96.8874 18.2206 97.0459 18.7937L98.4916 18.3938C98.3793 17.9877 98.3156 17.4702 98.3156 16.8281H96.8156ZM97.047 18.7977C97.2085 19.3689 97.4694 19.8718 97.8539 20.2706L98.9336 19.2294C98.7557 19.0448 98.5999 18.7769 98.4905 18.3898L97.047 18.7977ZM97.8634 20.2803C98.2294 20.6463 98.6702 20.9165 99.1716 21.0965L99.6784 19.6847C99.3673 19.573 99.1206 19.4162 98.9241 19.2197L97.8634 20.2803ZM99.1932 21.1039C99.6987 21.2682 100.253 21.3438 100.847 21.3438V19.8438C100.378 19.8438 99.9847 19.7839 99.6568 19.6773L99.1932 21.1039ZM100.847 21.3438C101.536 21.3438 102.174 21.2144 102.692 20.8797L101.877 19.6203C101.686 19.7439 101.366 19.8438 100.847 19.8438V21.3438ZM102.684 20.885C103.176 20.5752 103.543 20.1466 103.761 19.6099L102.371 19.0463C102.276 19.2805 102.122 19.4664 101.885 19.615L102.684 20.885ZM103.761 19.6099C103.959 19.1206 104.05 18.585 104.05 18.0156H102.55C102.55 18.4254 102.485 18.7648 102.371 19.0463L103.761 19.6099ZM124.526 10.4688H125.276V9.71875H124.526V10.4688ZM124.526 14.25V15H125.276V14.25H124.526ZM115.198 14.25H114.448V15H115.198V14.25ZM115.198 10.4688V9.71875H114.448V10.4688H115.198ZM116.494 1.25H117.244V0.5H116.494V1.25ZM116.494 24V24.75H117.244V24H116.494ZM111.916 24H111.166V24.75H111.916V24ZM111.916 1.25V0.5H111.166V1.25H111.916ZM127.838 1.25H128.588V0.5H127.838V1.25ZM127.838 24V24.75H128.588V24H127.838ZM123.307 24H122.557V24.75H123.307V24ZM123.307 1.25V0.5H122.557V1.25H123.307ZM123.776 10.4688V14.25H125.276V10.4688H123.776ZM124.526 13.5H115.198V15H124.526V13.5ZM115.948 14.25V10.4688H114.448V14.25H115.948ZM115.198 11.2188H124.526V9.71875H115.198V11.2188ZM115.744 1.25V24H117.244V1.25H115.744ZM116.494 23.25H111.916V24.75H116.494V23.25ZM112.666 24V1.25H111.166V24H112.666ZM111.916 2H116.494V0.5H111.916V2ZM127.088 1.25V24H128.588V1.25H127.088ZM127.838 23.25H123.307V24.75H127.838V23.25ZM124.057 24V1.25H122.557V24H124.057ZM123.307 2H127.838V0.5H123.307V2ZM137.283 1.25H138.033V0.5H137.283V1.25ZM137.283 24V24.75H138.033V24H137.283ZM132.736 24H131.986V24.75H132.736V24ZM132.736 1.25V0.5H131.986V1.25H132.736ZM136.533 1.25V24H138.033V1.25H136.533ZM137.283 23.25H132.736V24.75H137.283V23.25ZM133.486 24V1.25H131.986V24H133.486ZM132.736 2H137.283V0.5H132.736V2ZM158.055 1.25H158.805V0.5H158.055V1.25ZM158.055 24V24.75H158.805V24H158.055ZM153.633 24L152.963 24.3363L153.17 24.75H153.633V24ZM146.492 9.76562L147.163 9.42933L145.742 9.76562H146.492ZM146.492 24V24.75H147.242V24H146.492ZM142.149 24H141.399V24.75H142.149V24ZM142.149 1.25V0.5H141.399V1.25H142.149ZM146.508 1.25L147.179 0.914299L146.971 0.5H146.508V1.25ZM153.711 15.6406L153.041 15.9763L154.461 15.6406H153.711ZM153.711 1.25V0.5H152.961V1.25H153.711ZM157.305 1.25V24H158.805V1.25H157.305ZM158.055 23.25H153.633V24.75H158.055V23.25ZM154.303 23.6637L147.163 9.42933L145.822 10.1019L152.963 24.3363L154.303 23.6637ZM145.742 9.76562V24H147.242V9.76562H145.742ZM146.492 23.25H142.149V24.75H146.492V23.25ZM142.899 24V1.25H141.399V24H142.899ZM142.149 2H146.508V0.5H142.149V2ZM145.837 1.5857L153.041 15.9763L154.382 15.3049L147.179 0.914299L145.837 1.5857ZM154.461 15.6406V1.25H152.961V15.6406H154.461ZM153.711 2H158.055V0.5H153.711V2ZM178.156 12.0469H178.906V11.2969H178.156V12.0469ZM178.156 21.4219L178.702 21.9354L178.906 21.7189V21.4219H178.156ZM176.734 22.625L177.175 23.2311L177.177 23.2298L176.734 22.625ZM174.312 23.8125L174.551 24.5233L174.556 24.5218L174.312 23.8125ZM167.249 23.7188L166.978 24.418L166.981 24.4189L167.249 23.7188ZM164.609 21.9219L164.051 22.4229L164.057 22.4303L164.609 21.9219ZM162.937 18.8906L162.222 19.1168L162.222 19.1185L162.937 18.8906ZM162.906 6.39062L162.188 6.17177L162.187 6.17568L162.906 6.39062ZM167.062 1.51562L166.783 0.819263L166.781 0.820292L167.062 1.51562ZM174.609 1.78125L174.261 2.44563L174.263 2.44697L174.609 1.78125ZM177.109 4.32812L176.438 4.66354L176.44 4.66848L177.109 4.32812ZM178.14 8.46875V9.21875H178.944L178.888 8.41633L178.14 8.46875ZM173.718 8.46875L172.97 8.52565L173.023 9.21875H173.718V8.46875ZM173.234 6.21875L172.548 6.52217L172.553 6.53304L173.234 6.21875ZM172.218 5.0625L171.858 5.72044L171.87 5.72687L172.218 5.0625ZM168.937 5.03125L169.253 5.71129L169.26 5.70829L169.266 5.70518L168.937 5.03125ZM167.906 19.1719L167.284 19.5911L167.29 19.6002L167.906 19.1719ZM169.156 20.2188L168.855 20.9059L168.864 20.9096L168.872 20.9131L169.156 20.2188ZM173.077 20L173.478 20.6342L173.486 20.6288L173.077 20ZM173.593 19.6875L173.949 20.3479L174.343 20.1355V19.6875H173.593ZM173.593 15.5H174.343V14.75H173.593V15.5ZM170.327 15.5H169.577V16.25H170.327V15.5ZM170.327 12.0469V11.2969H169.577V12.0469H170.327ZM177.406 12.0469V21.4219H178.906V12.0469H177.406ZM177.609 20.9084C177.331 21.2042 176.899 21.5741 176.29 22.0202L177.177 23.2298C177.819 22.7592 178.334 22.3271 178.702 21.9354L177.609 20.9084ZM176.292 22.0189C175.756 22.4093 175.023 22.7751 174.068 23.1032L174.556 24.5218C175.601 24.1624 176.482 23.7365 177.175 23.2311L176.292 22.0189ZM174.072 23.1017C173.183 23.4015 172.06 23.5625 170.687 23.5625V25.0625C172.168 25.0625 173.462 24.8902 174.551 24.5233L174.072 23.1017ZM170.687 23.5625C169.506 23.5625 168.452 23.3772 167.518 23.0186L166.981 24.4189C168.109 24.852 169.347 25.0625 170.687 25.0625V23.5625ZM167.521 23.0195C166.606 22.6649 165.822 22.1311 165.16 21.4135L164.057 22.4303C164.875 23.3169 165.851 23.9809 166.978 24.418L167.521 23.0195ZM165.167 21.4209C164.519 20.6991 164.01 19.7862 163.651 18.6627L162.222 19.1185C162.635 20.4117 163.24 21.5196 164.051 22.4228L165.167 21.4209ZM163.652 18.6645C163.295 17.5372 163.109 16.1744 163.109 14.5625H161.609C161.609 16.2839 161.807 17.8065 162.222 19.1168L163.652 18.6645ZM163.109 14.5625V10.6875H161.609V14.5625H163.109ZM163.109 10.6875C163.109 9.09431 163.286 7.73759 163.624 6.60557L162.187 6.17568C161.797 7.48116 161.609 8.98903 161.609 10.6875H163.109ZM163.623 6.60948C163.973 5.46221 164.469 4.54007 165.096 3.82098L163.965 2.83527C163.176 3.74118 162.588 4.8607 162.188 6.17177L163.623 6.60948ZM165.096 3.82098C165.728 3.09548 166.475 2.56165 167.343 2.21096L166.781 0.820292C165.69 1.26127 164.749 1.93577 163.965 2.83527L165.096 3.82098ZM167.34 2.21198C168.228 1.85687 169.246 1.67188 170.406 1.67188V0.171875C169.086 0.171875 167.875 0.382715 166.783 0.819267L167.34 2.21198ZM170.406 1.67188C172.037 1.67188 173.308 1.94634 174.261 2.44562L174.957 1.11688C173.722 0.470329 172.191 0.171875 170.406 0.171875V1.67188ZM174.263 2.44697C175.225 2.94605 175.945 3.67855 176.438 4.66354L177.78 3.99271C177.147 2.7277 176.201 1.76228 174.954 1.11553L174.263 2.44697ZM176.44 4.66848C176.956 5.68138 177.282 6.9575 177.392 8.52117L178.888 8.41633C178.769 6.70917 178.407 5.22487 177.777 3.98777L176.44 4.66848ZM178.14 7.71875H173.718V9.21875H178.14V7.71875ZM174.466 8.41185C174.39 7.41209 174.218 6.56157 173.915 5.90446L172.553 6.53304C172.749 6.95927 172.901 7.60875 172.97 8.52565L174.466 8.41185ZM173.92 5.91537C173.626 5.25065 173.182 4.7208 172.566 4.39813L171.87 5.72687C172.129 5.86253 172.363 6.10352 172.548 6.52213L173.92 5.91537ZM172.578 4.40468C171.995 4.08528 171.291 3.95312 170.515 3.95312V5.45312C171.135 5.45312 171.566 5.56055 171.858 5.72032L172.578 4.40468ZM170.515 3.95312C169.821 3.95312 169.178 4.07902 168.608 4.35732L169.266 5.70518C169.592 5.54598 170.001 5.45312 170.515 5.45312V3.95312ZM168.621 4.35121C168.024 4.62891 167.545 5.0797 167.177 5.66252L168.446 6.46248C168.683 6.08696 168.954 5.85026 169.253 5.71129L168.621 4.35121ZM167.177 5.66252C166.812 6.24242 166.562 6.95177 166.404 7.7631L167.876 8.0494C168.01 7.36073 168.208 6.84091 168.446 6.46248L167.177 5.66252ZM166.404 7.7631C166.246 8.57526 166.171 9.54303 166.171 10.6562H167.671C167.671 9.6028 167.742 8.73724 167.876 8.0494L166.404 7.7631ZM166.171 10.6562V14.5625H167.671V10.6562H166.171ZM166.171 14.5625C166.171 15.6707 166.257 16.6443 166.439 17.4731L167.904 17.1519C167.752 16.4598 167.671 15.6001 167.671 14.5625H166.171ZM166.439 17.4731C166.619 18.2957 166.893 19.0113 167.284 19.591L168.528 18.7527C168.272 18.3741 168.057 17.8501 167.904 17.1519L166.439 17.4731ZM167.29 19.6002C167.697 20.1848 168.219 20.6277 168.855 20.9059L169.456 19.5316C169.092 19.3723 168.781 19.1173 168.521 18.7436L167.29 19.6002ZM168.872 20.9131C169.492 21.166 170.191 21.2812 170.952 21.2812V19.7812C170.339 19.7812 169.84 19.6881 169.439 19.5244L168.872 20.9131ZM170.952 21.2812C171.546 21.2812 172.081 21.221 172.524 21.0686L172.037 19.6501C171.813 19.7269 171.463 19.7812 170.952 19.7812V21.2812ZM172.524 21.0686C172.888 20.9436 173.213 20.8015 173.478 20.6341L172.677 19.3659C172.546 19.4485 172.34 19.5459 172.037 19.6501L172.524 21.0686ZM173.486 20.6288C173.686 20.4987 173.839 20.4069 173.949 20.3479L173.238 19.0271C173.076 19.1139 172.885 19.2304 172.669 19.3712L173.486 20.6288ZM174.343 19.6875V15.5H172.843V19.6875H174.343ZM173.593 14.75H170.327V16.25H173.593V14.75ZM171.077 15.5V12.0469H169.577V15.5H171.077ZM170.327 12.7969H178.156V11.2969H170.327V12.7969ZM198.982 5.3125L199.707 5.50238L199.722 5.44557L199.728 5.38713L198.982 5.3125ZM194.091 24V24.75H194.67L194.817 24.1899L194.091 24ZM189.263 24L188.547 23.7763L188.243 24.75H189.263V24ZM196.372 1.25V0.5H195.821L195.657 1.02629L196.372 1.25ZM199.388 1.25L200.134 1.32463L200.217 0.5H199.388V1.25ZM202.841 24L202.116 24.191L202.263 24.75H202.841V24ZM197.919 5.3125L197.174 5.39564L197.18 5.45032L197.194 5.50352L197.919 5.3125ZM197.466 1.25V0.5H196.628L196.721 1.33314L197.466 1.25ZM200.529 1.25L201.244 1.0245L201.079 0.5H200.529V1.25ZM207.701 24V24.75H208.723L208.416 23.7745L207.701 24ZM203.013 15.5156H203.763V14.7656H203.013V15.5156ZM203.013 19.3125V20.0625H203.763V19.3125H203.013ZM192.747 19.3125H191.997V20.0625H192.747V19.3125ZM192.747 15.5156V14.7656H191.997V15.5156H192.747ZM198.256 5.12262L193.366 23.8101L194.817 24.1899L199.707 5.50238L198.256 5.12262ZM194.091 23.25H189.263V24.75H194.091V23.25ZM189.979 24.2237L197.088 1.47371L195.657 1.02629L188.547 23.7763L189.979 24.2237ZM196.372 2H199.388V0.5H196.372V2ZM198.642 1.17537L198.236 5.23787L199.728 5.38713L200.134 1.32463L198.642 1.17537ZM203.567 23.809L198.645 5.12148L197.194 5.50352L202.116 24.191L203.567 23.809ZM198.665 5.22936L198.212 1.16686L196.721 1.33314L197.174 5.39564L198.665 5.22936ZM197.466 2H200.529V0.5H197.466V2ZM199.813 1.4755L206.985 24.2255L208.416 23.7745L201.244 1.0245L199.813 1.4755ZM207.701 23.25H202.841V24.75H207.701V23.25ZM202.263 15.5156V19.3125H203.763V15.5156H202.263ZM203.013 18.5625H192.747V20.0625H203.013V18.5625ZM193.497 19.3125V15.5156H191.997V19.3125H193.497ZM192.747 16.2656H203.013V14.7656H192.747V16.2656ZM235.074 1.25H235.824V0.5H235.074V1.25ZM235.074 24V24.75H235.824V24H235.074ZM230.652 24L229.981 24.3363L230.189 24.75H230.652V24ZM223.511 9.76562L224.182 9.42933L222.761 9.76562H223.511ZM223.511 24V24.75H224.261V24H223.511ZM219.167 24H218.417V24.75H219.167V24ZM219.167 1.25V0.5H218.417V1.25H219.167ZM223.527 1.25L224.198 0.914299L223.99 0.5H223.527V1.25ZM230.73 15.6406L230.059 15.9763L231.48 15.6406H230.73ZM230.73 1.25V0.5H229.98V1.25H230.73ZM234.324 1.25V24H235.824V1.25H234.324ZM235.074 23.25H230.652V24.75H235.074V23.25ZM231.322 23.6637L224.182 9.42933L222.841 10.1019L229.981 24.3363L231.322 23.6637ZM222.761 9.76562V24H224.261V9.76562H222.761ZM223.511 23.25H219.167V24.75H223.511V23.25ZM219.917 24V1.25H218.417V24H219.917ZM219.167 2H223.527V0.5H219.167V2ZM222.856 1.5857L230.059 15.9763L231.401 15.3049L224.198 0.914299L222.856 1.5857ZM231.48 15.6406V1.25H229.98V15.6406H231.48ZM230.73 2H235.074V0.5H230.73V2ZM252.768 20.2188H253.518V19.4688H252.768V20.2188ZM252.768 24V24.75H253.518V24H252.768ZM242.878 24H242.128V24.75H242.878V24ZM242.878 20.2188V19.4688H242.128V20.2188H242.878ZM244.299 1.25H245.049V0.5H244.299V1.25ZM244.299 24V24.75H245.049V24H244.299ZM239.721 24H238.971V24.75H239.721V24ZM239.721 1.25V0.5H238.971V1.25H239.721ZM251.44 10.4688H252.19V9.71875H251.44V10.4688ZM251.44 14.1406V14.8906H252.19V14.1406H251.44ZM242.878 14.1406H242.128V14.8906H242.878V14.1406ZM242.878 10.4688V9.71875H242.128V10.4688H242.878ZM252.737 1.25H253.487V0.5H252.737V1.25ZM252.737 5.04688V5.79688H253.487V5.04688H252.737ZM242.878 5.04688H242.128V5.79688H242.878V5.04688ZM242.878 1.25V0.5H242.128V1.25H242.878ZM252.018 20.2188V24H253.518V20.2188H252.018ZM252.768 23.25H242.878V24.75H252.768V23.25ZM243.628 24V20.2188H242.128V24H243.628ZM242.878 20.9688H252.768V19.4688H242.878V20.9688ZM243.549 1.25V24H245.049V1.25H243.549ZM244.299 23.25H239.721V24.75H244.299V23.25ZM240.471 24V1.25H238.971V24H240.471ZM239.721 2H244.299V0.5H239.721V2ZM250.69 10.4688V14.1406H252.19V10.4688H250.69ZM251.44 13.3906H242.878V14.8906H251.44V13.3906ZM243.628 14.1406V10.4688H242.128V14.1406H243.628ZM242.878 11.2188H251.44V9.71875H242.878V11.2188ZM251.987 1.25V5.04688H253.487V1.25H251.987ZM252.737 4.29688H242.878V5.79688H252.737V4.29688ZM243.628 5.04688V1.25H242.128V5.04688H243.628ZM242.878 2H252.737V0.5H242.878V2ZM261.041 20.5938L260.304 20.455L260.285 20.5511L260.293 20.6486L261.041 20.5938ZM264.681 1.25V0.5H264.059L263.944 1.11128L264.681 1.25ZM267.087 1.25L267.817 1.07526L267.679 0.5H267.087V1.25ZM267.806 4.25L268.542 4.39552L268.574 4.23469L268.536 4.07526L267.806 4.25ZM263.9 24V24.75H264.516L264.636 24.1455L263.9 24ZM261.291 24L260.543 24.0549L260.594 24.75H261.291V24ZM259.791 1.25L260.532 1.13766L260.436 0.5H259.791V1.25ZM262.728 20.6406L263.47 20.751L263.487 20.6396L263.47 20.5283L262.728 20.6406ZM262.228 24V24.75H262.875L262.97 24.1104L262.228 24ZM259.353 24L258.615 24.1323L258.726 24.75H259.353V24ZM255.275 1.25V0.5H254.379L254.537 1.38233L255.275 1.25ZM270.447 20.5625L269.705 20.4503L269.689 20.5586L269.704 20.6671L270.447 20.5625ZM273.369 1.25V0.5H272.724L272.627 1.13781L273.369 1.25ZM277.869 1.25L278.607 1.38135L278.764 0.5H277.869V1.25ZM273.822 24V24.75H274.45L274.56 24.1314L273.822 24ZM270.931 24L270.189 24.1046L270.28 24.75H270.931V24ZM268.478 1.25L269.215 1.11089L269.1 0.5H268.478V1.25ZM272.15 20.7031L272.897 20.7704L272.906 20.6665L272.887 20.564L272.15 20.7031ZM271.853 24V24.75H272.539L272.6 24.0673L271.853 24ZM269.244 24L268.508 24.1447L268.627 24.75H269.244V24ZM265.353 4.21875L264.625 4.03865L264.585 4.2002L264.617 4.36349L265.353 4.21875ZM266.087 1.25V0.5H265.5L265.359 1.0699L266.087 1.25ZM261.778 20.7325L265.418 1.38872L263.944 1.11128L260.304 20.455L261.778 20.7325ZM264.681 2H267.087V0.5H264.681V2ZM266.358 1.42474L267.077 4.42474L268.536 4.07526L267.817 1.07526L266.358 1.42474ZM267.07 4.10448L263.164 23.8545L264.636 24.1455L268.542 4.39552L267.07 4.10448ZM263.9 23.25H261.291V24.75H263.9V23.25ZM262.039 23.9451L261.789 20.5389L260.293 20.6486L260.543 24.0549L262.039 23.9451ZM259.049 1.36234L261.987 20.753L263.47 20.5283L260.532 1.13766L259.049 1.36234ZM261.986 20.5302L261.486 23.8896L262.97 24.1104L263.47 20.751L261.986 20.5302ZM262.228 23.25H259.353V24.75H262.228V23.25ZM260.091 23.8677L256.013 1.11767L254.537 1.38233L258.615 24.1323L260.091 23.8677ZM255.275 2H259.791V0.5H255.275V2ZM271.188 20.6747L274.11 1.36219L272.627 1.13781L269.705 20.4503L271.188 20.6747ZM273.369 2H277.869V0.5H273.369V2ZM277.13 1.11865L273.083 23.8686L274.56 24.1314L278.607 1.38135L277.13 1.11865ZM273.822 23.25H270.931V24.75H273.822V23.25ZM271.674 23.8954L271.19 20.4579L269.704 20.6671L270.189 24.1046L271.674 23.8954ZM267.741 1.38911L271.413 20.8422L272.887 20.564L269.215 1.11089L267.741 1.38911ZM271.403 20.6359L271.106 23.9327L272.6 24.0673L272.897 20.7704L271.403 20.6359ZM271.853 23.25H269.244V24.75H271.853V23.25ZM269.98 23.8553L266.089 4.07401L264.617 4.36349L268.508 24.1447L269.98 23.8553ZM266.081 4.39885L266.816 1.4301L265.359 1.0699L264.625 4.03865L266.081 4.39885ZM266.087 2H268.478V0.5H266.087V2ZM302.742 20.2188H303.492V19.4688H302.742V20.2188ZM302.742 24V24.75H303.492V24H302.742ZM292.851 24H292.101V24.75H292.851V24ZM292.851 20.2188V19.4688H292.101V20.2188H292.851ZM294.273 1.25H295.023V0.5H294.273V1.25ZM294.273 24V24.75H295.023V24H294.273ZM289.695 24H288.945V24.75H289.695V24ZM289.695 1.25V0.5H288.945V1.25H289.695ZM301.414 10.4688H302.164V9.71875H301.414V10.4688ZM301.414 14.1406V14.8906H302.164V14.1406H301.414ZM292.851 14.1406H292.101V14.8906H292.851V14.1406ZM292.851 10.4688V9.71875H292.101V10.4688H292.851ZM302.711 1.25H303.461V0.5H302.711V1.25ZM302.711 5.04688V5.79688H303.461V5.04688H302.711ZM292.851 5.04688H292.101V5.79688H292.851V5.04688ZM292.851 1.25V0.5H292.101V1.25H292.851ZM301.992 20.2188V24H303.492V20.2188H301.992ZM302.742 23.25H292.851V24.75H302.742V23.25ZM293.601 24V20.2188H292.101V24H293.601ZM292.851 20.9688H302.742V19.4688H292.851V20.9688ZM293.523 1.25V24H295.023V1.25H293.523ZM294.273 23.25H289.695V24.75H294.273V23.25ZM290.445 24V1.25H288.945V24H290.445ZM289.695 2H294.273V0.5H289.695V2ZM300.664 10.4688V14.1406H302.164V10.4688H300.664ZM301.414 13.3906H292.851V14.8906H301.414V13.3906ZM293.601 14.1406V10.4688H292.101V14.1406H293.601ZM292.851 11.2188H301.414V9.71875H292.851V11.2188ZM301.961 1.25V5.04688H303.461V1.25H301.961ZM302.711 4.29688H292.851V5.79688H302.711V4.29688ZM293.601 5.04688V1.25H292.101V5.04688H293.601ZM292.851 2H302.711V0.5H292.851V2ZM306.389 1.25V0.5H305.639V1.25H306.389ZM320.046 4.34375L319.392 4.71081L320.046 4.34375ZM320.405 11.2812L321.105 11.5511L321.106 11.5482L320.405 11.2812ZM318.983 13.4531L319.495 14.0017L319.499 13.9971L318.983 13.4531ZM316.78 14.8281L316.5 14.1324L316.446 14.154L316.396 14.1837L316.78 14.8281ZM315.389 15.6562V16.4062H315.596L315.773 16.3006L315.389 15.6562ZM309.467 15.6562L308.717 15.6593L308.721 16.4062H309.467V15.6562ZM309.452 11.8594V11.1094H308.699L308.702 11.8625L309.452 11.8594ZM315.108 11.4531L315.524 12.0772L315.528 12.0748L315.108 11.4531ZM316.03 10.2812L315.336 9.99781L315.333 10.0052L316.03 10.2812ZM316.061 6.65625L315.351 6.89768L315.354 6.90631L315.357 6.91486L316.061 6.65625ZM315.202 5.46875L314.76 6.07459L314.769 6.0813L314.778 6.08773L315.202 5.46875ZM310.967 5.04688V4.29688H310.217V5.04688H310.967ZM310.967 24V24.75H311.717V24H310.967ZM306.389 24H305.639V24.75H306.389V24ZM316.717 24L316.024 24.2853L316.215 24.75H316.717V24ZM312.546 13.8594L312.543 13.1094L311.428 13.113L311.852 14.1447L312.546 13.8594ZM317.342 13.8438L318.032 13.5479L317.836 13.0921L317.34 13.0938L317.342 13.8438ZM321.608 23.7812H322.358V23.6271L322.297 23.4854L321.608 23.7812ZM321.608 24V24.75H322.358V24H321.608ZM306.389 2H313.686V0.5H306.389V2ZM313.686 2C315.124 2 316.303 2.24637 317.249 2.70595L317.904 1.35655C316.705 0.77446 315.29 0.5 313.686 0.5V2ZM317.249 2.70595C318.187 3.1613 318.895 3.8261 319.392 4.71081L320.7 3.97669C320.05 2.81974 319.112 1.94287 317.904 1.35655L317.249 2.70595ZM319.392 4.71081C319.886 5.59228 320.155 6.71819 320.155 8.125H321.655C321.655 6.53181 321.351 5.13689 320.7 3.97669L319.392 4.71081ZM320.155 8.125C320.155 9.28992 319.997 10.2466 319.704 11.0143L321.106 11.5482C321.48 10.5659 321.655 9.41841 321.655 8.125H320.155ZM319.705 11.0115C319.408 11.782 318.993 12.4094 318.467 12.9091L319.499 13.9971C320.202 13.3302 320.735 12.5097 321.105 11.551L319.705 11.0115ZM318.472 12.9045C317.931 13.4088 317.277 13.8197 316.5 14.1324L317.06 15.5239C317.991 15.149 318.806 14.6433 319.495 14.0017L318.472 12.9045ZM316.396 14.1837L315.006 15.0119L315.773 16.3006L317.164 15.4725L316.396 14.1837ZM315.389 14.9062H309.467V16.4062H315.389V14.9062ZM310.217 15.6532L310.202 11.8563L308.702 11.8625L308.717 15.6593L310.217 15.6532ZM309.452 12.6094H313.561V11.1094H309.452V12.6094ZM313.561 12.6094C314.293 12.6094 314.964 12.4503 315.524 12.0772L314.692 10.8291C314.439 10.9976 314.079 11.1094 313.561 11.1094V12.6094ZM315.528 12.0748C316.079 11.7029 316.478 11.1875 316.727 10.5573L315.333 10.0052C315.186 10.375 314.971 10.6408 314.689 10.8315L315.528 12.0748ZM316.724 10.5647C316.977 9.94629 317.092 9.25275 317.092 8.5H315.592C315.592 9.10142 315.5 9.59537 315.336 9.99783L316.724 10.5647ZM317.092 8.5C317.092 7.71978 316.991 7.01275 316.765 6.39764L315.357 6.91486C315.506 7.32058 315.592 7.84272 315.592 8.5H317.092ZM316.771 6.41482C316.55 5.764 316.174 5.22527 315.625 4.84977L314.778 6.08773C315.021 6.2539 315.218 6.50684 315.351 6.89768L316.771 6.41482ZM315.644 4.86291C315.096 4.4627 314.421 4.29688 313.686 4.29688V5.79688C314.201 5.79688 314.537 5.9123 314.76 6.07459L315.644 4.86291ZM313.686 4.29688H310.967V5.79688H313.686V4.29688ZM310.217 5.04688V24H311.717V5.04688H310.217ZM310.967 23.25H306.389V24.75H310.967V23.25ZM307.139 24V1.25H305.639V24H307.139ZM317.411 23.7147L313.239 13.574L311.852 14.1447L316.024 24.2853L317.411 23.7147ZM312.548 14.6094L317.345 14.5937L317.34 13.0938L312.543 13.1094L312.548 14.6094ZM316.653 14.1396L320.919 24.0771L322.297 23.4854L318.032 13.5479L316.653 14.1396ZM320.858 23.7812V24H322.358V23.7812H320.858ZM321.608 23.25H316.717V24.75H321.608V23.25ZM333.287 5.3125L334.012 5.50238L334.027 5.44557L334.033 5.38713L333.287 5.3125ZM328.396 24V24.75H328.975L329.122 24.1899L328.396 24ZM323.568 24L322.852 23.7763L322.548 24.75H323.568V24ZM330.677 1.25V0.5H330.126L329.962 1.02629L330.677 1.25ZM333.693 1.25L334.439 1.32463L334.522 0.5H333.693V1.25ZM337.146 24L336.421 24.191L336.568 24.75H337.146V24ZM332.224 5.3125L331.479 5.39564L331.485 5.45032L331.499 5.50352L332.224 5.3125ZM331.771 1.25V0.5H330.933L331.026 1.33314L331.771 1.25ZM334.834 1.25L335.549 1.0245L335.384 0.5H334.834V1.25ZM342.006 24V24.75H343.028L342.721 23.7745L342.006 24ZM337.318 15.5156H338.068V14.7656H337.318V15.5156ZM337.318 19.3125V20.0625H338.068V19.3125H337.318ZM327.052 19.3125H326.302V20.0625H327.052V19.3125ZM327.052 15.5156V14.7656H326.302V15.5156H327.052ZM332.561 5.12262L327.671 23.8101L329.122 24.1899L334.012 5.50238L332.561 5.12262ZM328.396 23.25H323.568V24.75H328.396V23.25ZM324.284 24.2237L331.393 1.47371L329.962 1.02629L322.852 23.7763L324.284 24.2237ZM330.677 2H333.693V0.5H330.677V2ZM332.947 1.17537L332.541 5.23787L334.033 5.38713L334.439 1.32463L332.947 1.17537ZM337.872 23.809L332.95 5.12148L331.499 5.50352L336.421 24.191L337.872 23.809ZM332.97 5.22936L332.517 1.16686L331.026 1.33314L331.479 5.39564L332.97 5.22936ZM331.771 2H334.834V0.5H331.771V2ZM334.118 1.4755L341.29 24.2255L342.721 23.7745L335.549 1.0245L334.118 1.4755ZM342.006 23.25H337.146V24.75H342.006V23.25ZM336.568 15.5156V19.3125H338.068V15.5156H336.568ZM337.318 18.5625H327.052V20.0625H337.318V18.5625ZM327.802 19.3125V15.5156H326.302V19.3125H327.802ZM327.052 16.2656H337.318V14.7656H327.052V16.2656Z" fill="url(#paint0_linear_40_64)"/>
<defs>
<linearGradient id="paint0_linear_40_64" x1="-1" y1="-2.65493" x2="162.324" y2="183.294" gradientUnits="userSpaceOnUse">
<stop stop-color="#FF9700"/>
<stop offset="1" stop-color="#58F96E"/>
</linearGradient>
</defs>
</svg>
