<svg width="33" height="26" viewBox="0 0 33 26" fill="none" xmlns="http://www.w3.org/2000/svg">
<path d="M14.6305 0.692828C14.1885 0.24921 13.589 0 12.964 0C12.3389 0 11.7395 0.24921 11.2975 0.692828L0.690147 11.3413C0.248245 11.785 0 12.3868 0 13.0143C0 13.6418 0.248245 14.2435 0.690147 14.6873L11.2975 25.3357C11.742 25.7668 12.3375 26.0053 12.9555 25.9999C13.5735 25.9945 14.1648 25.7457 14.6018 25.3069C15.0388 24.8682 15.2867 24.2747 15.2921 23.6542C15.2975 23.0338 15.0599 22.4361 14.6305 21.9898L8.24962 15.3806H30.6428C31.268 15.3806 31.8675 15.1313 32.3096 14.6875C32.7517 14.2438 33 13.6419 33 13.0143C33 12.3867 32.7517 11.7848 32.3096 11.341C31.8675 10.8973 31.268 10.648 30.6428 10.648H8.24962L14.6305 4.03881C15.0724 3.59506 15.3207 2.99329 15.3207 2.36582C15.3207 1.73836 15.0724 1.13658 14.6305 0.692828Z" fill="white"/>
</svg>
