<svg width="33" height="26" viewBox="0 0 33 26" fill="none" xmlns="http://www.w3.org/2000/svg">
<path d="M18.3695 0.692828C18.8115 0.24921 19.411 0 20.036 0C20.6611 0 21.2605 0.24921 21.7025 0.692828L32.3099 11.3413C32.7518 11.785 33 12.3868 33 13.0143C33 13.6418 32.7518 14.2435 32.3099 14.6873L21.7025 25.3357C21.258 25.7668 20.6625 26.0053 20.0445 25.9999C19.4265 25.9945 18.8352 25.7457 18.3982 25.3069C17.9612 24.8682 17.7133 24.2747 17.7079 23.6542C17.7025 23.0338 17.9401 22.4361 18.3695 21.9898L24.7504 15.3806H2.35718C1.73202 15.3806 1.13246 15.1313 0.690402 14.6875C0.248345 14.2438 0 13.6419 0 13.0143C0 12.3867 0.248345 11.7848 0.690402 11.341C1.13246 10.8973 1.73202 10.648 2.35718 10.648H24.7504L18.3695 4.03881C17.9276 3.59506 17.6793 2.99329 17.6793 2.36582C17.6793 1.73836 17.9276 1.13658 18.3695 0.692828Z" fill="white"/>
</svg>
