<svg width="17" height="17" viewBox="0 0 17 17" fill="none" xmlns="http://www.w3.org/2000/svg">
<path id="Vector" d="M6.68182 15.802L6.68182 0.674146C6.68182 0.578496 6.6 0.500237 6.5 0.500237L5.13636 0.500237C5.03636 0.500237 4.95455 0.578496 4.95455 0.674145L4.95455 13.8303L0.795455 10.6934C0.677273 10.6043 0.500001 10.6848 0.500001 10.8304L0.5 12.4064C0.5 12.513 0.55 12.613 0.638636 12.6804L5.50455 16.3498C5.98182 16.7085 6.68182 16.3846 6.68182 15.802ZM12.0455 16.3259L12.0455 3.16973L16.2045 6.30661C16.3227 6.39573 16.5 6.3153 16.5 6.16965L16.5 4.59361C16.5 4.48709 16.45 4.38709 16.3614 4.3197L11.4955 0.650233C11.0182 0.291547 10.3182 0.615452 10.3182 1.19587L10.3182 16.3259C10.3182 16.4216 10.4 16.4998 10.5 16.4998L11.8636 16.4998C11.9636 16.4998 12.0455 16.4216 12.0455 16.3259Z" fill="white"/>
</svg>
