<svg width="9" height="18" viewBox="0 0 9 18" fill="none" xmlns="http://www.w3.org/2000/svg">
<path d="M7.18163 3.18107H7.28956C8.08707 3.18107 8.73357 2.53457 8.73357 1.73706C8.73357 1.01561 8.19957 0.413685 7.47884 0.38138C7.17288 0.367666 6.83121 0.358398 6.4726 0.358398C4.235 0.358398 2.70219 1.76584 2.70219 4.35264V5.49871C2.70219 6.18056 2.14944 6.73332 1.46758 6.73332C0.785725 6.73332 0.232971 7.28607 0.232971 7.96793V8.52042C0.232971 9.20227 0.785725 9.75503 1.46758 9.75503C2.14944 9.75503 2.70219 10.3078 2.70219 10.9896V15.8445C2.70219 16.6805 3.37989 17.3582 4.21588 17.3582C5.05187 17.3582 5.72957 16.6805 5.72957 15.8445V11.0139C5.72957 10.319 6.29285 9.75573 6.98769 9.75573C7.62243 9.75573 8.15777 9.2829 8.23617 8.65302L8.29491 8.18107C8.39057 7.41256 7.79125 6.73402 7.01682 6.73402C6.3055 6.73402 5.72886 6.15738 5.72886 5.44606V4.65226C5.72957 3.7789 5.96473 3.18107 7.18163 3.18107Z" fill="#656565"/>
</svg>
