<svg width="19" height="20" viewBox="0 0 19 20" fill="none" xmlns="http://www.w3.org/2000/svg">
<path fill-rule="evenodd" clip-rule="evenodd" d="M6.03198 0.501953H13.0992C16.3513 0.501953 18.9885 3.13919 18.9885 6.39128V13.4585C18.9885 16.7106 16.3513 19.3478 13.0992 19.3478H6.03198C2.77989 19.3478 0.142647 16.7106 0.142647 13.4585V6.39128C0.142647 3.13919 2.77989 0.501953 6.03198 0.501953ZM13.0992 17.5808C15.3724 17.5808 17.2217 15.7316 17.2217 13.4583V6.3911C17.2217 4.11782 15.3724 2.26857 13.0992 2.26857H6.03197C3.75869 2.26857 1.90944 4.11782 1.90944 6.3911V13.4583C1.90944 15.7316 3.75869 17.5808 6.03197 17.5808H13.0992Z" fill="#656565"/>
<path fill-rule="evenodd" clip-rule="evenodd" d="M4.85411 9.92533C4.85411 7.32342 6.96367 5.21387 9.56557 5.21387C12.1675 5.21387 14.277 7.32342 14.277 9.92533C14.277 12.5272 12.1675 14.6368 9.56557 14.6368C6.96367 14.6368 4.85411 12.5272 4.85411 9.92533ZM6.62091 9.92551C6.62091 11.5486 7.94247 12.8702 9.56557 12.8702C11.1887 12.8702 12.5102 11.5486 12.5102 9.92551C12.5102 8.30123 11.1887 6.98084 9.56557 6.98084C7.94247 6.98084 6.62091 8.30123 6.62091 9.92551Z" fill="#656565"/>
<circle cx="14.6304" cy="4.86022" r="0.627802" fill="white"/>
</svg>
