<svg width="19" height="16" viewBox="0 0 19 16" fill="none" xmlns="http://www.w3.org/2000/svg">
<path d="M18.292 2.79812C18.4756 2.58435 18.2454 2.27789 17.9754 2.35871C17.6832 2.4462 17.4744 1.99866 17.6676 1.76255C17.7629 1.6461 17.8515 1.52393 17.9327 1.39656C18.1186 1.10493 17.7873 0.815098 17.4696 0.951713C17.109 1.10673 16.7346 1.23471 16.3483 1.33491C16.072 1.40659 15.7863 1.30581 15.5677 1.12227C14.8913 0.554509 14.0184 0.214844 13.0788 0.214844C10.9398 0.214844 9.21778 1.95102 9.21778 4.07942C9.21778 4.52533 8.86575 4.93916 8.42357 4.88165C6.28526 4.60355 4.34286 3.70844 2.77441 2.37884C2.02104 1.7402 0.814882 1.88446 0.814882 2.87211C0.814882 3.77004 1.12519 4.59955 1.63973 5.25562C1.86034 5.53692 1.67264 5.97853 1.33657 5.85665C1.15798 5.79189 0.985854 5.71479 0.822684 5.62734C0.805878 5.61833 0.785435 5.63045 0.785435 5.64952C0.785435 7.16447 1.65738 8.47237 2.91675 9.10974C3.14629 9.22591 3.12517 9.57299 2.8679 9.57299C2.54278 9.57299 2.27255 9.89621 2.42979 10.1808C2.60977 10.5065 2.8348 10.8042 3.09649 11.065C3.798 11.7643 4.0849 13.2603 3.13383 13.537C2.44259 13.738 1.71144 13.8463 0.956226 13.8463C0.732618 13.8463 0.633337 14.1571 0.830886 14.2618C2.36139 15.0734 4.10277 15.5271 5.95862 15.5271C13.0682 15.5271 16.9552 9.63777 16.9552 4.5329C16.9552 4.49468 16.9549 4.45675 16.9543 4.41907C16.9508 4.17878 17.0613 3.95119 17.2497 3.80199C17.6297 3.50101 17.977 3.16486 18.292 2.79812Z" fill="#656565"/>
</svg>
