<svg width="251" height="72" viewBox="0 0 251 72" fill="none" xmlns="http://www.w3.org/2000/svg">
<path d="M248.734 63.6964C248.734 67.5334 245.562 70.6414 241.637 70.6414H9.37924C5.45672 70.6414 2.2728 67.5334 2.2728 63.6964V8.31245C2.2728 4.47729 5.45672 1.3584 9.37924 1.3584H241.635C245.562 1.3584 248.732 4.47729 248.732 8.31245L248.734 63.6964Z" fill="#39B54A"/>
<path d="M240.888 1.44225C245.162 1.44225 248.64 4.833 248.64 9.00001V63C248.64 67.167 245.162 70.5578 240.888 70.5578H10.119C5.84511 70.5578 2.36741 67.167 2.36741 63V9.00001C2.36741 4.833 5.84511 1.44225 10.119 1.44225H240.888ZM240.888 3.80515e-06H10.119C5.04434 3.80515e-06 0.888184 4.05225 0.888184 9.00001V63C0.888184 67.9478 5.04434 72 10.119 72H240.888C245.963 72 250.119 67.9478 250.119 63V9.00001C250.119 4.05225 245.963 3.80515e-06 240.888 3.80515e-06Z" fill="#A6A6A6"/>
<path d="M56.5092 35.611C56.4556 29.8096 61.3812 26.9872 61.6064 26.8558C58.8169 22.8904 54.4932 22.3486 52.9738 22.3054C49.3424 21.9328 45.8199 24.424 43.9701 24.424C42.0833 24.424 39.2347 22.3414 36.1645 22.4026C32.2138 22.462 28.5178 24.6922 26.4907 28.1554C22.3073 35.2168 25.4273 45.5938 29.4353 51.3016C31.4402 54.097 33.783 57.2182 36.8495 57.1084C39.8495 56.9878 40.9701 55.2436 44.5904 55.2436C48.1775 55.2436 49.2298 57.1084 52.3572 57.0382C55.5768 56.9878 57.6039 54.2302 59.5387 51.4096C61.8556 48.2056 62.7861 45.0502 62.823 44.8882C62.7473 44.863 56.5701 42.5644 56.5092 35.611Z" fill="white"/>
<path d="M50.6015 18.5506C52.215 16.5832 53.319 13.9066 53.0125 11.1904C50.6772 11.2912 47.7565 12.7654 46.0747 14.6896C44.5867 16.3852 43.2575 19.1644 43.6009 21.778C46.2242 21.9688 48.9178 20.4874 50.6015 18.5506Z" fill="white"/>
<path d="M99.925 56.7073H95.7324L93.4357 49.6711H85.453L83.2653 56.7073H79.1834L87.0924 32.7529H91.9773L99.925 56.7073ZM92.7434 46.7191L90.6665 40.4641C90.4468 39.8251 90.0351 38.3203 89.4277 35.9515H89.3539C89.1121 36.9703 88.7225 38.4751 88.1871 40.4641L86.1471 46.7191H92.7434Z" fill="white"/>
<path d="M120.264 47.8597C120.264 50.7973 119.45 53.1193 117.821 54.8239C116.363 56.3413 114.552 57.0991 112.39 57.0991C110.057 57.0991 108.38 56.2819 107.359 54.6475H107.285V63.7465H103.349V45.1219C103.349 43.2751 103.3 41.3797 103.204 39.4357H106.665L106.885 42.1735H106.959C108.271 40.1107 110.263 39.0811 112.937 39.0811C115.026 39.0811 116.771 39.8857 118.167 41.4967C119.566 43.1095 120.264 45.2299 120.264 47.8597ZM116.254 48.0001C116.254 46.3189 115.866 44.9329 115.087 43.8421C114.236 42.7045 113.093 42.1357 111.661 42.1357C110.69 42.1357 109.807 42.4525 109.019 43.0771C108.229 43.7071 107.712 44.5297 107.47 45.5485C107.348 46.0237 107.287 46.4125 107.287 46.7185V49.5985C107.287 50.8549 107.682 51.9151 108.473 52.7809C109.263 53.6467 110.289 54.0787 111.552 54.0787C113.034 54.0787 114.188 53.5207 115.013 52.4083C115.841 51.2941 116.254 49.8253 116.254 48.0001Z" fill="white"/>
<path d="M140.64 47.8597C140.64 50.7973 139.826 53.1193 138.196 54.8239C136.739 56.3413 134.928 57.0991 132.766 57.0991C130.433 57.0991 128.756 56.2819 127.737 54.6475H127.664V63.7465H123.728V45.1219C123.728 43.2751 123.678 41.3797 123.582 39.4357H127.043L127.263 42.1735H127.337C128.648 40.1107 130.64 39.0811 133.315 39.0811C135.403 39.0811 137.147 39.8857 138.547 41.4967C139.941 43.1095 140.64 45.2299 140.64 47.8597ZM136.63 48.0001C136.63 46.3189 136.241 44.9329 135.462 43.8421C134.611 42.7045 133.472 42.1357 132.037 42.1357C131.064 42.1357 130.184 42.4525 129.393 43.0771C128.603 43.7071 128.088 44.5297 127.846 45.5485C127.726 46.0237 127.664 46.4125 127.664 46.7185V49.5985C127.664 50.8549 128.059 51.9151 128.845 52.7809C129.635 53.6449 130.662 54.0787 131.928 54.0787C133.411 54.0787 134.565 53.5207 135.39 52.4083C136.217 51.2941 136.63 49.8253 136.63 48.0001Z" fill="white"/>
<path d="M163.421 49.9901C163.421 52.0277 162.696 53.6855 161.239 54.9653C159.639 56.3639 157.41 57.0623 154.547 57.0623C151.903 57.0623 149.784 56.5655 148.18 55.5701L149.092 52.3715C150.82 53.3903 152.716 53.9015 154.781 53.9015C156.264 53.9015 157.418 53.5739 158.247 52.9223C159.072 52.2707 159.484 51.3959 159.484 50.3051C159.484 49.3331 159.144 48.5141 158.463 47.8499C157.785 47.1857 156.653 46.5683 155.073 45.9977C150.772 44.4335 148.623 42.1421 148.623 39.1289C148.623 37.1597 149.376 35.5451 150.884 34.2887C152.387 33.0305 154.392 32.4023 156.899 32.4023C159.135 32.4023 160.992 32.7821 162.474 33.5399L161.49 36.6683C160.106 35.9339 158.54 35.5667 156.788 35.5667C155.404 35.5667 154.322 35.8997 153.546 36.5621C152.891 37.1543 152.562 37.8761 152.562 38.7311C152.562 39.6779 152.937 40.4609 153.69 41.0765C154.346 41.6453 155.537 42.2609 157.265 42.9251C159.378 43.7549 160.931 44.7251 161.93 45.8375C162.925 46.9463 163.421 48.3341 163.421 49.9901Z" fill="white"/>
<path d="M176.435 42.3147H172.097V50.7009C172.097 52.8339 172.861 53.8995 174.393 53.8995C175.097 53.8995 175.68 53.8401 176.142 53.7213L176.25 56.6355C175.475 56.9181 174.454 57.0603 173.19 57.0603C171.635 57.0603 170.42 56.5977 169.543 55.6743C168.67 54.7491 168.231 53.1975 168.231 51.0177V42.3111H165.646V39.4311H168.231V36.2685L172.097 35.1309V39.4311H176.435V42.3147Z" fill="white"/>
<path d="M196.01 47.929C196.01 50.584 195.231 52.7638 193.676 54.4684C192.046 56.2234 189.882 57.0982 187.185 57.0982C184.586 57.0982 182.516 56.2576 180.973 54.5764C179.429 52.8952 178.658 50.773 178.658 48.2152C178.658 45.5386 179.452 43.3462 181.045 41.6416C182.634 39.9352 184.78 39.082 187.477 39.082C190.076 39.082 192.168 39.9226 193.746 41.6056C195.256 43.2382 196.01 45.346 196.01 47.929ZM191.926 48.0532C191.926 46.4602 191.577 45.094 190.87 43.9546C190.045 42.5758 188.865 41.8882 187.336 41.8882C185.754 41.8882 184.552 42.5776 183.727 43.9546C183.02 45.0958 182.671 46.4836 182.671 48.1252C182.671 49.7182 183.02 51.0844 183.727 52.222C184.578 53.6008 185.767 54.2884 187.301 54.2884C188.804 54.2884 189.984 53.5864 190.835 52.186C191.56 51.025 191.926 49.6444 191.926 48.0532Z" fill="white"/>
<path d="M208.804 42.8107C208.414 42.7405 207.999 42.7045 207.563 42.7045C206.178 42.7045 205.108 43.2139 204.354 44.2345C203.699 45.1345 203.37 46.2721 203.37 47.6455V56.7085H199.436L199.473 44.8753C199.473 42.8845 199.423 41.0719 199.326 39.4375H202.754L202.898 42.7423H203.007C203.422 41.6065 204.078 40.6921 204.975 40.0063C205.852 39.3889 206.799 39.0811 207.82 39.0811C208.183 39.0811 208.512 39.1063 208.804 39.1513V42.8107Z" fill="white"/>
<path d="M226.407 47.2541C226.407 47.9417 226.361 48.5212 226.263 48.9946H214.455C214.501 50.701 215.071 52.006 216.168 52.906C217.163 53.7106 218.45 54.1138 220.03 54.1138C221.778 54.1138 223.374 53.842 224.808 53.2966L225.425 55.9606C223.748 56.6735 221.769 57.028 219.486 57.028C216.738 57.028 214.582 56.2396 213.013 54.6646C211.447 53.0896 210.663 50.9746 210.663 48.3214C210.663 45.7168 211.392 43.5479 212.852 41.8181C214.381 39.9713 216.447 39.0479 219.046 39.0479C221.599 39.0479 223.532 39.9713 224.845 41.8181C225.884 43.2851 226.407 45.0995 226.407 47.2541ZM222.654 46.2586C222.679 45.121 222.423 44.1382 221.889 43.3084C221.208 42.241 220.161 41.7082 218.753 41.7082C217.466 41.7082 216.419 42.2285 215.62 43.2725C214.964 44.1023 214.575 45.0976 214.455 46.2568H222.654V46.2586Z" fill="white"/>
<path d="M91.442 18.0166C91.442 20.1352 90.7903 21.73 89.4887 22.801C88.2832 23.7892 86.57 24.2842 84.3509 24.2842C83.2506 24.2842 82.309 24.2374 81.5207 24.1438V12.568C82.549 12.406 83.6567 12.3232 84.853 12.3232C86.9669 12.3232 88.5601 12.7714 89.6346 13.6678C90.8383 14.6812 91.442 16.1302 91.442 18.0166ZM89.402 18.0688C89.402 16.6954 89.029 15.6424 88.2832 14.908C87.5373 14.1754 86.4481 13.8082 85.0137 13.8082C84.4044 13.8082 83.8856 13.8478 83.4555 13.9306V22.7308C83.6936 22.7668 84.1293 22.783 84.7626 22.783C86.2432 22.783 87.386 22.3816 88.1909 21.5788C88.9958 20.776 89.402 19.606 89.402 18.0688Z" fill="white"/>
<path d="M102.259 19.8667C102.259 21.1717 101.876 22.2409 101.112 23.0797C100.311 23.9419 99.2493 24.3721 97.9237 24.3721C96.6462 24.3721 95.629 23.9599 94.8702 23.1319C94.1133 22.3057 93.7348 21.2635 93.7348 20.0071C93.7348 18.6931 94.1243 17.6149 94.9071 16.7779C95.6899 15.9409 96.7422 15.5215 98.0677 15.5215C99.3453 15.5215 100.372 15.9337 101.149 16.7599C101.887 17.5627 102.259 18.5995 102.259 19.8667ZM100.252 19.9279C100.252 19.1449 100.078 18.4735 99.733 17.9137C99.3268 17.2369 98.749 16.8985 97.9976 16.8985C97.2204 16.8985 96.6296 17.2369 96.2234 17.9137C95.8763 18.4735 95.7047 19.1557 95.7047 19.9621C95.7047 20.7451 95.8782 21.4165 96.2234 21.9763C96.6425 22.6531 97.2259 22.9915 97.9791 22.9915C98.7176 22.9915 99.2973 22.6477 99.7145 21.9583C100.073 21.3877 100.252 20.7109 100.252 19.9279Z" fill="white"/>
<path d="M116.762 15.6943L114.039 24.1795H112.267L111.139 20.4949C110.853 19.5751 110.62 18.6607 110.439 17.7535H110.404C110.236 18.6859 110.003 19.5985 109.704 20.4949L108.506 24.1795H106.714L104.153 15.6943H106.141L107.125 19.7281C107.363 20.6821 107.559 21.5911 107.716 22.4515H107.751C107.895 21.7423 108.133 20.8387 108.469 19.7461L109.704 15.6961H111.281L112.464 19.6597C112.75 20.6263 112.983 21.5569 113.162 22.4533H113.216C113.347 21.5803 113.544 20.6497 113.806 19.6597L114.862 15.6961H116.762V15.6943Z" fill="white"/>
<path d="M126.792 24.179H124.857V19.319C124.857 17.8214 124.274 17.0726 123.104 17.0726C122.529 17.0726 122.066 17.2778 121.706 17.69C121.35 18.1022 121.169 18.5882 121.169 19.1444V24.1772H119.234V18.1184C119.234 17.3732 119.21 16.565 119.164 15.6902H120.864L120.955 17.0168H121.008C121.233 16.6046 121.569 16.2644 122.011 15.9926C122.535 15.6758 123.122 15.5156 123.765 15.5156C124.577 15.5156 125.253 15.7712 125.79 16.2842C126.458 16.9124 126.792 17.8502 126.792 19.0958V24.179Z" fill="white"/>
<path d="M132.127 24.1794H130.195V11.8008H132.127V24.1794Z" fill="white"/>
<path d="M143.518 19.8667C143.518 21.1717 143.136 22.2409 142.372 23.0797C141.571 23.9419 140.507 24.3721 139.184 24.3721C137.904 24.3721 136.887 23.9599 136.13 23.1319C135.373 22.3057 134.995 21.2635 134.995 20.0071C134.995 18.6931 135.384 17.6149 136.167 16.7779C136.95 15.9409 138.002 15.5215 139.326 15.5215C140.605 15.5215 141.63 15.9337 142.409 16.7599C143.147 17.5627 143.518 18.5995 143.518 19.8667ZM141.51 19.9279C141.51 19.1449 141.336 18.4735 140.991 17.9137C140.587 17.2369 140.007 16.8985 139.257 16.8985C138.478 16.8985 137.888 17.2369 137.483 17.9137C137.136 18.4735 136.965 19.1557 136.965 19.9621C136.965 20.7451 137.138 21.4165 137.483 21.9763C137.902 22.6531 138.486 22.9915 139.239 22.9915C139.978 22.9915 140.555 22.6477 140.973 21.9583C141.333 21.3877 141.51 20.7109 141.51 19.9279Z" fill="white"/>
<path d="M152.882 24.1795H151.145L151.001 23.2021H150.947C150.353 23.9815 149.505 24.3721 148.405 24.3721C147.583 24.3721 146.919 24.1147 146.419 23.6035C145.964 23.1391 145.737 22.5613 145.737 21.8755C145.737 20.8387 146.18 20.0485 147.072 19.5013C147.962 18.9541 149.214 18.6859 150.825 18.6985V18.5401C150.825 17.4223 150.223 16.8643 149.018 16.8643C148.159 16.8643 147.403 17.0749 146.749 17.4925L146.356 16.2541C147.164 15.7663 148.163 15.5215 149.341 15.5215C151.615 15.5215 152.756 16.6915 152.756 19.0315V22.1563C152.756 23.0041 152.799 23.6791 152.882 24.1795ZM150.873 21.2635V19.9549C148.739 19.9189 147.672 20.4895 147.672 21.6649C147.672 22.1077 147.794 22.4389 148.043 22.6603C148.292 22.8817 148.61 22.9915 148.988 22.9915C149.413 22.9915 149.81 22.8601 150.172 22.5991C150.535 22.3363 150.759 22.0033 150.842 21.5947C150.862 21.5029 150.873 21.3913 150.873 21.2635Z" fill="white"/>
<path d="M163.876 24.1794H162.159L162.069 22.8168H162.015C161.467 23.8536 160.533 24.372 159.22 24.372C158.171 24.372 157.298 23.9706 156.606 23.1678C155.913 22.365 155.568 21.3228 155.568 20.043C155.568 18.6696 155.943 17.5572 156.696 16.7076C157.425 15.9156 158.319 15.5196 159.382 15.5196C160.551 15.5196 161.369 15.903 161.834 16.6716H161.871V11.8008H163.808V21.8934C163.808 22.7196 163.83 23.481 163.876 24.1794ZM161.871 20.601V19.1862C161.871 18.9414 161.853 18.7434 161.817 18.5922C161.709 18.1386 161.474 17.757 161.118 17.4492C160.758 17.1414 160.324 16.9866 159.824 16.9866C159.102 16.9866 158.537 17.2656 158.121 17.8254C157.71 18.3852 157.501 19.0998 157.501 19.9728C157.501 20.8116 157.699 21.492 158.096 22.0158C158.515 22.5738 159.08 22.8528 159.787 22.8528C160.422 22.8528 160.929 22.6206 161.315 22.1544C161.688 21.7242 161.871 21.2058 161.871 20.601Z" fill="white"/>
<path d="M180.423 19.8667C180.423 21.1717 180.041 22.2409 179.277 23.0797C178.475 23.9419 177.416 24.3721 176.088 24.3721C174.813 24.3721 173.795 23.9599 173.035 23.1319C172.278 22.3057 171.899 21.2635 171.899 20.0071C171.899 18.6931 172.289 17.6149 173.072 16.7779C173.854 15.9409 174.907 15.5215 176.234 15.5215C177.51 15.5215 178.538 15.9337 179.313 16.7599C180.052 17.5627 180.423 18.5995 180.423 19.8667ZM178.418 19.9279C178.418 19.1449 178.245 18.4735 177.899 17.9137C177.491 17.2369 176.915 16.8985 176.162 16.8985C175.387 16.8985 174.796 17.2369 174.388 17.9137C174.041 18.4735 173.869 19.1557 173.869 19.9621C173.869 20.7451 174.043 21.4165 174.388 21.9763C174.807 22.6531 175.39 22.9915 176.144 22.9915C176.882 22.9915 177.464 22.6477 177.881 21.9583C178.237 21.3877 178.418 20.7109 178.418 19.9279Z" fill="white"/>
<path d="M190.826 24.179H188.893V19.319C188.893 17.8214 188.31 17.0726 187.137 17.0726C186.563 17.0726 186.1 17.2778 185.742 17.69C185.383 18.1022 185.204 18.5882 185.204 19.1444V24.1772H183.268V18.1184C183.268 17.3732 183.246 16.565 183.199 15.6902H184.898L184.988 17.0168H185.042C185.269 16.6046 185.605 16.2644 186.044 15.9926C186.57 15.6758 187.156 15.5156 187.8 15.5156C188.61 15.5156 189.286 15.7712 189.823 16.2842C190.493 16.9124 190.826 17.8502 190.826 19.0958V24.179Z" fill="white"/>
<path d="M203.847 17.1073H201.717V21.2293C201.717 22.2769 202.095 22.8007 202.845 22.8007C203.192 22.8007 203.48 22.7719 203.707 22.7125L203.757 24.1435C203.374 24.2839 202.872 24.3541 202.254 24.3541C201.49 24.3541 200.895 24.1273 200.465 23.6737C200.033 23.2201 199.819 22.4569 199.819 21.3859V17.1073H198.547V15.6943H199.819V14.1391L201.715 13.5811V15.6925H203.845V17.1073H203.847Z" fill="white"/>
<path d="M214.089 24.1794H212.153V19.3554C212.153 17.8344 211.569 17.073 210.401 17.073C209.504 17.073 208.891 17.514 208.555 18.396C208.497 18.5814 208.464 18.8082 208.464 19.0746V24.1776H206.531V11.8008H208.464V16.9146H208.501C209.11 15.984 209.984 15.5196 211.115 15.5196C211.917 15.5196 212.579 15.7752 213.105 16.2882C213.761 16.9272 214.089 17.8776 214.089 19.134V24.1794Z" fill="white"/>
<path d="M224.655 19.5351C224.655 19.8735 224.629 20.1579 224.583 20.3901H218.78C218.806 21.2289 219.083 21.8679 219.62 22.3107C220.111 22.7067 220.745 22.9047 221.52 22.9047C222.378 22.9047 223.161 22.7715 223.866 22.5033L224.169 23.8137C223.344 24.1629 222.373 24.3375 221.249 24.3375C219.901 24.3375 218.839 23.9505 218.071 23.1765C217.3 22.4025 216.918 21.3639 216.918 20.0607C216.918 18.7809 217.274 17.7153 217.992 16.8657C218.742 15.9585 219.755 15.5049 221.034 15.5049C222.286 15.5049 223.237 15.9585 223.879 16.8657C224.398 17.5857 224.655 18.4767 224.655 19.5351ZM222.809 19.0473C222.823 18.4875 222.696 18.0051 222.434 17.5983C222.098 17.0745 221.586 16.8117 220.894 16.8117C220.263 16.8117 219.748 17.0673 219.354 17.5803C219.033 17.9889 218.843 18.4767 218.78 19.0473H222.809Z" fill="white"/>
</svg>
