<svg width="249" height="72" viewBox="0 0 249 72" fill="none" xmlns="http://www.w3.org/2000/svg">
<path d="M239.67 72H9.21808C4.15044 72 0 67.9478 0 63V9.00001C0 4.05225 4.15044 3.80515e-06 9.21808 3.80515e-06H239.67C244.738 3.80515e-06 248.888 4.05225 248.888 9.00001V63C248.888 67.9478 244.738 72 239.67 72Z" fill="#39B54A"/>
<path d="M239.67 1.44225C243.938 1.44225 247.411 4.833 247.411 9.00001V63C247.411 67.167 243.938 70.5578 239.67 70.5578H9.21808C4.95011 70.5578 1.4772 67.167 1.4772 63V9.00001C1.4772 4.833 4.95011 1.44225 9.21808 1.44225H239.67ZM239.67 3.80515e-06H9.21808C4.15044 3.80515e-06 0 4.05225 0 9.00001V63C0 67.9478 4.15044 72 9.21808 72H239.67C244.738 72 248.888 67.9478 248.888 63V9.00001C248.888 4.05225 244.738 3.80515e-06 239.67 3.80515e-06Z" fill="#A6A6A6"/>
<path d="M87.4195 18.4382C87.4195 19.9412 86.9586 21.1449 86.0507 22.0427C85.0067 23.1069 83.647 23.6424 81.9809 23.6424C80.3884 23.6424 79.0288 23.0979 77.9134 22.0247C76.7957 20.9357 76.238 19.5992 76.238 17.9994C76.238 16.3997 76.7957 15.0632 77.9134 13.9832C79.0288 12.9009 80.3884 12.3564 81.9809 12.3564C82.7736 12.3564 83.5295 12.5162 84.2508 12.8132C84.9698 13.1124 85.5552 13.5174 85.9792 14.0169L85.0159 14.9664C84.2762 14.1137 83.2691 13.6929 81.9809 13.6929C80.8194 13.6929 79.8123 14.0889 78.9573 14.8877C78.1116 15.6887 77.6875 16.7259 77.6875 17.9994C77.6875 19.2729 78.1116 20.3192 78.9573 21.1202C79.8123 21.9099 80.8194 22.3149 81.9809 22.3149C83.2138 22.3149 84.2508 21.9099 85.0689 21.1112C85.6082 20.5824 85.9147 19.8534 85.9953 18.9219H81.9809V17.6214H87.3366C87.4011 17.9027 87.4195 18.1749 87.4195 18.4382Z" fill="white" stroke="white" stroke-width="0.16" stroke-miterlimit="10"/>
<path d="M95.9165 13.9297H90.8857V17.3497H95.421V18.6502H90.8857V22.0702H95.9165V23.3955H89.4615V12.6045H95.9165V13.9297Z" fill="white" stroke="white" stroke-width="0.16" stroke-miterlimit="10"/>
<path d="M101.913 23.3955H100.488V13.9297H97.4027V12.6045H105.001V13.9297H101.913V23.3955Z" fill="white" stroke="white" stroke-width="0.16" stroke-miterlimit="10"/>
<path d="M110.499 23.3955V12.6045H111.921V23.3955H110.499Z" fill="white" stroke="white" stroke-width="0.16" stroke-miterlimit="10"/>
<path d="M118.224 23.3955H116.811V13.9297H113.714V12.6045H121.321V13.9297H118.224V23.3955Z" fill="white" stroke="white" stroke-width="0.16" stroke-miterlimit="10"/>
<path d="M135.706 22.0067C134.616 23.0979 133.266 23.6424 131.655 23.6424C130.035 23.6424 128.685 23.0979 127.594 22.0067C126.507 20.9177 125.965 19.5812 125.965 17.9994C125.965 16.4177 126.507 15.0812 127.594 13.9922C128.685 12.9009 130.035 12.3564 131.655 12.3564C133.257 12.3564 134.607 12.9009 135.697 14.0012C136.794 15.0992 137.336 16.4267 137.336 17.9994C137.336 19.5812 136.794 20.9177 135.706 22.0067ZM128.648 21.1022C129.468 21.9099 130.466 22.3149 131.655 22.3149C132.835 22.3149 133.842 21.9099 134.653 21.1022C135.471 20.2944 135.886 19.2572 135.886 17.9994C135.886 16.7417 135.471 15.7044 134.653 14.8967C133.842 14.0889 132.835 13.6839 131.655 13.6839C130.466 13.6839 129.468 14.0889 128.648 14.8967C127.83 15.7044 127.415 16.7417 127.415 17.9994C127.415 19.2572 127.83 20.2944 128.648 21.1022Z" fill="white" stroke="white" stroke-width="0.16" stroke-miterlimit="10"/>
<path d="M139.334 23.3955V12.6045H141.062L146.436 20.997H146.498L146.436 18.9225V12.6045H147.858V23.3955H146.374L140.746 14.589H140.684L140.746 16.6725V23.3955H139.334Z" fill="white" stroke="white" stroke-width="0.16" stroke-miterlimit="10"/>
<path d="M125.615 39.1549C121.285 39.1549 117.747 42.3723 117.747 46.8116C117.747 51.2148 121.285 54.4661 125.615 54.4661C129.954 54.4661 133.492 51.2148 133.492 46.8116C133.492 42.3723 129.954 39.1549 125.615 39.1549ZM125.615 51.4511C123.239 51.4511 121.195 49.5363 121.195 46.8116C121.195 44.0508 123.239 42.1698 125.615 42.1698C127.991 42.1698 130.044 44.0508 130.044 46.8116C130.044 49.5363 127.991 51.4511 125.615 51.4511ZM108.448 39.1549C104.109 39.1549 100.581 42.3723 100.581 46.8116C100.581 51.2148 104.109 54.4661 108.448 54.4661C112.785 54.4661 116.316 51.2148 116.316 46.8116C116.316 42.3723 112.785 39.1549 108.448 39.1549ZM108.448 51.4511C106.07 51.4511 104.019 49.5363 104.019 46.8116C104.019 44.0508 106.07 42.1698 108.448 42.1698C110.824 42.1698 112.868 44.0508 112.868 46.8116C112.868 49.5363 110.824 51.4511 108.448 51.4511ZM88.0211 41.5016V44.7551H95.9786C95.7459 46.5731 95.1236 47.9096 94.1696 48.8411C93.0081 49.9661 91.1991 51.2148 88.0211 51.2148C83.124 51.2148 79.2893 47.3561 79.2893 42.5749C79.2893 37.7936 83.124 33.9349 88.0211 33.9349C90.669 33.9349 92.5956 34.9451 94.0175 36.2546L96.3658 33.9619C94.377 32.1079 91.7314 30.6836 88.0211 30.6836C81.3058 30.6836 75.662 36.0184 75.662 42.5749C75.662 49.1313 81.3058 54.4661 88.0211 54.4661C91.6507 54.4661 94.377 53.3051 96.5202 51.1271C98.7164 48.9828 99.4008 45.9678 99.4008 43.5333C99.4008 42.7773 99.3363 42.0821 99.2211 41.5016H88.0211ZM171.551 44.0238C170.903 42.3116 168.905 39.1549 164.835 39.1549C160.802 39.1549 157.445 42.2576 157.445 46.8116C157.445 51.1001 160.768 54.4661 165.223 54.4661C168.824 54.4661 170.903 52.3218 171.758 51.0731L169.085 49.3338C168.193 50.6073 166.979 51.4511 165.223 51.4511C163.478 51.4511 162.227 50.6703 161.425 49.1313L171.913 44.8946L171.551 44.0238ZM160.858 46.5731C160.768 43.6211 163.206 42.1091 164.953 42.1091C166.322 42.1091 167.483 42.7773 167.87 43.7336L160.858 46.5731ZM152.333 54.0003H155.781V31.5004H152.333V54.0003ZM146.687 40.8603H146.572C145.798 39.9648 144.321 39.1549 142.449 39.1549C138.522 39.1549 134.932 42.5208 134.932 46.8363C134.932 51.1271 138.522 54.4661 142.449 54.4661C144.321 54.4661 145.798 53.6493 146.572 52.7268H146.687V53.8248C146.687 56.7521 145.086 58.3248 142.502 58.3248C140.396 58.3248 139.089 56.8398 138.55 55.5911L135.552 56.8128C136.416 58.8423 138.704 61.3398 142.502 61.3398C146.544 61.3398 149.955 59.0178 149.955 53.3681V39.6206H146.687V40.8603ZM142.744 51.4511C140.368 51.4511 138.379 49.5093 138.379 46.8363C138.379 44.1386 140.368 42.1698 142.744 42.1698C145.086 42.1698 146.932 44.1386 146.932 46.8363C146.932 49.5093 145.086 51.4511 142.744 51.4511ZM187.692 31.5004H179.446V54.0003H182.884V45.4751H187.692C191.51 45.4751 195.255 42.7773 195.255 38.4866C195.255 34.1981 191.501 31.5004 187.692 31.5004ZM187.781 42.3453H182.884V34.6301H187.781C190.349 34.6301 191.814 36.7113 191.814 38.4866C191.814 40.2281 190.349 42.3453 187.781 42.3453ZM209.036 39.1121C206.552 39.1121 203.968 40.1831 202.906 42.5568L205.957 43.8056C206.614 42.5568 207.822 42.1518 209.098 42.1518C210.882 42.1518 212.691 43.1981 212.719 45.0453V45.2816C212.096 44.9306 210.764 44.4109 209.126 44.4109C205.84 44.4109 202.491 46.1771 202.491 49.4733C202.491 52.4883 205.183 54.4301 208.209 54.4301C210.522 54.4301 211.799 53.4108 212.601 52.2251H212.719V53.9643H216.039V45.3333C216.039 41.3441 212.988 39.1121 209.036 39.1121ZM208.621 51.4421C207.497 51.4421 205.93 50.8976 205.93 49.5363C205.93 47.7948 207.884 47.1266 209.575 47.1266C211.089 47.1266 211.799 47.4528 212.719 47.8826C212.449 49.9661 210.612 51.4421 208.621 51.4421ZM228.138 39.6048L224.186 49.3586H224.068L219.983 39.6048H216.275L222.414 53.2353L218.911 60.8201H222.504L231.964 39.6048H228.138ZM197.145 54.0003H200.592V31.5004H197.145V54.0003Z" fill="white"/>
<path d="M19.238 13.5695C18.6964 14.123 18.383 14.9848 18.383 16.1008V55.9078C18.383 57.0238 18.6964 57.8855 19.238 58.439L19.3716 58.5605L42.2186 36.263V35.7365L19.3716 13.439L19.238 13.5695Z" fill="url(#paint0_linear_606_121)"/>
<path d="M49.8262 43.6992L42.2189 36.263V35.7365L49.8354 28.3002L50.0059 28.397L59.0258 33.4077C61.5999 34.8297 61.5999 37.1697 59.0258 38.6007L50.0059 43.6025L49.8262 43.6992Z" fill="url(#paint1_linear_606_121)"/>
<path d="M50.0059 43.6025L42.2189 35.9997L19.2383 58.439C20.0932 59.3165 21.4875 59.4222 23.073 58.5447L50.0059 43.6025Z" fill="url(#paint2_linear_606_121)"/>
<path d="M50.0059 28.3973L23.073 13.455C21.4875 12.5865 20.0932 12.6923 19.2383 13.5698L42.2189 36L50.0059 28.3973Z" fill="url(#paint3_linear_606_121)"/>
<defs>
<linearGradient id="paint0_linear_606_121" x1="40.1901" y1="56.3223" x2="9.99044" y2="25.3909" gradientUnits="userSpaceOnUse">
<stop stop-color="#00A0FF"/>
<stop offset="0.0066" stop-color="#00A1FF"/>
<stop offset="0.2601" stop-color="#00BEFF"/>
<stop offset="0.5122" stop-color="#00D2FF"/>
<stop offset="0.7604" stop-color="#00DFFF"/>
<stop offset="1" stop-color="#00E3FF"/>
</linearGradient>
<linearGradient id="paint1_linear_606_121" x1="62.3778" y1="35.9972" x2="17.768" y2="35.9972" gradientUnits="userSpaceOnUse">
<stop stop-color="#FFE000"/>
<stop offset="0.4087" stop-color="#FFBD00"/>
<stop offset="0.7754" stop-color="#FFA500"/>
<stop offset="1" stop-color="#FF9C00"/>
</linearGradient>
<linearGradient id="paint2_linear_606_121" x1="45.7716" y1="31.8667" x2="4.81838" y2="-10.0788" gradientUnits="userSpaceOnUse">
<stop stop-color="#FF3A44"/>
<stop offset="1" stop-color="#C31162"/>
</linearGradient>
<linearGradient id="paint3_linear_606_121" x1="13.4535" y1="71.6829" x2="31.741" y2="52.9524" gradientUnits="userSpaceOnUse">
<stop stop-color="#32A071"/>
<stop offset="0.0685" stop-color="#2DA771"/>
<stop offset="0.4762" stop-color="#15CF74"/>
<stop offset="0.8009" stop-color="#06E775"/>
<stop offset="1" stop-color="#00F076"/>
</linearGradient>
</defs>
</svg>
